<?xml version="1.0" standalone="no"?>
<!DOCTYPE svg PUBLIC "-//W3C//DTD SVG 1.1//EN" "http://www.w3.org/Graphics/SVG/1.1/DTD/svg11.dtd" >
<svg>
<metadata>
Created by FontForge 20090914 at Thu Jul 28 15:30:22 2022
 By www-data
Copyright 2011 The Lora Project Authors (https://github.com/cyrealtype/Lora-Cyrillic), with Reserved Font Name "Lora".
</metadata>
<defs>
<font id="Lora-SemiBold" horiz-adv-x="0" >
  <font-face 
    font-family="Lora SemiBold"
    font-weight="600"
    font-stretch="normal"
    units-per-em="1000"
    panose-1="0 0 0 0 0 0 0 0 0 0"
    ascent="800"
    descent="-200"
    x-height="499.999"
    cap-height="699.999"
    bbox="-116.004 -276.002 1272 1157"
    underline-thickness="50"
    underline-position="-75"
    unicode-range="U+000D-U+FB02"
  />
<missing-glyph horiz-adv-x="529" 
d="M37 0v500h440v-500h-440zM152 61h210v378h-210v-378z" />
    <glyph glyph-name="fi" unicode="fi" horiz-adv-x="652" 
d="M45 0l0.000976562 53.0039c19.333 0 33.166 4.33301 41.499 13s13.5 20.5 15.5 35.5s3 32.167 3 51.5l-1 278l-76 -1v70h76c2.66699 89.333 23.667 154.5 63 195.5s97.333 61.5 174 61.5c50 0 91.333 -6 124 -18s57 -26.333 73 -43s24 -32 24 -46
s-4.66699 -27.667 -14 -41s-23 -20 -41 -20c-18.667 -0.666992 -33 4.66602 -43 15.999s-15 24 -15 38c0 8.66699 1.33301 16.334 4 23.001c-6 4.66699 -16.5 11 -31.5 19s-36.5 12 -64.5 12c-34.667 0 -61.5 -7.5 -80.5 -22.5s-32.167 -35.167 -39.5 -60.5s-11 -54 -11 -86
v-28h131c26 0 50.5 0.166992 73.5 0.5s42.5 1.16602 58.5 2.49902s26 3.66602 30 6.99902h45v-367c0 -11.333 -0.166992 -24.333 -0.5 -39s-1.5 -29 -3.5 -43c11.333 1.33301 22.833 2.16602 34.5 2.49902s21.834 0.5 30.501 0.5v-64h-243v53
c19.333 0 33.166 4.33301 41.499 13s13.333 20.5 15 35.5s2.5 32.167 2.5 51.5v206c0 12 0.333008 24.667 1 38s1.66699 27.333 3 42l-219 -5l1 -290c0 -11.333 -0.166992 -24.5 -0.5 -39.5s-1.5 -29.5 -3.5 -43.5c11.333 1.33301 23.5 2.16602 36.5 2.49902
s23.5 0.5 31.5 0.5v-64h-246z" />
    <glyph glyph-name="fl" unicode="fl" horiz-adv-x="662" 
d="M104 520c0 82.667 18.001 142.836 54.001 180.503s83.333 56.5 142 56.5c25.333 0 47.666 -1.83301 66.999 -5.5s37.166 -7.33398 53.499 -11.001s32.5 -5.5 48.5 -5.5c12.667 0 23.5 1.66699 32.5 5s17.833 8.33301 26.5 15h46v-612
c0 -11.333 -0.166992 -24.333 -0.5 -39s-1.5 -29 -3.5 -43c10.667 1.33301 22 2.16602 34 2.49902s22 0.5 30 0.5v-64h-242v53c18.667 0 32.167 4.33301 40.5 13s13.5 20.5 15.5 35.5s3 32.167 3 51.5v505c-20.667 12 -41 20.667 -61 26s-42 8 -66 8
c-37.333 0 -63.166 -11.5 -77.499 -34.5s-21.166 -51.167 -20.499 -84.5v-73h119v-64l-119 -3l1 -289c0 -10.667 -0.166992 -23.667 -0.5 -39s-1.5 -30 -3.5 -44c11.333 1.33301 23.5 2.16602 36.5 2.49902s23.5 0.5 31.5 0.5v-64h-246v53
c19.333 0 33.166 4.33301 41.499 13s13.5 20.5 15.5 35.5s3 32.167 3 51.5l-1 278l-76 -1v70h76v20z" />
    <glyph glyph-name=".notdef" horiz-adv-x="529" 
d="M37 0v500h440v-500h-440zM152 61h210v378h-210v-378z" />
    <glyph glyph-name="uni0000" 
 />
    <glyph glyph-name="uni0000" 
 />
    <glyph glyph-name="CR" unicode="&#xd;" horiz-adv-x="263" 
 />
    <glyph glyph-name="space" unicode=" " horiz-adv-x="263" 
 />
    <glyph glyph-name="exclam" unicode="!" horiz-adv-x="261" 
d="M101 219l-37.999 412c-2 20 2.83301 39.167 14.5 57.5s29.167 27.5 52.5 27.5c25.333 0 43.166 -9.16699 53.499 -27.5s14.833 -37.5 13.5 -57.5l-38 -412h-58zM129.001 -16c-18 0 -33.667 7.16699 -47 21.5s-20 31.5 -20 51.5c0 20.667 6.83301 38.167 20.5 52.5
s29.5 21.5 47.5 21.5c19.333 0 35.5 -7.16699 48.5 -21.5s19.5 -31.833 19.5 -52.5c0 -20 -7 -37.167 -21 -51.5s-30 -21.5 -48 -21.5z" />
    <glyph glyph-name="quotedbl" unicode="&#x22;" horiz-adv-x="333" 
d="M200 491l-8 225h91l-9 -225h-74zM57 491l-8 225h91l-9 -225h-74z" />
    <glyph glyph-name="numbersign" unicode="#" horiz-adv-x="857" 
d="M159 -16l43 178h-166l19 79h163l52 209h-168l19 79h166l44 187h90l-43 -187h186l44 187h89l-43 -187h167v-1l-18 -78h-166l-49 -209h167l-19 -79h-164l-41 -178h-95l42 178h-183l-41 -178h-95zM311 241h184l51 209h-186z" />
    <glyph glyph-name="dollar" unicode="$" horiz-adv-x="568" 
d="M257 -154l-0.998047 140.001c-22 2.66699 -44.333 7.83398 -67 15.501s-43.667 17.5 -63 29.5l3 -41h-69v226h55c7.33301 -58 26.666 -101 57.999 -129s71.333 -42 120 -42c36.667 0 65.5 10.333 86.5 31s31.5 46.334 31.5 77.001c0 25.333 -7.33301 46.166 -22 62.499
s-33.667 30.333 -57 42s-48.333 23.5 -75 35.5c-36 16 -69.833 34.333 -101.5 55s-57.167 45.667 -76.5 75s-29 65.333 -29 108c0 18 3.16699 37.5 9.5 58.5s16.833 40.833 31.5 59.5s34.667 34.167 60 46.5s57 19.166 95 20.499v120h81l-1 -127
c16 -3.33301 31.667 -8 47 -14s30 -14.333 44 -25l-3 41h68v-228h-56c-6.66699 53.333 -22.167 95.5 -46.5 126.5s-61.833 46.167 -112.5 45.5c-32.667 0 -58 -9.5 -76 -28.5s-27 -41.5 -27 -67.5c0 -34 12.167 -60.833 36.5 -80.5s62.5 -41.834 114.5 -66.501
c24.667 -11.333 49.5 -23.833 74.5 -37.5s48 -29.5 69 -47.5s37.833 -38.833 50.5 -62.5s19 -51.5 19 -83.5c0 -50.667 -16.333 -94 -49 -130s-80.334 -57.667 -143.001 -65l-1 -140h-78z" />
    <glyph glyph-name="percent" unicode="%" horiz-adv-x="893" 
d="M226 328c-40.667 0 -74.832 9.16895 -102.499 27.502s-48.667 42 -63 71s-21.5 59.833 -21.5 92.5c0 31.333 7.33301 61.833 22 91.5s35.667 54.5 63 74.5s60.666 30.333 99.999 31c41.333 0.666992 75.833 -8.33301 103.5 -27s48.667 -42.5 63 -71.5
s21.5 -58.833 21.5 -89.5c0 -34.667 -8.33301 -67.334 -25 -98.001s-39 -55.334 -67 -74.001s-59.333 -28 -94 -28zM184.002 -16.998l-58 52l568 681l64 -57zM227.002 395.002c19.333 0 34.332 6.16992 44.999 18.5029s18.334 27.666 23.001 45.999s7 36.166 7 53.499
c0 18.667 -2.33301 39 -7 61s-12.5 40.667 -23.5 56s-26.5 23 -46.5 23c-19.333 0 -34.5 -7 -45.5 -21s-18.667 -30.333 -23 -49s-6.5 -35 -6.5 -49c0 -18 2 -37.833 6 -59.5s11.667 -40.334 23 -56.001s27.333 -23.5 48 -23.5zM669.001 -15.9951
c-40.667 0 -74.999 8.99805 -102.999 26.998s-49 41.5 -63 70.5s-21 59.833 -21 92.5c0 32 7.66699 63 23 93s36.833 54.833 64.5 74.5s60.5 29.834 98.5 30.501c40.667 0 74.834 -9.16699 102.501 -27.5s48.5 -42.166 62.5 -71.499s21 -59.333 21 -90
c0 -34 -7.83301 -66 -23.5 -96s-37.334 -54.667 -65.001 -74s-59.834 -29 -96.501 -29zM670.002 49.0029c19.333 0 34.333 6.5 45 19.5s18.167 28.833 22.5 47.5s6.5 35.667 6.5 51c0 18.667 -2.16699 39 -6.5 61s-12 40.667 -23 56s-26.5 23 -46.5 23
c-19.333 0 -34.5 -6.66699 -45.5 -20s-18.833 -29.166 -23.5 -47.499s-7 -35.166 -7 -50.499c0 -18.667 2.33301 -38.834 7 -60.501s12.667 -40.334 24 -56.001s27 -23.5 47 -23.5z" />
    <glyph glyph-name="ampersand" unicode="&#x26;" horiz-adv-x="678" 
d="M264 -16c-38.667 0 -76.1719 6.5 -112.505 19.5s-66.166 33.333 -89.499 61s-35 63.834 -35 108.501c0 44 14.667 83.167 44 117.5s67 60.5 113 78.5c-33.333 36.667 -55.166 69.334 -65.499 98.001s-15.166 57.667 -14.499 87c0 49.333 17.333 88.666 52 117.999
s80.334 44 137.001 44c34.667 0 64.834 -6.83301 90.501 -20.5s45.5 -32 59.5 -55s21 -48.167 21 -75.5c0 -40 -13.833 -76.5 -41.5 -109.5s-63.834 -62.167 -108.501 -87.5l38 -40l62 -62l69 -66c2.66699 9.33301 4.5 18.666 5.5 27.999s1.5 18.333 1.5 27
c0 26 -4.66699 46.167 -14 60.5s-25 22.166 -47 23.499v53h171v-63l-65 3c11.333 -16.667 17.333 -39.334 18 -68.001c0.666992 -36.667 -5.66602 -73 -18.999 -109c4 -3.33301 8.16699 -7.16602 12.5 -11.499s8.83301 -8.5 13.5 -12.5
c27.333 -23.333 51.833 -41.833 73.5 -55.5s38.5 -20.5 50.5 -20.5v-55h-102c-6 0 -18.5 5.33301 -37.5 16s-42.167 27.334 -69.5 50.001c-24 -24.667 -53.667 -44.5 -89 -59.5s-76 -22.5 -122 -22.5zM275.995 412c30 20.667 52.167 45.666 66.5 74.999s21.5 56 21.5 80
c0 26.667 -6.83301 48.667 -20.5 66s-32.167 26 -55.5 26c-22 0 -40.333 -8.66699 -55 -26s-22 -41.666 -22 -72.999c0 -23.333 6.33301 -48.333 19 -75s28 -51 46 -73zM289.995 47.999c30.667 -0.666992 57.5 4.3291 80.5 14.9961s42.833 24.667 59.5 42l-21.5 19.5
l-21.5 19.5l-102 98.5c-27.333 27.667 -51.666 53.834 -72.999 78.501c-16 -11.333 -28.333 -24.666 -37 -39.999s-14.834 -30.666 -18.501 -45.999s-5.5 -28.666 -5.5 -39.999c0 -48.667 13.167 -85.167 39.5 -109.5s59.5 -36.833 99.5 -37.5z" />
    <glyph glyph-name="quotesingle" unicode="'" horiz-adv-x="195" 
d="M58 491l-9 225h97l-9 -225h-79z" />
    <glyph glyph-name="parenleft" unicode="(" horiz-adv-x="299" 
d="M254 760l33 -30.9961c-26 -34 -47.667 -72.833 -65 -116.5s-31.166 -88.334 -41.499 -134.001s-17.666 -89.334 -21.999 -131.001s-6.5 -77.834 -6.5 -108.501s2.16699 -66.334 6.5 -107.001s11.666 -83.167 21.999 -127.5s24.166 -87.666 41.499 -129.999
s39 -80.5 65 -114.5l-33 -31c-24.667 22.667 -50.167 51.5 -76.5 86.5s-50.833 74.833 -73.5 119.5s-41 92.667 -55 144s-21 104.666 -21 159.999s7 109.333 21 162s32.333 102 55 148s47.167 87 73.5 123s51.833 65.333 76.5 88z" />
    <glyph glyph-name="parenright" unicode=")" horiz-adv-x="299" 
d="M46 -271l-33.002 30.9961c25.333 34 46.666 72.833 63.999 116.5s31.166 88.334 41.499 134.001s17.833 89.334 22.5 131.001s7 77.834 7 108.501s-2.33301 66.334 -7 107.001s-12.167 83.167 -22.5 127.5s-24.166 87.666 -41.499 129.999s-38.666 80.5 -63.999 114.5
l32 31c24.667 -22.667 50.334 -51.5 77.001 -86.5s51.167 -74.833 73.5 -119.5s40.5 -92.667 54.5 -144s21 -104.666 21 -159.999s-7 -109.333 -21 -162s-32.167 -102 -54.5 -148s-46.666 -87 -72.999 -123s-51.833 -65.333 -76.5 -88z" />
    <glyph glyph-name="asterisk" unicode="*" horiz-adv-x="529" 
d="M128 298c-16 12.667 -21.8301 27.0029 -17.4971 43.0029s11.833 30.667 22.5 44s24 27.666 40 42.999s35.333 30.666 58 45.999c-28 0.666992 -53 2.33398 -75 5.00098s-41.333 6 -58 10c-16 5.33301 -30.5 13 -43.5 23s-16.167 25 -9.5 45
c6.66699 19.333 18.167 29.333 34.5 30s32.5 -2 48.5 -8s33.667 -14.333 53 -25s40.333 -23.667 63 -39c-8.66699 26 -15 49.833 -19 71.5s-6.66699 41.167 -8 58.5c-0.666992 16 2 31.833 8 47.5s19.333 23.5 40 23.5c20 0 32.833 -7.83301 38.5 -23.5
s8.16699 -31.5 7.5 -47.5c-0.666992 -17.333 -3 -36.833 -7 -58.5s-10.333 -45.5 -19 -71.5c22.667 15.333 43.5 28.333 62.5 39s36.167 19 51.5 25c16.667 6 33.334 8.5 50.001 7.5s28 -10.833 34 -29.5c6.66699 -20 3.66699 -35.167 -9 -45.5
s-27.334 -17.833 -44.001 -22.5c-16.667 -4 -35.834 -7.33301 -57.501 -10s-46.5 -4.33398 -74.5 -5.00098c22 -16 41.167 -31.5 57.5 -46.5s29.833 -29.167 40.5 -42.5c10 -13.333 17.333 -28 22 -44s-1.33301 -30.333 -18 -43c-16.667 -12 -31.834 -13.333 -45.501 -4
s-25.167 20.666 -34.5 33.999c-9.33301 14.667 -18.833 32.167 -28.5 52.5s-18.5 43.5 -26.5 69.5c-9.33301 -26 -18.833 -49.333 -28.5 -70s-18.834 -37.667 -27.501 -51c-9.33301 -14 -20.833 -25.667 -34.5 -35s-29.167 -8 -46.5 4z" />
    <glyph glyph-name="plus" unicode="+" horiz-adv-x="530" 
d="M42 396h189v187h68v-187h189v-69h-189v-190h-68v190h-189v69z" />
    <glyph glyph-name="comma" unicode="," horiz-adv-x="251" 
d="M117 -184l-35.001 25.002c6.66699 9.33301 14.5 22.666 23.5 39.999s16.5 36.5 22.5 57.5s8.33301 41.167 7 60.5c-7.33301 -2.66699 -14.666 -4 -21.999 -4c-16.667 0 -31.167 5.16699 -43.5 15.5s-18.5 25.5 -18.5 45.5c0 19.333 6.16699 35.666 18.5 48.999
s28.5 20 48.5 20c28 0.666992 49.167 -8.83301 63.5 -28.5s21.5 -43.5 21.5 -71.5c0 -30 -7.33301 -64.167 -22 -102.5s-36 -73.833 -64 -106.5z" />
    <glyph glyph-name="hyphen" unicode="-" horiz-adv-x="477" 
d="M56 268v96h364v-92z" />
    <glyph glyph-name="period" unicode="." horiz-adv-x="237" 
d="M119 -16c-19.333 0 -35.5 7.16699 -48.5 21.5s-19.5 31.5 -19.5 51.5c0 20.667 6.83301 38.167 20.5 52.5s29.5 21.5 47.5 21.5c19.333 0 35.333 -7.16699 48 -21.5s19 -31.833 19 -52.5c0 -20 -6.16699 -37.167 -18.5 -51.5s-28.5 -21.5 -48.5 -21.5z" />
    <glyph glyph-name="slash" unicode="/" horiz-adv-x="696" 
d="M95 -271l-71 46l566 982l83 -53z" />
    <glyph glyph-name="zero" unicode="0" horiz-adv-x="631" 
d="M316 -16c-51.333 0 -94.167 10.8311 -128.5 32.498s-61.833 50.334 -82.5 86.001s-35.5 74.834 -44.5 117.501s-13.5 85 -13.5 127s5.5 84.667 16.5 128s27.667 83.166 50 119.499s50.666 65.666 84.999 87.999s74.833 33.5 121.5 33.5c48 0 88.833 -11 122.5 -33
s60.834 -50.833 81.501 -86.5s35.667 -74.834 45 -117.501s14 -85 14 -127c0 -41.333 -5.16699 -83.666 -15.5 -126.999s-26.333 -83.166 -48 -119.499s-49.5 -65.666 -83.5 -87.999s-74 -33.5 -120 -33.5zM321.999 43.998c24.667 0 45.166 7.99902 61.499 23.999
s29.166 37.5 38.499 64.5s16 57.667 20 92s6 69.833 6 106.5c0 40.667 -1.83301 80.334 -5.5 119.001s-10.167 73.5 -19.5 104.5s-22.5 55.833 -39.5 74.5s-38.833 28 -65.5 28c-26 0 -47.667 -8 -65 -24s-31.166 -37.667 -41.499 -65s-17.666 -58.166 -21.999 -92.499
s-6.5 -70.166 -6.5 -107.499c0 -34.667 1.66699 -70.834 5 -108.501s9.83301 -72.834 19.5 -105.501s23.667 -59.167 42 -79.5s42.5 -30.5 72.5 -30.5z" />
    <glyph glyph-name="one" unicode="1" horiz-adv-x="392" 
d="M78 0v54.999c26.667 1.33301 46 8 58 20s18 37.333 18 76l-1 425l-112 -69l-31 49l218 160h51v-570c0 -16.667 -0.166992 -32.5 -0.5 -47.5s-1.16602 -26.833 -2.49902 -35.5c12 0.666992 25.667 1.33398 41 2.00098s27.666 1 36.999 1v-66h-276z" />
    <glyph glyph-name="two" unicode="2" horiz-adv-x="534" 
d="M41 0c0 46.667 8.33203 86.665 24.999 119.998s38 63.5 64 90.5s53 53.5 81 79.5c46.667 44 80 84.167 100 120.5s30 71.833 30 106.5c0 22.667 -3 44.667 -9 66s-16.5 38.833 -31.5 52.5s-36.5 20.5 -64.5 20.5c-20.667 0 -39.334 -5.16699 -56.001 -15.5
s-28.667 -22.5 -36 -36.5c6.66699 -7.33301 11.5 -15.666 14.5 -24.999s4.5 -17.333 4.5 -24c0 -7.33301 -2 -15.666 -6 -24.999s-10.5 -17.333 -19.5 -24s-21.167 -10 -36.5 -10c-18.667 1.33301 -33 8.5 -43 21.5s-15 28.167 -15 45.5c0 14.667 4.66699 30.834 14 48.501
s23.166 34.5 41.499 50.5s40.833 29 67.5 39s57.334 15 92.001 15c36 0 70.667 -6 104 -18s61 -31.5 83 -58.5s33 -63.5 33 -109.5c0 -22.667 -6 -46.834 -18 -72.501s-33.333 -55.167 -64 -88.5s-74 -73 -130 -119c-40 -32.667 -70.667 -62.667 -92 -90
s-33.666 -49.333 -36.999 -66l190 -5c20.667 -0.666992 38.834 0.166016 54.501 2.49902s28 8.33301 37 18s13.5 24.834 13.5 45.501h53l-7 -155h-437z" />
    <glyph glyph-name="three" unicode="3" horiz-adv-x="559" 
d="M253 -16c-49.333 0 -89.8291 7.33594 -121.496 22.0029s-55.167 33.167 -70.5 55.5s-23 44.166 -23 65.499c0 18.667 5.5 34.834 16.5 48.501s25.833 20.5 44.5 20.5c22.667 0.666992 38.167 -5.83301 46.5 -19.5s12.5 -26.167 12.5 -37.5c0 -15.333 -5 -30 -15 -44
c7.33301 -16 20.666 -28 39.999 -36s39.666 -12 60.999 -12c44 0 77.833 12.667 101.5 38s35.5 58.666 35.5 99.999c0 25.333 -4.5 50 -13.5 74s-24.833 43.667 -47.5 59s-55 22.666 -97 21.999c-5.33301 0 -13 -0.333008 -23 -1s-18 -1.33398 -24 -2.00098v63
c6 -0.666992 11.5 -1 16.5 -1h16.5c31.333 0 57.166 6.16699 77.499 18.5s35.666 28.5 45.999 48.5s15.833 41.333 16.5 64c0 36.667 -7.5 66.834 -22.5 90.501s-41.5 35.5 -79.5 35.5c-22 0 -41.333 -5.5 -58 -16.5s-28 -22.833 -34 -35.5
c6 -6.66699 10.167 -14.5 12.5 -23.5s3.5 -16.5 3.5 -22.5c0 -7.33301 -1.83301 -15.5 -5.5 -24.5s-10 -16.833 -19 -23.5s-20.833 -9.66699 -35.5 -9c-18.667 0.666992 -32.834 7.16699 -42.501 19.5s-14.5 27.5 -14.5 45.5c0 19.333 7.66699 40.666 23 63.999
s38.333 43.5 69 60.5s69.334 25.5 116.001 25.5c40 0 76.167 -5.66699 108.5 -17s58.333 -30 78 -56s29.5 -60.333 29.5 -103c0 -18.667 -5 -38.667 -15 -60s-26.333 -41 -49 -59s-53 -32 -91 -42c63.333 -10 111.333 -32.167 144 -66.5s49 -74.5 49 -120.5
c0 -45.333 -11.667 -83.5 -35 -114.5s-54.833 -54.333 -94.5 -70s-84.167 -23.5 -133.5 -23.5z" />
    <glyph glyph-name="four" unicode="4" horiz-adv-x="545" 
d="M413 146c0 -16.667 -0.333008 -32.5 -1 -47.5s-1.66699 -27.167 -3 -36.5c11.333 0.666992 24.5 1.33398 39.5 2.00098s27.167 1 36.5 1v-65h-274v55h6c26.667 0.666992 46.167 7.66699 58.5 21s18.5 39.666 18.5 78.999v30h-282v79l349 452h52v-451h99v-80h-99v-39z
M293 529l-197 -260l198 -2l1 262h-2z" />
    <glyph glyph-name="five" unicode="5" horiz-adv-x="542" 
d="M251 -16c-42.667 0 -79.334 6.99707 -110.001 20.9971s-54 31.667 -70 53s-24 42.333 -24 63c0 18 5.33301 33.833 16 47.5s25.334 20.834 44.001 21.501c22.667 0.666992 38.167 -5.83301 46.5 -19.5s12.5 -26.5 12.5 -38.5c0 -6 -1 -12.667 -3 -20s-4.66699 -14 -8 -20
c2.66699 -10.667 9.33398 -19.5 20.001 -26.5s22.667 -12.333 36 -16s25.666 -5.5 36.999 -5.5c28.667 0.666992 51.834 8.33398 69.501 23.001s30.5 33.5 38.5 56.5s12 46.833 12 71.5c0 16.667 -1.16699 35.167 -3.5 55.5s-7.83301 40.166 -16.5 59.499
s-21.834 35.166 -39.501 47.499s-41.834 18.5 -72.501 18.5c-14.667 0 -33.667 -2.66699 -57 -8s-45.666 -14.666 -66.999 -27.999l-38 31l-3 329h259c28 0 49 4.33301 63 13s21 26 21 52h51l-7 -152l-320 -6v-192c15.333 6 34.833 11.667 58.5 17s47.167 8 70.5 8
c54.667 0 99.667 -10.667 135 -32s61.333 -49.166 78 -83.499s25 -70.833 25 -109.5c0 -50.667 -12 -93.167 -36 -127.5s-55.5 -60.166 -94.5 -77.499s-80.167 -26 -123.5 -26z" />
    <glyph glyph-name="six" unicode="6" horiz-adv-x="576" 
d="M290 -16c-60 0 -107.497 13.834 -142.497 41.501s-60.167 67 -75.5 118s-23 111.167 -23 180.5c0 23.333 2.33301 51.666 7 84.999s12.667 67.833 24 103.5s27.333 68.834 48 99.501s46.834 55.667 78.501 75s70.5 29 116.5 29c41.333 0 75.166 -7 101.499 -21
s46 -31.167 59 -51.5s19.5 -40.166 19.5 -59.499c0 -16.667 -4.83301 -31.5 -14.5 -44.5s-23.5 -19.5 -41.5 -19.5c-22.667 -0.666992 -38.167 5.5 -46.5 18.5s-12.5 25.5 -12.5 37.5c0 5.33301 1 12.166 3 20.499s5.33301 15.833 10 22.5
c-4.66699 9.33301 -13.834 18.166 -27.501 26.499s-30.5 12.166 -50.5 11.499c-29.333 -0.666992 -53.166 -10.667 -71.499 -30s-32.833 -43.5 -43.5 -72.5s-18.334 -59.167 -23.001 -90.5s-7.33398 -60 -8.00098 -86c12.667 15.333 32.167 29.833 58.5 43.5
s54.166 20.834 83.499 21.501c50.667 0.666992 91.5 -9.33301 122.5 -30s53.667 -48.5 68 -83.5s21.5 -73.5 21.5 -115.5c0 -41.333 -10.5 -79.5 -31.5 -114.5s-49.667 -63 -86 -84s-77.5 -31.5 -123.5 -31.5zM294.003 44.001c26 0 46.501 6.99902 61.501 20.999
s25.667 32.167 32 54.5s9.5 45.833 9.5 70.5c0 16.667 -1.16699 35.5 -3.5 56.5s-7 41.167 -14 60.5s-17.333 35.5 -31 48.5s-32.167 19.5 -55.5 19.5c-24.667 0 -47.834 -8.16699 -69.501 -24.5s-36.834 -35.166 -45.501 -56.499c0.666992 -26 3 -53.5 7 -82.5
s10.333 -56.167 19 -81.5s20.334 -46 35.001 -62s33 -24 55 -24z" />
    <glyph glyph-name="seven" unicode="7" horiz-adv-x="466" 
d="M198 -16c-18 0 -30.666 5.5 -37.999 16.5s-11 23.167 -11 36.5s3.5 31 10.5 53s15.5 45.667 25.5 71l30 74l66 159l93 216l-228 1c-24 0 -43.167 -5.5 -57.5 -16.5s-21.5 -30.167 -21.5 -57.5h-50l5 163h424v-83c-23.333 -47.333 -43.333 -93 -60 -137
s-31.667 -88.167 -45 -132.5s-26 -90.333 -38 -138l-39 -154.5c-4 -18 -11.333 -34.5 -22 -49.5s-25.334 -22.167 -44.001 -21.5z" />
    <glyph glyph-name="eight" unicode="8" horiz-adv-x="569" 
d="M281 -16c-24 0 -48.998 2.83496 -74.998 8.50195s-50.167 15.167 -72.5 28.5s-40.666 31 -54.999 53s-21.5 49 -21.5 81c0 27.333 6.66699 53 20 77s30.666 45.833 51.999 65.5s43.666 36.5 66.999 50.5c-46.667 28 -79.5 58.167 -98.5 90.5s-28.5 62.166 -28.5 89.499
c0 32.667 6.66699 60.834 20 84.501s30.833 43.167 52.5 58.5s45.667 26.666 72 33.999s52.166 11 77.499 11c34 0 66.5 -6.33301 97.5 -19s56.167 -31.5 75.5 -56.5s29 -55.5 29 -91.5c0 -24 -6 -46.5 -18 -67.5s-27.5 -40 -46.5 -57s-38.833 -31.5 -59.5 -43.5
c48.667 -29.333 86.667 -61.833 114 -97.5s41 -73.5 41 -113.5c0 -42.667 -11.333 -77.834 -34 -105.501s-52.5 -48 -89.5 -61s-76.833 -19.5 -119.5 -19.5zM314.002 415.002c24 17.333 43.5 37.665 58.5 60.998s22.5 45.333 22.5 66
c1.33301 36.667 -7.5 64.834 -26.5 84.501s-42.833 29.5 -71.5 29.5c-32.667 0.666992 -58.167 -9.33301 -76.5 -30s-27.5 -44.667 -27.5 -72c0 -29.333 11.833 -56.666 35.5 -81.999s52.167 -44.333 85.5 -57zM282.002 44.001
c35.333 -0.666992 63.166 8.99902 83.499 28.999s30.5 45.667 30.5 77c0 28 -10.167 56.667 -30.5 86s-57.5 56.333 -111.5 81c-30 -22.667 -51.833 -48 -65.5 -76s-21.167 -52.333 -22.5 -73c-1.33301 -35.333 8.83398 -64.666 30.501 -87.999s50.167 -35.333 85.5 -36z
" />
    <glyph glyph-name="nine" unicode="9" horiz-adv-x="577" 
d="M256 -16c-44 0 -79.5 6.3291 -106.5 18.9961s-46.5 28.834 -58.5 48.501s-18 39.834 -18 60.501c0 17.333 5.16699 32.833 15.5 46.5s24.833 20.5 43.5 20.5c22 0.666992 37 -5.5 45 -18.5s12 -25.5 12 -37.5c0 -6 -1.16699 -13.167 -3.5 -21.5
s-5.83301 -15.166 -10.5 -20.499c5.33301 -10.667 14.5 -19.667 27.5 -27s30.5 -10.666 52.5 -9.99902c28.667 1.33301 52.5 10.5 71.5 27.5s33.833 39.333 44.5 67s18 57.667 22 90s5.66699 63.833 5 94.5c-12.667 -16 -31.834 -30.833 -57.501 -44.5
s-53.167 -20.834 -82.5 -21.501c-50.667 -1.33301 -91.667 8.66699 -123 30s-54.166 49.5 -68.499 84.5s-21.5 73.167 -21.5 114.5c0 44.667 10 84.167 30 118.5s47.833 61.5 83.5 81.5s77.5 30 125.5 30c60.667 0 108.5 -15 143.5 -45s60.167 -71 75.5 -123
s23 -110.667 23 -176c0 -30 -2 -62.333 -6 -97s-11.5 -69.167 -22.5 -103.5s-26.5 -65.666 -46.5 -93.999s-46 -51 -78 -68s-71 -25.5 -117 -25.5zM283 324.996c24.667 0 47.668 8 69.001 24s36.333 35 45 57c-0.666992 42 -4.5 82.167 -11.5 120.5
s-18.833 69.666 -35.5 93.999s-39.667 36.5 -69 36.5c-22.667 0 -41.667 -7.16699 -57 -21.5s-26.833 -32.666 -34.5 -54.999s-11.5 -46.166 -11.5 -71.499c0 -16 1.16699 -34.5 3.5 -55.5s7.16602 -41.333 14.499 -61s18 -35.834 32 -48.501s32.333 -19 55 -19z" />
    <glyph glyph-name="colon" unicode=":" horiz-adv-x="250" 
d="M125 -16c-19.333 0 -35.5 7.16699 -48.5 21.5s-19.5 31.5 -19.5 51.5c0 20.667 6.83301 38.167 20.5 52.5s29.5 21.5 47.5 21.5c19.333 0 35.333 -7.16699 48 -21.5s19 -31.833 19 -52.5c0 -20 -6.16699 -37.167 -18.5 -51.5s-28.5 -21.5 -48.5 -21.5zM125 387
c-19.333 0 -35.5 7.16699 -48.5 21.5s-19.5 31.5 -19.5 51.5c0 20.667 6.83301 38.167 20.5 52.5s29.5 21.5 47.5 21.5c19.333 0 35.333 -7.16699 48 -21.5s19 -31.833 19 -52.5c0 -20 -6.16699 -37.167 -18.5 -51.5s-28.5 -21.5 -48.5 -21.5z" />
    <glyph glyph-name="semicolon" unicode=";" horiz-adv-x="266" 
d="M122 -184l-35.001 25.002c6.66699 9.33301 14.5 22.666 23.5 39.999s16.5 36.5 22.5 57.5s8.33301 41.167 7 60.5c-7.33301 -2.66699 -14.666 -4 -21.999 -4c-16.667 0 -31.167 5.16699 -43.5 15.5s-18.5 25.5 -18.5 45.5c0 19.333 6.16699 35.666 18.5 48.999
s28.5 20 48.5 20c28 0.666992 49.167 -8.83301 63.5 -28.5s21.5 -43.5 21.5 -71.5c0 -30 -7.33301 -64.167 -22 -102.5s-36 -73.833 -64 -106.5zM134.999 387.002c-19.333 0 -35.5 7.16699 -48.5 21.5s-19.5 31.5 -19.5 51.5c0 20.667 6.83301 38.167 20.5 52.5
s29.5 21.5 47.5 21.5c19.333 0 35.333 -7.16699 48 -21.5s19 -31.833 19 -52.5c0 -20 -6.16699 -37.167 -18.5 -51.5s-28.5 -21.5 -48.5 -21.5z" />
    <glyph glyph-name="less" unicode="&#x3c;" horiz-adv-x="530" 
d="M486 76l-448 196v81l448 200v-88l-339 -150l339 -150v-89z" />
    <glyph glyph-name="equal" unicode="=" horiz-adv-x="530" 
d="M42 484h446v-69h-446v69zM42 315h446v-69h-446v69z" />
    <glyph glyph-name="greater" unicode="&#x3e;" horiz-adv-x="530" 
d="M41 553l448 -196v-81l-448 -200v88l339 150l-339 150v89z" />
    <glyph glyph-name="question" unicode="?" horiz-adv-x="493" 
d="M233 183c-20.667 0 -39.834 5.1709 -57.501 15.5039s-26.5 28.166 -26.5 53.499c0 18 6.5 35.333 19.5 52s34.5 39.667 64.5 69c24 22.667 44.667 46.5 62 71.5s26.333 56.5 27 94.5c0.666992 33.333 -6 61.166 -20 83.499s-40 33.5 -78 33.5
c-20.667 0 -39.167 -4.83301 -55.5 -14.5s-26.833 -19.834 -31.5 -30.501c5.33301 -6 9.33301 -13.333 12 -22s4 -16.667 4 -24s-2.16699 -15.833 -6.5 -25.5s-11 -17.834 -20 -24.501s-20.5 -9.66699 -34.5 -9c-19.333 1.33301 -33.5 8 -42.5 20s-13.5 27 -13.5 45
c0 22 8.66699 44.167 26 66.5s41.5 41 72.5 56s66.833 22.5 107.5 22.5c52.667 0 94.334 -8 125.001 -24s52.5 -36.5 65.5 -61.5s19.167 -51.167 18.5 -78.5c-0.666992 -28 -8.33398 -53.333 -23.001 -76s-32.5 -43.5 -53.5 -62.5s-42 -36.5 -63 -52.5s-38.5 -31 -52.5 -45
s-21 -27.333 -21 -40c0 -8.66699 3.16699 -16 9.5 -22s16.5 -9 30.5 -9c4.66699 0 9.83398 0.333008 15.501 1s11.5 2 17.5 4l14 -46c-14.667 -8 -30.5 -13.5 -47.5 -16.5s-31.833 -4.5 -44.5 -4.5zM242 -15.9961c-17.333 0 -32.668 6.83203 -46.001 20.499
s-20 30.834 -20 51.501c0 19.333 6.66699 36 20 50s29 21 47 21c18.667 0 34.334 -7 47.001 -21s19 -30.667 19 -50c0 -20 -6.66699 -37 -20 -51s-29 -21 -47 -21z" />
    <glyph glyph-name="at" unicode="@" horiz-adv-x="794" 
d="M416 -98c-61.333 -1.33301 -114.997 7.33594 -160.997 26.0029s-84.333 44.5 -115 77.5s-53.667 71.167 -69 114.5s-23 88.666 -23 135.999c0 42.667 7.66699 86 23 130s38.166 84.833 68.499 122.5s68.166 68.167 113.499 91.5s98 35.666 158 36.999
c56.667 0.666992 106.167 -8.16602 148.5 -26.499s77.666 -43.333 105.999 -75s49.5 -67.334 63.5 -107.001s20.667 -79.834 20 -120.501c-0.666992 -44.667 -8 -82.667 -22 -114s-31.5 -56.5 -52.5 -75.5s-43.167 -32.333 -66.5 -40s-45 -10.834 -65 -9.50098
c-30.667 4 -53.334 17.5 -68.001 40.5s-19.334 57.833 -14.001 104.5c-18.667 -50 -40 -85.833 -64 -107.5s-48.333 -32.5 -73 -32.5c-28 0 -52.667 11.333 -74 34s-32 59 -32 109c0 34 5 66.833 15 98.5s24.667 60.167 44 85.5s43.5 45.5 72.5 60.5s62.167 22.5 99.5 22.5
c15.333 0 33.333 -1.5 54 -4.5s41.334 -7.5 62.001 -13.5l-13 -98.5c-4.66699 -35.667 -8.83398 -69.5 -12.501 -101.5s-5.83398 -57.333 -6.50098 -76c-0.666992 -18 1.5 -35 6.5 -51s15.167 -24.667 30.5 -26c18 -1.33301 33.5 3.66699 46.5 15s24 26.333 33 45
s15.667 39.167 20 61.5s6.5 44.166 6.5 65.499c0.666992 67.333 -11 123 -35 167s-56.5 76.5 -97.5 97.5s-87.167 30.833 -138.5 29.5c-42 -1.33301 -80.167 -11.166 -114.5 -29.499s-63.666 -43 -87.999 -74s-43.166 -66.167 -56.499 -105.5s-20 -80.333 -20 -123
c0 -68.667 13.833 -126.167 41.5 -172.5s64 -81.166 109 -104.499s94.167 -35.333 147.5 -36c25.333 0 52.333 3.16699 81 9.5s56.834 17 84.501 32s52.5 34.833 74.5 59.5l23 -26c-35.333 -40 -76.333 -70 -123 -90s-96 -30.667 -148 -32zM347.003 133.002
c14.667 0 29.168 9.83301 43.501 29.5s27.5 45 39.5 76s21.667 64 29 99s11.666 67.833 12.999 98.5c-12 4 -27.333 5.66699 -46 5c-19.333 -1.33301 -36.333 -9 -51 -23s-27 -32 -37 -54s-17.667 -45.833 -23 -71.5s-8 -50.5 -8 -74.5c0 -26.667 3.66699 -47.5 11 -62.5
s17 -22.5 29 -22.5z" />
    <glyph glyph-name="A" unicode="A" horiz-adv-x="654" 
d="M1 0v56.9971c18.667 0 33.667 5.33301 45 16s20.666 24.834 27.999 42.501s15 37.5 23 59.5l199 543h54l217 -553c4 -11.333 9.33301 -27.5 16 -48.5s10.334 -38.833 11.001 -53.5l33 2c10.667 0.666992 20 1 28 1v-66h-255v55c20.667 0 34.667 4.33301 42 13
s10.333 20 9 34s-4.66602 28.333 -9.99902 43l-25 68l-232 -4l-22 -67l-14 -38.5c-5.33301 -14.333 -10.666 -27.166 -15.999 -38.499c11.333 0.666992 24.166 1.33398 38.499 2.00098s26.166 1 35.499 1v-68h-205zM206 272.997h188l-54 147
c-8 22.667 -15.667 45.667 -23 69s-13 44.333 -17 63h-2l-15 -53c-6 -21.333 -13.667 -45.333 -23 -72z" />
    <glyph glyph-name="B" unicode="B" horiz-adv-x="648" 
d="M52 0v55.002c27.333 1.33301 45.833 8.5 55.5 21.5s14.5 39.5 14.5 79.5v395c0 18 0.333008 34.833 1 50.5s1.66699 27.5 3 35.5c-11.333 0 -24.333 -0.333008 -39 -1s-26.334 -1.33398 -35.001 -2.00098v66c42.667 0.666992 85.667 1.16699 129 1.5s87 0.5 131 0.5
c78.667 0 140.834 -14.667 186.501 -44s67.5 -74 65.5 -134c-1.33301 -30.667 -14.333 -59.834 -39 -87.501s-62 -47.167 -112 -58.5v-1c68.667 -7.33301 119.667 -27.833 153 -61.5s50 -72.834 50 -117.501c0 -42.667 -10.333 -78.667 -31 -108
s-49.167 -51.666 -85.5 -66.999s-77.5 -23 -123.5 -23h-324zM248 390.002l59 1.00098c31.333 0.666992 56 7.5 74 20.5s31 30 39 51s12 43.833 12 68.5c-0.666992 29.333 -7 52.166 -19 68.499s-27.333 27.833 -46 34.5s-37.334 9.66699 -56.001 9
c-21.333 0 -37.166 -5.16699 -47.499 -15.5s-15.5 -34.5 -15.5 -72.5v-165zM244 61.0029c16.667 -0.666992 34.334 -0.998047 53.001 -0.998047s34.334 0.333008 47.001 1c44 1.33301 77.5 14.166 100.5 38.499s34.5 57.166 34.5 98.499c0 34 -6.83301 60.667 -20.5 80
s-31.334 33 -53.001 41s-44.834 12 -69.501 12c-18 0 -33.667 -0.166992 -47 -0.5s-27 -0.833008 -41 -1.5v-184c0 -18 -0.333008 -34.5 -1 -49.5s-1.66699 -26.5 -3 -34.5z" />
    <glyph glyph-name="C" unicode="C" horiz-adv-x="692" 
d="M580 476c-8 58 -27.6699 102.168 -59.0029 132.501s-72 45.5 -122 45.5c-47.333 0 -87.5 -13.5 -120.5 -40.5s-58.333 -62.833 -76 -107.5s-26.5 -94 -26.5 -148c0 -59.333 9.5 -111.666 28.5 -156.999s45.667 -81 80 -107s74.5 -39 120.5 -39
c42.667 0 84.667 10.5 126 31.5s76 50.833 104 89.5l41 -37c-31.333 -42.667 -64.666 -75.167 -99.999 -97.5s-69.833 -37.5 -103.5 -45.5s-64.167 -12 -91.5 -12c-51.333 0 -98 9.16699 -140 27.5s-78 43.666 -108 75.999s-53.167 70 -69.5 113s-24.5 89.5 -24.5 139.5
c0 46 7.16699 91.167 21.5 135.5s36 84.666 65 120.999s65.333 65.333 109 87s94.834 32.5 153.501 32.5c29.333 0 59.833 -4.5 91.5 -13.5s61.834 -22.167 90.501 -39.5l-4 46h69v-233h-55z" />
    <glyph glyph-name="D" unicode="D" horiz-adv-x="754" 
d="M52 55c27.333 1.33301 45.834 8.5 55.501 21.5s14.5 38.833 14.5 77.5v399c0 16.667 0.333008 32.667 1 48s1.66699 27.333 3 36c-11.333 0 -24.333 -0.333008 -39 -1s-26.334 -1.33398 -35.001 -2.00098v66l272 1c86 0.666992 158 -14.666 216 -45.999
s101.833 -73.333 131.5 -126s44.5 -111 44.5 -175c0 -42 -7.5 -84 -22.5 -126s-38.167 -80.167 -69.5 -114.5s-71.333 -61.833 -120 -82.5s-106.667 -31 -174 -31h-278v55zM248.001 149c0 -18 -0.333008 -34.8311 -1 -50.498s-1.66699 -27.5 -3 -35.5
c15.333 0 33.333 -0.333008 54 -1s35.667 -1 45 -1c51.333 0 94.5 13.167 129.5 39.5s61.333 60.833 79 103.5s26.5 88.667 26.5 138c0 99.333 -22.333 174.166 -67 224.499s-108.667 76.166 -192 77.499c-28.667 0.666992 -47.667 -5.83301 -57 -19.5s-14 -39.5 -14 -77.5
v-398z" />
    <glyph glyph-name="E" unicode="E" horiz-adv-x="623" 
d="M394 247c0 28.667 -4.16797 49.1699 -12.501 61.5029s-20.333 20 -36 23s-34.5 4.16699 -56.5 3.5l-41 -2v-185c0 -18 -0.333008 -34.5 -1 -49.5s-1.66699 -26.833 -3 -35.5l153 1c22.667 0 43.834 4.5 63.501 13.5s35.5 24.333 47.5 46s18 51.167 18 88.5h55l-5 -212
h-524v55c27.333 1.33301 45.833 8.5 55.5 21.5s14.5 38.833 14.5 77.5v399c0 16.667 0.333008 32.667 1 48s1.66699 27.333 3 36c-11.333 0 -24.333 -0.333008 -39 -1s-26.334 -1.33398 -35.001 -2.00098v66h493l6 -188h-55c0 37.333 -6.16699 65.666 -18.5 84.999
s-28.166 32.333 -47.499 39s-39.333 9.66699 -60 9l-52 -1c-26.667 -0.666992 -45 -7.33398 -55 -20.001s-15 -38.667 -15 -78v-153l140 -1l-5 87h66v-232h-55z" />
    <glyph glyph-name="F" unicode="F" horiz-adv-x="563" 
d="M52 0l0.00195312 55c27.333 1.33301 45.833 8.5 55.5 21.5s14.5 38.833 14.5 77.5v399c0 16.667 0.333008 32.667 1 48s1.66699 27.333 3 36c-11.333 0 -24.333 -0.333008 -39 -1s-26.334 -1.33398 -35.001 -2.00098v66h488l5 -188h-55
c0 37.333 -6.33301 65.666 -19 84.999s-28.667 32.333 -48 39s-39 9.66699 -59 9l-49 -1c-26 -0.666992 -43.667 -8 -53 -22s-14 -39.667 -14 -77v-174h126l-5 86h66v-232h-54c0 28.667 -4.33301 49.334 -13 62.001s-20.834 20.5 -36.501 23.5s-34.167 3.83301 -55.5 2.5
l-28 -1v-163c0 -18 -0.333008 -34.833 -1 -50.5s-1.66699 -27.5 -3 -35.5c12.667 0.666992 28.667 1.33398 48 2.00098s34.333 1 45 1v-66h-285z" />
    <glyph glyph-name="G" unicode="G" horiz-adv-x="756" 
d="M380 -16c-70.667 0 -131.502 15.165 -182.502 45.498s-90 72.333 -117 126s-40.5 114.5 -40.5 182.5c0 46 7.16699 91.5 21.5 136.5s35.833 85.667 64.5 122s64.834 65.333 108.501 87s94.5 32.5 152.5 32.5c29.333 0 62.5 -4.5 99.5 -13.5s69.167 -21.5 96.5 -37.5
l-4 44h70v-232h-55c-8 58 -30 102 -66 132s-79.333 45.333 -130 46c-46.667 0 -86.5 -13.667 -119.5 -41s-58.333 -63.5 -76 -108.5s-26.5 -93.833 -26.5 -146.5c0 -58.667 9.16699 -111.167 27.5 -157.5s44.5 -82.666 78.5 -108.999s75 -39.5 123 -39.5
c21.333 0 46.666 2.83301 75.999 8.5s54.333 14.167 75 25.5v103c0 17.333 0.333008 34.333 1 51s1.33398 30.334 2.00098 41.001c-11.333 -0.666992 -24.333 -1.16699 -39 -1.5s-26.334 -0.833008 -35.001 -1.5v66h253v-55c-27.333 -0.666992 -45.666 -9.66699 -54.999 -27
s-14 -41 -14 -71v-157h-25c-16.667 0 -34.5 -2.5 -53.5 -7.5s-39.833 -11.167 -62.5 -18.5c-20.667 -6.66699 -43.667 -12.5 -69 -17.5s-51.666 -7.5 -78.999 -7.5z" />
    <glyph glyph-name="H" unicode="H" horiz-adv-x="798" 
d="M52 0v55c27.333 1.33301 45.833 8.5 55.5 21.5s14.5 38.833 14.5 77.5v399c0 16.667 0.333008 32.667 1 48s1.66699 27.333 3 36c-11.333 0 -24.333 -0.333008 -39 -1s-26.334 -1.33398 -35.001 -2.00098v66h266v-55c-27.333 -1.33301 -45.833 -8.5 -55.5 -21.5
s-14.5 -38.833 -14.5 -77.5v-159h302v166c0 16.667 0.333008 32.667 1 48s1.66699 27.333 3 36c-11.333 0 -24.333 -0.333008 -39 -1s-26.334 -1.33398 -35.001 -2.00098v66h266v-55c-27.333 -1.33301 -45.833 -8.5 -55.5 -21.5s-14.5 -38.833 -14.5 -77.5v-397
c0 -18 -0.333008 -34.833 -1 -50.5s-1.66699 -27.5 -3 -35.5c11.333 0.666992 24.333 1.33398 39 2.00098s26.334 1 35.001 1v-66h-266v55c27.333 1.33301 45.833 8.5 55.5 21.5s14.5 38.833 14.5 77.5v169l-302 -4v-170c0 -18 -0.333008 -34.833 -1 -50.5
s-1.66699 -27.5 -3 -35.5c11.333 0.666992 24.333 1.33398 39 2.00098s26.334 1 35.001 1v-66h-266z" />
    <glyph glyph-name="I" unicode="I" horiz-adv-x="370" 
d="M318 645c-27.333 -1.33301 -45.833 -8.5 -55.5 -21.5s-14.5 -38.833 -14.5 -77.5v-397c0 -18 -0.333008 -34.833 -1 -50.5s-1.66699 -27.5 -3 -35.5c11.333 0.666992 24.333 1.33398 39 2.00098s26.334 1 35.001 1v-66h-266v55c27.333 1.33301 45.833 8.5 55.5 21.5
s14.5 38.833 14.5 77.5v399c0 16.667 0.333008 32.667 1 48s1.66699 27.333 3 36c-11.333 0 -24.333 -0.333008 -39 -1s-26.334 -1.33398 -35.001 -2.00098v66h266v-55z" />
    <glyph glyph-name="J" unicode="J" horiz-adv-x="425" 
d="M131 -16c-36 0 -66.833 8.83594 -92.5 26.5029s-38.5 40.5 -38.5 68.5c0 18.667 5.16699 35.167 15.5 49.5s25.166 22.166 44.499 23.499c22.667 1.33301 38.667 -4.33398 48 -17.001s14.333 -26.334 15 -41.001c0.666992 -10.667 -1.66602 -21.334 -6.99902 -32.001
c3.33301 -6.66699 8.66602 -11.167 15.999 -13.5s13 -3.16602 17 -2.49902c16 0 28.167 7 36.5 21s12.5 37 12.5 69v412c0 16.667 0.333008 33 1 49s1.33398 29.333 2.00098 40c-12.667 0 -27.167 -0.333008 -43.5 -1s-29.833 -1.33398 -40.5 -2.00098v66h280v-55
c-26 -0.666992 -44.667 -7 -56 -19s-17 -36 -17 -72v-303c0 -95.333 -16.167 -163.666 -48.5 -204.999s-80.5 -62 -144.5 -62z" />
    <glyph glyph-name="K" unicode="K" horiz-adv-x="702" 
d="M52 0l-0.000976562 54.999c27.333 1.33301 45.833 8.5 55.5 21.5s14.5 38.833 14.5 77.5v399c0 16.667 0.333008 32.667 1 48s1.66699 27.333 3 36c-11.333 0 -24.333 -0.333008 -39 -1s-26.334 -1.33398 -35.001 -2.00098v66h266v-55
c-27.333 -1.33301 -45.833 -8.5 -55.5 -21.5s-14.5 -38.833 -14.5 -77.5v-156h73l93 153c10 18 21.333 36.167 34 54.5s24.334 31.833 35.001 40.5c-10.667 -0.666992 -21.834 -1.16699 -33.501 -1.5s-21.5 -0.833008 -29.5 -1.5v65h235v-55
c-19.333 -1.33301 -38.166 -4.66602 -56.499 -9.99902s-37 -15.833 -56 -31.5s-38.167 -39.5 -57.5 -71.5l-97 -155c15.333 -9.33301 28.5 -19.833 39.5 -31.5s21.167 -23.5 30.5 -35.5l106 -147c26 -35.333 49.667 -62 71 -80s43 -27.333 65 -28v-55h-143
c-6 0 -14.833 5.5 -26.5 16.5s-24.167 24.167 -37.5 39.5s-25 30.333 -35 45l-106 150l-32.5 41c-11 14 -21.5 24.667 -31.5 32l-40 -1v-174c0 -18 -0.333008 -34.833 -1 -50.5s-1.66699 -27.5 -3 -35.5c11.333 0.666992 24.333 1.33398 39 2.00098s26.334 1 35.001 1v-66
h-266z" />
    <glyph glyph-name="L" unicode="L" horiz-adv-x="595" 
d="M52 0l0.000976562 55c27.333 1.33301 45.833 8.5 55.5 21.5s14.5 38.833 14.5 77.5v399c0 16.667 0.333008 32.667 1 48s1.66699 27.333 3 36c-11.333 0 -24.333 -0.333008 -39 -1s-26.334 -1.33398 -35.001 -2.00098v66h266v-55
c-27.333 -1.33301 -45.833 -8.5 -55.5 -21.5s-14.5 -38.833 -14.5 -77.5v-398c0 -18 -0.333008 -34.5 -1 -49.5s-1.66699 -26.833 -3 -35.5l152 1c40 0.666992 71 14.334 93 41.001s33 68 33 124h56l-6 -229h-520z" />
    <glyph glyph-name="M" unicode="M" horiz-adv-x="954" 
d="M416 -10l-74.4961 175.994l-74.5 177c-10 23.333 -21.833 54.333 -35.5 93s-26.5 79.667 -38.5 123c0.666992 -27.333 1.16699 -53.166 1.5 -77.499s0.5 -47.833 0.5 -70.5c-0.666992 -36 -1.5 -77.667 -2.5 -125s-1.5 -92.333 -1.5 -135l-2 -49.5
c-0.666992 -16.333 -1.66699 -29.166 -3 -38.499c11.333 0.666992 24.5 1.33398 39.5 2.00098s27.167 1 36.5 1v-66h-216v55c25.333 0.666992 43.166 6.83398 53.499 18.501s15.833 35.167 16.5 70.5l11 407c0 16 0.333008 31.833 1 47.5s1.33398 28.5 2.00098 38.5
c-10.667 0 -23.5 -0.333008 -38.5 -1s-26.833 -1.33398 -35.5 -2.00098v66h199l158 -390l33 -85.5l30 -80.5h1c8.66699 21.333 17 43.5 25 66.5s16 44.5 24 64.5l81.5 211.5l83.5 213.5h203v-55c-15.333 0 -28.5 -2.33301 -39.5 -7s-19.333 -13.667 -25 -27
s-7.83398 -33.333 -6.50098 -60l19 -407c0.666992 -16 0.666992 -31.333 0 -46s-1.33398 -26.334 -2.00098 -35.001c11.333 0.666992 24.5 1.33398 39.5 2.00098s26.833 1 35.5 1v-66h-260v55c25.333 1.33301 43.666 8 54.999 20s16 38 14 78l-12 251
c-0.666992 8.66699 -1.33398 21.334 -2.00098 38.001s-1.5 34.834 -2.5 54.501s-1.83301 37.834 -2.5 54.501l-6 -14l-6 -14l-205 -533h-72z" />
    <glyph glyph-name="N" unicode="N" horiz-adv-x="769" 
d="M589 -12l-347 451l-23.5 32l-24.5 34h-1l2 -349c0 -38 -1 -69 -3 -93c11.333 0.666992 24.333 1.33398 39 2.00098s26.334 1 35.001 1v-66h-213v55c25.333 0.666992 43.166 6.83398 53.499 18.501s15.5 33.5 15.5 65.5l-1 416c0 16 0.333008 31.333 1 46
s1.33398 26.667 2.00098 36c-10.667 0 -23.334 -0.333008 -38.001 -1s-26.334 -1.33398 -35.001 -2.00098v66h144l329 -425l36.5 -47.5c10.333 -13.667 19.5 -26.5 27.5 -38.5h1v364c0 16.667 0.333008 32.667 1 48s1.33398 27.333 2.00098 36
c-10.667 0 -23.5 -0.333008 -38.5 -1s-26.833 -1.33398 -35.5 -2.00098v66h214v-55c-28 -1.33301 -46.667 -8.5 -56 -21.5s-14 -38.833 -14 -77.5l-1 -558h-72z" />
    <glyph glyph-name="O" unicode="O" horiz-adv-x="777" 
d="M389 -16c-63.333 0 -117.168 10.668 -161.501 32.001s-80.5 49.833 -108.5 85.5s-48.333 75.167 -61 118.5s-19 86.666 -19 129.999c0 42 7.16699 84.5 21.5 127.5s35.833 82.5 64.5 118.5s65 65 109 87s95.667 33 155 33c60.667 0 113 -11 157 -33
s80.333 -51.167 109 -87.5s49.834 -75.833 63.501 -118.5s20.5 -85 20.5 -127c0 -41.333 -7.16699 -83.5 -21.5 -126.5s-35.833 -82.5 -64.5 -118.5s-65 -65.167 -109 -87.5s-95.667 -33.5 -155 -33.5zM396.998 46.001c36.667 0.666992 68.001 9.50098 94.001 26.501
s47 39.667 63 68s27.833 59.166 35.5 92.499s11.5 66.333 11.5 99c0 59.333 -8.16699 113.5 -24.5 162.5s-41 88 -74 117s-74.167 43.167 -123.5 42.5c-36.667 -0.666992 -67.834 -9.83398 -93.501 -27.501s-46.667 -40.667 -63 -69s-28.166 -59.5 -35.499 -93.5
s-11 -67.333 -11 -100c0 -33.333 4 -68.333 12 -105s20.667 -71.167 38 -103.5s40.166 -58.666 68.499 -78.999s62.5 -30.5 102.5 -30.5z" />
    <glyph glyph-name="P" unicode="P" horiz-adv-x="628" 
d="M52 55c27.333 1.33301 45.834 8.50293 55.501 21.5029s14.5 38.833 14.5 77.5v399c0 16.667 0.333008 32.667 1 48s1.66699 27.333 3 36c-11.333 0 -24.333 -0.333008 -39 -1s-26.334 -1.33398 -35.001 -2.00098v66c43.333 0.666992 86.833 1.16699 130.5 1.5
s87.834 0.5 132.501 0.5c91.333 0 163 -17.5 215 -52.5s78 -89.5 78 -163.5c0 -26.667 -5.5 -53.334 -16.5 -80.001s-28.333 -51.167 -52 -73.5s-54.667 -40.333 -93 -54s-84.5 -21.167 -138.5 -22.5c-22.667 -0.666992 -42.667 -0.333984 -60 0.999023v-107
c0 -18.667 -0.333008 -35.834 -1 -51.501s-1.66699 -27.5 -3 -35.5c12 0.666992 27.167 1.33398 45.5 2.00098s32.166 1 41.499 1v-66h-279v55zM248.001 320.003l25 -2.00098c8 -0.666992 16.667 -1 26 -1c56 0 98.833 14.667 128.5 44s44.5 71 44.5 125
c0 43.333 -8 76.333 -24 99s-36.167 37.834 -60.5 45.501s-48.833 11.5 -73.5 11.5c-26 0 -43.5 -6.5 -52.5 -19.5s-13.5 -37.167 -13.5 -72.5v-230z" />
    <glyph glyph-name="Q" unicode="Q" horiz-adv-x="779" 
d="M752 -218c-28.667 0 -52.0029 0.999023 -70.0029 2.99902s-34.5 6.83301 -49.5 14.5s-32.167 20.167 -51.5 37.5c-28.667 25.333 -53.167 49.166 -73.5 71.499s-40.166 40.5 -59.499 54.5s-41.666 21 -66.999 21c-62 0.666992 -114.667 11.834 -158 33.501
s-78.5 50.167 -105.5 85.5s-46.833 74.666 -59.5 117.999s-19 86.333 -19 129c0 42 7.16699 84.5 21.5 127.5s36 82.5 65 118.5s65.5 65 109.5 87s95.333 33 154 33c61.333 0 114 -11 158 -33s80.167 -51.167 108.5 -87.5s49.333 -75.833 63 -118.5s20.5 -85 20.5 -127
c0 -34.667 -4.83301 -69.667 -14.5 -105s-24.5 -69.166 -44.5 -101.499s-45 -61 -75 -86s-65 -43.833 -105 -56.5c18.667 0 35.334 -1.33301 50.001 -4s29.5 -8.16699 44.5 -16.5s31.5 -21.166 49.5 -38.499l71 -65.5c16 -15 29.167 -25.167 39.5 -30.5s22.5 -8 36.5 -8v-56
h-39zM396.997 45.999c36.667 0.666992 68.001 9.50098 94.001 26.501s47.167 39.667 63.5 68s28.166 59.166 35.499 92.499s11 66.333 11 99c0 59.333 -8.16699 113.5 -24.5 162.5s-40.833 88 -73.5 117s-73.667 43.167 -123 42.5
c-36.667 -0.666992 -68 -9.83398 -94 -27.501s-47 -40.667 -63 -69s-27.667 -59.5 -35 -93.5s-11 -67.333 -11 -100c0 -33.333 4 -68.333 12 -105s20.667 -71.167 38 -103.5s40 -58.666 68 -78.999s62 -30.5 102 -30.5z" />
    <glyph glyph-name="R" unicode="R" horiz-adv-x="667" 
d="M52 0v55.002c27.333 1.33301 45.833 8.5 55.5 21.5s14.5 38.833 14.5 77.5v399c0 16.667 0.333008 32.667 1 48s1.66699 27.333 3 36c-11.333 0 -24.333 -0.333008 -39 -1s-26.334 -1.33398 -35.001 -2.00098v66c44 0.666992 88.167 1.16699 132.5 1.5
s88.5 0.5 132.5 0.5c91.333 -0.666992 161.5 -16.834 210.5 -48.501s72.833 -83.167 71.5 -154.5c-0.666992 -28 -7 -54.833 -19 -80.5s-31.167 -48.5 -57.5 -68.5s-60.833 -35.667 -103.5 -47c12.667 -6.66699 24.834 -16.334 36.501 -29.001s22.5 -26.667 32.5 -42l54 -83
c20 -31.333 37.833 -54.666 53.5 -69.999s36.167 -23.333 61.5 -24v-55h-152c-14 11.333 -27.167 25.333 -39.5 42s-25.166 36 -38.499 58l-72 115l-24.5 39c-7.66699 12 -16.167 22.667 -25.5 32c-10.667 -0.666992 -20.334 -1 -29.001 -1s-18 0.333008 -28 1v-136
c0 -18.667 -0.333008 -35.834 -1 -51.501s-1.66699 -27.5 -3 -35.5c11.333 0.666992 25.5 1.33398 42.5 2.00098s29.833 1 38.5 1v-66h-273zM300 346.002c55.333 0.666992 96.833 13.332 124.5 37.999s41.5 63.334 41.5 116.001c0 40 -7.83301 70.167 -23.5 90.5
s-35 34 -58 41s-46.167 10.5 -69.5 10.5c-26 0 -43.667 -6.5 -53 -19.5s-14 -37.167 -14 -72.5v-201l25 -2c8.66699 -0.666992 17.667 -1 27 -1z" />
    <glyph glyph-name="S" unicode="S" horiz-adv-x="588" 
d="M452 480c-6.66699 53.333 -24.833 95.834 -54.5 127.501s-69.834 47.5 -120.501 47.5c-32.667 0 -59.834 -9.33301 -81.501 -28s-32.5 -41.667 -32.5 -69c0 -34.667 14.5 -62.5 43.5 -83.5s69.167 -42.167 120.5 -63.5c25.333 -10.667 51 -22.5 77 -35.5
s50 -28.333 72 -46s39.833 -38.667 53.5 -63s20.5 -52.5 20.5 -84.5c0 -38.667 -10.167 -72.834 -30.5 -102.501s-49.166 -53 -86.499 -70s-81.333 -25.5 -132 -25.5c-27.333 0 -56.833 4.16699 -88.5 12.5s-60.5 20.833 -86.5 37.5l3 -43h-68l-2 227h57
c6.66699 -56.667 27.5 -99.5 62.5 -128.5s76.833 -43.5 125.5 -43.5c36.667 0 67.167 9.83301 91.5 29.5s36.5 44.5 36.5 74.5c0 26 -8 47.333 -24 64s-36.5 31 -61.5 43l-76.5 35c-40 16.667 -76.833 35.167 -110.5 55.5s-60.5 45 -80.5 74s-30 65.167 -30 108.5
c0 19.333 3.66699 39.833 11 61.5s19.333 42 36 61s39.5 34.333 68.5 46s64.833 17.5 107.5 17.5c26.667 0 55.834 -3.83301 87.501 -11.5s59.5 -20.167 83.5 -37.5l-4 42h69v-229h-56z" />
    <glyph glyph-name="T" unicode="T" horiz-adv-x="647" 
d="M571 479c-0.666992 110.667 -42.332 165.332 -124.999 163.999h-61v-494c0 -18 -0.333008 -34.833 -1 -50.5s-1.66699 -27.5 -3 -35.5c12 0.666992 26.167 1.33398 42.5 2.00098s29.166 1 38.499 1v-66h-273v55c28 1.33301 46.667 8.5 56 21.5s14 38.833 14 77.5l1 488
h-65c-39.333 0 -69.333 -13.167 -90 -39.5s-31 -67.5 -31 -123.5h-56l5 221h599l6 -221h-57z" />
    <glyph glyph-name="U" unicode="U" horiz-adv-x="757" 
d="M294 645c-26 -0.666992 -44.1631 -6.99902 -54.4961 -18.999s-15.5 -33.667 -15.5 -65v-268c0 -80 14.833 -139.667 44.5 -179s73.167 -59.333 130.5 -60c60.667 -1.33301 106.667 18 138 58s47 97.667 47 173l1 268c0 16.667 0.333008 32.667 1 48s1.66699 27.333 3 36
c-11.333 0 -24.333 -0.333008 -39 -1s-26.334 -1.33398 -35.001 -2.00098v66h216v-55c-27.333 -1.33301 -45.833 -8.5 -55.5 -21.5s-14.5 -38.833 -14.5 -77.5l-1 -244c0 -105.333 -24.333 -184.666 -73 -237.999s-116.334 -80 -203.001 -80
c-74 0 -131.833 13.5 -173.5 40.5s-70.834 65 -87.501 114s-25 106.167 -25 171.5v229c0 17.333 0.333008 35.5 1 54.5s1.66699 33.5 3 43.5c-11.333 0 -24.333 -0.333008 -39 -1s-26.334 -1.33398 -35.001 -2.00098v66h266v-55z" />
    <glyph glyph-name="V" unicode="V" horiz-adv-x="690" 
d="M321 -7l-229 535.004c-10 22 -17.833 42.5 -23.5 61.5s-8.83398 34.833 -9.50098 47.5c-10.667 -0.666992 -20.5 -1.16699 -29.5 -1.5s-17.5 -0.833008 -25.5 -1.5v66h274v-55c-28 -0.666992 -47.333 -7.83398 -58 -21.501s-10 -35.834 2 -66.501l46.5 -113l46.5 -115
l35.5 -85l29.5 -75h2c6.66699 21.333 14.167 43.666 22.5 66.999l25.5 73l49 135l39 108c4 13.333 9.33301 28.5 16 45.5s13.667 30.167 21 39.5c-12 0 -25.5 -0.333008 -40.5 -1s-27.167 -1.33398 -36.5 -2.00098v66h218v-55c-25.333 -1.33301 -46.166 -9.5 -62.499 -24.5
s-31.5 -41.5 -45.5 -79.5l-36 -97.5l-42 -112.5l-53.5 -144.5l-71.5 -193.5h-64z" />
    <glyph glyph-name="W" unicode="W" horiz-adv-x="1009" 
d="M277 -7l-178.999 536c-8 24.667 -14.333 45.667 -19 63s-7.66699 32.333 -9 45c-11.333 -0.666992 -21.833 -1.16699 -31.5 -1.5s-18.834 -0.833008 -27.501 -1.5v66h278v-55c-30 0 -50.167 -6 -60.5 -18s-10.5 -34.667 -0.5 -68c10 -40 20.667 -78.667 32 -116l33 -114
l20.5 -70.5c6.33301 -21.667 13.166 -48.5 20.499 -80.5h2l11 41c4.66699 17.333 9.83398 35.333 15.501 54s10.667 35.834 15 51.501l9.5 34.5l58.5 185.5l48.5 156.5h70l38 -121.5l42 -130.5l38 -119l22 -77c7.33301 -26 14.333 -52.333 21 -79h2l18.5 65l20.5 70
c12 37.333 22 70 30 98l22 76.5l19 68.5c4 14 9.16699 28.833 15.5 44.5s13.833 29.167 22.5 40.5c-12 -0.666992 -25.667 -1.16699 -41 -1.5s-27.666 -0.833008 -36.999 -1.5v66h218v-55c-18 -1.33301 -33.333 -5.5 -46 -12.5s-24.334 -19 -35.001 -36
s-21 -41.167 -31 -72.5l-84.5 -266.5l-84.5 -264.5h-69l-130 383c-8 23.333 -14.667 46 -20 68s-11 43.333 -17 64c-4 -20.667 -8.5 -40.834 -13.5 -60.501s-10.5 -39.5 -16.5 -59.5l-124 -395h-67z" />
    <glyph glyph-name="X" unicode="X" horiz-adv-x="682" 
d="M27 0l0.00195312 55.002c23.333 5.33301 44.666 17 63.999 35s41 43.333 65 76l120 166l-89.5 118l-73.5 97c-12 15.333 -21.833 30.666 -29.5 45.999s-14.167 30 -19.5 44c-10 -0.666992 -19.167 -1.16699 -27.5 -1.5s-16.5 -0.833008 -24.5 -1.5v66h289v-55l-21 -1
c-22 0 -36.5 -3.5 -43.5 -10.5s-8.83301 -15.833 -5.5 -26.5s9.66602 -22.334 18.999 -35.001l47 -63.5l54 -71.5l83 116c14.667 20.667 27.334 37.834 38.001 51.501s21 24.5 31 32.5c-12 0 -25.667 -0.333008 -41 -1s-27.666 -1.33398 -36.999 -2.00098v66h217v-55
c-26 -3.33301 -50.833 -15.833 -74.5 -37.5s-47.834 -49.834 -72.501 -84.501l-101 -140l96.5 -126l87.5 -112l32 -42.5c10 -13.667 18.333 -26.834 25 -39.501c10.667 1.33301 19.167 2.16602 25.5 2.49902s13.5 0.5 21.5 0.5v-66h-281v55c24.667 0 41 3.16699 49 9.5
s10.167 14.833 6.5 25.5s-10.167 22.334 -19.5 35.001l-54.5 69.5l-62.5 80.5l-46 -64.5l-46 -64.5l-33.5 -47c-9 -12.667 -19.167 -25 -30.5 -37c12 0.666992 25.167 1.33398 39.5 2.00098s26.166 1.33398 35.499 2.00098v-66h-212z" />
    <glyph glyph-name="Y" unicode="Y" horiz-adv-x="656" 
d="M207 0v54.999c27.333 1.33301 45.833 8.5 55.5 21.5s14.5 38.833 14.5 77.5v96l-180 286c-12 18.667 -22 37.167 -30 55.5s-12.667 33.5 -14 45.5c-10.667 -0.666992 -20 -1.16699 -28 -1.5s-16.333 -0.833008 -25 -1.5v66h283v-55
c-34.667 1.33301 -57.167 -5.66699 -67.5 -21s-6.83301 -37.666 10.5 -66.999l77 -125l26 -44l29 -51h1c4.66699 10 10.834 22.5 18.501 37.5l27.5 54.5l63 122c4.66699 10 12 24.167 22 42.5s19.667 33.166 29 44.499c-11.333 -1.33301 -24.833 -2.16602 -40.5 -2.49902
s-28.167 -0.833008 -37.5 -1.5v66h216v-55c-26.667 -2.66699 -49 -12.834 -67 -30.501s-37.333 -45.5 -58 -83.5l-65.5 -124.5l-63.5 -121.5v-48v-51v-37c0 -18 -0.333008 -34.833 -1 -50.5s-1.66699 -27.5 -3 -35.5c12 0.666992 26.167 1.33398 42.5 2.00098
s29.166 1 38.499 1v-66h-273z" />
    <glyph glyph-name="Z" unicode="Z" horiz-adv-x="606" 
d="M41 0l-0.000976562 64.998l147.5 220.5l170.5 259.5c11.333 18 22.333 34.667 33 50s22.334 30.333 35.001 45l-199 3c-38 0 -68.167 -11.833 -90.5 -35.5s-33.5 -63.167 -33.5 -118.5h-56l6 211h505v-62l-312 -472c-14 -21.333 -27.333 -40.666 -40 -57.999
s-26 -33.666 -40 -48.999l203 -1c39.333 -0.666992 71.833 11 97.5 35s38.5 63.333 38.5 118h55l-6 -211h-514z" />
    <glyph glyph-name="bracketleft" unicode="[" horiz-adv-x="377" 
d="M68 -255l1 1010h301v-67l-190 -3l-5 -870l197 -3v-67h-304z" />
    <glyph glyph-name="backslash" unicode="\" horiz-adv-x="696" 
d="M601 -271l-577 975l82 53l567 -982z" />
    <glyph glyph-name="bracketright" unicode="]" horiz-adv-x="377" 
d="M309 755l-1 -1010h-301v67l190 3l5 870l-197 3v67h304z" />
    <glyph glyph-name="asciicircum" unicode="^" horiz-adv-x="823" 
d="M642 437l-234 219l-233 -215h-115l308 275h89l306 -279h-121z" />
    <glyph glyph-name="underscore" unicode="_" horiz-adv-x="798" 
d="M91 -140v90l615 -4v-86h-615z" />
    <glyph glyph-name="grave" unicode="`" horiz-adv-x="272" 
d="M188 570l-118 106.001c-15.333 14.667 -23.666 30.5 -24.999 47.5s4 31.167 16 42.5c11.333 8.66699 25.166 11.667 41.499 9s30.5 -13.334 42.5 -32.001l83 -138z" />
    <glyph glyph-name="a" unicode="a" horiz-adv-x="521" 
d="M329 0c-2 10 -3.16699 18.498 -3.5 25.498s-0.833008 15.167 -1.5 24.5c-23.333 -23.333 -47.666 -40.166 -72.999 -50.499s-51.666 -15.5 -78.999 -15.5c-45.333 0 -80.166 12.333 -104.499 37s-36.5 55 -36.5 91c0 31.333 8.66699 58.333 26 81s40 41.334 68 56.001
s59 25.5 93 32.5s67.667 11.167 101 12.5v55c0 19.333 -2.16699 37.166 -6.5 53.499s-12.166 29.333 -23.499 39s-28 14.5 -50 14.5c-15.333 -0.666992 -30.333 -3.83398 -45 -9.50098s-26.334 -14.5 -35.001 -26.5c5.33301 -6 8.66602 -12.5 9.99902 -19.5
s2 -13.167 2 -18.5c0 -12 -4.66699 -24.333 -14 -37s-24.333 -19 -45 -19c-18 0.666992 -31.833 7 -41.5 19s-14.5 26.333 -14.5 43c0 25.333 9.16699 47.5 27.5 66.5s43.166 34 74.499 45s66.333 16.5 105 16.5c57.333 0 101.333 -15.167 132 -45.5
s45.667 -78.166 45 -143.499c0 -35.333 -0.166992 -66.166 -0.5 -92.499s-0.5 -56.833 -0.5 -91.5c0 -10 -0.166992 -22.5 -0.5 -37.5s-1.5 -29.833 -3.5 -44.5c25.333 2 47.666 3.33301 66.999 4v-65h-173zM318 234.998c-26.667 -2 -52.334 -6.99902 -77.001 -14.999
s-44.834 -19.667 -60.501 -35s-23.167 -34.333 -22.5 -57c0.666992 -20.667 7.33398 -35.834 20.001 -45.501s27.334 -14.5 44.001 -14.5c18.667 0 36 4 52 12s30.667 18.667 44 32v21v22v35v45z" />
    <glyph glyph-name="b" unicode="b" horiz-adv-x="576" 
d="M67 585c0 11.333 0.168945 23.833 0.501953 37.5s1.16602 27.834 2.49902 42.501c-10.667 -0.666992 -22.834 -1.33398 -36.501 -2.00098s-24.834 -1.33398 -33.501 -2.00098v65c46 0 79.833 3.16699 101.5 9.5s35.834 12.833 42.501 19.5h46v-295
c21.333 20 44 34.333 68 43s48 13 72 13c41.333 0 77.833 -10.333 109.5 -31s56.5 -50 74.5 -88s27 -82.667 27 -134c0 -54.667 -10.667 -103 -32 -145s-50.666 -74.833 -87.999 -98.5s-80.333 -35.5 -129 -35.5c-19.333 0 -42.833 3.83301 -70.5 11.5
s-52.834 23.834 -75.501 48.501l-28 -44h-51v585zM190.002 152c0 -26.667 4.33301 -47.666 13 -62.999s19.667 -26.166 33 -32.499s27.333 -9.83301 42 -10.5c30.667 -0.666992 55.667 8.16602 75 26.499s33.333 42.5 42 72.5s13 63 13 99c0 35.333 -4.33301 68 -13 98
s-22.167 53.833 -40.5 71.5s-41.833 26.5 -70.5 26.5c-18 -0.666992 -35.333 -5.33398 -52 -14.001s-30.667 -20 -42 -34v-240z" />
    <glyph glyph-name="c" unicode="c" horiz-adv-x="523" 
d="M281 -16c-45.333 0 -86.6631 9.99512 -123.996 29.9951s-67.166 49.167 -89.499 87.5s-33.5 84.5 -33.5 138.5c0 48.667 11 94 33 136s52.667 75.833 92 101.5s84.666 38.5 135.999 38.5c40.667 0 75 -6.33301 103 -19s49.333 -29 64 -49s22 -41.333 22 -64
c0 -18 -5.16699 -33.667 -15.5 -47s-25.166 -20.333 -44.499 -21c-22.667 -0.666992 -38.5 5.83301 -47.5 19.5s-13.5 26.5 -13.5 38.5c0 6.66699 1 13.834 3 21.501s5.33301 14.834 10 21.501c-4.66699 12 -12.334 20.833 -23.001 26.5s-21.667 9.33398 -33 11.001
s-20.333 2.5 -27 2.5c-36.667 -1.33301 -67 -18.166 -91 -50.499s-36 -78.833 -36 -139.5c0 -36.667 5.16699 -70.5 15.5 -101.5s26.166 -56 47.499 -75s48.666 -28.833 81.999 -29.5c29.333 -0.666992 57.666 6.5 84.999 21.5s49.666 34.5 66.999 58.5l40 -37
c-33.333 -47.333 -69.833 -79.166 -109.5 -95.499s-77.167 -24.5 -112.5 -24.5z" />
    <glyph glyph-name="d" unicode="d" horiz-adv-x="597" 
d="M242 -16c-40 0 -75.665 10.3281 -106.998 30.9951s-55.833 49.834 -73.5 87.501s-26.5 82.5 -26.5 134.5c0 54 10.667 102 32 144s50.833 75 88.5 99s81.167 36 130.5 36c19.333 0 37.5 -2.16699 54.5 -6.5s31.833 -9.16602 44.5 -14.499v89c0 10 0.166992 22.333 0.5 37
s1.16602 29.334 2.49902 44.001c-11.333 -1.33301 -23.833 -2.16602 -37.5 -2.49902s-24.834 -0.833008 -33.501 -1.5v65c46 0 79.833 3.16699 101.5 9.5s35.834 12.833 42.501 19.5h46v-612c0 -10 -0.333008 -22.5 -1 -37.5s-1.66699 -29.833 -3 -44.5
c25.333 2 47.666 3.33301 66.999 4v-65h-174c-1.33301 8.66699 -2.5 16.834 -3.5 24.501s-2.16699 15.5 -3.5 23.5c-20.667 -22 -43.5 -38.167 -68.5 -48.5s-51.167 -15.5 -78.5 -15.5zM289.002 60.9951c18.667 0 36.499 5.16992 53.499 15.5029s31.167 23.166 42.5 38.499
c-0.666992 9.33301 -1 18.833 -1 28.5v29.5l1 256c-22.667 16.667 -51 25 -85 25c-31.333 -0.666992 -56.833 -10.334 -76.5 -29.001s-34 -43.5 -43 -74.5s-13.167 -64.5 -12.5 -100.5c0 -32.667 4.33301 -63.334 13 -92.001s21.834 -52 39.501 -70s40.5 -27 68.5 -27z" />
    <glyph glyph-name="e" unicode="e" horiz-adv-x="539" 
d="M281 -16c-48 0 -90.4971 10.8301 -127.497 32.4971s-66 52.334 -87 92.001s-31.5 86.5 -31.5 140.5c0 46.667 10.333 90.334 31 131.001s49.834 73.5 87.501 98.5s81.5 37.5 131.5 37.5c37.333 0 72.666 -7.5 105.999 -22.5s60.5 -39.833 81.5 -74.5
s31.167 -81.667 30.5 -141l-336 -6c0 -41.333 4.83301 -78 14.5 -110s25.5 -57 47.5 -75s51 -27 87 -27c23.333 0 49.666 6.33301 78.999 19s54.333 32.334 75 59.001l38 -35c-22 -32 -46.333 -56.5 -73 -73.5s-53.334 -28.833 -80.001 -35.5s-51.334 -10 -74.001 -10z
M172.003 331.997h208.003c-0.666992 40 -8.83398 70.667 -24.501 92s-37.834 32 -66.501 32c-32.667 0 -58.834 -10.667 -78.501 -32s-32.5 -52 -38.5 -92z" />
    <glyph glyph-name="f" unicode="f" horiz-adv-x="359" 
d="M104 526c0 78.667 16.334 136.834 49.001 174.501s80 56.5 142 56.5c38.667 0 68.334 -8.33301 89.001 -25s31 -36.334 31 -59.001c0 -15.333 -4.66699 -29 -14 -41s-23 -18 -41 -18c-18 -0.666992 -31.667 4.33301 -41 15s-14 22.667 -14 36
c0 4 0.166992 7.66699 0.5 11s1.16602 7 2.49902 11c-4 4 -8.83301 6.83301 -14.5 8.5s-10.5 2.5 -14.5 2.5c-21.333 0 -35.5 -8.66699 -42.5 -26s-10.5 -35.666 -10.5 -54.999v-117h119v-64l-119 -3l1 -289c0 -10.667 -0.166992 -23.667 -0.5 -39s-1.5 -30 -3.5 -44
c11.333 1.33301 23.5 2.16602 36.5 2.49902s23.5 0.5 31.5 0.5v-64h-246v53c19.333 0 33.166 4.33301 41.499 13s13.5 20.5 15.5 35.5s3 32.167 3 51.5l-1 278l-76 -1v70h76v26z" />
    <glyph glyph-name="g" unicode="g" horiz-adv-x="556" 
d="M266 -271c-58.667 0 -105.17 6.33301 -139.503 19s-59 29.167 -74 49.5s-22.5 41.5 -22.5 63.5c0 24 8 46.5 24 67.5s39.333 37.5 70 49.5c-25.333 7.33301 -43.666 18.5 -54.999 33.5s-17 32.167 -17 51.5s7.83301 39.5 23.5 60.5s40.5 36.167 74.5 45.5
c-28.667 12.667 -52.167 31.334 -70.5 56.001s-27.833 54 -28.5 88c-1.33301 40 8.66699 75.333 30 106s48.833 54.5 82.5 71.5s69.167 25.5 106.5 25.5c18.667 0 39.334 -2.66699 62.001 -8s42.667 -13.666 60 -24.999c10.667 30 26.667 56.333 48 79s47 34 77 34
c20.667 0 36.334 -5.33301 47.001 -16s16 -25 16 -43c0 -10.667 -3.83301 -22.5 -11.5 -35.5s-22.167 -19.5 -43.5 -19.5c-10.667 0 -20.5 3.66699 -29.5 11s-14.5 16.333 -16.5 27c-12 -2.66699 -22.333 -11.167 -31 -25.5s-14 -27.5 -16 -39.5c18 -16 32 -34.833 42 -56.5
s15 -44.834 15 -69.501c0 -38 -10.5 -71.833 -31.5 -101.5s-48.333 -52.834 -82 -69.501s-69.834 -25 -108.501 -25c-10 0 -20 0.5 -30 1.5s-20.667 1.5 -32 1.5c-18 0 -33 -3.66699 -45 -11s-17 -17 -15 -29c2 -13.333 13.833 -22.5 35.5 -27.5s55.834 -8.5 102.501 -10.5
c51.333 -2.66699 96 -9 134 -19s67.333 -25.833 88 -47.5s31 -51.5 31 -89.5c0 -28 -8 -52.833 -24 -74.5s-37.167 -39.667 -63.5 -54s-55.333 -25.333 -87 -33s-63.5 -11.5 -95.5 -11.5zM270.997 189c20 0 36.832 5.83203 50.499 17.499s24 26.667 31 45
s10.5 37.833 10.5 58.5c0 25.333 -3.33301 49.5 -10 72.5s-17 41.667 -31 56s-31.667 21.5 -53 21.5c-30 0 -53.167 -12.667 -69.5 -38s-24.5 -54.666 -24.5 -87.999c0 -39.333 8.33301 -73.333 25 -102s40.334 -43 71.001 -43zM284.996 -212.001
c50 0 88.498 9.33398 115.498 28.001s40.5 39 40.5 61c0 26 -13.833 44.5 -41.5 55.5s-67.167 17.5 -118.5 19.5c-16 0.666992 -33.167 1.5 -51.5 2.5s-35.166 2.83301 -50.499 5.5c-12.667 -9.33301 -22.5 -20.833 -29.5 -34.5s-10.5 -27.834 -10.5 -42.501
c-1.33301 -28.667 11.334 -51.667 38.001 -69s62.667 -26 108 -26z" />
    <glyph glyph-name="h" unicode="h" horiz-adv-x="614" 
d="M348 53c19.333 0 33.1689 4.33789 41.502 13.0049s13.333 20.5 15 35.5s2.5 32.167 2.5 51.5v142c0 48 -7.5 83.667 -22.5 107s-38.167 35 -69.5 35c-19.333 0 -38.5 -4.33301 -57.5 -13s-34.5 -19.334 -46.5 -32.001v-249c0 -11.333 -0.333008 -24.333 -1 -39
s-2 -29 -4 -43c11.333 1.33301 22.833 2.16602 34.5 2.49902s21.834 0.5 30.501 0.5v-64h-243v53c19.333 0 33.166 4.33301 41.499 13s13.333 20.5 15 35.5s2.5 32.167 2.5 51.5v432c0 11.333 0.333008 23.833 1 37.5s1.66699 27.834 3 42.501
c-10.667 -0.666992 -22.834 -1.33398 -36.501 -2.00098s-24.834 -1.33398 -33.501 -2.00098v65c45.333 0 78.833 3.16699 100.5 9.5s36.167 12.833 43.5 19.5h46v-298c20 16 44.5 29.833 73.5 41.5s55.167 17.5 78.5 17.5c60 0 102.833 -17.833 128.5 -53.5
s38.5 -91.834 38.5 -168.501l1 -151c0 -11.333 -0.333008 -24.333 -1 -39s-1.66699 -29 -3 -43c10 1.33301 21 2.16602 33 2.49902s22.333 0.5 31 0.5v-64h-243v53z" />
    <glyph glyph-name="i" unicode="i" horiz-adv-x="312" 
d="M42 53c19.333 0 33.002 4.33496 41.002 13.002s13 20.5 15 35.5s3 32.167 3 51.5v187c0 11.333 0.333008 23.833 1 37.5s1.66699 27.834 3 42.501c-10.667 -0.666992 -22.834 -1.33398 -36.501 -2.00098s-24.834 -1.33398 -33.501 -2.00098v65
c45.333 0 78.833 3.16699 100.5 9.5s36.167 12.833 43.5 19.5h45v-367c0 -11.333 -0.166992 -24.333 -0.5 -39s-1.5 -29 -3.5 -43c10.667 1.33301 22 2.16602 34 2.49902s22.333 0.5 31 0.5v-64h-243v53zM157.002 596.002c-20 0 -36.501 7.16699 -49.501 21.5
s-19.5 31.833 -19.5 52.5s6.83301 38.334 20.5 53.001s29.834 22 48.501 22c19.333 0 35.5 -7.33301 48.5 -22s19.5 -32.334 19.5 -53.001s-6.33301 -38.167 -19 -52.5s-29 -21.5 -49 -21.5z" />
    <glyph glyph-name="j" unicode="j" horiz-adv-x="288" 
d="M11 -271c-34 0 -58.9951 7.66797 -74.9951 23.001s-24 32 -24 50c0 16 5 30.167 15 42.5s23.667 18.5 41 18.5c18 0.666992 31.833 -4.5 41.5 -15.5s14.5 -23.5 14.5 -37.5c0 -4 -0.666992 -8.66699 -2 -14c6 -3.33301 12.667 -5 20 -5c14.667 0 25.667 5.16699 33 15.5
s12.166 23 14.499 38s3.5 29.167 3.5 42.5l-1 453c0 11.333 0.166992 23.833 0.5 37.5s1.16602 27.834 2.49902 42.501c-10.667 -0.666992 -22.834 -1.33398 -36.501 -2.00098s-24.834 -1.33398 -33.501 -2.00098v65c45.333 0 79 3.16699 101 9.5s36.333 12.833 43 19.5h46
v-510c0 -62 -9 -113 -27 -153s-42.333 -69.667 -73 -89s-65.334 -29 -104.001 -29zM151.005 596.001c-20 0 -36.501 7.16699 -49.501 21.5s-19.5 31.833 -19.5 52.5s6.83301 38.334 20.5 53.001s29.834 22 48.501 22c19.333 0 35.5 -7.33301 48.5 -22
s19.5 -32.334 19.5 -53.001s-6.33301 -38.167 -19 -52.5s-29 -21.5 -49 -21.5z" />
    <glyph glyph-name="k" unicode="k" horiz-adv-x="575" 
d="M28 0v53.002c19.333 0 33.166 4.33301 41.499 13s13.5 20.5 15.5 35.5s3 32.167 3 51.5v432c0 11.333 0.166992 23.833 0.5 37.5s1.5 27.834 3.5 42.501c-11.333 -0.666992 -23.833 -1.33398 -37.5 -2.00098s-24.834 -1.33398 -33.501 -2.00098v65
c45.333 0 78.833 3.16699 100.5 9.5s36.167 12.833 43.5 19.5h46v-462h45l89 98l24.5 27c7 7.33301 14.167 13.666 21.5 18.999l-58 -1v64h210v-53c-34.667 -3.33301 -64.167 -14.5 -88.5 -33.5s-44.166 -36.833 -59.499 -53.5l-68 -76
c19.333 -9.33301 40.666 -29 63.999 -59l68 -89l23 -29c10.667 -13.333 22.834 -25.666 36.501 -36.999s27.834 -17 42.501 -17v-53h-107c-20.667 0 -39.167 8.16699 -55.5 24.5s-34.5 37.833 -54.5 64.5l-59 83.5c-18.667 27.667 -33.667 48.167 -45 61.5l-29 -1v-90
c0 -11.333 -0.166992 -24.333 -0.5 -39s-1.5 -29 -3.5 -43c10.667 1.33301 22 2.16602 34 2.49902s22.333 0.5 31 0.5v-64h-244z" />
    <glyph glyph-name="l" unicode="l" horiz-adv-x="299" 
d="M28 53c19.333 0 33.167 4.33496 41.5 13.002s13.333 20.5 15 35.5s2.5 32.167 2.5 51.5v432c0 11.333 0.166992 23.833 0.5 37.5s1.5 27.834 3.5 42.501c-11.333 -0.666992 -23.833 -1.33398 -37.5 -2.00098s-24.834 -1.33398 -33.501 -2.00098v65
c46 0 79.833 3.16699 101.5 9.5s36.167 12.833 43.5 19.5h45l1 -612c0 -11.333 -0.333008 -24.333 -1 -39s-2 -29 -4 -43c11.333 1.33301 22.833 2.16602 34.5 2.49902s21.834 0.5 30.501 0.5v-64h-243v53z" />
    <glyph glyph-name="m" unicode="m" horiz-adv-x="911" 
d="M42 0l0.00488281 53.0039c19.333 0 33 4.33301 41 13s13 20.5 15 35.5s3 32.167 3 51.5v188c0 12 0.333008 24.667 1 38s1.66699 27 3 41c-10.667 -0.666992 -22.834 -1.33398 -36.501 -2.00098s-24.834 -1.33398 -33.501 -2.00098v65c45.333 0 78.5 3.16699 99.5 9.5
s35.167 12.833 42.5 19.5h42c1.33301 -6.66699 2.16602 -14.834 2.49902 -24.501s0.833008 -18.5 1.5 -26.5c22 17.333 46 31.166 72 41.499s51.333 15.5 76 15.5c31.333 0 57.5 -5.66699 78.5 -17s37.5 -27.666 49.5 -48.999c23.333 19.333 49.666 35.166 78.999 47.499
s57.666 18.5 84.999 18.5c55.333 0 96.833 -16.167 124.5 -48.5s41.167 -87.166 40.5 -164.499v-160c0 -11.333 -0.333008 -24.333 -1 -39s-1.66699 -29 -3 -43c10 1.33301 21.167 2.16602 33.5 2.49902s22.5 0.5 30.5 0.5v-64h-237v53c26 0 41.333 9.33301 46 28
s7 42.667 7 72v149c0 48 -7.66699 82.333 -23 103s-37 31 -65 31c-18.667 0.666992 -36.5 -2.66602 -53.5 -9.99902s-31.833 -16.666 -44.5 -27.999c6 -24.667 9 -54 9 -88v-83.5c0 -27.667 -0.333008 -55.5 -1 -83.5c0 -11.333 -0.166992 -24.333 -0.5 -39
s-1.5 -29 -3.5 -43c10.667 1.33301 22 2.16602 34 2.49902s22.333 0.5 31 0.5v-64h-240v53c18 0 30.833 4.33301 38.5 13s12.5 20.5 14.5 35.5s3 32.167 3 51.5v151c0 48 -7.16699 82.167 -21.5 102.5s-35.5 30.833 -63.5 31.5c-18 0 -35.167 -4 -51.5 -12
s-30.5 -17.667 -42.5 -29v-25.5v-25.5v-203c0 -11.333 -0.166992 -24.333 -0.5 -39s-1.5 -29 -3.5 -43c10.667 1.33301 21.5 2.16602 32.5 2.49902s20.5 0.5 28.5 0.5v-64h-239z" />
    <glyph glyph-name="n" unicode="n" horiz-adv-x="626" 
d="M42 0l0.000976562 53.0039c19.333 0 33 4.33301 41 13s13 20.5 15 35.5s3 32.167 3 51.5v188c0 12 0.333008 24.667 1 38s1.66699 27 3 41c-10.667 -0.666992 -22.834 -1.33398 -36.501 -2.00098s-24.834 -1.33398 -33.501 -2.00098v65c45.333 0 78.5 3.16699 99.5 9.5
s35.167 12.833 42.5 19.5h42c2 -11.333 2.83301 -19.666 2.5 -24.999s0.833984 -15 3.50098 -29c20 16.667 44.333 30.834 73 42.501s54.334 17.5 77.001 17.5c60 0 103 -17.833 129 -53.5s39 -91.834 39 -168.501v-151c0 -11.333 -0.166992 -24.333 -0.5 -39
s-1.5 -29 -3.5 -43c11.333 1.33301 22.833 2.16602 34.5 2.49902s21.834 0.5 30.501 0.5v-64h-243v53c19.333 0 33.166 4.33301 41.499 13s13.5 20.5 15.5 35.5s3 32.167 3 51.5l-1 142c0 48 -7.16699 83.833 -21.5 107.5s-37.833 35.5 -70.5 35.5
c-19.333 -0.666992 -38.333 -5.33398 -57 -14.001s-34.334 -19.667 -47.001 -33c0.666992 -8 1 -16.333 1 -25v-26l-1 -197c0 -11.333 -0.166992 -24.333 -0.5 -39s-1.5 -29 -3.5 -43c10.667 1.33301 22 2.16602 34 2.49902s22.333 0.5 31 0.5v-64h-243z" />
    <glyph glyph-name="o" unicode="o" horiz-adv-x="572" 
d="M288 -16c-48 0 -91.167 10.499 -129.5 31.499s-68.666 50.667 -90.999 89s-33.5 83.166 -33.5 134.499c0 54 11.333 101.833 34 143.5s53.167 74.334 91.5 98.001s80.5 35.5 126.5 35.5c47.333 0 90 -10.5 128 -31.5s68.167 -50.667 90.5 -89s33.5 -83.5 33.5 -135.5
c0 -54.667 -10.833 -102.667 -32.5 -144s-51.334 -73.666 -89.001 -96.999s-80.5 -35 -128.5 -35zM293 44.999c29.333 0 52.166 9.33398 68.499 28.001s27.666 42.5 33.999 71.5s9.5 58.833 9.5 89.5c0 26 -2 52.333 -6 79s-10.667 50.834 -20 72.501s-21.833 39 -37.5 52
s-34.5 19.5 -56.5 19.5c-29.333 -0.666992 -52.666 -10.334 -69.999 -29.001s-29.833 -42.334 -37.5 -71.001s-11.5 -59 -11.5 -91c0 -36 4.33301 -71.167 13 -105.5s22.334 -62.333 41.001 -84s43 -32.167 73 -31.5z" />
    <glyph glyph-name="p" unicode="p" horiz-adv-x="600" 
d="M32 -255l0.00195312 53.0029c19.333 0 33.166 4.33301 41.499 13s13.5 20.5 15.5 35.5s3 32.167 3 51.5l1 443c0 12 0.166992 24.667 0.5 38s1.5 27 3.5 41c-11.333 -0.666992 -23.833 -1.33398 -37.5 -2.00098s-24.834 -1.33398 -33.501 -2.00098v65
c45.333 0 78.5 3.16699 99.5 9.5s34.833 12.833 41.5 19.5h43l2.5 -24c1 -9.33301 1.83301 -18 2.5 -26c22 19.333 45.333 33.5 70 42.5s48.334 13.5 71.001 13.5c40 0 75.667 -10.167 107 -30.5s56 -49.333 74 -87s27 -82.167 27 -133.5
c0 -54.667 -10.833 -103.167 -32.5 -145.5s-51.334 -75.5 -89.001 -99.5s-80.5 -36 -128.5 -36c-20 0 -38 2.16699 -54 6.5s-31 9.83301 -45 16.5v-119c0 -11.333 -0.333008 -24.333 -1 -39s-1.66699 -29 -3 -43c10.667 1.33301 22 2.16602 34 2.49902s22 0.5 30 0.5v-64
h-243zM303.002 47.0029c30.667 0.666992 55.498 10.168 74.498 28.501s32.833 42.666 41.5 72.999s13 63.833 13 100.5c0 32.667 -4.16699 63.5 -12.5 92.5s-21.666 52.667 -39.999 71s-42.166 27.5 -71.499 27.5c-18.667 -0.666992 -36.167 -5.5 -52.5 -14.5
s-29.833 -20.167 -40.5 -33.5v-77.5v-98v-144.5c10 -7.33301 22.833 -13.333 38.5 -18s32.167 -7 49.5 -7z" />
    <glyph glyph-name="q" unicode="q" horiz-adv-x="574" 
d="M326 -255l0.000976562 53.001c18.667 0 32.167 4.33301 40.5 13s13.5 20.5 15.5 35.5s3 32.167 3 51.5v144c-20 -20 -41.833 -34.667 -65.5 -44s-48.5 -14 -74.5 -14c-40.667 0 -76.834 10.5 -108.501 31.5s-56.5 50.333 -74.5 88s-27 82.5 -27 134.5
c0 54 10.833 102 32.5 144s51.5 74.833 89.5 98.5s81.667 35.5 131 35.5c34 0 62 -3.66699 84 -11s40 -11 54 -11c6 0 12.5 1.33301 19.5 4s12.5 6.66699 16.5 12h46v-622c0 -11.333 -0.333008 -24.333 -1 -39s-1.66699 -29 -3 -43c10.667 1.33301 22 2.16602 34 2.49902
s22 0.5 30 0.5v-64h-242zM291.001 60.001c18.667 0 36.3311 4.99902 52.998 14.999s30.334 22.667 41.001 38v243c0 38.667 -8.66699 64.834 -26 78.501s-38.666 20.5 -63.999 20.5c-30 0 -54.5 -9.33301 -73.5 -28s-32.833 -43.167 -41.5 -73.5s-12.667 -62.833 -12 -97.5
c0 -33.333 4.5 -64.833 13.5 -94.5s22.5 -54 40.5 -73s41 -28.5 69 -28.5z" />
    <glyph glyph-name="r" unicode="r" horiz-adv-x="464" 
d="M42 53c19.333 0 33.0039 4.33398 41.0039 13.001s13 20.5 15 35.5s3 32.167 3 51.5v188c0 12 0.333008 24.667 1 38s1.66699 27 3 41c-10.667 -0.666992 -22.834 -1.33398 -36.501 -2.00098s-24.834 -1 -33.501 -1v64h37c26.667 0 49 3.16699 67 9.5
s30.667 12.833 38 19.5h42c1.33301 -8 2.33301 -20.667 3 -38s1 -34.666 1 -51.999c22.667 30 47 53.5 73 70.5s53 25.5 81 25.5c21.333 0 40.166 -6 56.499 -18s24.5 -31.333 24.5 -58c0 -13.333 -4.83301 -27.333 -14.5 -42s-25.834 -21.667 -48.501 -21
c-14 0 -27.167 4.5 -39.5 13.5s-18.833 23.5 -19.5 43.5c-14 0.666992 -28.5 -4.33301 -43.5 -15s-28.5 -23.667 -40.5 -39s-21.333 -31 -28 -47l1 -190c0 -11.333 -0.333008 -24.333 -1 -39s-1.66699 -29 -3 -43c10 1.33301 21.167 2.16602 33.5 2.49902s22.5 0.5 30.5 0.5
v-64h-243v53z" />
    <glyph glyph-name="s" unicode="s" horiz-adv-x="478" 
d="M264 -16c-30.667 0 -59.333 3.83105 -86 11.498s-48 17.5 -64 29.5l3 -32h-65l-5 172h54c2 -22.667 9.83301 -43 23.5 -61s31.667 -32.333 54 -43s47.5 -16 75.5 -16c19.333 0 37.833 4.83301 55.5 14.5s26.5 24.834 26.5 45.501c0 22 -10.5 38.667 -31.5 50
s-49.167 23.666 -84.5 36.999l-62 25c-20.667 8.66699 -39.667 19.167 -57 31.5s-31.333 27.5 -42 45.5s-16 40 -16 66c0 23.333 6 47 18 71s31.5 44.167 58.5 60.5s62.5 24.5 106.5 24.5c18 0 38.333 -2.83301 61 -8.5s42.667 -15.167 60 -28.5l-1 32h65v-176h-54
c-4.66699 34 -18.5 62.833 -41.5 86.5s-53.833 35.5 -92.5 35.5c-21.333 0 -39.333 -5.33301 -54 -16s-22 -25.667 -22 -45c0 -17.333 5.66699 -31.166 17 -41.499s26.666 -19.166 45.999 -26.499l63 -24c31.333 -11.333 59.833 -24.166 85.5 -38.499
s46.167 -31.833 61.5 -52.5s23 -46.334 23 -77.001c0 -34.667 -8.66699 -63.167 -26 -85.5s-39.666 -39 -66.999 -50s-56 -16.5 -86 -16.5z" />
    <glyph glyph-name="t" unicode="t" horiz-adv-x="404" 
d="M237 -16c-18.667 0 -36.832 2.16699 -54.499 6.5s-33.667 13 -48 26s-25.833 32.167 -34.5 57.5s-13 58.333 -13 99l2 258l-71 -1v70c20 0.666992 39.333 7.5 58 20.5s35 30.167 49 51.5s23.333 44 28 68h61l-1 -140h141v-64l-141 -3l-1 -257c0 -30 4.5 -56 13.5 -78
s26.167 -33 51.5 -33c12.667 0 27.167 4 43.5 12s32.833 24 49.5 48l41 -37c-22.667 -33.333 -45.834 -57.333 -69.501 -72s-45 -23.667 -64 -27s-32.5 -5 -40.5 -5z" />
    <glyph glyph-name="u" unicode="u" horiz-adv-x="611" 
d="M250 -16c-58 0 -99.9932 17.0059 -125.993 51.0059s-39 90.333 -39 169v136c0 11.333 0.166992 24 0.5 38s1.16602 28 2.49902 42c-10.667 -0.666992 -22.834 -1.33398 -36.501 -2.00098s-24.5 -1 -32.5 -1v64h17c36.667 0 65.167 3.16699 85.5 9.5
s34.166 12.833 41.499 19.5h46v-306c0 -48 6.5 -83.667 19.5 -107s34.167 -35 63.5 -35c20 0.666992 39.667 6.66699 59 18s35.333 24.666 48 39.999v216c0 13.333 0.333008 27.166 1 41.499s1.66699 28.5 3 42.5c-10.667 -0.666992 -22.834 -1.33398 -36.501 -2.00098
s-24.834 -1 -33.501 -1v64h26c30.667 0 56.167 3.16699 76.5 9.5s33.833 12.833 40.5 19.5h46v-359c0 -9.33301 -0.333008 -23 -1 -41s-1.66699 -34.333 -3 -49c11.333 1.33301 23.166 2.16602 35.499 2.49902s22.833 0.833008 31.5 1.5v-65h-174
c-1.33301 9.33301 -2.5 18.666 -3.5 27.999s-1.83301 18.333 -2.5 27c-20.667 -18.667 -43.834 -35.167 -69.501 -49.5s-54.167 -21.5 -85.5 -21.5z" />
    <glyph glyph-name="v" unicode="v" horiz-adv-x="527" 
d="M229 -3l-153.001 339.997c-12.667 29.333 -20.5 50.5 -23.5 63.5s-5.5 25.5 -7.5 37.5l-39 -2v64h217v-53c-16 0 -26.5 -4.33301 -31.5 -13s-6.33301 -19.667 -4 -33s6.5 -27.666 12.5 -42.999l60 -144c5.33301 -12 10.5 -24.5 15.5 -37.5l15.5 -39.5h1l14 38.5l14 39.5
l55 154c6 16.667 11.667 30.334 17 41.001l15 29l-62 -3v64h179v-53c-15.333 -1.33301 -28.666 -8.5 -39.999 -21.5s-21.333 -28.667 -30 -47s-16.667 -37.166 -24 -56.499l-129 -325h-72z" />
    <glyph glyph-name="w" unicode="w" horiz-adv-x="808" 
d="M201 -3l-125.001 359.004l-17 51c-3.33301 10 -6 20.333 -8 31l-44 -2v64h231v-53c-24 -0.666992 -37.667 -9.33398 -41 -26.001s-1.33301 -37.334 6 -62.001l38 -128c9.33301 -30.667 17.666 -62.334 24.999 -95.001c4.66699 15.333 9.16699 31.5 13.5 48.5
s9.83301 36.833 16.5 59.5l79 256h86l87 -281c4.66699 -14 9.16699 -29 13.5 -45s8.83301 -31 13.5 -45c3.33301 13.333 7.33301 27.833 12 43.5s9.33398 30.167 14.001 43.5l48 148c4.66699 16 9.16699 30 13.5 42s9.5 23 15.5 33l-57 -3v64h184v-53
c-19.333 0 -35.166 -6 -47.499 -18s-22 -25.5 -29 -40.5s-12.5 -28.167 -16.5 -39.5l-124 -352h-84l-78 233c-4.66699 13.333 -10.334 31.166 -17.001 53.499s-12.667 43.5 -18 63.5c-4 -16 -8.83301 -34 -14.5 -54l-16.5 -56
c-5.33301 -17.333 -9.66602 -30.333 -12.999 -39l-68 -201h-78z" />
    <glyph glyph-name="x" unicode="x" horiz-adv-x="542" 
d="M35 0l0.00195312 53.0039c15.333 5.33301 29 13.666 41 24.999s25.667 26.333 41 45l91 110l-50 62.5l-48 58.5c-10.667 13.333 -21.5 27.833 -32.5 43.5s-18.5 29.167 -22.5 40.5l-34 -2v64h216v-53c-22 -0.666992 -32.833 -6.83398 -32.5 -18.501
s8.5 -27.834 24.5 -48.501l50 -62l56 67l24 29.5c7.33301 9 15.333 17.5 24 25.5l-56 -4v64h172v-53c-22 -8 -41 -19 -57 -33s-33.333 -32.667 -52 -56l-71 -85l124 -147l24 -31c8 -10 15.333 -21 22 -33l38 2v-64h-222v53c19.333 0.666992 30.666 5.16699 33.999 13.5
s-1.33398 20.166 -14.001 35.499l-75 85l-60 -76c-5.33301 -7.33301 -12.333 -16 -21 -26s-16.667 -18 -24 -24l56 3v-64h-166z" />
    <glyph glyph-name="y" unicode="y" horiz-adv-x="543" 
d="M139 -271c-24 0 -44.332 6.66992 -60.999 20.0029s-25 31.666 -25 54.999c0 16 5.33301 30.333 16 43s24.334 19 41.001 19c14.667 0.666992 26.5 -4.16602 35.5 -14.499s13.5 -22.833 13.5 -37.5c0 -2 -0.166992 -4.16699 -0.5 -6.5s-0.5 -4.83301 -0.5 -7.5
c1.33301 -0.666992 3.66602 -0.666992 6.99902 0c14 3.33301 28.333 19.333 43 48c8 15.333 16.333 34.166 25 56.499s17 47.166 25 74.499l-157 323c-18.667 36.667 -31 65 -37 85s-10.333 37 -13 51l-46 -2v64h235v-53h-2c-25.333 -2.66699 -39.333 -12.5 -42 -29.5
s1.66602 -37.5 12.999 -61.5l105 -233c9.33301 25.333 19.833 57.166 31.5 95.499s24.834 78.5 39.501 120.5c5.33301 16 12 34.333 20 55s16 35.667 24 45l-61 -3v64h171v-53c-22 -6 -39.667 -19.5 -53 -40.5s-25.333 -47.167 -36 -78.5l-125 -354
c-19.333 -55.333 -37.333 -101 -54 -137s-35.334 -63 -56.001 -81s-46 -27 -76 -27z" />
    <glyph glyph-name="z" unicode="z" horiz-adv-x="513" 
d="M37 0l-0.000976562 62l246 321c10.667 14.667 21.167 27.834 31.5 39.501s17.5 19.167 21.5 22.5l-153 -2c-27.333 -0.666992 -46.833 -13.834 -58.5 -39.501s-20.167 -56.167 -25.5 -91.5h-51l13 188h401v-53l-243 -325c-9.33301 -12.667 -18.166 -23.5 -26.499 -32.5
s-17.833 -18.167 -28.5 -27.5l159 -3c23.333 -0.666992 41.833 4.83301 55.5 16.5s24 27.667 31 48s12.167 42.833 15.5 67.5h51l-14 -191h-425z" />
    <glyph glyph-name="braceleft" unicode="{" horiz-adv-x="357" 
d="M320 -271c-73.333 0 -126.832 18.001 -160.499 54.001s-50.5 89.333 -50.5 160c0 19.333 0.833008 40.666 2.5 63.999l5 69c1.66699 22.667 2.5 42.667 2.5 60c0 34 -6.66699 58.333 -20 73s-38.666 22 -75.999 22h-23v65h23c37.333 0 62.666 6.5 75.999 19.5
s20 36.5 20 70.5c0 26 -1.66699 53.167 -5 81.5s-5 57.166 -5 86.499c0 70.667 16.833 122.667 50.5 156s87.167 50 160.5 50h28v-59c-30 1.33301 -54 -1.16699 -72 -7.5s-31 -19.333 -39 -39s-12 -48.5 -12 -86.5c0 -17.333 1.5 -38.5 4.5 -63.5s5.16699 -48.5 6.5 -70.5
c3.33301 -50 -9.5 -89.5 -38.5 -118.5s-65.833 -46.167 -110.5 -51.5v-2c29.333 -3.33301 55.5 -12.333 78.5 -27s41 -34.167 54 -58.5s18.833 -53.166 17.5 -86.499l-4.5 -55l-5 -59.5c-1.66699 -19 -2.5 -34.5 -2.5 -46.5c0 -56.667 9.16699 -95.167 27.5 -115.5
s50.166 -29.5 95.499 -27.5v-57h-28z" />
    <glyph glyph-name="bar" unicode="|" horiz-adv-x="250" 
d="M69 -271l-2 1031h117l-4 -1031h-111z" />
    <glyph glyph-name="braceright" unicode="}" horiz-adv-x="357" 
d="M37 -271l-28.001 -0.000976562v57c44.667 -2 76.334 7.16699 95.001 27.5s28 58.833 28 115.5c0 12 -0.833008 27.5 -2.5 46.5s-3.5 38.833 -5.5 59.5s-3.33301 39 -4 55c-2 33.333 3.5 62.166 16.5 86.499s31.167 43.833 54.5 58.5s49.333 23.667 78 27v2
c-44 5.33301 -80.5 22.5 -109.5 51.5s-41.833 68.5 -38.5 118.5c1.33301 22 3.5 45.5 6.5 70.5s4.5 46.167 4.5 63.5c0 38 -4 66.833 -12 86.5s-21 32.667 -39 39s-42 8.83301 -72 7.5v59h28c73.333 0 126.666 -16.667 159.999 -50s50 -85.333 50 -156
c0 -29.333 -1.66699 -58.166 -5 -86.499s-5 -55.5 -5 -81.5c0 -34 6.83301 -57.5 20.5 -70.5s38.834 -19.5 75.501 -19.5h23v-65h-23c-36.667 0 -61.834 -7.33301 -75.501 -22s-20.5 -39 -20.5 -73c0 -17.333 0.833008 -37.333 2.5 -60l5 -69
c1.66699 -23.333 2.5 -44.666 2.5 -63.999c0 -70.667 -16.667 -124 -50 -160s-86.666 -54 -159.999 -54z" />
    <glyph glyph-name="asciitilde" unicode="~" horiz-adv-x="530" 
d="M369 211c-25.333 0 -46.502 3.83105 -63.502 11.498s-32.333 16.334 -46 26.001s-27.667 18.334 -42 26.001s-31.5 11.5 -51.5 11.5c-27.333 0 -50.166 -4.66699 -68.499 -14s-36.5 -20.666 -54.5 -33.999v100c21.333 16.667 41.333 29.667 60 39s41 14 67 14
s47.167 -3.5 63.5 -10.5s30.833 -15.333 43.5 -25s25.334 -18.334 38.001 -26.001s28 -12.167 46 -13.5c24 -2 46.833 1.33301 68.5 10s41.167 21 58.5 37v-100c-14 -14.667 -30.833 -27 -50.5 -37s-42.5 -15 -68.5 -15z" />
    <glyph glyph-name="uni00A0" unicode="&#xa0;" horiz-adv-x="263" 
 />
    <glyph glyph-name="exclamdown" unicode="&#xa1;" horiz-adv-x="239" 
d="M120 516c18 0 33.667 -7.16699 47 -21.5s20 -31.5 20 -51.5c0 -20.667 -6.83301 -38.167 -20.5 -52.5s-29.5 -21.5 -47.5 -21.5c-19.333 0 -35.333 7.16699 -48 21.5s-19 31.833 -19 52.5c0 20 6.83301 37.167 20.5 51.5s29.5 21.5 47.5 21.5zM148 281l37.999 -412
c2 -20 -2.66699 -39.167 -14 -57.5s-29 -27.5 -53 -27.5c-25.333 0 -43.166 9.16699 -53.499 27.5s-14.5 37.5 -12.5 57.5l37 412h58z" />
    <glyph glyph-name="cent" unicode="&#xa2;" horiz-adv-x="554" 
d="M254 -136l-0.00585938 122c-38.667 5.33301 -73.834 18.833 -105.501 40.5s-56.667 50.334 -75 86.001s-27.5 78.167 -27.5 127.5c0 43.333 8.66699 84.166 26 122.499s41.833 71 73.5 98s68.834 44.5 111.501 52.5l-1 112h81l-1 -110
c51.333 -4.66699 90.833 -19.834 118.5 -45.501s41.5 -54.167 41.5 -85.5c0 -18 -5.16699 -33.667 -15.5 -47s-25.166 -20.333 -44.499 -21c-22.667 0 -38.5 6.66699 -47.5 20s-13.5 26.333 -13.5 39c0 6 1 12.833 3 20.5s5.33301 14.834 10 21.501
c-5.33301 12 -13.166 20.833 -23.499 26.5s-21.166 9.5 -32.499 11.5s-20.666 2.66699 -27.999 2c-36 -1.33301 -66.167 -18.166 -90.5 -50.499s-36.5 -78.833 -36.5 -139.5c0 -36.667 5.16699 -70.5 15.5 -101.5s26.333 -56 48 -75s49.167 -29.167 82.5 -30.5
c28.667 -0.666992 56.834 6.66602 84.501 21.999s50.167 35 67.5 59l39 -37c-27.333 -39.333 -57.166 -67.833 -89.499 -85.5s-63.833 -28.5 -94.5 -32.5l-1 -122h-75z" />
    <glyph glyph-name="sterling" unicode="&#xa3;" horiz-adv-x="565" 
d="M124 370c-4 16 -7.33008 33.1641 -9.99707 51.4971s-4 38.5 -4 60.5c0 49.333 9.16699 91.333 27.5 126s42.666 61.334 72.999 80.001s63.833 28 100.5 28c40.667 0 73.167 -6.66699 97.5 -20s41.666 -29.5 51.999 -48.5s15.5 -36.5 15.5 -52.5
c0 -17.333 -4.83301 -32.333 -14.5 -45s-23.5 -19 -41.5 -19c-21.333 -1.33301 -36.5 4.66699 -45.5 18s-13.5 25 -13.5 35c0 7.33301 1.16699 15 3.5 23s6.5 15.667 12.5 23c-3.33301 7.33301 -9.5 13.666 -18.5 18.999s-21.5 8 -37.5 8c-24 0 -43.333 -6.83301 -58 -20.5
s-25.334 -31 -32.001 -52s-10 -42.5 -10 -64.5c0 -28.667 1.83301 -55.167 5.5 -79.5s7.5 -47.833 11.5 -70.5h156v-67l-142 -2c5.33301 -34.667 4 -66 -4 -94s-26.333 -54.333 -55 -79c13.333 4.66699 25.833 7.83398 37.5 9.50098s22.834 2.5 33.501 2.5
c26 0 49 -4.5 69 -13.5s37.833 -18 53.5 -27s30.167 -13.5 43.5 -13.5c10 0 19 4.83301 27 14.5s12.667 24.5 14 44.5h54c-1.33301 -46 -11.333 -84.333 -30 -115s-45.667 -46 -81 -46c-18.667 0 -36.667 4.16699 -54 12.5s-34.666 17.666 -51.999 27.999
s-35 18.166 -53 23.499c-11.333 6.66699 -23.833 12.667 -37.5 18s-26.834 8 -39.501 8c-4.66699 -24.667 -14.5 -45.834 -29.5 -63.501s-31.5 -26.5 -49.5 -26.5c-17.333 0 -29.833 5 -37.5 15s-11.5 21.667 -11.5 35c0 18.667 8.16699 36.334 24.5 53.001
s37.166 29.334 62.499 38.001c5.33301 9.33301 10 21.333 14 36s6 28.334 6 41.001c0 18.667 -1.33301 35.834 -4 51.501s-6 30.834 -10 45.501h-79v71h60z" />
    <glyph glyph-name="currency" unicode="&#xa4;" horiz-adv-x="556" 
d="M124 31l-62 50l58 66c-20 32 -30 67.667 -30 107s11 76.333 33 111l-61 70l62 49l51 -64c14 9.33301 29.667 16.833 47 22.5s36 8.5 56 8.5c20.667 0 39.5 -2.83301 56.5 -8.5s32.833 -13.167 47.5 -22.5l51 64l61 -49l-61 -70c22 -33.333 33 -70.333 33 -111
c0 -40 -10 -75.667 -30 -107l58 -66l-61 -50l-49 62c-30 -19.333 -65.333 -29 -106 -29s-75.667 9.66699 -105 29zM278 127c20.667 0 36.668 8.16699 48.001 24.5s19.333 35.5 24 57.5s7 42.333 7 61c0 14 -2.5 30.5 -7.5 49.5s-13.167 35.5 -24.5 49.5s-27 21 -47 21
s-35.667 -7 -47 -21s-19.333 -30.5 -24 -49.5s-7 -35.5 -7 -49.5c0 -18.667 2.16699 -39 6.5 -61s12.166 -41.167 23.499 -57.5s27.333 -24.5 48 -24.5z" />
    <glyph glyph-name="yen" unicode="&#xa5;" horiz-adv-x="716" 
d="M237 0l0.00195312 55.002c16 0.666992 29 3.16699 39 7.5s17.5 12.833 22.5 25.5s7.83301 32 8.5 58h-115v67h116v54h-116v67l65 -1l-130 203c-12.667 18.667 -22.834 37.167 -30.501 55.5s-12.167 33.5 -13.5 45.5c-10 -0.666992 -19.167 -1.16699 -27.5 -1.5
s-16.5 -0.833008 -24.5 -1.5v66h282v-55c-34.667 1.33301 -57.334 -5.83398 -68.001 -21.501s-7 -37.834 11 -66.501l79 -127l24.5 -41.5c10.333 -17 19.833 -34.167 28.5 -51.5l17 34c3.33301 6.66699 5.66602 11.167 6.99902 13.5s2.5 4.5 3.5 6.5l5.5 11l14 29l63 120
c4.66699 10 12.167 24.167 22.5 42.5s19.833 33.166 28.5 44.499c-12 -1.33301 -25.667 -2.16602 -41 -2.49902s-27.666 -0.833008 -36.999 -1.5v66h216v-55c-26.667 -2.66699 -49 -12.834 -67 -30.501s-37.333 -45.5 -58 -83.5l-105 -199h86v-63l-110 -1l-1 -56l111 -1v-63
l-111 -1c0 -21.333 -0.166992 -38.5 -0.5 -51.5s-1.16602 -23.833 -2.49902 -32.5c12 0.666992 26.167 1.33398 42.5 2.00098s29.166 1 38.499 1v-66h-273z" />
    <glyph glyph-name="brokenbar" unicode="&#xa6;" horiz-adv-x="246" 
d="M76 378l-3 382h100l-4 -382h-93zM76 -271l-3 380h100l-4 -380h-93z" />
    <glyph glyph-name="section" unicode="&#xa7;" horiz-adv-x="544" 
d="M265 -228c-37.333 0 -69.668 6.66797 -97.001 20.001s-48.5 30.166 -63.5 50.499s-22.5 41.166 -22.5 62.499c0 16 4.83301 30.5 14.5 43.5s22.834 19.833 39.501 20.5c21.333 0.666992 36.333 -5.33301 45 -18s13 -24.667 13 -36c0 -5.33301 -0.833008 -11.5 -2.5 -18.5
s-4.5 -13.5 -8.5 -19.5c4 -12.667 13.667 -23.334 29 -32.001s32.333 -13 51 -13c24 0 43.333 4.66699 58 14s25.5 20.833 32.5 34.5s10.5 27.167 10.5 40.5c0 20.667 -5.66699 39.167 -17 55.5s-26.166 31.333 -44.499 45s-37.666 26.334 -57.999 38.001
s-39.166 23.167 -56.499 34.5c-24.667 16 -48.167 33.5 -70.5 52.5s-40.5 41 -54.5 66s-21 53.833 -21 86.5c0 27.333 7.33301 54.833 22 82.5s34.334 52.834 59.001 75.501c-14 18 -24 36.833 -30 56.5s-9.33301 39.5 -10 59.5c-0.666992 18.667 2.33301 38.834 9 60.501
s17.667 42 33 61s35.5 34.667 60.5 47s55.5 18.5 91.5 18.5c36.667 0 68.667 -6.5 96 -19.5s48.666 -29.667 63.999 -50s23 -40.833 23 -61.5c0 -17.333 -4.66699 -32 -14 -44s-22.333 -18.333 -39 -19c-21.333 -0.666992 -36.333 5.33301 -45 18s-13 24 -13 34
c0 6 0.833008 12.667 2.5 20s4.83398 13.666 9.50098 18.999c-6 12 -16.167 22 -30.5 30s-30.833 12 -49.5 12c-23.333 0 -42.5 -4.66699 -57.5 -14s-25.833 -21 -32.5 -35s-10.334 -28 -11.001 -42c0.666992 -22 6.66699 -41.5 18 -58.5s26.166 -32.333 44.499 -46
s37.833 -26.5 58.5 -38.5l60 -36c24.667 -16 47.667 -33.5 69 -52.5s38.666 -40.833 51.999 -65.5s20 -53 20 -85c0 -27.333 -7.33301 -55 -22 -83s-34.334 -53.333 -59.001 -76c10 -14 19.333 -29.833 28 -47.5s13 -38.5 13 -62.5c0 -18 -3.5 -37.667 -10.5 -59
s-18.333 -41.5 -34 -60.5s-36 -34.667 -61 -47s-55.5 -18.5 -91.5 -18.5zM379.998 112.001c7.33301 10.667 12.667 23.168 16 37.501s5 28.166 5 41.499c0 27.333 -8.33301 51.166 -25 71.499s-37.667 38.833 -63 55.5s-51.333 32.5 -78 47.5s-50 30.5 -70 46.5
c-14 -23.333 -21 -49.333 -21 -78c0 -27.333 8.33301 -51.166 25 -71.499s37.667 -38.833 63 -55.5s51.333 -32.667 78 -48s50 -31 70 -47z" />
    <glyph glyph-name="dieresis" unicode="&#xa8;" horiz-adv-x="414" 
d="M292 604c-16 0 -30 6.66699 -42 20s-18 29.666 -18 48.999s6 36 18 50s26.333 21 43 21c17.333 0 31.833 -7 43.5 -21s17.5 -30.667 17.5 -50s-6.16699 -35.666 -18.5 -48.999s-26.833 -20 -43.5 -20zM121 604c-16.667 0 -31 6.66699 -43 20s-18 29.666 -18 48.999
s6.16699 36 18.5 50s26.5 21 42.5 21c18 0 32.667 -7 44 -21s17 -30.667 17 -50s-6.16699 -35.666 -18.5 -48.999s-26.5 -20 -42.5 -20z" />
    <glyph glyph-name="copyright" unicode="&#xa9;" horiz-adv-x="902" 
d="M452 -64c-60.667 0 -115.833 10.168 -165.5 30.501s-92.5 48.666 -128.5 84.999s-63.833 79.333 -83.5 129s-29.5 103.834 -29.5 162.501c0 56 10.167 108.833 30.5 158.5s49 93.334 86 131.001s80.333 67.167 130 88.5s103.834 32 162.501 32
c59.333 0 113.666 -10.667 162.999 -32s92 -50.833 128 -88.5s63.833 -81.334 83.5 -131.001s29.5 -102.834 29.5 -159.501c0 -56 -10.5 -108.5 -31.5 -157.5s-50 -92.167 -87 -129.5s-80 -66.5 -129 -87.5s-101.833 -31.5 -158.5 -31.5zM455.001 -8.99902
c51.333 0 97.4951 9.33301 138.495 28s76 44.167 105 76.5s51.333 69.666 67 111.999s23.5 87.5 23.5 135.5c0 47.333 -8 92.333 -24 135s-38.667 80.5 -68 113.5s-64.666 59 -105.999 78s-87.666 28.5 -138.999 28.5c-50.667 0 -96.5 -9.5 -137.5 -28.5
s-76.5 -45 -106.5 -78s-53 -70.833 -69 -113.5s-24 -87.667 -24 -135c0 -48 7.83301 -93.167 23.5 -135.5s38.334 -79.666 68.001 -111.999s65.334 -57.833 107.001 -76.5s88.834 -28 141.501 -28zM458.996 97.001c-46 0 -87.1641 10.834 -123.497 32.501
s-64.833 50.834 -85.5 87.501s-31 78 -31 124c0 29.333 5 59 15 89s25 57.5 45 82.5s45.167 45 75.5 60s65.5 21.833 105.5 20.5c22 -0.666992 42.667 -3.83398 62 -9.50098s37.666 -14.834 54.999 -27.501l-2 33h68v-173h-58c-5.33301 41.333 -19.333 70.5 -42 87.5
s-48.334 25.5 -77.001 25.5c-24.667 0 -47.334 -7.33301 -68.001 -22s-37.334 -35.167 -50.001 -61.5s-19 -57.5 -19 -93.5c0 -32 6.5 -61.333 19.5 -88s31.333 -48 55 -64s51.5 -24 83.5 -24c23.333 -0.666992 47.666 5.33301 72.999 18s47.333 31 66 55l42 -42
c-21.333 -28.667 -44.666 -51.167 -69.999 -67.5s-50.166 -27.5 -74.499 -33.5s-45.833 -9 -64.5 -9z" />
    <glyph glyph-name="ordfeminine" unicode="&#xaa;" horiz-adv-x="394" 
d="M139 371c-31.333 0 -55.502 6.99609 -72.502 20.9961s-25.5 33.333 -25.5 58c0 25.333 9.66699 46.333 29 63s43.166 29.167 71.499 37.5s56.833 12.833 85.5 13.5v41c0 15.333 -2.33301 29.5 -7 42.5s-17 19.833 -37 20.5c-8.66699 0.666992 -17.5 -1 -26.5 -5
s-15.833 -9.66699 -20.5 -17c2.66699 -3.33301 4.66699 -7.5 6 -12.5s2 -9.83301 2 -14.5c0 -8 -3.5 -17.333 -10.5 -28s-18.5 -15.667 -34.5 -15c-13.333 0 -23.666 4.16699 -30.999 12.5s-11 18.833 -11 31.5c0 16.667 5.83301 32.334 17.5 47.001s27.667 26.5 48 35.5
s43.833 13.5 70.5 13.5c38.667 0 68.334 -10.167 89.001 -30.5s31 -52.166 31 -95.499c0 -18 -0.166992 -37 -0.5 -57s-0.5 -39 -0.5 -57c0 -11.333 1.33301 -21.166 4 -29.499s8 -12.5 16 -12.5c2.66699 0 5.33398 0.333008 8.00098 1s6 2.33398 10 5.00098l17 -26
c-8.66699 -12 -20.167 -22 -34.5 -30s-28.166 -12 -41.499 -12c-14.667 0 -27.5 4.66699 -38.5 14s-17.833 22 -20.5 38c-10 -16.667 -23.833 -29.667 -41.5 -39s-34.834 -14 -51.501 -14zM163.998 434.996c20.667 -1.33301 41.332 8.33594 61.999 29.0029v27
c0 10 0.333008 20.333 1 31c-16 -0.666992 -31.333 -3.33398 -46 -8.00098s-26.5 -11.167 -35.5 -19.5s-12.833 -18.833 -11.5 -31.5c0.666992 -8.66699 3.83398 -15.334 9.50098 -20.001s12.5 -7.33398 20.5 -8.00098z" />
    <glyph glyph-name="guillemotleft" unicode="&#xab;" horiz-adv-x="505" 
d="M293 -14l-269 279v17l266 270l42 -41l-189 -235v-1l192 -246zM421 66l-179 197v16l178 193l41 -36l-105 -167v-1l107 -167z" />
    <glyph glyph-name="logicalnot" unicode="&#xac;" horiz-adv-x="530" 
d="M409 152l-3 120l-370 -2v86l449 -3v-201h-76z" />
    <glyph glyph-name="uni00AD" unicode="&#xad;" horiz-adv-x="293" 
d="M56 268v96h364v-92z" />
    <glyph glyph-name="registered" unicode="&#xae;" horiz-adv-x="903" 
d="M452 -64c-60.667 0 -115.834 10.002 -165.501 30.002s-92.5 48.333 -128.5 85s-63.833 79.667 -83.5 129s-29.5 103.666 -29.5 162.999c0 56 10.167 108.833 30.5 158.5s48.833 93.334 85.5 131.001s80 67.167 130 88.5s104.333 32 163 32c60 0 114.667 -10.667 164 -32
s91.833 -50.833 127.5 -88.5s63.334 -81.334 83.001 -131.001s29.5 -102.834 29.5 -159.501c0 -56 -10.5 -108.667 -31.5 -158s-50 -92.5 -87 -129.5s-80 -66 -129 -87s-101.833 -31.5 -158.5 -31.5zM455 -8.99805c51.333 0 97.4951 9.33301 138.495 28s76 44.167 105 76.5
s51.333 69.666 67 111.999s23.5 87.5 23.5 135.5c0 47.333 -8 92.333 -24 135s-38.667 80.667 -68 114s-64.666 59.333 -105.999 78s-87.666 28 -138.999 28c-50.667 0 -96.5 -9.33301 -137.5 -28s-76.5 -44.667 -106.5 -78s-53 -71.333 -69 -114s-24 -87.667 -24 -135
c0 -48 7.83301 -93.167 23.5 -135.5s38.334 -79.666 68.001 -111.999s65.334 -57.833 107.001 -76.5s88.834 -28 141.501 -28zM257.995 124.002l0.00195312 40.999c18 0.666992 30.5 5.16699 37.5 13.5s10.5 25.833 10.5 52.5v255c0 12 0.166992 23 0.5 33
s0.833008 18 1.5 24l-50 -3v49c28.667 0 59.667 0.333008 93 1s64.666 1 93.999 1c60.667 -0.666992 107.667 -12.5 141 -35.5s49.333 -58.167 48 -105.5c-0.666992 -26.667 -9.5 -52.334 -26.5 -77.001s-46.5 -43 -88.5 -55c8 -3.33301 15.167 -8.66602 21.5 -15.999
s12.833 -16 19.5 -26c21.333 -33.333 37.833 -57.833 49.5 -73.5s21.5 -26 29.5 -31s17.333 -7.83301 28 -8.5v-40h-99c-8.66699 4.66699 -17.834 12.834 -27.501 24.501s-20.167 26.167 -31.5 43.5l-38 62l-19.5 33c-4.33301 7.33301 -8.5 14 -12.5 20
c-6.66699 -0.666992 -14 -1 -22 -1s-15 0.333008 -21 1v-78c0 -12 -0.166992 -23.167 -0.5 -33.5s-0.833008 -18.5 -1.5 -24.5l54 2v-48h-190zM430.997 357.001c29.333 0.666992 54.501 8.83594 75.501 24.5029s31.5 39.5 31.5 71.5c0 24.667 -5.5 43.167 -16.5 55.5
s-24.333 20.666 -40 24.999s-29.834 6.16602 -42.501 5.49902c-18 -0.666992 -29.667 -5.83398 -35 -15.501s-8 -25.834 -8 -48.501v-115c6 -1.33301 11.667 -2.16602 17 -2.49902s11.333 -0.5 18 -0.5z" />
    <glyph glyph-name="macron" unicode="&#xaf;" horiz-adv-x="368" 
d="M45 631v84h278v-80z" />
    <glyph glyph-name="degree" unicode="&#xb0;" horiz-adv-x="390" 
d="M194 398c-32.667 0 -61.002 7 -85.002 21s-42.5 33.167 -55.5 57.5s-19.5 51.5 -19.5 81.5c0 29.333 7.5 56 22.5 80s34.833 43 59.5 57s51.334 21 80.001 21c32.667 0 61 -7 85 -21s42.333 -33 55 -57s19 -50.667 19 -80c0 -30 -7.33301 -57.167 -22 -81.5
s-34.167 -43.5 -58.5 -57.5s-51.166 -21 -80.499 -21zM194.998 463c24.667 0 44.667 9.5 60 28.5s23 41.167 23 66.5c0 24.667 -7.66699 46.667 -23 66s-35.333 29 -60 29s-44.667 -9.66699 -60 -29s-23 -41.333 -23 -66c0 -25.333 7.66699 -47.5 23 -66.5
s35.333 -28.5 60 -28.5z" />
    <glyph glyph-name="plusminus" unicode="&#xb1;" horiz-adv-x="530" 
d="M42 396h189v187h68v-187h189v-69h-189v-190h-68v190h-189v69zM42 56h446v-69h-446v69z" />
    <glyph glyph-name="uni00B2" unicode="&#xb2;" horiz-adv-x="378" 
d="M51 303c0 30 4.99902 55.8379 14.999 77.5049s23 41.167 39 58.5s33.333 34 52 50c26.667 22.667 43.667 44.167 51 64.5s11 37.166 11 50.499c0 20.667 -4.66699 36 -14 46s-22 15 -38 15c-10 0 -19.167 -2.33301 -27.5 -7s-13.5 -10.334 -15.5 -17.001
c4.66699 -3.33301 7.83398 -7.83301 9.50098 -13.5s2.5 -10.5 2.5 -14.5c0 -8 -3.5 -17 -10.5 -27s-18.167 -15 -33.5 -15c-12.667 0.666992 -22.667 5.5 -30 14.5s-11 19.833 -11 32.5c0 13.333 5 27.666 15 42.999s24.833 28.333 44.5 39s43.834 16 72.501 16
c22.667 0 44 -3.66699 64 -11s36.333 -18.833 49 -34.5s19 -36.167 19 -61.5c0 -29.333 -12.833 -56.333 -38.5 -81s-59.5 -54.334 -101.5 -89.001c-14 -10.667 -24.667 -20.834 -32 -30.501s-13 -19.834 -17 -30.501l110 -2c15.333 -0.666992 27.666 0.833008 36.999 4.5
s14 14.834 14 33.501h41l-6 -111h-271z" />
    <glyph glyph-name="uni00B3" unicode="&#xb3;" horiz-adv-x="367" 
d="M169 296c-40 0.666992 -71.168 10.8369 -93.501 30.5039s-33.5 41.167 -33.5 64.5c0 12.667 4 24 12 34s18.333 15.333 31 16c16.667 0.666992 28 -3.83301 34 -13.5s9 -19.834 9 -30.501c0 -3.33301 -0.833008 -8.33301 -2.5 -15s-4.83398 -12 -9.50098 -16
c4 -8.66699 11.333 -14.5 22 -17.5s20.334 -4.5 29.001 -4.5c21.333 0 38 7.16699 50 21.5s18 31.166 18 50.499c0 20 -6.16699 37.833 -18.5 53.5s-33.166 23.5 -62.499 23.5h-16c-6 0 -11.333 -0.333008 -16 -1v47c4.66699 0 9.33398 -0.166992 14.001 -0.5
s9 -0.5 13 -0.5c20 0 35.167 4 45.5 12s17.166 17.333 20.499 28s5 20.667 5 30c0 17.333 -4.5 31.833 -13.5 43.5s-23.167 17.5 -42.5 17.5c-11.333 0 -20.666 -2.33301 -27.999 -7s-12 -9.33398 -14 -14.001c4.66699 -4 7.83398 -8.83301 9.50098 -14.5
s2.5 -10.167 2.5 -13.5c0 -8 -3.16699 -17 -9.5 -27s-17.5 -14.667 -33.5 -14c-12.667 0 -22.834 4.16699 -30.501 12.5s-11.5 19.166 -11.5 32.499c0 12 4.66699 25.167 14 39.5s23.666 26.666 42.999 36.999s44 15.5 74 15.5c36.667 0 67.167 -8.66699 91.5 -26
s36.5 -42.666 36.5 -75.999c0 -18.667 -7.33301 -36.667 -22 -54s-33.667 -29 -57 -35c32.667 -5.33301 57 -17.333 73 -36s24.333 -40.667 25 -66c1.33301 -35.333 -11.5 -65.333 -38.5 -90s-66.833 -37 -119.5 -37z" />
    <glyph glyph-name="acute" unicode="&#xb4;" horiz-adv-x="272" 
d="M84 570l-40 34.999l83 138c12 18.667 26.167 29.334 42.5 32.001s30.166 -0.333008 41.499 -9c12 -11.333 17.333 -25.5 16 -42.5s-9.66602 -32.833 -24.999 -47.5z" />
    <glyph glyph-name="uni00B5" unicode="&#xb5;" horiz-adv-x="613" 
d="M151 -267c-23.333 0 -39.832 8.83203 -49.499 26.499s-14.5 41.5 -14.5 71.5l1 669h111v-299c0 -39.333 7.5 -72 22.5 -98s37.5 -39 67.5 -39c34.667 0 64.667 16.333 90 49v387h112l-1 -358c0 -17.333 2 -32.5 6 -45.5s12.333 -19.5 25 -19.5
c5.33301 0 11 1.16699 17 3.5s13.333 6.83301 22 13.5l25 -33c-10 -14.667 -25.333 -29.334 -46 -44.001s-43.334 -22 -68.001 -22c-43.333 0 -70.333 17.667 -81 53c-36.667 -38.667 -77.667 -58 -123 -58c-22.667 0 -43.834 6.83301 -63.501 20.5s-36.5 35.5 -50.5 65.5
l-5 -3c10.667 -46 19.834 -83.667 27.501 -113l19 -71.5c5 -18.333 8.66699 -34.166 11 -47.499s3.5 -26.666 3.5 -39.999c0 -16.667 -4.33301 -32.167 -13 -46.5s-23.667 -21.5 -45 -21.5z" />
    <glyph glyph-name="paragraph" unicode="&#xb6;" horiz-adv-x="549" 
d="M168 -255l1.99902 659.003c-21.333 3.33301 -42.166 10.166 -62.499 20.499s-37 25.666 -50 45.999s-19.5 47.166 -19.5 80.499s7.16699 61 21.5 83s33 38.5 56 49.5s46.833 16.5 71.5 16.5h270l-2 -955h-97l2 895l-92 -1l-2 -894h-98z" />
    <glyph glyph-name="periodcentered" unicode="&#xb7;" horiz-adv-x="234" 
d="M118 264c-19.333 0 -35.5 7.16699 -48.5 21.5s-19.5 31.5 -19.5 51.5c0 20.667 6.83301 38.167 20.5 52.5s29.5 21.5 47.5 21.5c19.333 0 35.333 -7.16699 48 -21.5s19 -31.833 19 -52.5c0 -20 -6.16699 -37.167 -18.5 -51.5s-28.5 -21.5 -48.5 -21.5z" />
    <glyph glyph-name="cedilla" unicode="&#xb8;" horiz-adv-x="314" 
d="M52 -253l-7.00098 46.0039c14.667 2.66699 31.334 6.66699 50.001 12s35 12.5 49 21.5s21 20.167 21 33.5c0 12.667 -4.33301 20.667 -13 24s-18.667 3.66602 -30 0.999023s-20.666 -6.66699 -27.999 -12l-36 16l30 120h70l-28 -80c8.66699 5.33301 19.667 9.5 33 12.5
s25 4.5 35 4.5c20.667 -0.666992 37.667 -6.66699 51 -18s20 -28.333 20 -51c0 -22 -7.66699 -40.833 -23 -56.5s-34.5 -28.334 -57.5 -38.001s-46.833 -17.334 -71.5 -23.001s-46.334 -9.83398 -65.001 -12.501z" />
    <glyph glyph-name="uni00B9" unicode="&#xb9;" horiz-adv-x="280" 
d="M68 301v35.001c15.333 0 26.333 4 33 12s10 23.333 10 46v233l-63 -37l-19 36l134 90h32v-329c0 -8.66699 -0.166992 -17.334 -0.5 -26.001s-0.833008 -15.667 -1.5 -21c7.33301 0.666992 15.333 1 24 1s16 0.333008 22 1v-41h-171z" />
    <glyph glyph-name="ordmasculine" unicode="&#xba;" horiz-adv-x="392" 
d="M195 369c-31.333 0 -59.001 7.16602 -83.001 21.499s-42.667 34 -56 59s-20 53.833 -20 86.5c0 34 6.66699 64.5 20 91.5s32.166 48.5 56.499 64.5s52.833 24 85.5 24c48 0 86.167 -15.667 114.5 -47s42.833 -71.666 43.5 -120.999
c0.666992 -52.667 -13.666 -95.667 -42.999 -129s-68.666 -50 -117.999 -50zM200.999 418.999c20 0 35.333 10.3301 46 30.9971s16 48.334 16 83.001c0 38.667 -5.16699 71.334 -15.5 98.001s-27.833 39.334 -52.5 38.001c-20 -1.33301 -35.5 -12 -46.5 -32
s-16.5 -48 -16.5 -84c0 -40 5.5 -72.5 16.5 -97.5s28.5 -37.167 52.5 -36.5z" />
    <glyph glyph-name="guillemotright" unicode="&#xbb;" horiz-adv-x="505" 
d="M212 -14l-42 43l192 246v1l-189 235l42 41l266 -270v-17zM84 66l-42 35l107 167v1l-105 167l42 36l178 -193v-16z" />
    <glyph glyph-name="onequarter" unicode="&#xbc;" horiz-adv-x="770" 
d="M68 301v35.001c15.333 0 26.333 4 33 12s10 23.333 10 46v233l-63 -37l-19 36l134 90h32v-329c0 -8.66699 -0.166992 -17.334 -0.5 -26.001s-0.833008 -15.667 -1.5 -21c7.33301 0.666992 15.333 1 24 1s16 0.333008 22 1v-41h-171zM180 -15.999l-56 41l451 691l60 -46z
M544 -2.99902l0.000976562 35c15.333 0.666992 26.333 4.66699 33 12s10 22 10 44v12h-157v49l209 262h32v-262l58 -1v-49h-58c0 -11.333 -0.166992 -22.5 -0.5 -33.5s-0.5 -20.5 -0.5 -28.5c6 0 13.167 0.166992 21.5 0.5s15.166 0.5 20.499 0.5v-41h-168zM589.001 150.001
l2 137l-100 -135z" />
    <glyph glyph-name="onehalf" unicode="&#xbd;" horiz-adv-x="792" 
d="M68 301v35.001c15.333 0 26.333 4 33 12s10 23.333 10 46v233l-63 -37l-19 36l134 90h32v-329c0 -8.66699 -0.166992 -17.334 -0.5 -26.001s-0.833008 -15.667 -1.5 -21c7.33301 0.666992 15.333 1 24 1s16 0.333008 22 1v-41h-171zM180 -15.999l-56 41l451 691l60 -46z
M474 -1.99902c0 30 4.99902 55.8379 14.999 77.5049s23 41.167 39 58.5s33.333 34 52 50c26.667 22.667 43.667 44.167 51 64.5s11 37.166 11 50.499c0 20.667 -4.66699 36 -14 46s-22 15 -38 15c-10 0 -19.167 -2.33301 -27.5 -7s-13.5 -10.334 -15.5 -17.001
c4.66699 -3.33301 7.83398 -7.83301 9.50098 -13.5s2.5 -10.5 2.5 -14.5c0 -8 -3.5 -17 -10.5 -27s-18.167 -15 -33.5 -15c-12.667 0.666992 -22.667 5.5 -30 14.5s-11 19.833 -11 32.5c0 13.333 5 27.666 15 42.999s24.833 28.333 44.5 39s43.834 16 72.501 16
c22.667 0 44 -3.66699 64 -11s36.333 -18.833 49 -34.5s19 -36.167 19 -61.5c0 -29.333 -12.833 -56.333 -38.5 -81s-59.5 -54.334 -101.5 -89.001c-14 -10.667 -24.667 -20.834 -32 -30.501s-13 -19.834 -17 -30.501l110 -2c15.333 -0.666992 27.666 0.833008 36.999 4.5
s14 14.834 14 33.501h41l-6 -111h-271z" />
    <glyph glyph-name="threequarters" unicode="&#xbe;" horiz-adv-x="809" 
d="M169 296c-40 0.666992 -71.168 10.8369 -93.501 30.5039s-33.5 41.167 -33.5 64.5c0 12.667 4 24 12 34s18.333 15.333 31 16c16.667 0.666992 28 -3.83301 34 -13.5s9 -19.834 9 -30.501c0 -3.33301 -0.833008 -8.33301 -2.5 -15s-4.83398 -12 -9.50098 -16
c4 -8.66699 11.333 -14.5 22 -17.5s20.334 -4.5 29.001 -4.5c21.333 0 38 7.16699 50 21.5s18 31.166 18 50.499c0 20 -6.16699 37.833 -18.5 53.5s-33.166 23.5 -62.499 23.5h-16c-6 0 -11.333 -0.333008 -16 -1v47c4.66699 0 9.33398 -0.166992 14.001 -0.5
s9 -0.5 13 -0.5c20 0 35.167 4 45.5 12s17.166 17.333 20.499 28s5 20.667 5 30c0 17.333 -4.5 31.833 -13.5 43.5s-23.167 17.5 -42.5 17.5c-11.333 0 -20.666 -2.33301 -27.999 -7s-12 -9.33398 -14 -14.001c4.66699 -4 7.83398 -8.83301 9.50098 -14.5
s2.5 -10.167 2.5 -13.5c0 -8 -3.16699 -17 -9.5 -27s-17.5 -14.667 -33.5 -14c-12.667 0 -22.834 4.16699 -30.501 12.5s-11.5 19.166 -11.5 32.499c0 12 4.66699 25.167 14 39.5s23.666 26.666 42.999 36.999s44 15.5 74 15.5c36.667 0 67.167 -8.66699 91.5 -26
s36.5 -42.666 36.5 -75.999c0 -18.667 -7.33301 -36.667 -22 -54s-33.667 -29 -57 -35c32.667 -5.33301 57 -17.333 73 -36s24.333 -40.667 25 -66c1.33301 -35.333 -11.5 -65.333 -38.5 -90s-66.833 -37 -119.5 -37zM218.999 -15.9971l-56 41l451 691l60 -46z
M582.999 -2.99707l0.000976562 35c15.333 0.666992 26.333 4.66699 33 12s10 22 10 44v12h-157v49l209 262h32v-262l58 -1v-49h-58c0 -11.333 -0.166992 -22.5 -0.5 -33.5s-0.5 -20.5 -0.5 -28.5c6 0 13.167 0.166992 21.5 0.5s15.166 0.5 20.499 0.5v-41h-168zM628 150.003
l2 137l-100 -135z" />
    <glyph glyph-name="questiondown" unicode="&#xbf;" horiz-adv-x="484" 
d="M247 516c17.333 0 32.668 -6.83203 46.001 -20.499s20 -30.834 20 -51.501c0 -19.333 -6.83301 -36 -20.5 -50s-29.167 -21 -46.5 -21c-18.667 0 -34.334 7 -47.001 21s-19 30.667 -19 50c0 20 6.66699 37 20 51s29 21 47 21zM255.002 317.001
c21.333 0 40.835 -5.1709 58.502 -15.5039s26.5 -28.166 26.5 -53.499c0 -18 -6.5 -35.333 -19.5 -52s-34.833 -39.667 -65.5 -69c-24 -22.667 -44.667 -46.5 -62 -71.5s-26 -56.5 -26 -94.5c-0.666992 -33.333 6 -61.166 20 -83.499s40 -33.5 78 -33.5
c20 0 38.167 4.83301 54.5 14.5s27.166 19.834 32.499 30.501c-6 6 -10.167 13.333 -12.5 22s-3.5 16.667 -3.5 24s2.16699 15.833 6.5 25.5s10.833 17.834 19.5 24.501s20.334 9.66699 35.001 9c18.667 -0.666992 32.667 -7.16699 42 -19.5s14 -27.5 14 -45.5
c0 -22 -8.66699 -44.167 -26 -66.5s-41.5 -41 -72.5 -56s-66.833 -22.5 -107.5 -22.5c-52.667 0 -94.334 8 -125.001 24s-52.5 36.667 -65.5 62s-19.167 51.333 -18.5 78c0.666992 28 8.16699 53.333 22.5 76s32.166 43.5 53.499 62.5s42.333 36.5 63 52.5
s38.167 31 52.5 45s21.5 27.333 21.5 40c0 8.66699 -3.16699 16 -9.5 22s-16.833 9 -31.5 9c-4 0 -8.83301 -0.333008 -14.5 -1s-11.5 -2 -17.5 -4l-14 46c14.667 8 30.5 13.5 47.5 16.5s31.5 4.5 43.5 4.5z" />
    <glyph glyph-name="Agrave" unicode="&#xc0;" horiz-adv-x="654" 
d="M1 0v56.9971c18.667 0 33.667 5.33301 45 16s20.666 24.834 27.999 42.501s15 37.5 23 59.5l199 543h54l217 -553c4 -11.333 9.33301 -27.5 16 -48.5s10.334 -38.833 11.001 -53.5l33 2c10.667 0.666992 20 1 28 1v-66h-255v55c20.667 0 34.667 4.33301 42 13
s10.333 20 9 34s-4.66602 28.333 -9.99902 43l-25 68l-232 -4l-22 -67l-14 -38.5c-5.33301 -14.333 -10.666 -27.166 -15.999 -38.499c11.333 0.666992 24.166 1.33398 38.499 2.00098s26.166 1 35.499 1v-68h-205zM206 272.997h188l-54 147
c-8 22.667 -15.667 45.667 -23 69s-13 44.333 -17 63h-2l-15 -53c-6 -21.333 -13.667 -45.333 -23 -72zM350 752.997l-143.001 79.999c-18 11.333 -29.5 25 -34.5 41s-3.16699 30.333 5.5 43c8.66699 12 21.334 18.333 38.001 19s33 -6.66602 49 -21.999l116 -118z" />
    <glyph glyph-name="Aacute" unicode="&#xc1;" horiz-adv-x="654" 
d="M295 753l-31 43.001l116 118c15.333 15.333 31.333 22.666 48 21.999s29.667 -7 39 -19c8.66699 -12.667 10.5 -27 5.5 -43s-16.5 -29.667 -34.5 -41zM1 0.000976562v56.9971c18.667 0 33.667 5.33301 45 16s20.666 24.834 27.999 42.501s15 37.5 23 59.5l199 543h54
l217 -553c4 -11.333 9.33301 -27.5 16 -48.5s10.334 -38.833 11.001 -53.5l33 2c10.667 0.666992 20 1 28 1v-66h-255v55c20.667 0 34.667 4.33301 42 13s10.333 20 9 34s-4.66602 28.333 -9.99902 43l-25 68l-232 -4l-22 -67l-14 -38.5
c-5.33301 -14.333 -10.666 -27.166 -15.999 -38.499c11.333 0.666992 24.166 1.33398 38.499 2.00098s26.166 1 35.499 1v-68h-205zM206 272.998h188l-54 147c-8 22.667 -15.667 45.667 -23 69s-13 44.333 -17 63h-2l-15 -53c-6 -21.333 -13.667 -45.333 -23 -72z" />
    <glyph glyph-name="Acircumflex" unicode="&#xc2;" horiz-adv-x="654" 
d="M1 0v56.9971c18.667 0 33.667 5.33301 45 16s20.666 24.834 27.999 42.501s15 37.5 23 59.5l199 543h54l217 -553c4 -11.333 9.33301 -27.5 16 -48.5s10.334 -38.833 11.001 -53.5l33 2c10.667 0.666992 20 1 28 1v-66h-255v55c20.667 0 34.667 4.33301 42 13
s10.333 20 9 34s-4.66602 28.333 -9.99902 43l-25 68l-232 -4l-22 -67l-14 -38.5c-5.33301 -14.333 -10.666 -27.166 -15.999 -38.499c11.333 0.666992 24.166 1.33398 38.499 2.00098s26.166 1 35.499 1v-68h-205zM206 272.997h188l-54 147
c-8 22.667 -15.667 45.667 -23 69s-13 44.333 -17 63h-2l-15 -53c-6 -21.333 -13.667 -45.333 -23 -72zM459 768.997l-135 86l-138 -84l-26 39l161 148h14l153 -147z" />
    <glyph glyph-name="Atilde" unicode="&#xc3;" horiz-adv-x="654" 
d="M1 0v56.9971c18.667 0 33.667 5.33301 45 16s20.666 24.834 27.999 42.501s15 37.5 23 59.5l199 543h54l217 -553c4 -11.333 9.33301 -27.5 16 -48.5s10.334 -38.833 11.001 -53.5l33 2c10.667 0.666992 20 1 28 1v-66h-255v55c20.667 0 34.667 4.33301 42 13
s10.333 20 9 34s-4.66602 28.333 -9.99902 43l-25 68l-232 -4l-22 -67l-14 -38.5c-5.33301 -14.333 -10.666 -27.166 -15.999 -38.499c11.333 0.666992 24.166 1.33398 38.499 2.00098s26.166 1 35.499 1v-68h-205zM206 272.997h188l-54 147
c-8 22.667 -15.667 45.667 -23 69s-13 44.333 -17 63h-2l-15 -53c-6 -21.333 -13.667 -45.333 -23 -72zM526 910.997c-10.667 -32 -23.334 -56.832 -38.001 -74.499s-29.834 -29.834 -45.501 -36.501s-30.5 -10 -44.5 -10c-22 0 -41.167 4.66699 -57.5 14
s-31.666 18.833 -45.999 28.5s-30.5 14.5 -48.5 14.5c-12.667 0 -26 -4.33301 -40 -13s-27.333 -22.667 -40 -42l-49 31c14 34 33.167 60 57.5 78s47.833 27.333 70.5 28c18 0 33.5 -2.83301 46.5 -8.5s25 -12.167 36 -19.5s22 -13.833 33 -19.5s23.167 -8.5 36.5 -8.5
c14.667 0 29.334 6.16699 44.001 18.5s27 27.833 37 46.5z" />
    <glyph glyph-name="Adieresis" unicode="&#xc4;" horiz-adv-x="654" 
d="M1 0v56.9971c18.667 0 33.667 5.33301 45 16s20.666 24.834 27.999 42.501s15 37.5 23 59.5l199 543h54l217 -553c4 -11.333 9.33301 -27.5 16 -48.5s10.334 -38.833 11.001 -53.5l33 2c10.667 0.666992 20 1 28 1v-66h-255v55c20.667 0 34.667 4.33301 42 13
s10.333 20 9 34s-4.66602 28.333 -9.99902 43l-25 68l-232 -4l-22 -67l-14 -38.5c-5.33301 -14.333 -10.666 -27.166 -15.999 -38.499c11.333 0.666992 24.166 1.33398 38.499 2.00098s26.166 1 35.499 1v-68h-205zM206 272.997h188l-54 147
c-8 22.667 -15.667 45.667 -23 69s-13 44.333 -17 63h-2l-15 -53c-6 -21.333 -13.667 -45.333 -23 -72zM234 789.997c-16.667 0 -31.1689 6.83301 -43.502 20.5s-18.5 30.5 -18.5 50.5s6.33301 37.167 19 51.5s27.334 21.5 44.001 21.5c17.333 0 32 -7.16699 44 -21.5
s18 -31.5 18 -51.5s-6.16699 -36.833 -18.5 -50.5s-27.166 -20.5 -44.499 -20.5zM409.998 789.997c-16 0 -30.335 6.83301 -43.002 20.5s-19 30.5 -19 50.5s6.33301 37.167 19 51.5s27.334 21.5 44.001 21.5c18 0 32.833 -7.16699 44.5 -21.5s17.5 -31.5 17.5 -51.5
s-6.16699 -36.833 -18.5 -50.5s-27.166 -20.5 -44.499 -20.5z" />
    <glyph glyph-name="Aring" unicode="&#xc5;" horiz-adv-x="654" 
d="M1 0v56.9971c18.667 0 33.667 5.33301 45 16s20.666 24.834 27.999 42.501s15 37.5 23 59.5l199 543h54l217 -553c4 -11.333 9.33301 -27.5 16 -48.5s10.334 -38.833 11.001 -53.5l33 2c10.667 0.666992 20 1 28 1v-66h-255v55c20.667 0 34.667 4.33301 42 13
s10.333 20 9 34s-4.66602 28.333 -9.99902 43l-25 68l-232 -4l-22 -67l-14 -38.5c-5.33301 -14.333 -10.666 -27.166 -15.999 -38.499c11.333 0.666992 24.166 1.33398 38.499 2.00098s26.166 1 35.499 1v-68h-205zM206 272.997h188l-54 147
c-8 22.667 -15.667 45.667 -23 69s-13 44.333 -17 63h-2l-15 -53c-6 -21.333 -13.667 -45.333 -23 -72zM323 738.997c-20 0 -39.6631 4 -58.9961 12s-35.333 20.5 -48 37.5s-19.334 39.167 -20.001 66.5c-1.33301 25.333 4.16699 47.5 16.5 66.5s28.5 34 48.5 45
s40.333 16.5 61 16.5c19.333 0 38.666 -4.16699 57.999 -12.5s35.5 -21 48.5 -38s20.167 -38.833 21.5 -65.5c0.666992 -26.667 -5.33301 -49.5 -18 -68.5s-28.834 -33.667 -48.501 -44s-39.834 -15.5 -60.501 -15.5zM329.004 786.997c11.333 0 21.167 5.49805 29.5 16.498
s12.5 26.833 12.5 47.5c0 28.667 -5 50.334 -15 65.001s-22.667 21.334 -38 20.001c-12.667 -0.666992 -23.167 -7.16699 -31.5 -19.5s-12.5 -28.833 -12.5 -49.5c0 -26 5 -46.167 15 -60.5s23.333 -20.833 40 -19.5z" />
    <glyph glyph-name="AE" unicode="&#xc6;" horiz-adv-x="940" 
d="M-11 0l-0.00195312 55.002c16.667 0 31.834 5.33301 45.501 16s26.334 23.667 38.001 39l33.5 46l335 481l-80 -3v66h501l5 -188h-55c0 37.333 -6.16699 65.666 -18.5 84.999s-28.166 32.333 -47.499 39s-39 9.66699 -59 9l-53 -1
c-26.667 -0.666992 -45 -7.33398 -55 -20.001s-15 -38.667 -15 -78v-153l141 -1l-5 87h66v-232h-55c0 28.667 -4.33301 49.167 -13 61.5s-20.834 20 -36.501 23s-34.167 4.16699 -55.5 3.5l-42 -2v-184c0 -18 -0.333008 -34.5 -1 -49.5s-1.66699 -26.833 -3 -35.5l155 -1
c22.667 0 43.667 4.66699 63 14s35 24.833 47 46.5s18 51.167 18 88.5h55l-6 -212h-524v56c16 0.666992 29.167 3 39.5 7s18 12.167 23 24.5s7.5 31.5 7.5 57.5v67l-211 -5l-40 -59c-10.667 -16 -21.5 -31.333 -32.5 -46s-21.833 -27.667 -32.5 -39l79 3v-66h-212z
M268.998 270.002h169v257z" />
    <glyph glyph-name="Ccedilla" unicode="&#xc7;" horiz-adv-x="692" 
d="M580 476c-8 58 -27.6699 102.168 -59.0029 132.501s-72 45.5 -122 45.5c-47.333 0 -87.5 -13.5 -120.5 -40.5s-58.333 -62.833 -76 -107.5s-26.5 -94 -26.5 -148c0 -59.333 9.5 -111.666 28.5 -156.999s45.667 -81 80 -107s74.5 -39 120.5 -39
c42.667 0 84.667 10.5 126 31.5s76 50.833 104 89.5l41 -37c-31.333 -42.667 -64.666 -75.167 -99.999 -97.5s-69.833 -37.5 -103.5 -45.5s-64.167 -12 -91.5 -12c-51.333 0 -98 9.16699 -140 27.5s-78 43.666 -108 75.999s-53.167 70 -69.5 113s-24.5 89.5 -24.5 139.5
c0 46 7.16699 91.167 21.5 135.5s36 84.666 65 120.999s65.333 65.333 109 87s94.834 32.5 153.501 32.5c29.333 0 59.833 -4.5 91.5 -13.5s61.834 -22.167 90.501 -39.5l-4 46h69v-233h-55zM307.997 -269.999l-7.00195 49.0039c14.667 2.66699 31.5 7.5 50.5 14.5
s35.5 15.667 49.5 26s21 22.5 21 36.5c0 12.667 -4.33301 20.667 -13 24s-18.5 3.66602 -29.5 0.999023s-20.5 -7 -28.5 -13l-39 16l29 125h74l-28 -79c8.66699 4.66699 19.834 8.33398 33.501 11.001s24.834 4 33.501 4c22.667 0 41 -6.5 55 -19.5s21 -30.5 21 -52.5
c0 -22.667 -7.83301 -42.334 -23.5 -59.001s-35.5 -30.834 -59.5 -42.501s-48.5 -20.834 -73.5 -27.501s-46.833 -11.334 -65.5 -14.001z" />
    <glyph glyph-name="Egrave" unicode="&#xc8;" horiz-adv-x="623" 
d="M394 247c0 28.667 -4.16797 49.1699 -12.501 61.5029s-20.333 20 -36 23s-34.5 4.16699 -56.5 3.5l-41 -2v-185c0 -18 -0.333008 -34.5 -1 -49.5s-1.66699 -26.833 -3 -35.5l153 1c22.667 0 43.834 4.5 63.501 13.5s35.5 24.333 47.5 46s18 51.167 18 88.5h55l-5 -212
h-524v55c27.333 1.33301 45.833 8.5 55.5 21.5s14.5 38.833 14.5 77.5v399c0 16.667 0.333008 32.667 1 48s1.66699 27.333 3 36c-11.333 0 -24.333 -0.333008 -39 -1s-26.334 -1.33398 -35.001 -2.00098v66h493l6 -188h-55c0 37.333 -6.16699 65.666 -18.5 84.999
s-28.166 32.333 -47.499 39s-39.333 9.66699 -60 9l-52 -1c-26.667 -0.666992 -45 -7.33398 -55 -20.001s-15 -38.667 -15 -78v-153l140 -1l-5 87h66v-232h-55zM352.999 753.003l-143.001 79.999c-18 11.333 -29.5 25 -34.5 41s-3.16699 30.333 5.5 43
c8.66699 12 21.334 18.333 38.001 19s33 -6.66602 49 -21.999l116 -118z" />
    <glyph glyph-name="Eacute" unicode="&#xc9;" horiz-adv-x="623" 
d="M287 753l-32.001 43.001l116 118c16 15.333 32.333 22.666 49 21.999s29.334 -7 38.001 -19c8.66699 -12.667 10.5 -27 5.5 -43s-16.167 -29.667 -33.5 -41zM393.999 247.001c0 28.667 -4.16797 49.1699 -12.501 61.5029s-20.333 20 -36 23s-34.5 4.16699 -56.5 3.5
l-41 -2v-185c0 -18 -0.333008 -34.5 -1 -49.5s-1.66699 -26.833 -3 -35.5l153 1c22.667 0 43.834 4.5 63.501 13.5s35.5 24.333 47.5 46s18 51.167 18 88.5h55l-5 -212h-524v55c27.333 1.33301 45.833 8.5 55.5 21.5s14.5 38.833 14.5 77.5v399
c0 16.667 0.333008 32.667 1 48s1.66699 27.333 3 36c-11.333 0 -24.333 -0.333008 -39 -1s-26.334 -1.33398 -35.001 -2.00098v66h493l6 -188h-55c0 37.333 -6.16699 65.666 -18.5 84.999s-28.166 32.333 -47.499 39s-39.333 9.66699 -60 9l-52 -1
c-26.667 -0.666992 -45 -7.33398 -55 -20.001s-15 -38.667 -15 -78v-153l140 -1l-5 87h66v-232h-55z" />
    <glyph glyph-name="Ecircumflex" unicode="&#xca;" horiz-adv-x="623" 
d="M394 247c0 28.667 -4.16797 49.1699 -12.501 61.5029s-20.333 20 -36 23s-34.5 4.16699 -56.5 3.5l-41 -2v-185c0 -18 -0.333008 -34.5 -1 -49.5s-1.66699 -26.833 -3 -35.5l153 1c22.667 0 43.834 4.5 63.501 13.5s35.5 24.333 47.5 46s18 51.167 18 88.5h55l-5 -212
h-524v55c27.333 1.33301 45.833 8.5 55.5 21.5s14.5 38.833 14.5 77.5v399c0 16.667 0.333008 32.667 1 48s1.66699 27.333 3 36c-11.333 0 -24.333 -0.333008 -39 -1s-26.334 -1.33398 -35.001 -2.00098v66h493l6 -188h-55c0 37.333 -6.16699 65.666 -18.5 84.999
s-28.166 32.333 -47.499 39s-39.333 9.66699 -60 9l-52 -1c-26.667 -0.666992 -45 -7.33398 -55 -20.001s-15 -38.667 -15 -78v-153l140 -1l-5 87h66v-232h-55zM460.999 769.003l-135 86l-138 -84l-26 39l161 148h14l153 -147z" />
    <glyph glyph-name="Edieresis" unicode="&#xcb;" horiz-adv-x="623" 
d="M394 247c0 28.667 -4.16797 49.1699 -12.501 61.5029s-20.333 20 -36 23s-34.5 4.16699 -56.5 3.5l-41 -2v-185c0 -18 -0.333008 -34.5 -1 -49.5s-1.66699 -26.833 -3 -35.5l153 1c22.667 0 43.834 4.5 63.501 13.5s35.5 24.333 47.5 46s18 51.167 18 88.5h55l-5 -212
h-524v55c27.333 1.33301 45.833 8.5 55.5 21.5s14.5 38.833 14.5 77.5v399c0 16.667 0.333008 32.667 1 48s1.66699 27.333 3 36c-11.333 0 -24.333 -0.333008 -39 -1s-26.334 -1.33398 -35.001 -2.00098v66h493l6 -188h-55c0 37.333 -6.16699 65.666 -18.5 84.999
s-28.166 32.333 -47.499 39s-39.333 9.66699 -60 9l-52 -1c-26.667 -0.666992 -45 -7.33398 -55 -20.001s-15 -38.667 -15 -78v-153l140 -1l-5 87h66v-232h-55zM236.999 790.003c-16.667 0 -31.1689 6.83301 -43.502 20.5s-18.5 30.5 -18.5 50.5s6.33301 37.167 19 51.5
s27.334 21.5 44.001 21.5c17.333 0 32 -7.16699 44 -21.5s18 -31.5 18 -51.5s-6.16699 -36.833 -18.5 -50.5s-27.166 -20.5 -44.499 -20.5zM412.997 790.003c-16 0 -30.335 6.83301 -43.002 20.5s-19 30.5 -19 50.5s6.33301 37.167 19 51.5s27.334 21.5 44.001 21.5
c18 0 32.833 -7.16699 44.5 -21.5s17.5 -31.5 17.5 -51.5s-6.16699 -36.833 -18.5 -50.5s-27.166 -20.5 -44.499 -20.5z" />
    <glyph glyph-name="Igrave" unicode="&#xcc;" horiz-adv-x="370" 
d="M318 645c-27.333 -1.33301 -45.833 -8.5 -55.5 -21.5s-14.5 -38.833 -14.5 -77.5v-397c0 -18 -0.333008 -34.833 -1 -50.5s-1.66699 -27.5 -3 -35.5c11.333 0.666992 24.333 1.33398 39 2.00098s26.334 1 35.001 1v-66h-266v55c27.333 1.33301 45.833 8.5 55.5 21.5
s14.5 38.833 14.5 77.5v399c0 16.667 0.333008 32.667 1 48s1.66699 27.333 3 36c-11.333 0 -24.333 -0.333008 -39 -1s-26.334 -1.33398 -35.001 -2.00098v66h266v-55zM213 753l-143.001 79.999c-18 11.333 -29.5 25 -34.5 41s-3.16699 30.333 5.5 43
c8.66699 12 21.334 18.333 38.001 19s33 -6.66602 49 -21.999l116 -118z" />
    <glyph glyph-name="Iacute" unicode="&#xcd;" horiz-adv-x="370" 
d="M147 753l-32.001 43.001l116 118c16 15.333 32.333 22.666 49 21.999s29.334 -7 38.001 -19c8.66699 -12.667 10.5 -27 5.5 -43s-16.167 -29.667 -33.5 -41zM317.999 645.001c-27.333 -1.33301 -45.833 -8.5 -55.5 -21.5s-14.5 -38.833 -14.5 -77.5v-397
c0 -18 -0.333008 -34.833 -1 -50.5s-1.66699 -27.5 -3 -35.5c11.333 0.666992 24.333 1.33398 39 2.00098s26.334 1 35.001 1v-66h-266v55c27.333 1.33301 45.833 8.5 55.5 21.5s14.5 38.833 14.5 77.5v399c0 16.667 0.333008 32.667 1 48s1.66699 27.333 3 36
c-11.333 0 -24.333 -0.333008 -39 -1s-26.334 -1.33398 -35.001 -2.00098v66h266v-55z" />
    <glyph glyph-name="Icircumflex" unicode="&#xce;" horiz-adv-x="370" 
d="M318 645c-27.333 -1.33301 -45.833 -8.5 -55.5 -21.5s-14.5 -38.833 -14.5 -77.5v-397c0 -18 -0.333008 -34.833 -1 -50.5s-1.66699 -27.5 -3 -35.5c11.333 0.666992 24.333 1.33398 39 2.00098s26.334 1 35.001 1v-66h-266v55c27.333 1.33301 45.833 8.5 55.5 21.5
s14.5 38.833 14.5 77.5v399c0 16.667 0.333008 32.667 1 48s1.66699 27.333 3 36c-11.333 0 -24.333 -0.333008 -39 -1s-26.334 -1.33398 -35.001 -2.00098v66h266v-55zM321 769l-135 86l-138 -84l-26 39l161 148h14l153 -147z" />
    <glyph glyph-name="Idieresis" unicode="&#xcf;" horiz-adv-x="370" 
d="M318 645c-27.333 -1.33301 -45.833 -8.5 -55.5 -21.5s-14.5 -38.833 -14.5 -77.5v-397c0 -18 -0.333008 -34.833 -1 -50.5s-1.66699 -27.5 -3 -35.5c11.333 0.666992 24.333 1.33398 39 2.00098s26.334 1 35.001 1v-66h-266v55c27.333 1.33301 45.833 8.5 55.5 21.5
s14.5 38.833 14.5 77.5v399c0 16.667 0.333008 32.667 1 48s1.66699 27.333 3 36c-11.333 0 -24.333 -0.333008 -39 -1s-26.334 -1.33398 -35.001 -2.00098v66h266v-55zM97 790c-16.667 0 -31.1689 6.83301 -43.502 20.5s-18.5 30.5 -18.5 50.5s6.33301 37.167 19 51.5
s27.334 21.5 44.001 21.5c17.333 0 32 -7.16699 44 -21.5s18 -31.5 18 -51.5s-6.16699 -36.833 -18.5 -50.5s-27.166 -20.5 -44.499 -20.5zM272.998 790c-16 0 -30.335 6.83301 -43.002 20.5s-19 30.5 -19 50.5s6.33301 37.167 19 51.5s27.334 21.5 44.001 21.5
c18 0 32.833 -7.16699 44.5 -21.5s17.5 -31.5 17.5 -51.5s-6.16699 -36.833 -18.5 -50.5s-27.166 -20.5 -44.499 -20.5z" />
    <glyph glyph-name="Eth" unicode="&#xd0;" horiz-adv-x="755" 
d="M53 55c27.333 1.33301 45.834 8.5 55.501 21.5s14.5 38.833 14.5 77.5v166h-97v66h97v167c0 16.667 0.333008 32.667 1 48s1.66699 27.333 3 36c-11.333 0 -24.333 -0.333008 -39 -1s-26.334 -1.33398 -35.001 -2.00098v66l272 1c86 0.666992 158 -14.666 216 -45.999
s101.833 -73.333 131.5 -126s44.5 -111 44.5 -175c0 -42 -7.5 -84 -22.5 -126s-38.167 -80.167 -69.5 -114.5s-71.333 -61.833 -120 -82.5s-106.667 -31 -174 -31h-278v55zM249.001 149c0 -18 -0.333008 -34.8311 -1 -50.498s-1.66699 -27.5 -3 -35.5
c15.333 0 33.333 -0.333008 54 -1s35.667 -1 45 -1c51.333 0 94.5 13.167 129.5 39.5s61.333 60.833 79 103.5s26.5 88.667 26.5 138c0 99.333 -22.333 174.166 -67 224.499s-108.667 76.166 -192 77.499c-28.667 0.666992 -47.667 -5.83301 -57 -19.5s-14 -39.5 -14 -77.5
v-161h163v-64l-163 -1v-172z" />
    <glyph glyph-name="Ntilde" unicode="&#xd1;" horiz-adv-x="769" 
d="M589 -12l-347 451l-23.5 32l-24.5 34h-1l2 -349c0 -38 -1 -69 -3 -93c11.333 0.666992 24.333 1.33398 39 2.00098s26.334 1 35.001 1v-66h-213v55c25.333 0.666992 43.166 6.83398 53.499 18.501s15.5 33.5 15.5 65.5l-1 416c0 16 0.333008 31.333 1 46
s1.33398 26.667 2.00098 36c-10.667 0 -23.334 -0.333008 -38.001 -1s-26.334 -1.33398 -35.001 -2.00098v66h144l329 -425l36.5 -47.5c10.333 -13.667 19.5 -26.5 27.5 -38.5h1v364c0 16.667 0.333008 32.667 1 48s1.33398 27.333 2.00098 36
c-10.667 0 -23.5 -0.333008 -38.5 -1s-26.833 -1.33398 -35.5 -2.00098v66h214v-55c-28 -1.33301 -46.667 -8.5 -56 -21.5s-14 -38.833 -14 -77.5l-1 -558h-72zM594 911c-10.667 -32 -23.334 -56.832 -38.001 -74.499s-29.834 -29.834 -45.501 -36.501s-30.5 -10 -44.5 -10
c-22 0 -41.167 4.66699 -57.5 14s-31.666 18.833 -45.999 28.5s-30.5 14.5 -48.5 14.5c-12.667 0 -26 -4.33301 -40 -13s-27.333 -22.667 -40 -42l-49 31c14 34 33.167 60 57.5 78s47.833 27.333 70.5 28c18 0 33.5 -2.83301 46.5 -8.5s25 -12.167 36 -19.5
s22 -13.833 33 -19.5s23.167 -8.5 36.5 -8.5c14.667 0 29.334 6.16699 44.001 18.5s27 27.833 37 46.5z" />
    <glyph glyph-name="Ograve" unicode="&#xd2;" horiz-adv-x="777" 
d="M389 -16c-63.333 0 -117.168 10.668 -161.501 32.001s-80.5 49.833 -108.5 85.5s-48.333 75.167 -61 118.5s-19 86.666 -19 129.999c0 42 7.16699 84.5 21.5 127.5s35.833 82.5 64.5 118.5s65 65 109 87s95.667 33 155 33c60.667 0 113 -11 157 -33
s80.333 -51.167 109 -87.5s49.834 -75.833 63.501 -118.5s20.5 -85 20.5 -127c0 -41.333 -7.16699 -83.5 -21.5 -126.5s-35.833 -82.5 -64.5 -118.5s-65 -65.167 -109 -87.5s-95.667 -33.5 -155 -33.5zM396.998 46.001c36.667 0.666992 68.001 9.50098 94.001 26.501
s47 39.667 63 68s27.833 59.166 35.5 92.499s11.5 66.333 11.5 99c0 59.333 -8.16699 113.5 -24.5 162.5s-41 88 -74 117s-74.167 43.167 -123.5 42.5c-36.667 -0.666992 -67.834 -9.83398 -93.501 -27.501s-46.667 -40.667 -63 -69s-28.166 -59.5 -35.499 -93.5
s-11 -67.333 -11 -100c0 -33.333 4 -68.333 12 -105s20.667 -71.167 38 -103.5s40.166 -58.666 68.499 -78.999s62.5 -30.5 102.5 -30.5zM412.999 753.002l-143.001 79.999c-18 11.333 -29.5 25 -34.5 41s-3.16699 30.333 5.5 43c8.66699 12 21.334 18.333 38.001 19
s33 -6.66602 49 -21.999l116 -118z" />
    <glyph glyph-name="Oacute" unicode="&#xd3;" horiz-adv-x="777" 
d="M347 753l-31.001 43.001l116 118c16 15.333 32.333 22.666 49 21.999s29.334 -7 38.001 -19c8.66699 -12.667 10.5 -27 5.5 -43s-16.5 -29.667 -34.5 -41zM388.999 -15.999c-63.333 0 -117.168 10.668 -161.501 32.001s-80.5 49.833 -108.5 85.5
s-48.333 75.167 -61 118.5s-19 86.666 -19 129.999c0 42 7.16699 84.5 21.5 127.5s35.833 82.5 64.5 118.5s65 65 109 87s95.667 33 155 33c60.667 0 113 -11 157 -33s80.333 -51.167 109 -87.5s49.834 -75.833 63.501 -118.5s20.5 -85 20.5 -127
c0 -41.333 -7.16699 -83.5 -21.5 -126.5s-35.833 -82.5 -64.5 -118.5s-65 -65.167 -109 -87.5s-95.667 -33.5 -155 -33.5zM396.997 46.002c36.667 0.666992 68.001 9.50098 94.001 26.501s47 39.667 63 68s27.833 59.166 35.5 92.499s11.5 66.333 11.5 99
c0 59.333 -8.16699 113.5 -24.5 162.5s-41 88 -74 117s-74.167 43.167 -123.5 42.5c-36.667 -0.666992 -67.834 -9.83398 -93.501 -27.501s-46.667 -40.667 -63 -69s-28.166 -59.5 -35.499 -93.5s-11 -67.333 -11 -100c0 -33.333 4 -68.333 12 -105
s20.667 -71.167 38 -103.5s40.166 -58.666 68.499 -78.999s62.5 -30.5 102.5 -30.5z" />
    <glyph glyph-name="Ocircumflex" unicode="&#xd4;" horiz-adv-x="777" 
d="M389 -16c-63.333 0 -117.168 10.668 -161.501 32.001s-80.5 49.833 -108.5 85.5s-48.333 75.167 -61 118.5s-19 86.666 -19 129.999c0 42 7.16699 84.5 21.5 127.5s35.833 82.5 64.5 118.5s65 65 109 87s95.667 33 155 33c60.667 0 113 -11 157 -33
s80.333 -51.167 109 -87.5s49.834 -75.833 63.501 -118.5s20.5 -85 20.5 -127c0 -41.333 -7.16699 -83.5 -21.5 -126.5s-35.833 -82.5 -64.5 -118.5s-65 -65.167 -109 -87.5s-95.667 -33.5 -155 -33.5zM396.998 46.001c36.667 0.666992 68.001 9.50098 94.001 26.501
s47 39.667 63 68s27.833 59.166 35.5 92.499s11.5 66.333 11.5 99c0 59.333 -8.16699 113.5 -24.5 162.5s-41 88 -74 117s-74.167 43.167 -123.5 42.5c-36.667 -0.666992 -67.834 -9.83398 -93.501 -27.501s-46.667 -40.667 -63 -69s-28.166 -59.5 -35.499 -93.5
s-11 -67.333 -11 -100c0 -33.333 4 -68.333 12 -105s20.667 -71.167 38 -103.5s40.166 -58.666 68.499 -78.999s62.5 -30.5 102.5 -30.5zM521.999 769.002l-135 86l-138 -84l-26 39l161 148h14l153 -147z" />
    <glyph glyph-name="Otilde" unicode="&#xd5;" horiz-adv-x="777" 
d="M389 -16c-63.333 0 -117.168 10.668 -161.501 32.001s-80.5 49.833 -108.5 85.5s-48.333 75.167 -61 118.5s-19 86.666 -19 129.999c0 42 7.16699 84.5 21.5 127.5s35.833 82.5 64.5 118.5s65 65 109 87s95.667 33 155 33c60.667 0 113 -11 157 -33
s80.333 -51.167 109 -87.5s49.834 -75.833 63.501 -118.5s20.5 -85 20.5 -127c0 -41.333 -7.16699 -83.5 -21.5 -126.5s-35.833 -82.5 -64.5 -118.5s-65 -65.167 -109 -87.5s-95.667 -33.5 -155 -33.5zM396.998 46.001c36.667 0.666992 68.001 9.50098 94.001 26.501
s47 39.667 63 68s27.833 59.166 35.5 92.499s11.5 66.333 11.5 99c0 59.333 -8.16699 113.5 -24.5 162.5s-41 88 -74 117s-74.167 43.167 -123.5 42.5c-36.667 -0.666992 -67.834 -9.83398 -93.501 -27.501s-46.667 -40.667 -63 -69s-28.166 -59.5 -35.499 -93.5
s-11 -67.333 -11 -100c0 -33.333 4 -68.333 12 -105s20.667 -71.167 38 -103.5s40.166 -58.666 68.499 -78.999s62.5 -30.5 102.5 -30.5zM589.999 911.002c-10.667 -32 -23.334 -56.832 -38.001 -74.499s-29.834 -29.834 -45.501 -36.501s-30.5 -10 -44.5 -10
c-22 0 -41.167 4.66699 -57.5 14s-31.666 18.833 -45.999 28.5s-30.5 14.5 -48.5 14.5c-12.667 0 -26 -4.33301 -40 -13s-27.333 -22.667 -40 -42l-49 31c14 34 33.167 60 57.5 78s47.833 27.333 70.5 28c18 0 33.5 -2.83301 46.5 -8.5s25 -12.167 36 -19.5
s22 -13.833 33 -19.5s23.167 -8.5 36.5 -8.5c14.667 0 29.334 6.16699 44.001 18.5s27 27.833 37 46.5z" />
    <glyph glyph-name="Odieresis" unicode="&#xd6;" horiz-adv-x="777" 
d="M389 -16c-63.333 0 -117.168 10.668 -161.501 32.001s-80.5 49.833 -108.5 85.5s-48.333 75.167 -61 118.5s-19 86.666 -19 129.999c0 42 7.16699 84.5 21.5 127.5s35.833 82.5 64.5 118.5s65 65 109 87s95.667 33 155 33c60.667 0 113 -11 157 -33
s80.333 -51.167 109 -87.5s49.834 -75.833 63.501 -118.5s20.5 -85 20.5 -127c0 -41.333 -7.16699 -83.5 -21.5 -126.5s-35.833 -82.5 -64.5 -118.5s-65 -65.167 -109 -87.5s-95.667 -33.5 -155 -33.5zM396.998 46.001c36.667 0.666992 68.001 9.50098 94.001 26.501
s47 39.667 63 68s27.833 59.166 35.5 92.499s11.5 66.333 11.5 99c0 59.333 -8.16699 113.5 -24.5 162.5s-41 88 -74 117s-74.167 43.167 -123.5 42.5c-36.667 -0.666992 -67.834 -9.83398 -93.501 -27.501s-46.667 -40.667 -63 -69s-28.166 -59.5 -35.499 -93.5
s-11 -67.333 -11 -100c0 -33.333 4 -68.333 12 -105s20.667 -71.167 38 -103.5s40.166 -58.666 68.499 -78.999s62.5 -30.5 102.5 -30.5zM296.999 790.002c-16.667 0 -31.1689 6.83301 -43.502 20.5s-18.5 30.5 -18.5 50.5s6.33301 37.167 19 51.5s27.334 21.5 44.001 21.5
c17.333 0 32 -7.16699 44 -21.5s18 -31.5 18 -51.5s-6.16699 -36.833 -18.5 -50.5s-27.166 -20.5 -44.499 -20.5zM472.997 790.002c-16 0 -30.335 6.83301 -43.002 20.5s-19 30.5 -19 50.5s6.33301 37.167 19 51.5s27.334 21.5 44.001 21.5c18 0 32.833 -7.16699 44.5 -21.5
s17.5 -31.5 17.5 -51.5s-6.16699 -36.833 -18.5 -50.5s-27.166 -20.5 -44.499 -20.5z" />
    <glyph glyph-name="multiply" unicode="&#xd7;" horiz-adv-x="530" 
d="M133 543l134 -134l132 133l48 -48l-133 -132l134 -134l-48 -49l-134 134l-135 -135l-48 48l135 135l-134 134z" />
    <glyph glyph-name="Oslash" unicode="&#xd8;" horiz-adv-x="777" 
d="M389 -16c-27.333 0 -52.833 2.16895 -76.5 6.50195s-45.5 10.5 -65.5 18.5l-60 -102l-66 44l56 95c-32.667 24 -59.167 52.5 -79.5 85.5s-35.333 68.333 -45 106s-14.5 75.167 -14.5 112.5c0 42 7.16699 84.5 21.5 127.5s36 82.5 65 118.5s65.5 65 109.5 87
s95.333 33 154 33c30.667 0 59.167 -3 85.5 -9s50.5 -14.333 72.5 -25l54 94l72 -44l-56 -96c42 -36.667 73 -80.834 93 -132.501s30 -102.834 30 -153.501c0 -41.333 -7.16699 -83.5 -21.5 -126.5s-36 -82.5 -65 -118.5s-65.333 -65.167 -109 -87.5
s-95.167 -33.5 -154.5 -33.5zM176 364.002c0 -35.333 4.5 -72.8311 13.5 -112.498s23.5 -75.834 43.5 -108.501l271 466c-16.667 14.667 -35.5 26 -56.5 34s-43.833 11.667 -68.5 11c-36.667 -0.666992 -68 -9.83398 -94 -27.501s-47 -40.667 -63 -69
s-27.667 -59.5 -35 -93.5s-11 -67.333 -11 -100zM397 46.0039c36.667 0.666992 67.834 9.50098 93.501 26.501s46.667 39.667 63 68s28.166 59.166 35.499 92.499s11 66.333 11 99c0 39.333 -3.5 76.5 -10.5 111.5s-17.5 66.5 -31.5 94.5l-269 -457
c14.667 -10.667 31 -19.167 49 -25.5s37.667 -9.5 59 -9.5z" />
    <glyph glyph-name="Ugrave" unicode="&#xd9;" horiz-adv-x="757" 
d="M294 645c-26 -0.666992 -44.1631 -6.99902 -54.4961 -18.999s-15.5 -33.667 -15.5 -65v-268c0 -80 14.833 -139.667 44.5 -179s73.167 -59.333 130.5 -60c60.667 -1.33301 106.667 18 138 58s47 97.667 47 173l1 268c0 16.667 0.333008 32.667 1 48s1.66699 27.333 3 36
c-11.333 0 -24.333 -0.333008 -39 -1s-26.334 -1.33398 -35.001 -2.00098v66h216v-55c-27.333 -1.33301 -45.833 -8.5 -55.5 -21.5s-14.5 -38.833 -14.5 -77.5l-1 -244c0 -105.333 -24.333 -184.666 -73 -237.999s-116.334 -80 -203.001 -80
c-74 0 -131.833 13.5 -173.5 40.5s-70.834 65 -87.501 114s-25 106.167 -25 171.5v229c0 17.333 0.333008 35.5 1 54.5s1.66699 33.5 3 43.5c-11.333 0 -24.333 -0.333008 -39 -1s-26.334 -1.33398 -35.001 -2.00098v66h266v-55zM414.004 753.001l-143.001 79.999
c-18 11.333 -29.5 25 -34.5 41s-3.16699 30.333 5.5 43c8.66699 12 21.334 18.333 38.001 19s33 -6.66602 49 -21.999l116 -118z" />
    <glyph glyph-name="Uacute" unicode="&#xda;" horiz-adv-x="757" 
d="M348 753l-32.001 43.001l116 118c16 15.333 32.333 22.666 49 21.999s29.334 -7 38.001 -19c8.66699 -12.667 10.5 -27 5.5 -43s-16.167 -29.667 -33.5 -41zM293.999 645.001c-26 -0.666992 -44.1631 -6.99902 -54.4961 -18.999s-15.5 -33.667 -15.5 -65v-268
c0 -80 14.833 -139.667 44.5 -179s73.167 -59.333 130.5 -60c60.667 -1.33301 106.667 18 138 58s47 97.667 47 173l1 268c0 16.667 0.333008 32.667 1 48s1.66699 27.333 3 36c-11.333 0 -24.333 -0.333008 -39 -1s-26.334 -1.33398 -35.001 -2.00098v66h216v-55
c-27.333 -1.33301 -45.833 -8.5 -55.5 -21.5s-14.5 -38.833 -14.5 -77.5l-1 -244c0 -105.333 -24.333 -184.666 -73 -237.999s-116.334 -80 -203.001 -80c-74 0 -131.833 13.5 -173.5 40.5s-70.834 65 -87.501 114s-25 106.167 -25 171.5v229c0 17.333 0.333008 35.5 1 54.5
s1.66699 33.5 3 43.5c-11.333 0 -24.333 -0.333008 -39 -1s-26.334 -1.33398 -35.001 -2.00098v66h266v-55z" />
    <glyph glyph-name="Ucircumflex" unicode="&#xdb;" horiz-adv-x="757" 
d="M294 645c-26 -0.666992 -44.1631 -6.99902 -54.4961 -18.999s-15.5 -33.667 -15.5 -65v-268c0 -80 14.833 -139.667 44.5 -179s73.167 -59.333 130.5 -60c60.667 -1.33301 106.667 18 138 58s47 97.667 47 173l1 268c0 16.667 0.333008 32.667 1 48s1.66699 27.333 3 36
c-11.333 0 -24.333 -0.333008 -39 -1s-26.334 -1.33398 -35.001 -2.00098v66h216v-55c-27.333 -1.33301 -45.833 -8.5 -55.5 -21.5s-14.5 -38.833 -14.5 -77.5l-1 -244c0 -105.333 -24.333 -184.666 -73 -237.999s-116.334 -80 -203.001 -80
c-74 0 -131.833 13.5 -173.5 40.5s-70.834 65 -87.501 114s-25 106.167 -25 171.5v229c0 17.333 0.333008 35.5 1 54.5s1.66699 33.5 3 43.5c-11.333 0 -24.333 -0.333008 -39 -1s-26.334 -1.33398 -35.001 -2.00098v66h266v-55zM522.004 769.001l-135 86l-138 -84l-26 39
l161 148h14l153 -147z" />
    <glyph glyph-name="Udieresis" unicode="&#xdc;" horiz-adv-x="757" 
d="M294 645c-26 -0.666992 -44.1631 -6.99902 -54.4961 -18.999s-15.5 -33.667 -15.5 -65v-268c0 -80 14.833 -139.667 44.5 -179s73.167 -59.333 130.5 -60c60.667 -1.33301 106.667 18 138 58s47 97.667 47 173l1 268c0 16.667 0.333008 32.667 1 48s1.66699 27.333 3 36
c-11.333 0 -24.333 -0.333008 -39 -1s-26.334 -1.33398 -35.001 -2.00098v66h216v-55c-27.333 -1.33301 -45.833 -8.5 -55.5 -21.5s-14.5 -38.833 -14.5 -77.5l-1 -244c0 -105.333 -24.333 -184.666 -73 -237.999s-116.334 -80 -203.001 -80
c-74 0 -131.833 13.5 -173.5 40.5s-70.834 65 -87.501 114s-25 106.167 -25 171.5v229c0 17.333 0.333008 35.5 1 54.5s1.66699 33.5 3 43.5c-11.333 0 -24.333 -0.333008 -39 -1s-26.334 -1.33398 -35.001 -2.00098v66h266v-55zM298.004 790.001
c-16.667 0 -31.1689 6.83301 -43.502 20.5s-18.5 30.5 -18.5 50.5s6.33301 37.167 19 51.5s27.334 21.5 44.001 21.5c17.333 0 32 -7.16699 44 -21.5s18 -31.5 18 -51.5s-6.16699 -36.833 -18.5 -50.5s-27.166 -20.5 -44.499 -20.5zM474.002 790.001
c-16 0 -30.335 6.83301 -43.002 20.5s-19 30.5 -19 50.5s6.33301 37.167 19 51.5s27.334 21.5 44.001 21.5c18 0 32.833 -7.16699 44.5 -21.5s17.5 -31.5 17.5 -51.5s-6.16699 -36.833 -18.5 -50.5s-27.166 -20.5 -44.499 -20.5z" />
    <glyph glyph-name="Yacute" unicode="&#xdd;" horiz-adv-x="656" 
d="M302 753l-31 43.001l116 118c15.333 15.333 31.333 22.666 48 21.999s29.667 -7 39 -19c8.66699 -12.667 10.5 -27 5.5 -43s-16.5 -29.667 -34.5 -41zM207 0.000976562v54.999c27.333 1.33301 45.833 8.5 55.5 21.5s14.5 38.833 14.5 77.5v96l-180 286
c-12 18.667 -22 37.167 -30 55.5s-12.667 33.5 -14 45.5c-10.667 -0.666992 -20 -1.16699 -28 -1.5s-16.333 -0.833008 -25 -1.5v66h283v-55c-34.667 1.33301 -57.167 -5.66699 -67.5 -21s-6.83301 -37.666 10.5 -66.999l77 -125l26 -44l29 -51h1
c4.66699 10 10.834 22.5 18.501 37.5l27.5 54.5l63 122c4.66699 10 12 24.167 22 42.5s19.667 33.166 29 44.499c-11.333 -1.33301 -24.833 -2.16602 -40.5 -2.49902s-28.167 -0.833008 -37.5 -1.5v66h216v-55c-26.667 -2.66699 -49 -12.834 -67 -30.501
s-37.333 -45.5 -58 -83.5l-65.5 -124.5l-63.5 -121.5v-48v-51v-37c0 -18 -0.333008 -34.833 -1 -50.5s-1.66699 -27.5 -3 -35.5c12 0.666992 26.167 1.33398 42.5 2.00098s29.166 1 38.499 1v-66h-273z" />
    <glyph glyph-name="Thorn" unicode="&#xde;" horiz-adv-x="621" 
d="M52 0l-0.00292969 55c27.333 1.33301 45.833 8.5 55.5 21.5s14.5 38.833 14.5 77.5v399c0 16.667 0.333008 32.667 1 48s1.66699 27.333 3 36c-11.333 0 -24.333 -0.333008 -39 -1s-26.334 -1.33398 -35.001 -2.00098v66h266v-55
c-23.333 -0.666992 -40.5 -5.83398 -51.5 -15.501s-17.167 -28.5 -18.5 -56.5l58 1c60.667 0 113 -6.66699 157 -20s78 -35 102 -65s36 -69.667 36 -119c0.666992 -35.333 -9.16602 -69.166 -29.499 -101.499s-52.666 -59 -96.999 -80s-102.5 -32.167 -174.5 -33.5
c-11.333 0 -20.833 -0.166992 -28.5 -0.5s-15.5 -0.5 -23.5 -0.5c-0.666992 -22 -1.16699 -40.667 -1.5 -56s-1.16602 -27 -2.49902 -35c11.333 0.666992 24.333 1.33398 39 2.00098s26.334 1 35.001 1v-66h-266zM293.997 215c59.333 0.666992 102.833 14.667 130.5 42
s41.5 65.333 41.5 114c0 40.667 -8.33301 71.167 -25 91.5s-37.167 34 -61.5 41s-48.5 10.5 -72.5 10.5c-12 0 -22.833 -0.166992 -32.5 -0.5s-18.5 -0.5 -26.5 -0.5v-295c14 -2 29.333 -3 46 -3z" />
    <glyph glyph-name="germandbls" unicode="&#xdf;" horiz-adv-x="741" 
d="M548 -16c-24.667 0 -47.4971 3.33691 -68.4971 10.0039s-39.5 15.667 -55.5 27l2 -28h-64l-5 172h53c2.66699 -34.667 15.167 -63.334 37.5 -86.001s54.166 -34 95.499 -34c17.333 0 33.666 5.16699 48.999 15.5s23 25.166 23 44.499c0 21.333 -9.66699 38.333 -29 51
s-46.333 26 -81 40c-26 10.667 -51 22.5 -75 35.5s-43.667 29.833 -59 50.5s-23 48 -23 82c0 37.333 11.833 70.166 35.5 98.499s60.5 45.166 110.5 50.499c0 42 -4.5 75 -13.5 99s-20.5 41.833 -34.5 53.5s-28.667 19.167 -44 22.5s-29.333 4.66602 -42 3.99902
c-41.333 -0.666992 -73.833 -18 -97.5 -52s-35.5 -88.333 -35.5 -163v-333c0 -10.667 -0.166992 -23.667 -0.5 -39s-1.5 -30 -3.5 -44c10.667 1.33301 22.5 2.16602 35.5 2.49902s23.833 0.5 32.5 0.5v-64h-247v53c19.333 0 33.166 4.33301 41.499 13s13.5 20.5 15.5 35.5
s3 32.167 3 51.5v279l-76 -2v70h77c3.33301 60.667 16.5 109.834 39.5 147.501s53.5 65.334 91.5 83.001s81.333 26.5 130 26.5c23.333 0 49.166 -3.5 77.499 -10.5s55.333 -19.333 81 -37s46.667 -42.667 63 -75s24.5 -74.166 24.5 -125.499c0 -16 -1.33301 -34 -4 -54
c-16 1.33301 -33 2 -51 2s-35 -1.66699 -51 -5s-29 -9.33301 -39 -18s-15 -21.334 -15 -38.001c0 -22.667 9.66699 -40 29 -52s45.333 -24.333 78 -37c30.667 -12 58.334 -25.333 83.001 -40s44.167 -32.667 58.5 -54s21.5 -47 21.5 -77c0 -34 -7.83301 -62.333 -23.5 -85
s-36.667 -39.5 -63 -50.5s-55.5 -16.5 -87.5 -16.5z" />
    <glyph glyph-name="agrave" unicode="&#xe0;" horiz-adv-x="521" 
d="M329 0c-2 10 -3.16699 18.498 -3.5 25.498s-0.833008 15.167 -1.5 24.5c-23.333 -23.333 -47.666 -40.166 -72.999 -50.499s-51.666 -15.5 -78.999 -15.5c-45.333 0 -80.166 12.333 -104.499 37s-36.5 55 -36.5 91c0 31.333 8.66699 58.333 26 81s40 41.334 68 56.001
s59 25.5 93 32.5s67.667 11.167 101 12.5v55c0 19.333 -2.16699 37.166 -6.5 53.499s-12.166 29.333 -23.499 39s-28 14.5 -50 14.5c-15.333 -0.666992 -30.333 -3.83398 -45 -9.50098s-26.334 -14.5 -35.001 -26.5c5.33301 -6 8.66602 -12.5 9.99902 -19.5
s2 -13.167 2 -18.5c0 -12 -4.66699 -24.333 -14 -37s-24.333 -19 -45 -19c-18 0.666992 -31.833 7 -41.5 19s-14.5 26.333 -14.5 43c0 25.333 9.16699 47.5 27.5 66.5s43.166 34 74.499 45s66.333 16.5 105 16.5c57.333 0 101.333 -15.167 132 -45.5
s45.667 -78.166 45 -143.499c0 -35.333 -0.166992 -66.166 -0.5 -92.499s-0.5 -56.833 -0.5 -91.5c0 -10 -0.166992 -22.5 -0.5 -37.5s-1.5 -29.833 -3.5 -44.5c25.333 2 47.666 3.33301 66.999 4v-65h-173zM318 234.998c-26.667 -2 -52.334 -6.99902 -77.001 -14.999
s-44.834 -19.667 -60.501 -35s-23.167 -34.333 -22.5 -57c0.666992 -20.667 7.33398 -35.834 20.001 -45.501s27.334 -14.5 44.001 -14.5c18.667 0 36 4 52 12s30.667 18.667 44 32v21v22v35v45zM304 580.999l-118 106.001c-15.333 14.667 -23.666 30.5 -24.999 47.5
s4 31.167 16 42.5c11.333 8.66699 25.166 11.667 41.499 9s30.5 -13.334 42.5 -32.001l83 -138z" />
    <glyph glyph-name="aacute" unicode="&#xe1;" horiz-adv-x="521" 
d="M329 0c-2 10 -3.16699 18.498 -3.5 25.498s-0.833008 15.167 -1.5 24.5c-23.333 -23.333 -47.666 -40.166 -72.999 -50.499s-51.666 -15.5 -78.999 -15.5c-45.333 0 -80.166 12.333 -104.499 37s-36.5 55 -36.5 91c0 31.333 8.66699 58.333 26 81s40 41.334 68 56.001
s59 25.5 93 32.5s67.667 11.167 101 12.5v55c0 19.333 -2.16699 37.166 -6.5 53.499s-12.166 29.333 -23.499 39s-28 14.5 -50 14.5c-15.333 -0.666992 -30.333 -3.83398 -45 -9.50098s-26.334 -14.5 -35.001 -26.5c5.33301 -6 8.66602 -12.5 9.99902 -19.5
s2 -13.167 2 -18.5c0 -12 -4.66699 -24.333 -14 -37s-24.333 -19 -45 -19c-18 0.666992 -31.833 7 -41.5 19s-14.5 26.333 -14.5 43c0 25.333 9.16699 47.5 27.5 66.5s43.166 34 74.499 45s66.333 16.5 105 16.5c57.333 0 101.333 -15.167 132 -45.5
s45.667 -78.166 45 -143.499c0 -35.333 -0.166992 -66.166 -0.5 -92.499s-0.5 -56.833 -0.5 -91.5c0 -10 -0.166992 -22.5 -0.5 -37.5s-1.5 -29.833 -3.5 -44.5c25.333 2 47.666 3.33301 66.999 4v-65h-173zM318 234.998c-26.667 -2 -52.334 -6.99902 -77.001 -14.999
s-44.834 -19.667 -60.501 -35s-23.167 -34.333 -22.5 -57c0.666992 -20.667 7.33398 -35.834 20.001 -45.501s27.334 -14.5 44.001 -14.5c18.667 0 36 4 52 12s30.667 18.667 44 32v21v22v35v45zM200 580.999l-40 34.999l83 138c12 18.667 26.167 29.334 42.5 32.001
s30.166 -0.333008 41.499 -9c12 -11.333 17.333 -25.5 16 -42.5s-9.66602 -32.833 -24.999 -47.5z" />
    <glyph glyph-name="acircumflex" unicode="&#xe2;" horiz-adv-x="521" 
d="M329 0c-2 10 -3.16699 18.498 -3.5 25.498s-0.833008 15.167 -1.5 24.5c-23.333 -23.333 -47.666 -40.166 -72.999 -50.499s-51.666 -15.5 -78.999 -15.5c-45.333 0 -80.166 12.333 -104.499 37s-36.5 55 -36.5 91c0 31.333 8.66699 58.333 26 81s40 41.334 68 56.001
s59 25.5 93 32.5s67.667 11.167 101 12.5v55c0 19.333 -2.16699 37.166 -6.5 53.499s-12.166 29.333 -23.499 39s-28 14.5 -50 14.5c-15.333 -0.666992 -30.333 -3.83398 -45 -9.50098s-26.334 -14.5 -35.001 -26.5c5.33301 -6 8.66602 -12.5 9.99902 -19.5
s2 -13.167 2 -18.5c0 -12 -4.66699 -24.333 -14 -37s-24.333 -19 -45 -19c-18 0.666992 -31.833 7 -41.5 19s-14.5 26.333 -14.5 43c0 25.333 9.16699 47.5 27.5 66.5s43.166 34 74.499 45s66.333 16.5 105 16.5c57.333 0 101.333 -15.167 132 -45.5
s45.667 -78.166 45 -143.499c0 -35.333 -0.166992 -66.166 -0.5 -92.499s-0.5 -56.833 -0.5 -91.5c0 -10 -0.166992 -22.5 -0.5 -37.5s-1.5 -29.833 -3.5 -44.5c25.333 2 47.666 3.33301 66.999 4v-65h-173zM318 234.998c-26.667 -2 -52.334 -6.99902 -77.001 -14.999
s-44.834 -19.667 -60.501 -35s-23.167 -34.333 -22.5 -57c0.666992 -20.667 7.33398 -35.834 20.001 -45.501s27.334 -14.5 44.001 -14.5c18.667 0 36 4 52 12s30.667 18.667 44 32v21v22v35v45zM379 579.999l-127 106h-1l-128 -99l-37 42l167 163h8l156 -167z" />
    <glyph glyph-name="atilde" unicode="&#xe3;" horiz-adv-x="521" 
d="M329 0c-2 10 -3.16699 18.498 -3.5 25.498s-0.833008 15.167 -1.5 24.5c-23.333 -23.333 -47.666 -40.166 -72.999 -50.499s-51.666 -15.5 -78.999 -15.5c-45.333 0 -80.166 12.333 -104.499 37s-36.5 55 -36.5 91c0 31.333 8.66699 58.333 26 81s40 41.334 68 56.001
s59 25.5 93 32.5s67.667 11.167 101 12.5v55c0 19.333 -2.16699 37.166 -6.5 53.499s-12.166 29.333 -23.499 39s-28 14.5 -50 14.5c-15.333 -0.666992 -30.333 -3.83398 -45 -9.50098s-26.334 -14.5 -35.001 -26.5c5.33301 -6 8.66602 -12.5 9.99902 -19.5
s2 -13.167 2 -18.5c0 -12 -4.66699 -24.333 -14 -37s-24.333 -19 -45 -19c-18 0.666992 -31.833 7 -41.5 19s-14.5 26.333 -14.5 43c0 25.333 9.16699 47.5 27.5 66.5s43.166 34 74.499 45s66.333 16.5 105 16.5c57.333 0 101.333 -15.167 132 -45.5
s45.667 -78.166 45 -143.499c0 -35.333 -0.166992 -66.166 -0.5 -92.499s-0.5 -56.833 -0.5 -91.5c0 -10 -0.166992 -22.5 -0.5 -37.5s-1.5 -29.833 -3.5 -44.5c25.333 2 47.666 3.33301 66.999 4v-65h-173zM318 234.998c-26.667 -2 -52.334 -6.99902 -77.001 -14.999
s-44.834 -19.667 -60.501 -35s-23.167 -34.333 -22.5 -57c0.666992 -20.667 7.33398 -35.834 20.001 -45.501s27.334 -14.5 44.001 -14.5c18.667 0 36 4 52 12s30.667 18.667 44 32v21v22v35v45zM427 728.999c-12.667 -38.667 -30.0039 -66.501 -52.0039 -83.501
s-42.333 -25.5 -61 -25.5c-19.333 0 -35.833 3.66699 -49.5 11s-26.334 14.666 -38.001 21.999s-24.167 11 -37.5 11c-9.33301 0 -20.166 -3 -32.499 -9s-23.166 -17 -32.499 -33l-48 28c10.667 28 26.834 51.167 48.501 69.5s42.834 27.5 63.501 27.5
c21.333 0.666992 38.333 -2.66602 51 -9.99902s24.334 -14.666 35.001 -21.999s24 -11 40 -11c12 0 23.833 4.5 35.5 13.5s21.5 21.167 29.5 36.5z" />
    <glyph glyph-name="adieresis" unicode="&#xe4;" horiz-adv-x="521" 
d="M329 0c-2 10 -3.16699 18.498 -3.5 25.498s-0.833008 15.167 -1.5 24.5c-23.333 -23.333 -47.666 -40.166 -72.999 -50.499s-51.666 -15.5 -78.999 -15.5c-45.333 0 -80.166 12.333 -104.499 37s-36.5 55 -36.5 91c0 31.333 8.66699 58.333 26 81s40 41.334 68 56.001
s59 25.5 93 32.5s67.667 11.167 101 12.5v55c0 19.333 -2.16699 37.166 -6.5 53.499s-12.166 29.333 -23.499 39s-28 14.5 -50 14.5c-15.333 -0.666992 -30.333 -3.83398 -45 -9.50098s-26.334 -14.5 -35.001 -26.5c5.33301 -6 8.66602 -12.5 9.99902 -19.5
s2 -13.167 2 -18.5c0 -12 -4.66699 -24.333 -14 -37s-24.333 -19 -45 -19c-18 0.666992 -31.833 7 -41.5 19s-14.5 26.333 -14.5 43c0 25.333 9.16699 47.5 27.5 66.5s43.166 34 74.499 45s66.333 16.5 105 16.5c57.333 0 101.333 -15.167 132 -45.5
s45.667 -78.166 45 -143.499c0 -35.333 -0.166992 -66.166 -0.5 -92.499s-0.5 -56.833 -0.5 -91.5c0 -10 -0.166992 -22.5 -0.5 -37.5s-1.5 -29.833 -3.5 -44.5c25.333 2 47.666 3.33301 66.999 4v-65h-173zM318 234.998c-26.667 -2 -52.334 -6.99902 -77.001 -14.999
s-44.834 -19.667 -60.501 -35s-23.167 -34.333 -22.5 -57c0.666992 -20.667 7.33398 -35.834 20.001 -45.501s27.334 -14.5 44.001 -14.5c18.667 0 36 4 52 12s30.667 18.667 44 32v21v22v35v45zM337 614.999c-16 0 -30 6.66699 -42 20s-18 29.666 -18 48.999s6 36 18 50
s26.333 21 43 21c17.333 0 31.833 -7 43.5 -21s17.5 -30.667 17.5 -50s-6.16699 -35.666 -18.5 -48.999s-26.833 -20 -43.5 -20zM166 614.999c-16.667 0 -31 6.66699 -43 20s-18 29.666 -18 48.999s6.16699 36 18.5 50s26.5 21 42.5 21c18 0 32.667 -7 44 -21
s17 -30.667 17 -50s-6.16699 -35.666 -18.5 -48.999s-26.5 -20 -42.5 -20z" />
    <glyph glyph-name="aring" unicode="&#xe5;" horiz-adv-x="521" 
d="M329 0c-2 10 -3.16699 18.498 -3.5 25.498s-0.833008 15.167 -1.5 24.5c-23.333 -23.333 -47.666 -40.166 -72.999 -50.499s-51.666 -15.5 -78.999 -15.5c-45.333 0 -80.166 12.333 -104.499 37s-36.5 55 -36.5 91c0 31.333 8.66699 58.333 26 81s40 41.334 68 56.001
s59 25.5 93 32.5s67.667 11.167 101 12.5v55c0 19.333 -2.16699 37.166 -6.5 53.499s-12.166 29.333 -23.499 39s-28 14.5 -50 14.5c-15.333 -0.666992 -30.333 -3.83398 -45 -9.50098s-26.334 -14.5 -35.001 -26.5c5.33301 -6 8.66602 -12.5 9.99902 -19.5
s2 -13.167 2 -18.5c0 -12 -4.66699 -24.333 -14 -37s-24.333 -19 -45 -19c-18 0.666992 -31.833 7 -41.5 19s-14.5 26.333 -14.5 43c0 25.333 9.16699 47.5 27.5 66.5s43.166 34 74.499 45s66.333 16.5 105 16.5c57.333 0 101.333 -15.167 132 -45.5
s45.667 -78.166 45 -143.499c0 -35.333 -0.166992 -66.166 -0.5 -92.499s-0.5 -56.833 -0.5 -91.5c0 -10 -0.166992 -22.5 -0.5 -37.5s-1.5 -29.833 -3.5 -44.5c25.333 2 47.666 3.33301 66.999 4v-65h-173zM318 234.998c-26.667 -2 -52.334 -6.99902 -77.001 -14.999
s-44.834 -19.667 -60.501 -35s-23.167 -34.333 -22.5 -57c0.666992 -20.667 7.33398 -35.834 20.001 -45.501s27.334 -14.5 44.001 -14.5c18.667 0 36 4 52 12s30.667 18.667 44 32v21v22v35v45zM252 575.999c-17.333 0 -34.4971 3.99902 -51.4971 11.999
s-31.167 19.667 -42.5 35s-17.333 34.666 -18 57.999c-0.666992 22 4.16602 41.5 14.499 58.5s24.166 30.5 41.499 40.5s35.666 15 54.999 15c18 0 35.333 -3.83301 52 -11.5s30.667 -19 42 -34s17.333 -34.5 18 -58.5c0.666992 -23.333 -4.5 -43.666 -15.5 -60.999
s-25 -30.666 -42 -39.999s-34.833 -14 -53.5 -14zM257.003 626.998c9.33301 0.666992 17.501 5.5 24.501 14.5s10.5 21.5 10.5 37.5c0 22 -3.83301 38.5 -11.5 49.5s-17.834 16.167 -30.501 15.5c-10 0 -18.667 -4.33301 -26 -13s-11 -21.667 -11 -39
c0 -20 4 -35.833 12 -47.5s18.667 -17.5 32 -17.5z" />
    <glyph glyph-name="ae" unicode="&#xe6;" horiz-adv-x="772" 
d="M171 -16c-43.333 0 -77.499 12.1709 -102.499 36.5039s-37.5 54.5 -37.5 90.5c0 31.333 8.5 58.333 25.5 81s39.5 41.167 67.5 55.5s59 25.166 93 32.499s67.667 11.333 101 12v57c0 19.333 -2.16699 37.166 -6.5 53.499s-12.166 29.5 -23.499 39.5
s-27.666 14.667 -48.999 14c-16 0 -31.5 -3.16699 -46.5 -9.5s-26.5 -15.5 -34.5 -27.5c5.33301 -5.33301 8.83301 -11.833 10.5 -19.5s2.5 -13.834 2.5 -18.501c0 -11.333 -4.66699 -23.5 -14 -36.5s-24.666 -19.167 -45.999 -18.5c-16.667 0 -30 6 -40 18
s-15 26.333 -15 43c0 23.333 8.5 44.666 25.5 63.999s40.333 35 70 47s63.834 18 102.501 18c34 0 62.833 -6.66699 86.5 -20s40.5 -35 50.5 -65c18 28.667 39.667 50 65 64s56.666 21 93.999 21c31.333 0 60.666 -7.83301 87.999 -23.5s49.666 -40.834 66.999 -75.501
s25.666 -81 24.999 -139l-290 -6c-2 -64 7.16699 -115.333 27.5 -154s54.5 -58 102.5 -58c24 0 47.667 6.33301 71 19s45.666 32.334 66.999 59.001l37 -35c-32.667 -48 -67 -79.833 -103 -95.5s-71 -23.5 -105 -23.5c-38 0 -70.833 8 -98.5 24s-50.5 37.333 -68.5 64
c-28.667 -35.333 -60.5 -58.833 -95.5 -70.5s-69.5 -17.5 -103.5 -17.5zM446.001 332.004h165.999c-0.666992 40 -7.33398 70.667 -20.001 92s-30.667 32 -54 32c-31.333 0 -53.666 -12.333 -66.999 -37s-21.666 -53.667 -24.999 -87zM220 68.0039
c20.667 -0.666992 39.667 3.33105 57 11.998s33 20.667 47 36c-2 16.667 -3.5 35.834 -4.5 57.501s-1.5 41.834 -1.5 60.501c-26.667 -2 -52.5 -7 -77.5 -15s-45.333 -19.667 -61 -35s-23.167 -34.333 -22.5 -57c0.666992 -20.667 7.66699 -35.5 21 -44.5
s27.333 -13.833 42 -14.5z" />
    <glyph glyph-name="ccedilla" unicode="&#xe7;" horiz-adv-x="523" 
d="M281 -16c-45.333 0 -86.6631 9.99512 -123.996 29.9951s-67.166 49.167 -89.499 87.5s-33.5 84.5 -33.5 138.5c0 48.667 11 94 33 136s52.667 75.833 92 101.5s84.666 38.5 135.999 38.5c40.667 0 75 -6.33301 103 -19s49.333 -29 64 -49s22 -41.333 22 -64
c0 -18 -5.16699 -33.667 -15.5 -47s-25.166 -20.333 -44.499 -21c-22.667 -0.666992 -38.5 5.83301 -47.5 19.5s-13.5 26.5 -13.5 38.5c0 6.66699 1 13.834 3 21.501s5.33301 14.834 10 21.501c-4.66699 12 -12.334 20.833 -23.001 26.5s-21.667 9.33398 -33 11.001
s-20.333 2.5 -27 2.5c-36.667 -1.33301 -67 -18.166 -91 -50.499s-36 -78.833 -36 -139.5c0 -36.667 5.16699 -70.5 15.5 -101.5s26.166 -56 47.499 -75s48.666 -28.833 81.999 -29.5c29.333 -0.666992 57.666 6.5 84.999 21.5s49.666 34.5 66.999 58.5l40 -37
c-33.333 -47.333 -69.833 -79.166 -109.5 -95.499s-77.167 -24.5 -112.5 -24.5zM247.003 -253.005l-7.00098 46.0039c14.667 2.66699 31.334 6.66699 50.001 12s35 12.5 49 21.5s21 20.167 21 33.5c0 12.667 -4.33301 20.667 -13 24s-18.667 3.66602 -30 0.999023
s-20.666 -6.66699 -27.999 -12l-36 16l30 120h70l-28 -80c8.66699 5.33301 19.667 9.5 33 12.5s25 4.5 35 4.5c20.667 -0.666992 37.667 -6.66699 51 -18s20 -28.333 20 -51c0 -22 -7.66699 -40.833 -23 -56.5s-34.5 -28.334 -57.5 -38.001s-46.833 -17.334 -71.5 -23.001
s-46.334 -9.83398 -65.001 -12.501z" />
    <glyph glyph-name="egrave" unicode="&#xe8;" horiz-adv-x="539" 
d="M281 -16c-48 0 -90.4971 10.8301 -127.497 32.4971s-66 52.334 -87 92.001s-31.5 86.5 -31.5 140.5c0 46.667 10.333 90.334 31 131.001s49.834 73.5 87.501 98.5s81.5 37.5 131.5 37.5c37.333 0 72.666 -7.5 105.999 -22.5s60.5 -39.833 81.5 -74.5
s31.167 -81.667 30.5 -141l-336 -6c0 -41.333 4.83301 -78 14.5 -110s25.5 -57 47.5 -75s51 -27 87 -27c23.333 0 49.666 6.33301 78.999 19s54.333 32.334 75 59.001l38 -35c-22 -32 -46.333 -56.5 -73 -73.5s-53.334 -28.833 -80.001 -35.5s-51.334 -10 -74.001 -10z
M172.003 331.997h208.003c-0.666992 40 -8.83398 70.667 -24.501 92s-37.834 32 -66.501 32c-32.667 0 -58.834 -10.667 -78.501 -32s-32.5 -52 -38.5 -92zM335.006 569.997l-118 106.001c-15.333 14.667 -23.666 30.5 -24.999 47.5s4 31.167 16 42.5
c11.333 8.66699 25.166 11.667 41.499 9s30.5 -13.334 42.5 -32.001l83 -138z" />
    <glyph glyph-name="eacute" unicode="&#xe9;" horiz-adv-x="539" 
d="M281 -16c-48 0 -90.4971 10.8301 -127.497 32.4971s-66 52.334 -87 92.001s-31.5 86.5 -31.5 140.5c0 46.667 10.333 90.334 31 131.001s49.834 73.5 87.501 98.5s81.5 37.5 131.5 37.5c37.333 0 72.666 -7.5 105.999 -22.5s60.5 -39.833 81.5 -74.5
s31.167 -81.667 30.5 -141l-336 -6c0 -41.333 4.83301 -78 14.5 -110s25.5 -57 47.5 -75s51 -27 87 -27c23.333 0 49.666 6.33301 78.999 19s54.333 32.334 75 59.001l38 -35c-22 -32 -46.333 -56.5 -73 -73.5s-53.334 -28.833 -80.001 -35.5s-51.334 -10 -74.001 -10z
M172.003 331.997h208.003c-0.666992 40 -8.83398 70.667 -24.501 92s-37.834 32 -66.501 32c-32.667 0 -58.834 -10.667 -78.501 -32s-32.5 -52 -38.5 -92zM231.006 569.997l-40 34.999l83 138c12 18.667 26.167 29.334 42.5 32.001s30.166 -0.333008 41.499 -9
c12 -11.333 17.333 -25.5 16 -42.5s-9.66602 -32.833 -24.999 -47.5z" />
    <glyph glyph-name="ecircumflex" unicode="&#xea;" horiz-adv-x="539" 
d="M281 -16c-48 0 -90.4971 10.8301 -127.497 32.4971s-66 52.334 -87 92.001s-31.5 86.5 -31.5 140.5c0 46.667 10.333 90.334 31 131.001s49.834 73.5 87.501 98.5s81.5 37.5 131.5 37.5c37.333 0 72.666 -7.5 105.999 -22.5s60.5 -39.833 81.5 -74.5
s31.167 -81.667 30.5 -141l-336 -6c0 -41.333 4.83301 -78 14.5 -110s25.5 -57 47.5 -75s51 -27 87 -27c23.333 0 49.666 6.33301 78.999 19s54.333 32.334 75 59.001l38 -35c-22 -32 -46.333 -56.5 -73 -73.5s-53.334 -28.833 -80.001 -35.5s-51.334 -10 -74.001 -10z
M172.003 331.997h208.003c-0.666992 40 -8.83398 70.667 -24.501 92s-37.834 32 -66.501 32c-32.667 0 -58.834 -10.667 -78.501 -32s-32.5 -52 -38.5 -92zM410.006 568.997l-127 106h-1l-128 -99l-37 42l167 163h8l156 -167z" />
    <glyph glyph-name="edieresis" unicode="&#xeb;" horiz-adv-x="539" 
d="M281 -16c-48 0 -90.4971 10.8301 -127.497 32.4971s-66 52.334 -87 92.001s-31.5 86.5 -31.5 140.5c0 46.667 10.333 90.334 31 131.001s49.834 73.5 87.501 98.5s81.5 37.5 131.5 37.5c37.333 0 72.666 -7.5 105.999 -22.5s60.5 -39.833 81.5 -74.5
s31.167 -81.667 30.5 -141l-336 -6c0 -41.333 4.83301 -78 14.5 -110s25.5 -57 47.5 -75s51 -27 87 -27c23.333 0 49.666 6.33301 78.999 19s54.333 32.334 75 59.001l38 -35c-22 -32 -46.333 -56.5 -73 -73.5s-53.334 -28.833 -80.001 -35.5s-51.334 -10 -74.001 -10z
M172.003 331.997h208.003c-0.666992 40 -8.83398 70.667 -24.501 92s-37.834 32 -66.501 32c-32.667 0 -58.834 -10.667 -78.501 -32s-32.5 -52 -38.5 -92zM368.006 603.997c-16 0 -30 6.66699 -42 20s-18 29.666 -18 48.999s6 36 18 50s26.333 21 43 21
c17.333 0 31.833 -7 43.5 -21s17.5 -30.667 17.5 -50s-6.16699 -35.666 -18.5 -48.999s-26.833 -20 -43.5 -20zM197.006 603.997c-16.667 0 -31 6.66699 -43 20s-18 29.666 -18 48.999s6.16699 36 18.5 50s26.5 21 42.5 21c18 0 32.667 -7 44 -21s17 -30.667 17 -50
s-6.16699 -35.666 -18.5 -48.999s-26.5 -20 -42.5 -20z" />
    <glyph glyph-name="igrave" unicode="&#xec;" horiz-adv-x="312" 
d="M42 53c19.333 0 33.002 4.33496 41.002 13.002s13 20.5 15 35.5s3 32.167 3 51.5v187c0 11.333 0.333008 23.833 1 37.5s1.66699 27.834 3 42.501c-10.667 -0.666992 -22.834 -1.33398 -36.501 -2.00098s-24.834 -1.33398 -33.501 -2.00098v65
c45.333 0 78.833 3.16699 100.5 9.5s36.167 12.833 43.5 19.5h45v-367c0 -11.333 -0.166992 -24.333 -0.5 -39s-1.5 -29 -3.5 -43c10.667 1.33301 22 2.16602 34 2.49902s22.333 0.5 31 0.5v-64h-243v53zM208.002 570.002l-118 106.001
c-15.333 14.667 -23.666 30.5 -24.999 47.5s4 31.167 16 42.5c11.333 8.66699 25.166 11.667 41.499 9s30.5 -13.334 42.5 -32.001l83 -138z" />
    <glyph glyph-name="iacute" unicode="&#xed;" horiz-adv-x="312" 
d="M42 53c19.333 0 33.002 4.33496 41.002 13.002s13 20.5 15 35.5s3 32.167 3 51.5v187c0 11.333 0.333008 23.833 1 37.5s1.66699 27.834 3 42.501c-10.667 -0.666992 -22.834 -1.33398 -36.501 -2.00098s-24.834 -1.33398 -33.501 -2.00098v65
c45.333 0 78.833 3.16699 100.5 9.5s36.167 12.833 43.5 19.5h45v-367c0 -11.333 -0.166992 -24.333 -0.5 -39s-1.5 -29 -3.5 -43c10.667 1.33301 22 2.16602 34 2.49902s22.333 0.5 31 0.5v-64h-243v53zM104.002 570.002l-40 34.999l83 138
c12 18.667 26.167 29.334 42.5 32.001s30.166 -0.333008 41.499 -9c12 -11.333 17.333 -25.5 16 -42.5s-9.66602 -32.833 -24.999 -47.5z" />
    <glyph glyph-name="icircumflex" unicode="&#xee;" horiz-adv-x="312" 
d="M42 53c19.333 0 33.002 4.33496 41.002 13.002s13 20.5 15 35.5s3 32.167 3 51.5v187c0 11.333 0.333008 23.833 1 37.5s1.66699 27.834 3 42.501c-10.667 -0.666992 -22.834 -1.33398 -36.501 -2.00098s-24.834 -1.33398 -33.501 -2.00098v65
c45.333 0 78.833 3.16699 100.5 9.5s36.167 12.833 43.5 19.5h45v-367c0 -11.333 -0.166992 -24.333 -0.5 -39s-1.5 -29 -3.5 -43c10.667 1.33301 22 2.16602 34 2.49902s22.333 0.5 31 0.5v-64h-243v53zM154.002 781.002h7l136 -167l-38 -44l-105 99h-2l-106 -93l-39 42z
" />
    <glyph glyph-name="idieresis" unicode="&#xef;" horiz-adv-x="312" 
d="M42 53c19.333 0 33.002 4.33496 41.002 13.002s13 20.5 15 35.5s3 32.167 3 51.5v187c0 11.333 0.333008 23.833 1 37.5s1.66699 27.834 3 42.501c-10.667 -0.666992 -22.834 -1.33398 -36.501 -2.00098s-24.834 -1.33398 -33.501 -2.00098v65
c45.333 0 78.833 3.16699 100.5 9.5s36.167 12.833 43.5 19.5h45v-367c0 -11.333 -0.166992 -24.333 -0.5 -39s-1.5 -29 -3.5 -43c10.667 1.33301 22 2.16602 34 2.49902s22.333 0.5 31 0.5v-64h-243v53zM242.002 604.002c-16 0 -30 6.66699 -42 20s-18 29.666 -18 48.999
s6 36 18 50s26.333 21 43 21c17.333 0 31.833 -7 43.5 -21s17.5 -30.667 17.5 -50s-6.16699 -35.666 -18.5 -48.999s-26.833 -20 -43.5 -20zM71.002 604.002c-16.667 0 -31 6.66699 -43 20s-18 29.666 -18 48.999s6.16699 36 18.5 50s26.5 21 42.5 21c18 0 32.667 -7 44 -21
s17 -30.667 17 -50s-6.16699 -35.666 -18.5 -48.999s-26.5 -20 -42.5 -20z" />
    <glyph glyph-name="eth" unicode="&#xf0;" horiz-adv-x="548" 
d="M261 -16c-42 0 -79.833 9.33203 -113.5 27.999s-60.5 46 -80.5 82s-30.333 79.333 -31 130c0 33.333 4.5 66.166 13.5 98.499s23 61.5 42 87.5s42.5 46.667 70.5 62s60.667 23.333 98 24c16 0.666992 34.167 -2 54.5 -8s37.833 -17 52.5 -33h1
c-5.33301 20.667 -14.5 42.334 -27.5 65.001s-28.5 44 -46.5 64s-36.667 36.333 -56 49l-59 -73l-52 46l52 61c-27.333 14.667 -59 24.667 -95 30l11 63c28 -2.66699 53 -7.16699 75 -13.5s41.333 -13.5 58 -21.5l52 66l49 -44l-43 -52
c43.333 -27.333 80.833 -62.333 112.5 -105s56.167 -91.167 73.5 -145.5s26 -112.166 26 -173.499c0 -52.667 -8.5 -100.667 -25.5 -144s-43 -78 -78 -104s-79.5 -39 -133.5 -39zM271 53.999c30 0 56.0029 15.332 78.0029 45.999s33 76 33 136
c0 20.667 -1.66699 42.167 -5 64.5s-9.33301 43.333 -18 63s-19.834 35.5 -33.501 47.5s-30.834 18.333 -51.501 19c-24 0 -44.333 -8.5 -61 -25.5s-29.334 -39.5 -38.001 -67.5s-13 -58.333 -13 -91c0 -61.333 10.5 -108.666 31.5 -141.999s46.833 -50 77.5 -50z" />
    <glyph glyph-name="ntilde" unicode="&#xf1;" horiz-adv-x="626" 
d="M42 0l0.000976562 53.0039c19.333 0 33 4.33301 41 13s13 20.5 15 35.5s3 32.167 3 51.5v188c0 12 0.333008 24.667 1 38s1.66699 27 3 41c-10.667 -0.666992 -22.834 -1.33398 -36.501 -2.00098s-24.834 -1.33398 -33.501 -2.00098v65c45.333 0 78.5 3.16699 99.5 9.5
s35.167 12.833 42.5 19.5h42c2 -11.333 2.83301 -19.666 2.5 -24.999s0.833984 -15 3.50098 -29c20 16.667 44.333 30.834 73 42.501s54.334 17.5 77.001 17.5c60 0 103 -17.833 129 -53.5s39 -91.834 39 -168.501v-151c0 -11.333 -0.166992 -24.333 -0.5 -39
s-1.5 -29 -3.5 -43c11.333 1.33301 22.833 2.16602 34.5 2.49902s21.834 0.5 30.501 0.5v-64h-243v53c19.333 0 33.166 4.33301 41.499 13s13.5 20.5 15.5 35.5s3 32.167 3 51.5l-1 142c0 48 -7.16699 83.833 -21.5 107.5s-37.833 35.5 -70.5 35.5
c-19.333 -0.666992 -38.333 -5.33398 -57 -14.001s-34.334 -19.667 -47.001 -33c0.666992 -8 1 -16.333 1 -25v-26l-1 -197c0 -11.333 -0.166992 -24.333 -0.5 -39s-1.5 -29 -3.5 -43c10.667 1.33301 22 2.16602 34 2.49902s22.333 0.5 31 0.5v-64h-243zM511.001 718.004
c-12.667 -38.667 -30.0039 -66.501 -52.0039 -83.501s-42.333 -25.5 -61 -25.5c-19.333 0 -35.833 3.66699 -49.5 11s-26.334 14.666 -38.001 21.999s-24.167 11 -37.5 11c-9.33301 0 -20.166 -3 -32.499 -9s-23.166 -17 -32.499 -33l-48 28
c10.667 28 26.834 51.167 48.501 69.5s42.834 27.5 63.501 27.5c21.333 0.666992 38.333 -2.66602 51 -9.99902s24.334 -14.666 35.001 -21.999s24 -11 40 -11c12 0 23.833 4.5 35.5 13.5s21.5 21.167 29.5 36.5z" />
    <glyph glyph-name="ograve" unicode="&#xf2;" horiz-adv-x="572" 
d="M288 -16c-48 0 -91.167 10.499 -129.5 31.499s-68.666 50.667 -90.999 89s-33.5 83.166 -33.5 134.499c0 54 11.333 101.833 34 143.5s53.167 74.334 91.5 98.001s80.5 35.5 126.5 35.5c47.333 0 90 -10.5 128 -31.5s68.167 -50.667 90.5 -89s33.5 -83.5 33.5 -135.5
c0 -54.667 -10.833 -102.667 -32.5 -144s-51.334 -73.666 -89.001 -96.999s-80.5 -35 -128.5 -35zM293 44.999c29.333 0 52.166 9.33398 68.499 28.001s27.666 42.5 33.999 71.5s9.5 58.833 9.5 89.5c0 26 -2 52.333 -6 79s-10.667 50.834 -20 72.501s-21.833 39 -37.5 52
s-34.5 19.5 -56.5 19.5c-29.333 -0.666992 -52.666 -10.334 -69.999 -29.001s-29.833 -42.334 -37.5 -71.001s-11.5 -59 -11.5 -91c0 -36 4.33301 -71.167 13 -105.5s22.334 -62.333 41.001 -84s43 -32.167 73 -31.5zM338 570l-118 106.001
c-15.333 14.667 -23.666 30.5 -24.999 47.5s4 31.167 16 42.5c11.333 8.66699 25.166 11.667 41.499 9s30.5 -13.334 42.5 -32.001l83 -138z" />
    <glyph glyph-name="oacute" unicode="&#xf3;" horiz-adv-x="572" 
d="M288 -16c-48 0 -91.167 10.499 -129.5 31.499s-68.666 50.667 -90.999 89s-33.5 83.166 -33.5 134.499c0 54 11.333 101.833 34 143.5s53.167 74.334 91.5 98.001s80.5 35.5 126.5 35.5c47.333 0 90 -10.5 128 -31.5s68.167 -50.667 90.5 -89s33.5 -83.5 33.5 -135.5
c0 -54.667 -10.833 -102.667 -32.5 -144s-51.334 -73.666 -89.001 -96.999s-80.5 -35 -128.5 -35zM293 44.999c29.333 0 52.166 9.33398 68.499 28.001s27.666 42.5 33.999 71.5s9.5 58.833 9.5 89.5c0 26 -2 52.333 -6 79s-10.667 50.834 -20 72.501s-21.833 39 -37.5 52
s-34.5 19.5 -56.5 19.5c-29.333 -0.666992 -52.666 -10.334 -69.999 -29.001s-29.833 -42.334 -37.5 -71.001s-11.5 -59 -11.5 -91c0 -36 4.33301 -71.167 13 -105.5s22.334 -62.333 41.001 -84s43 -32.167 73 -31.5zM234 570l-40 34.999l83 138
c12 18.667 26.167 29.334 42.5 32.001s30.166 -0.333008 41.499 -9c12 -11.333 17.333 -25.5 16 -42.5s-9.66602 -32.833 -24.999 -47.5z" />
    <glyph glyph-name="ocircumflex" unicode="&#xf4;" horiz-adv-x="572" 
d="M288 -16c-48 0 -91.167 10.499 -129.5 31.499s-68.666 50.667 -90.999 89s-33.5 83.166 -33.5 134.499c0 54 11.333 101.833 34 143.5s53.167 74.334 91.5 98.001s80.5 35.5 126.5 35.5c47.333 0 90 -10.5 128 -31.5s68.167 -50.667 90.5 -89s33.5 -83.5 33.5 -135.5
c0 -54.667 -10.833 -102.667 -32.5 -144s-51.334 -73.666 -89.001 -96.999s-80.5 -35 -128.5 -35zM293 44.999c29.333 0 52.166 9.33398 68.499 28.001s27.666 42.5 33.999 71.5s9.5 58.833 9.5 89.5c0 26 -2 52.333 -6 79s-10.667 50.834 -20 72.501s-21.833 39 -37.5 52
s-34.5 19.5 -56.5 19.5c-29.333 -0.666992 -52.666 -10.334 -69.999 -29.001s-29.833 -42.334 -37.5 -71.001s-11.5 -59 -11.5 -91c0 -36 4.33301 -71.167 13 -105.5s22.334 -62.333 41.001 -84s43 -32.167 73 -31.5zM413 569l-127 106h-1l-128 -99l-37 42l167 163h8
l156 -167z" />
    <glyph glyph-name="otilde" unicode="&#xf5;" horiz-adv-x="572" 
d="M288 -16c-48 0 -91.167 10.499 -129.5 31.499s-68.666 50.667 -90.999 89s-33.5 83.166 -33.5 134.499c0 54 11.333 101.833 34 143.5s53.167 74.334 91.5 98.001s80.5 35.5 126.5 35.5c47.333 0 90 -10.5 128 -31.5s68.167 -50.667 90.5 -89s33.5 -83.5 33.5 -135.5
c0 -54.667 -10.833 -102.667 -32.5 -144s-51.334 -73.666 -89.001 -96.999s-80.5 -35 -128.5 -35zM293 44.999c29.333 0 52.166 9.33398 68.499 28.001s27.666 42.5 33.999 71.5s9.5 58.833 9.5 89.5c0 26 -2 52.333 -6 79s-10.667 50.834 -20 72.501s-21.833 39 -37.5 52
s-34.5 19.5 -56.5 19.5c-29.333 -0.666992 -52.666 -10.334 -69.999 -29.001s-29.833 -42.334 -37.5 -71.001s-11.5 -59 -11.5 -91c0 -36 4.33301 -71.167 13 -105.5s22.334 -62.333 41.001 -84s43 -32.167 73 -31.5zM461 718
c-12.667 -38.667 -30.0039 -66.501 -52.0039 -83.501s-42.333 -25.5 -61 -25.5c-19.333 0 -35.833 3.66699 -49.5 11s-26.334 14.666 -38.001 21.999s-24.167 11 -37.5 11c-9.33301 0 -20.166 -3 -32.499 -9s-23.166 -17 -32.499 -33l-48 28
c10.667 28 26.834 51.167 48.501 69.5s42.834 27.5 63.501 27.5c21.333 0.666992 38.333 -2.66602 51 -9.99902s24.334 -14.666 35.001 -21.999s24 -11 40 -11c12 0 23.833 4.5 35.5 13.5s21.5 21.167 29.5 36.5z" />
    <glyph glyph-name="odieresis" unicode="&#xf6;" horiz-adv-x="572" 
d="M288 -16c-48 0 -91.167 10.499 -129.5 31.499s-68.666 50.667 -90.999 89s-33.5 83.166 -33.5 134.499c0 54 11.333 101.833 34 143.5s53.167 74.334 91.5 98.001s80.5 35.5 126.5 35.5c47.333 0 90 -10.5 128 -31.5s68.167 -50.667 90.5 -89s33.5 -83.5 33.5 -135.5
c0 -54.667 -10.833 -102.667 -32.5 -144s-51.334 -73.666 -89.001 -96.999s-80.5 -35 -128.5 -35zM293 44.999c29.333 0 52.166 9.33398 68.499 28.001s27.666 42.5 33.999 71.5s9.5 58.833 9.5 89.5c0 26 -2 52.333 -6 79s-10.667 50.834 -20 72.501s-21.833 39 -37.5 52
s-34.5 19.5 -56.5 19.5c-29.333 -0.666992 -52.666 -10.334 -69.999 -29.001s-29.833 -42.334 -37.5 -71.001s-11.5 -59 -11.5 -91c0 -36 4.33301 -71.167 13 -105.5s22.334 -62.333 41.001 -84s43 -32.167 73 -31.5zM372 604c-16 0 -30 6.66699 -42 20
s-18 29.666 -18 48.999s6 36 18 50s26.333 21 43 21c17.333 0 31.833 -7 43.5 -21s17.5 -30.667 17.5 -50s-6.16699 -35.666 -18.5 -48.999s-26.833 -20 -43.5 -20zM201 604c-16.667 0 -31 6.66699 -43 20s-18 29.666 -18 48.999s6.16699 36 18.5 50s26.5 21 42.5 21
c18 0 32.667 -7 44 -21s17 -30.667 17 -50s-6.16699 -35.666 -18.5 -48.999s-26.5 -20 -42.5 -20z" />
    <glyph glyph-name="divide" unicode="&#xf7;" horiz-adv-x="530" 
d="M266 125c-19.333 0 -35.5 7.16699 -48.5 21.5s-19.5 31.5 -19.5 51.5c0 20.667 6.83301 38.167 20.5 52.5s29.5 21.5 47.5 21.5c19.333 0 35.333 -7.16699 48 -21.5s19 -31.833 19 -52.5c0 -20 -6.16699 -37.167 -18.5 -51.5s-28.5 -21.5 -48.5 -21.5zM266 451
c-19.333 0 -35.5 7.16699 -48.5 21.5s-19.5 31.5 -19.5 51.5c0 20.667 6.83301 38.167 20.5 52.5s29.5 21.5 47.5 21.5c19.333 0 35.333 -7.16699 48 -21.5s19 -31.833 19 -52.5c0 -20 -6.16699 -37.167 -18.5 -51.5s-28.5 -21.5 -48.5 -21.5zM42 396h446v-69h-446v69z" />
    <glyph glyph-name="oslash" unicode="&#xf8;" horiz-adv-x="572" 
d="M116 -80l-52.998 39.998l54 85c-25.333 22 -45.5 49.5 -60.5 82.5s-22.5 70.167 -22.5 111.5c0 54 11.333 101.833 34 143.5s53.167 74.334 91.5 98.001s80.5 35.5 126.5 35.5c41.333 0 79.666 -8.33301 114.999 -25l51 80l60 -39l-52 -81c24 -22 43 -49.333 57 -82
s21 -69 21 -109c0 -54.667 -10.833 -102.667 -32.5 -144s-51.334 -73.666 -89.001 -96.999s-80.5 -35 -128.5 -35c-41.333 0 -79.333 8 -114 24zM166.002 265.998c0 -20 1.33203 -40.165 3.99902 -60.498s7 -39.5 13 -57.5l174 274
c-9.33301 10.667 -19.833 19.167 -31.5 25.5s-25.167 9.5 -40.5 9.5c-29.333 -0.666992 -52.666 -10.334 -69.999 -29.001s-29.833 -42.334 -37.5 -71.001s-11.5 -59 -11.5 -91zM293.001 45c29.333 0 52.1699 9.33398 68.5029 28.001s27.666 42.5 33.999 71.5
s9.5 58.833 9.5 89.5c0 18.667 -1 37.667 -3 57s-5.33301 37.666 -10 54.999l-173 -267c9.33301 -11.333 20.166 -20 32.499 -26s26.166 -8.66699 41.499 -8z" />
    <glyph glyph-name="ugrave" unicode="&#xf9;" horiz-adv-x="611" 
d="M250 -16c-58 0 -99.9932 17.0059 -125.993 51.0059s-39 90.333 -39 169v136c0 11.333 0.166992 24 0.5 38s1.16602 28 2.49902 42c-10.667 -0.666992 -22.834 -1.33398 -36.501 -2.00098s-24.5 -1 -32.5 -1v64h17c36.667 0 65.167 3.16699 85.5 9.5
s34.166 12.833 41.499 19.5h46v-306c0 -48 6.5 -83.667 19.5 -107s34.167 -35 63.5 -35c20 0.666992 39.667 6.66699 59 18s35.333 24.666 48 39.999v216c0 13.333 0.333008 27.166 1 41.499s1.66699 28.5 3 42.5c-10.667 -0.666992 -22.834 -1.33398 -36.501 -2.00098
s-24.834 -1 -33.501 -1v64h26c30.667 0 56.167 3.16699 76.5 9.5s33.833 12.833 40.5 19.5h46v-359c0 -9.33301 -0.333008 -23 -1 -41s-1.66699 -34.333 -3 -49c11.333 1.33301 23.166 2.16602 35.499 2.49902s22.833 0.833008 31.5 1.5v-65h-174
c-1.33301 9.33301 -2.5 18.666 -3.5 27.999s-1.83301 18.333 -2.5 27c-20.667 -18.667 -43.834 -35.167 -69.501 -49.5s-54.167 -21.5 -85.5 -21.5zM361.007 570.006l-118 106.001c-15.333 14.667 -23.666 30.5 -24.999 47.5s4 31.167 16 42.5
c11.333 8.66699 25.166 11.667 41.499 9s30.5 -13.334 42.5 -32.001l83 -138z" />
    <glyph glyph-name="uacute" unicode="&#xfa;" horiz-adv-x="611" 
d="M250 -16c-58 0 -99.9932 17.0059 -125.993 51.0059s-39 90.333 -39 169v136c0 11.333 0.166992 24 0.5 38s1.16602 28 2.49902 42c-10.667 -0.666992 -22.834 -1.33398 -36.501 -2.00098s-24.5 -1 -32.5 -1v64h17c36.667 0 65.167 3.16699 85.5 9.5
s34.166 12.833 41.499 19.5h46v-306c0 -48 6.5 -83.667 19.5 -107s34.167 -35 63.5 -35c20 0.666992 39.667 6.66699 59 18s35.333 24.666 48 39.999v216c0 13.333 0.333008 27.166 1 41.499s1.66699 28.5 3 42.5c-10.667 -0.666992 -22.834 -1.33398 -36.501 -2.00098
s-24.834 -1 -33.501 -1v64h26c30.667 0 56.167 3.16699 76.5 9.5s33.833 12.833 40.5 19.5h46v-359c0 -9.33301 -0.333008 -23 -1 -41s-1.66699 -34.333 -3 -49c11.333 1.33301 23.166 2.16602 35.499 2.49902s22.833 0.833008 31.5 1.5v-65h-174
c-1.33301 9.33301 -2.5 18.666 -3.5 27.999s-1.83301 18.333 -2.5 27c-20.667 -18.667 -43.834 -35.167 -69.501 -49.5s-54.167 -21.5 -85.5 -21.5zM257.007 570.006l-40 34.999l83 138c12 18.667 26.167 29.334 42.5 32.001s30.166 -0.333008 41.499 -9
c12 -11.333 17.333 -25.5 16 -42.5s-9.66602 -32.833 -24.999 -47.5z" />
    <glyph glyph-name="ucircumflex" unicode="&#xfb;" horiz-adv-x="611" 
d="M250 -16c-58 0 -99.9932 17.0059 -125.993 51.0059s-39 90.333 -39 169v136c0 11.333 0.166992 24 0.5 38s1.16602 28 2.49902 42c-10.667 -0.666992 -22.834 -1.33398 -36.501 -2.00098s-24.5 -1 -32.5 -1v64h17c36.667 0 65.167 3.16699 85.5 9.5
s34.166 12.833 41.499 19.5h46v-306c0 -48 6.5 -83.667 19.5 -107s34.167 -35 63.5 -35c20 0.666992 39.667 6.66699 59 18s35.333 24.666 48 39.999v216c0 13.333 0.333008 27.166 1 41.499s1.66699 28.5 3 42.5c-10.667 -0.666992 -22.834 -1.33398 -36.501 -2.00098
s-24.834 -1 -33.501 -1v64h26c30.667 0 56.167 3.16699 76.5 9.5s33.833 12.833 40.5 19.5h46v-359c0 -9.33301 -0.333008 -23 -1 -41s-1.66699 -34.333 -3 -49c11.333 1.33301 23.166 2.16602 35.499 2.49902s22.833 0.833008 31.5 1.5v-65h-174
c-1.33301 9.33301 -2.5 18.666 -3.5 27.999s-1.83301 18.333 -2.5 27c-20.667 -18.667 -43.834 -35.167 -69.501 -49.5s-54.167 -21.5 -85.5 -21.5zM436.007 569.006l-127 106h-1l-128 -99l-37 42l167 163h8l156 -167z" />
    <glyph glyph-name="udieresis" unicode="&#xfc;" horiz-adv-x="611" 
d="M250 -16c-58 0 -99.9932 17.0059 -125.993 51.0059s-39 90.333 -39 169v136c0 11.333 0.166992 24 0.5 38s1.16602 28 2.49902 42c-10.667 -0.666992 -22.834 -1.33398 -36.501 -2.00098s-24.5 -1 -32.5 -1v64h17c36.667 0 65.167 3.16699 85.5 9.5
s34.166 12.833 41.499 19.5h46v-306c0 -48 6.5 -83.667 19.5 -107s34.167 -35 63.5 -35c20 0.666992 39.667 6.66699 59 18s35.333 24.666 48 39.999v216c0 13.333 0.333008 27.166 1 41.499s1.66699 28.5 3 42.5c-10.667 -0.666992 -22.834 -1.33398 -36.501 -2.00098
s-24.834 -1 -33.501 -1v64h26c30.667 0 56.167 3.16699 76.5 9.5s33.833 12.833 40.5 19.5h46v-359c0 -9.33301 -0.333008 -23 -1 -41s-1.66699 -34.333 -3 -49c11.333 1.33301 23.166 2.16602 35.499 2.49902s22.833 0.833008 31.5 1.5v-65h-174
c-1.33301 9.33301 -2.5 18.666 -3.5 27.999s-1.83301 18.333 -2.5 27c-20.667 -18.667 -43.834 -35.167 -69.501 -49.5s-54.167 -21.5 -85.5 -21.5zM395.007 604.006c-16 0 -30 6.66699 -42 20s-18 29.666 -18 48.999s6 36 18 50s26.333 21 43 21
c17.333 0 31.833 -7 43.5 -21s17.5 -30.667 17.5 -50s-6.16699 -35.666 -18.5 -48.999s-26.833 -20 -43.5 -20zM224.007 604.006c-16.667 0 -31 6.66699 -43 20s-18 29.666 -18 48.999s6.16699 36 18.5 50s26.5 21 42.5 21c18 0 32.667 -7 44 -21s17 -30.667 17 -50
s-6.16699 -35.666 -18.5 -48.999s-26.5 -20 -42.5 -20z" />
    <glyph glyph-name="yacute" unicode="&#xfd;" horiz-adv-x="543" 
d="M139 -271c-24 0 -44.332 6.66992 -60.999 20.0029s-25 31.666 -25 54.999c0 16 5.33301 30.333 16 43s24.334 19 41.001 19c14.667 0.666992 26.5 -4.16602 35.5 -14.499s13.5 -22.833 13.5 -37.5c0 -2 -0.166992 -4.16699 -0.5 -6.5s-0.5 -4.83301 -0.5 -7.5
c1.33301 -0.666992 3.66602 -0.666992 6.99902 0c14 3.33301 28.333 19.333 43 48c8 15.333 16.333 34.166 25 56.499s17 47.166 25 74.499l-157 323c-18.667 36.667 -31 65 -37 85s-10.333 37 -13 51l-46 -2v64h235v-53h-2c-25.333 -2.66699 -39.333 -12.5 -42 -29.5
s1.66602 -37.5 12.999 -61.5l105 -233c9.33301 25.333 19.833 57.166 31.5 95.499s24.834 78.5 39.501 120.5c5.33301 16 12 34.333 20 55s16 35.667 24 45l-61 -3v64h171v-53c-22 -6 -39.667 -19.5 -53 -40.5s-25.333 -47.167 -36 -78.5l-125 -354
c-19.333 -55.333 -37.333 -101 -54 -137s-35.334 -63 -56.001 -81s-46 -27 -76 -27zM240.001 570.003l-40 34.999l83 138c12 18.667 26.167 29.334 42.5 32.001s30.166 -0.333008 41.499 -9c12 -11.333 17.333 -25.5 16 -42.5s-9.66602 -32.833 -24.999 -47.5z" />
    <glyph glyph-name="thorn" unicode="&#xfe;" horiz-adv-x="574" 
d="M7 -255l0.00390625 53.0049c19.333 0 33.166 4.33301 41.499 13s13.5 20.5 15.5 35.5s3 32.167 3 51.5v687c0 11.333 0.166992 24 0.5 38s1.5 28 3.5 42c-11.333 -0.666992 -23.833 -1.33398 -37.5 -2.00098s-24.834 -1.33398 -33.501 -2.00098v65
c46 0 79.667 3.16699 101 9.5s35.666 12.833 42.999 19.5h46l-1 -293c21.333 17.333 43.833 30.666 67.5 39.999s48.167 14 73.5 14c40 0 75.667 -10.333 107 -31s56.166 -49.834 74.499 -87.501s27.5 -82.5 27.5 -134.5c0 -54.667 -10.833 -103 -32.5 -145
s-51.334 -74.833 -89.001 -98.5s-80.834 -35.5 -129.501 -35.5c-19.333 0 -37.166 2.16699 -53.499 6.5s-31.5 9.5 -45.5 15.5v-118c0 -11.333 -0.166992 -24.333 -0.5 -39s-1.5 -29 -3.5 -43c11.333 1.33301 22.833 2.16602 34.5 2.49902s21.834 0.5 30.501 0.5v-64h-243z
M276.004 47.0049c31.333 0.666992 56.498 10.168 75.498 28.501s32.833 42.5 41.5 72.5s13 63.333 13 100c0 32.667 -4.16699 63.667 -12.5 93s-21.666 53.166 -39.999 71.499s-42.166 27.5 -71.499 27.5c-18.667 -0.666992 -36 -5.16699 -52 -13.5s-29.667 -19.5 -41 -33.5
v-321c10.667 -7.33301 23.667 -13.333 39 -18s31.333 -7 48 -7z" />
    <glyph glyph-name="ydieresis" unicode="&#xff;" horiz-adv-x="543" 
d="M139 -271c-24 0 -44.332 6.66992 -60.999 20.0029s-25 31.666 -25 54.999c0 16 5.33301 30.333 16 43s24.334 19 41.001 19c14.667 0.666992 26.5 -4.16602 35.5 -14.499s13.5 -22.833 13.5 -37.5c0 -2 -0.166992 -4.16699 -0.5 -6.5s-0.5 -4.83301 -0.5 -7.5
c1.33301 -0.666992 3.66602 -0.666992 6.99902 0c14 3.33301 28.333 19.333 43 48c8 15.333 16.333 34.166 25 56.499s17 47.166 25 74.499l-157 323c-18.667 36.667 -31 65 -37 85s-10.333 37 -13 51l-46 -2v64h235v-53h-2c-25.333 -2.66699 -39.333 -12.5 -42 -29.5
s1.66602 -37.5 12.999 -61.5l105 -233c9.33301 25.333 19.833 57.166 31.5 95.499s24.834 78.5 39.501 120.5c5.33301 16 12 34.333 20 55s16 35.667 24 45l-61 -3v64h171v-53c-22 -6 -39.667 -19.5 -53 -40.5s-25.333 -47.167 -36 -78.5l-125 -354
c-19.333 -55.333 -37.333 -101 -54 -137s-35.334 -63 -56.001 -81s-46 -27 -76 -27zM378.001 604.003c-16 0 -30 6.66699 -42 20s-18 29.666 -18 48.999s6 36 18 50s26.333 21 43 21c17.333 0 31.833 -7 43.5 -21s17.5 -30.667 17.5 -50s-6.16699 -35.666 -18.5 -48.999
s-26.833 -20 -43.5 -20zM207.001 604.003c-16.667 0 -31 6.66699 -43 20s-18 29.666 -18 48.999s6.16699 36 18.5 50s26.5 21 42.5 21c18 0 32.667 -7 44 -21s17 -30.667 17 -50s-6.16699 -35.666 -18.5 -48.999s-26.5 -20 -42.5 -20z" />
    <glyph glyph-name="Amacron" unicode="&#x100;" horiz-adv-x="654" 
d="M1 0v56.9971c18.667 0 33.667 5.33301 45 16s20.666 24.834 27.999 42.501s15 37.5 23 59.5l199 543h54l217 -553c4 -11.333 9.33301 -27.5 16 -48.5s10.334 -38.833 11.001 -53.5l33 2c10.667 0.666992 20 1 28 1v-66h-255v55c20.667 0 34.667 4.33301 42 13
s10.333 20 9 34s-4.66602 28.333 -9.99902 43l-25 68l-232 -4l-22 -67l-14 -38.5c-5.33301 -14.333 -10.666 -27.166 -15.999 -38.499c11.333 0.666992 24.166 1.33398 38.499 2.00098s26.166 1 35.499 1v-68h-205zM206 272.997h188l-54 147
c-8 22.667 -15.667 45.667 -23 69s-13 44.333 -17 63h-2l-15 -53c-6 -21.333 -13.667 -45.333 -23 -72zM183 830.997v84h278v-80z" />
    <glyph glyph-name="amacron" unicode="&#x101;" horiz-adv-x="521" 
d="M329 0c-2 10 -3.16699 18.498 -3.5 25.498s-0.833008 15.167 -1.5 24.5c-23.333 -23.333 -47.666 -40.166 -72.999 -50.499s-51.666 -15.5 -78.999 -15.5c-45.333 0 -80.166 12.333 -104.499 37s-36.5 55 -36.5 91c0 31.333 8.66699 58.333 26 81s40 41.334 68 56.001
s59 25.5 93 32.5s67.667 11.167 101 12.5v55c0 19.333 -2.16699 37.166 -6.5 53.499s-12.166 29.333 -23.499 39s-28 14.5 -50 14.5c-15.333 -0.666992 -30.333 -3.83398 -45 -9.50098s-26.334 -14.5 -35.001 -26.5c5.33301 -6 8.66602 -12.5 9.99902 -19.5
s2 -13.167 2 -18.5c0 -12 -4.66699 -24.333 -14 -37s-24.333 -19 -45 -19c-18 0.666992 -31.833 7 -41.5 19s-14.5 26.333 -14.5 43c0 25.333 9.16699 47.5 27.5 66.5s43.166 34 74.499 45s66.333 16.5 105 16.5c57.333 0 101.333 -15.167 132 -45.5
s45.667 -78.166 45 -143.499c0 -35.333 -0.166992 -66.166 -0.5 -92.499s-0.5 -56.833 -0.5 -91.5c0 -10 -0.166992 -22.5 -0.5 -37.5s-1.5 -29.833 -3.5 -44.5c25.333 2 47.666 3.33301 66.999 4v-65h-173zM318 234.998c-26.667 -2 -52.334 -6.99902 -77.001 -14.999
s-44.834 -19.667 -60.501 -35s-23.167 -34.333 -22.5 -57c0.666992 -20.667 7.33398 -35.834 20.001 -45.501s27.334 -14.5 44.001 -14.5c18.667 0 36 4 52 12s30.667 18.667 44 32v21v22v35v45zM113 641.999v84h278v-80z" />
    <glyph glyph-name="Abreve" unicode="&#x102;" horiz-adv-x="654" 
d="M1 0v56.9971c18.667 0 33.667 5.33301 45 16s20.666 24.834 27.999 42.501s15 37.5 23 59.5l199 543h54l217 -553c4 -11.333 9.33301 -27.5 16 -48.5s10.334 -38.833 11.001 -53.5l33 2c10.667 0.666992 20 1 28 1v-66h-255v55c20.667 0 34.667 4.33301 42 13
s10.333 20 9 34s-4.66602 28.333 -9.99902 43l-25 68l-232 -4l-22 -67l-14 -38.5c-5.33301 -14.333 -10.666 -27.166 -15.999 -38.499c11.333 0.666992 24.166 1.33398 38.499 2.00098s26.166 1 35.499 1v-68h-205zM206 272.997h188l-54 147
c-8 22.667 -15.667 45.667 -23 69s-13 44.333 -17 63h-2l-15 -53c-6 -21.333 -13.667 -45.333 -23 -72zM324 790.997c-32 0 -63.1699 8.83301 -93.5029 26.5s-53.5 47.167 -69.5 88.5l37 18c12.667 -14 29.334 -26.667 50.001 -38s46 -17 76 -17
c29.333 0 54.333 5.66699 75 17s37.334 24 50.001 38l37 -18c-16 -41.333 -39.167 -70.833 -69.5 -88.5s-61.166 -26.5 -92.499 -26.5z" />
    <glyph glyph-name="abreve" unicode="&#x103;" horiz-adv-x="521" 
d="M329 0c-2 10 -3.16699 18.498 -3.5 25.498s-0.833008 15.167 -1.5 24.5c-23.333 -23.333 -47.666 -40.166 -72.999 -50.499s-51.666 -15.5 -78.999 -15.5c-45.333 0 -80.166 12.333 -104.499 37s-36.5 55 -36.5 91c0 31.333 8.66699 58.333 26 81s40 41.334 68 56.001
s59 25.5 93 32.5s67.667 11.167 101 12.5v55c0 19.333 -2.16699 37.166 -6.5 53.499s-12.166 29.333 -23.499 39s-28 14.5 -50 14.5c-15.333 -0.666992 -30.333 -3.83398 -45 -9.50098s-26.334 -14.5 -35.001 -26.5c5.33301 -6 8.66602 -12.5 9.99902 -19.5
s2 -13.167 2 -18.5c0 -12 -4.66699 -24.333 -14 -37s-24.333 -19 -45 -19c-18 0.666992 -31.833 7 -41.5 19s-14.5 26.333 -14.5 43c0 25.333 9.16699 47.5 27.5 66.5s43.166 34 74.499 45s66.333 16.5 105 16.5c57.333 0 101.333 -15.167 132 -45.5
s45.667 -78.166 45 -143.499c0 -35.333 -0.166992 -66.166 -0.5 -92.499s-0.5 -56.833 -0.5 -91.5c0 -10 -0.166992 -22.5 -0.5 -37.5s-1.5 -29.833 -3.5 -44.5c25.333 2 47.666 3.33301 66.999 4v-65h-173zM318 234.998c-26.667 -2 -52.334 -6.99902 -77.001 -14.999
s-44.834 -19.667 -60.501 -35s-23.167 -34.333 -22.5 -57c0.666992 -20.667 7.33398 -35.834 20.001 -45.501s27.334 -14.5 44.001 -14.5c18.667 0 36 4 52 12s30.667 18.667 44 32v21v22v35v45zM249 611.999c-27.333 0 -55.3311 9.66699 -83.998 29
s-50.334 51.666 -65.001 96.999l53 27c10.667 -18.667 24.167 -35.167 40.5 -49.5s36.166 -21.5 59.499 -21.5s42.833 7.33301 58.5 22s28.5 31.334 38.5 50.001l52 -23c-16.667 -46 -38 -79.333 -64 -100s-55.667 -31 -89 -31z" />
    <glyph glyph-name="Aogonek" unicode="&#x104;" horiz-adv-x="654" 
d="M1 0v56.9971c18.667 0 33.667 5.33301 45 16s20.666 24.834 27.999 42.501s15 37.5 23 59.5l199 543h54l217 -553c4 -11.333 9.33301 -27.5 16 -48.5s10.334 -38.833 11.001 -53.5l33 2c10.667 0.666992 20 1 28 1v-66h-255v55c20.667 0 34.667 4.33301 42 13
s10.333 20 9 34s-4.66602 28.333 -9.99902 43l-25 68l-232 -4l-22 -67l-14 -38.5c-5.33301 -14.333 -10.666 -27.166 -15.999 -38.499c11.333 0.666992 24.166 1.33398 38.499 2.00098s26.166 1 35.499 1v-68h-205zM206 272.997h188l-54 147
c-8 22.667 -15.667 45.667 -23 69s-13 44.333 -17 63h-2l-15 -53c-6 -21.333 -13.667 -45.333 -23 -72zM474 -264.003c-32 0 -58 8.99902 -78 26.999s-30 43.333 -30 76c0 30 10.833 58.167 32.5 84.5s49.5 49.333 83.5 69s69.333 34.834 106 45.501v-39
c-22 -8.66699 -42.833 -19.667 -62.5 -33s-35.667 -28.666 -48 -45.999s-18.5 -36 -18.5 -56c0.666992 -14.667 5.66699 -26.667 15 -36s21 -14 35 -14c20.667 0 41.667 9.66699 63 29l29 -35c-16 -20.667 -35.167 -37.834 -57.5 -51.501s-45.5 -20.5 -69.5 -20.5z" />
    <glyph glyph-name="aogonek" unicode="&#x105;" horiz-adv-x="521" 
d="M329 0c-2 10 -3.16699 18.498 -3.5 25.498s-0.833008 15.167 -1.5 24.5c-23.333 -23.333 -47.666 -40.166 -72.999 -50.499s-51.666 -15.5 -78.999 -15.5c-45.333 0 -80.166 12.333 -104.499 37s-36.5 55 -36.5 91c0 31.333 8.66699 58.333 26 81s40 41.334 68 56.001
s59 25.5 93 32.5s67.667 11.167 101 12.5v55c0 19.333 -2.16699 37.166 -6.5 53.499s-12.166 29.333 -23.499 39s-28 14.5 -50 14.5c-15.333 -0.666992 -30.333 -3.83398 -45 -9.50098s-26.334 -14.5 -35.001 -26.5c5.33301 -6 8.66602 -12.5 9.99902 -19.5
s2 -13.167 2 -18.5c0 -12 -4.66699 -24.333 -14 -37s-24.333 -19 -45 -19c-18 0.666992 -31.833 7 -41.5 19s-14.5 26.333 -14.5 43c0 25.333 9.16699 47.5 27.5 66.5s43.166 34 74.499 45s66.333 16.5 105 16.5c57.333 0 101.333 -15.167 132 -45.5
s45.667 -78.166 45 -143.499c0 -35.333 -0.166992 -66.166 -0.5 -92.499s-0.5 -56.833 -0.5 -91.5c0 -10 -0.166992 -22.5 -0.5 -37.5s-1.5 -29.833 -3.5 -44.5c25.333 2 47.666 3.33301 66.999 4v-65h-173zM318 234.998c-26.667 -2 -52.334 -6.99902 -77.001 -14.999
s-44.834 -19.667 -60.501 -35s-23.167 -34.333 -22.5 -57c0.666992 -20.667 7.33398 -35.834 20.001 -45.501s27.334 -14.5 44.001 -14.5c18.667 0 36 4 52 12s30.667 18.667 44 32v21v22v35v45zM357 -258.001c-32 0 -58 8.99902 -78 26.999s-30 43.333 -30 76
c0 30 10.833 58.167 32.5 84.5s49.5 49.333 83.5 69s69.333 34.834 106 45.501v-39c-22 -8.66699 -42.833 -19.667 -62.5 -33s-35.667 -28.666 -48 -45.999s-18.5 -36 -18.5 -56c0.666992 -14.667 5.66699 -26.667 15 -36s21 -14 35 -14c20.667 0 41.667 9.66699 63 29
l29 -35c-16 -20.667 -35.167 -37.834 -57.5 -51.501s-45.5 -20.5 -69.5 -20.5z" />
    <glyph glyph-name="Cacute" unicode="&#x106;" horiz-adv-x="692" 
d="M360 753l-31 43.001l116 118c15.333 15.333 31.333 22.666 48 21.999s29.667 -7 39 -19c8.66699 -12.667 10.5 -27 5.5 -43s-16.5 -29.667 -34.5 -41zM580 476.001c-8 58 -27.6699 102.168 -59.0029 132.501s-72 45.5 -122 45.5c-47.333 0 -87.5 -13.5 -120.5 -40.5
s-58.333 -62.833 -76 -107.5s-26.5 -94 -26.5 -148c0 -59.333 9.5 -111.666 28.5 -156.999s45.667 -81 80 -107s74.5 -39 120.5 -39c42.667 0 84.667 10.5 126 31.5s76 50.833 104 89.5l41 -37c-31.333 -42.667 -64.666 -75.167 -99.999 -97.5s-69.833 -37.5 -103.5 -45.5
s-64.167 -12 -91.5 -12c-51.333 0 -98 9.16699 -140 27.5s-78 43.666 -108 75.999s-53.167 70 -69.5 113s-24.5 89.5 -24.5 139.5c0 46 7.16699 91.167 21.5 135.5s36 84.666 65 120.999s65.333 65.333 109 87s94.834 32.5 153.501 32.5c29.333 0 59.833 -4.5 91.5 -13.5
s61.834 -22.167 90.501 -39.5l-4 46h69v-233h-55z" />
    <glyph glyph-name="cacute" unicode="&#x107;" horiz-adv-x="523" 
d="M281 -16c-45.333 0 -86.6631 9.99512 -123.996 29.9951s-67.166 49.167 -89.499 87.5s-33.5 84.5 -33.5 138.5c0 48.667 11 94 33 136s52.667 75.833 92 101.5s84.666 38.5 135.999 38.5c40.667 0 75 -6.33301 103 -19s49.333 -29 64 -49s22 -41.333 22 -64
c0 -18 -5.16699 -33.667 -15.5 -47s-25.166 -20.333 -44.499 -21c-22.667 -0.666992 -38.5 5.83301 -47.5 19.5s-13.5 26.5 -13.5 38.5c0 6.66699 1 13.834 3 21.501s5.33301 14.834 10 21.501c-4.66699 12 -12.334 20.833 -23.001 26.5s-21.667 9.33398 -33 11.001
s-20.333 2.5 -27 2.5c-36.667 -1.33301 -67 -18.166 -91 -50.499s-36 -78.833 -36 -139.5c0 -36.667 5.16699 -70.5 15.5 -101.5s26.166 -56 47.499 -75s48.666 -28.833 81.999 -29.5c29.333 -0.666992 57.666 6.5 84.999 21.5s49.666 34.5 66.999 58.5l40 -37
c-33.333 -47.333 -69.833 -79.166 -109.5 -95.499s-77.167 -24.5 -112.5 -24.5zM246.003 569.995l-40 34.999l83 138c12 18.667 26.167 29.334 42.5 32.001s30.166 -0.333008 41.499 -9c12 -11.333 17.333 -25.5 16 -42.5s-9.66602 -32.833 -24.999 -47.5z" />
    <glyph glyph-name="Ccircumflex" unicode="&#x108;" horiz-adv-x="692" 
d="M580 476c-8 58 -27.6699 102.168 -59.0029 132.501s-72 45.5 -122 45.5c-47.333 0 -87.5 -13.5 -120.5 -40.5s-58.333 -62.833 -76 -107.5s-26.5 -94 -26.5 -148c0 -59.333 9.5 -111.666 28.5 -156.999s45.667 -81 80 -107s74.5 -39 120.5 -39
c42.667 0 84.667 10.5 126 31.5s76 50.833 104 89.5l41 -37c-31.333 -42.667 -64.666 -75.167 -99.999 -97.5s-69.833 -37.5 -103.5 -45.5s-64.167 -12 -91.5 -12c-51.333 0 -98 9.16699 -140 27.5s-78 43.666 -108 75.999s-53.167 70 -69.5 113s-24.5 89.5 -24.5 139.5
c0 46 7.16699 91.167 21.5 135.5s36 84.666 65 120.999s65.333 65.333 109 87s94.834 32.5 153.501 32.5c29.333 0 59.833 -4.5 91.5 -13.5s61.834 -22.167 90.501 -39.5l-4 46h69v-233h-55zM534.997 769.001l-135 86l-138 -84l-26 39l161 148h14l153 -147z" />
    <glyph glyph-name="ccircumflex" unicode="&#x109;" horiz-adv-x="523" 
d="M281 -16c-45.333 0 -86.6631 9.99512 -123.996 29.9951s-67.166 49.167 -89.499 87.5s-33.5 84.5 -33.5 138.5c0 48.667 11 94 33 136s52.667 75.833 92 101.5s84.666 38.5 135.999 38.5c40.667 0 75 -6.33301 103 -19s49.333 -29 64 -49s22 -41.333 22 -64
c0 -18 -5.16699 -33.667 -15.5 -47s-25.166 -20.333 -44.499 -21c-22.667 -0.666992 -38.5 5.83301 -47.5 19.5s-13.5 26.5 -13.5 38.5c0 6.66699 1 13.834 3 21.501s5.33301 14.834 10 21.501c-4.66699 12 -12.334 20.833 -23.001 26.5s-21.667 9.33398 -33 11.001
s-20.333 2.5 -27 2.5c-36.667 -1.33301 -67 -18.166 -91 -50.499s-36 -78.833 -36 -139.5c0 -36.667 5.16699 -70.5 15.5 -101.5s26.166 -56 47.499 -75s48.666 -28.833 81.999 -29.5c29.333 -0.666992 57.666 6.5 84.999 21.5s49.666 34.5 66.999 58.5l40 -37
c-33.333 -47.333 -69.833 -79.166 -109.5 -95.499s-77.167 -24.5 -112.5 -24.5zM424.003 568.995l-127 106h-1l-128 -99l-37 42l167 163h8l156 -167z" />
    <glyph glyph-name="Cdotaccent" unicode="&#x10a;" horiz-adv-x="692" 
d="M580 476c-8 58 -27.6699 102.168 -59.0029 132.501s-72 45.5 -122 45.5c-47.333 0 -87.5 -13.5 -120.5 -40.5s-58.333 -62.833 -76 -107.5s-26.5 -94 -26.5 -148c0 -59.333 9.5 -111.666 28.5 -156.999s45.667 -81 80 -107s74.5 -39 120.5 -39
c42.667 0 84.667 10.5 126 31.5s76 50.833 104 89.5l41 -37c-31.333 -42.667 -64.666 -75.167 -99.999 -97.5s-69.833 -37.5 -103.5 -45.5s-64.167 -12 -91.5 -12c-51.333 0 -98 9.16699 -140 27.5s-78 43.666 -108 75.999s-53.167 70 -69.5 113s-24.5 89.5 -24.5 139.5
c0 46 7.16699 91.167 21.5 135.5s36 84.666 65 120.999s65.333 65.333 109 87s94.834 32.5 153.501 32.5c29.333 0 59.833 -4.5 91.5 -13.5s61.834 -22.167 90.501 -39.5l-4 46h69v-233h-55zM398.997 796.001c-20 0 -36.501 7.16699 -49.501 21.5s-19.5 31.833 -19.5 52.5
s6.83301 38.334 20.5 53.001s29.834 22 48.501 22c19.333 0 35.5 -7.33301 48.5 -22s19.5 -32.334 19.5 -53.001s-6.33301 -38.167 -19 -52.5s-29 -21.5 -49 -21.5z" />
    <glyph glyph-name="cdotaccent" unicode="&#x10b;" horiz-adv-x="523" 
d="M281 -16c-45.333 0 -86.6631 9.99512 -123.996 29.9951s-67.166 49.167 -89.499 87.5s-33.5 84.5 -33.5 138.5c0 48.667 11 94 33 136s52.667 75.833 92 101.5s84.666 38.5 135.999 38.5c40.667 0 75 -6.33301 103 -19s49.333 -29 64 -49s22 -41.333 22 -64
c0 -18 -5.16699 -33.667 -15.5 -47s-25.166 -20.333 -44.499 -21c-22.667 -0.666992 -38.5 5.83301 -47.5 19.5s-13.5 26.5 -13.5 38.5c0 6.66699 1 13.834 3 21.501s5.33301 14.834 10 21.501c-4.66699 12 -12.334 20.833 -23.001 26.5s-21.667 9.33398 -33 11.001
s-20.333 2.5 -27 2.5c-36.667 -1.33301 -67 -18.166 -91 -50.499s-36 -78.833 -36 -139.5c0 -36.667 5.16699 -70.5 15.5 -101.5s26.166 -56 47.499 -75s48.666 -28.833 81.999 -29.5c29.333 -0.666992 57.666 6.5 84.999 21.5s49.666 34.5 66.999 58.5l40 -37
c-33.333 -47.333 -69.833 -79.166 -109.5 -95.499s-77.167 -24.5 -112.5 -24.5zM298.003 595.995c-20 0 -36.501 7.16699 -49.501 21.5s-19.5 31.833 -19.5 52.5s6.83301 38.334 20.5 53.001s29.834 22 48.501 22c19.333 0 35.5 -7.33301 48.5 -22
s19.5 -32.334 19.5 -53.001s-6.33301 -38.167 -19 -52.5s-29 -21.5 -49 -21.5z" />
    <glyph glyph-name="Ccaron" unicode="&#x10c;" horiz-adv-x="692" 
d="M580 476c-8 58 -27.6699 102.168 -59.0029 132.501s-72 45.5 -122 45.5c-47.333 0 -87.5 -13.5 -120.5 -40.5s-58.333 -62.833 -76 -107.5s-26.5 -94 -26.5 -148c0 -59.333 9.5 -111.666 28.5 -156.999s45.667 -81 80 -107s74.5 -39 120.5 -39
c42.667 0 84.667 10.5 126 31.5s76 50.833 104 89.5l41 -37c-31.333 -42.667 -64.666 -75.167 -99.999 -97.5s-69.833 -37.5 -103.5 -45.5s-64.167 -12 -91.5 -12c-51.333 0 -98 9.16699 -140 27.5s-78 43.666 -108 75.999s-53.167 70 -69.5 113s-24.5 89.5 -24.5 139.5
c0 46 7.16699 91.167 21.5 135.5s36 84.666 65 120.999s65.333 65.333 109 87s94.834 32.5 153.501 32.5c29.333 0 59.833 -4.5 91.5 -13.5s61.834 -22.167 90.501 -39.5l-4 46h69v-233h-55zM386.997 770.001l-191 147l28 42l175 -87l178 89l24 -41l-200 -150h-14z" />
    <glyph glyph-name="ccaron" unicode="&#x10d;" horiz-adv-x="523" 
d="M281 -16c-45.333 0 -86.6631 9.99512 -123.996 29.9951s-67.166 49.167 -89.499 87.5s-33.5 84.5 -33.5 138.5c0 48.667 11 94 33 136s52.667 75.833 92 101.5s84.666 38.5 135.999 38.5c40.667 0 75 -6.33301 103 -19s49.333 -29 64 -49s22 -41.333 22 -64
c0 -18 -5.16699 -33.667 -15.5 -47s-25.166 -20.333 -44.499 -21c-22.667 -0.666992 -38.5 5.83301 -47.5 19.5s-13.5 26.5 -13.5 38.5c0 6.66699 1 13.834 3 21.501s5.33301 14.834 10 21.501c-4.66699 12 -12.334 20.833 -23.001 26.5s-21.667 9.33398 -33 11.001
s-20.333 2.5 -27 2.5c-36.667 -1.33301 -67 -18.166 -91 -50.499s-36 -78.833 -36 -139.5c0 -36.667 5.16699 -70.5 15.5 -101.5s26.166 -56 47.499 -75s48.666 -28.833 81.999 -29.5c29.333 -0.666992 57.666 6.5 84.999 21.5s49.666 34.5 66.999 58.5l40 -37
c-33.333 -47.333 -69.833 -79.166 -109.5 -95.499s-77.167 -24.5 -112.5 -24.5zM291.003 561.995l-158 167l38 45l128 -106h2l123 107l37 -42l-162 -171h-8z" />
    <glyph glyph-name="Dcaron" unicode="&#x10e;" horiz-adv-x="754" 
d="M52 55c27.333 1.33301 45.834 8.5 55.501 21.5s14.5 38.833 14.5 77.5v399c0 16.667 0.333008 32.667 1 48s1.66699 27.333 3 36c-11.333 0 -24.333 -0.333008 -39 -1s-26.334 -1.33398 -35.001 -2.00098v66l272 1c86 0.666992 158 -14.666 216 -45.999
s101.833 -73.333 131.5 -126s44.5 -111 44.5 -175c0 -42 -7.5 -84 -22.5 -126s-38.167 -80.167 -69.5 -114.5s-71.333 -61.833 -120 -82.5s-106.667 -31 -174 -31h-278v55zM248.001 149c0 -18 -0.333008 -34.8311 -1 -50.498s-1.66699 -27.5 -3 -35.5
c15.333 0 33.333 -0.333008 54 -1s35.667 -1 45 -1c51.333 0 94.5 13.167 129.5 39.5s61.333 60.833 79 103.5s26.5 88.667 26.5 138c0 99.333 -22.333 174.166 -67 224.499s-108.667 76.166 -192 77.499c-28.667 0.666992 -47.667 -5.83301 -57 -19.5s-14 -39.5 -14 -77.5
v-398zM344.001 770.002l-191 147l28 42l175 -87l178 89l24 -41l-200 -150h-14z" />
    <glyph glyph-name="dcaron" unicode="&#x10f;" horiz-adv-x="682" 
d="M604 547l-35 26c24 44 36.667 82 38 114s-2 63.667 -10 95l82 -16c6 -12.667 10 -23.5 12 -32.5s2 -19.833 0 -32.5c-2 -27.333 -11.5 -54.5 -28.5 -81.5s-36.5 -51.167 -58.5 -72.5zM242 -16c-40 0 -75.665 10.3281 -106.998 30.9951s-55.833 49.834 -73.5 87.501
s-26.5 82.5 -26.5 134.5c0 54 10.667 102 32 144s50.833 75 88.5 99s81.167 36 130.5 36c19.333 0 37.5 -2.16699 54.5 -6.5s31.833 -9.16602 44.5 -14.499v89c0 10 0.166992 22.333 0.5 37s1.16602 29.334 2.49902 44.001
c-11.333 -1.33301 -23.833 -2.16602 -37.5 -2.49902s-24.834 -0.833008 -33.501 -1.5v65c46 0 79.833 3.16699 101.5 9.5s35.834 12.833 42.501 19.5h46v-612c0 -10 -0.333008 -22.5 -1 -37.5s-1.66699 -29.833 -3 -44.5c25.333 2 47.666 3.33301 66.999 4v-65h-174
c-1.33301 8.66699 -2.5 16.834 -3.5 24.501s-2.16699 15.5 -3.5 23.5c-20.667 -22 -43.5 -38.167 -68.5 -48.5s-51.167 -15.5 -78.5 -15.5zM289.002 60.9951c18.667 0 36.499 5.16992 53.499 15.5029s31.167 23.166 42.5 38.499c-0.666992 9.33301 -1 18.833 -1 28.5v29.5
l1 256c-22.667 16.667 -51 25 -85 25c-31.333 -0.666992 -56.833 -10.334 -76.5 -29.001s-34 -43.5 -43 -74.5s-13.167 -64.5 -12.5 -100.5c0 -32.667 4.33301 -63.334 13 -92.001s21.834 -52 39.501 -70s40.5 -27 68.5 -27z" />
    <glyph glyph-name="Dcroat" unicode="&#x110;" horiz-adv-x="755" 
d="M53 55c27.333 1.33301 45.834 8.5 55.501 21.5s14.5 38.833 14.5 77.5v166h-97v66h97v167c0 16.667 0.333008 32.667 1 48s1.66699 27.333 3 36c-11.333 0 -24.333 -0.333008 -39 -1s-26.334 -1.33398 -35.001 -2.00098v66l272 1c86 0.666992 158 -14.666 216 -45.999
s101.833 -73.333 131.5 -126s44.5 -111 44.5 -175c0 -42 -7.5 -84 -22.5 -126s-38.167 -80.167 -69.5 -114.5s-71.333 -61.833 -120 -82.5s-106.667 -31 -174 -31h-278v55zM249.001 149c0 -18 -0.333008 -34.8311 -1 -50.498s-1.66699 -27.5 -3 -35.5
c15.333 0 33.333 -0.333008 54 -1s35.667 -1 45 -1c51.333 0 94.5 13.167 129.5 39.5s61.333 60.833 79 103.5s26.5 88.667 26.5 138c0 99.333 -22.333 174.166 -67 224.499s-108.667 76.166 -192 77.499c-28.667 0.666992 -47.667 -5.83301 -57 -19.5s-14 -39.5 -14 -77.5
v-161h163v-64l-163 -1v-172z" />
    <glyph glyph-name="dcroat" unicode="&#x111;" horiz-adv-x="597" 
d="M242 -16c-40 0 -75.666 9.99707 -106.999 29.9971s-55.833 47.667 -73.5 83s-26.5 75.333 -26.5 120c0 51.333 10.667 97 32 137s50.833 71.5 88.5 94.5s81.167 34.5 130.5 34.5c19.333 0 37.5 -2.16699 54.5 -6.5s31.833 -9.16602 44.5 -14.499v83l-163 -2v67h163
c0 8.66699 0.333008 17.667 1 27l2 28c-11.333 -1.33301 -23.833 -2.16602 -37.5 -2.49902s-24.834 -0.833008 -33.501 -1.5v65c46 0 79.833 3.16699 101.5 9.5s35.834 12.833 42.501 19.5h46v-145h77v-63l-77 -1v-403c0 -10 -0.333008 -22.5 -1 -37.5
s-1.66699 -29.833 -3 -44.5c25.333 2 47.666 3.33301 66.999 4v-65h-174c-1.33301 8.66699 -2.5 16.834 -3.5 24.501s-2.16699 15.5 -3.5 23.5c-20.667 -22 -43.5 -38.167 -68.5 -48.5s-51.167 -15.5 -78.5 -15.5zM289.001 60.9971c18.667 0 36.501 5.16895 53.501 15.502
s31.167 23.166 42.5 38.499c-0.666992 12 -1 23.833 -1 35.5v36.5l1 210c-10 7.33301 -22.667 13.166 -38 17.499s-31 6.5 -47 6.5c-29.333 0 -53.833 -8.5 -73.5 -25.5s-34.5 -39.833 -44.5 -68.5s-14.667 -61 -14 -97c0.666992 -48.667 10.667 -89 30 -121
s49.666 -48 90.999 -48z" />
    <glyph glyph-name="Emacron" unicode="&#x112;" horiz-adv-x="623" 
d="M394 247c0 28.667 -4.16797 49.1699 -12.501 61.5029s-20.333 20 -36 23s-34.5 4.16699 -56.5 3.5l-41 -2v-185c0 -18 -0.333008 -34.5 -1 -49.5s-1.66699 -26.833 -3 -35.5l153 1c22.667 0 43.834 4.5 63.501 13.5s35.5 24.333 47.5 46s18 51.167 18 88.5h55l-5 -212
h-524v55c27.333 1.33301 45.833 8.5 55.5 21.5s14.5 38.833 14.5 77.5v399c0 16.667 0.333008 32.667 1 48s1.66699 27.333 3 36c-11.333 0 -24.333 -0.333008 -39 -1s-26.334 -1.33398 -35.001 -2.00098v66h493l6 -188h-55c0 37.333 -6.16699 65.666 -18.5 84.999
s-28.166 32.333 -47.499 39s-39.333 9.66699 -60 9l-52 -1c-26.667 -0.666992 -45 -7.33398 -55 -20.001s-15 -38.667 -15 -78v-153l140 -1l-5 87h66v-232h-55zM185.999 831.003v84h278v-80z" />
    <glyph glyph-name="emacron" unicode="&#x113;" horiz-adv-x="539" 
d="M281 -16c-48 0 -90.4971 10.8301 -127.497 32.4971s-66 52.334 -87 92.001s-31.5 86.5 -31.5 140.5c0 46.667 10.333 90.334 31 131.001s49.834 73.5 87.501 98.5s81.5 37.5 131.5 37.5c37.333 0 72.666 -7.5 105.999 -22.5s60.5 -39.833 81.5 -74.5
s31.167 -81.667 30.5 -141l-336 -6c0 -41.333 4.83301 -78 14.5 -110s25.5 -57 47.5 -75s51 -27 87 -27c23.333 0 49.666 6.33301 78.999 19s54.333 32.334 75 59.001l38 -35c-22 -32 -46.333 -56.5 -73 -73.5s-53.334 -28.833 -80.001 -35.5s-51.334 -10 -74.001 -10z
M172.003 331.997h208.003c-0.666992 40 -8.83398 70.667 -24.501 92s-37.834 32 -66.501 32c-32.667 0 -58.834 -10.667 -78.501 -32s-32.5 -52 -38.5 -92zM144.006 630.997v84h278v-80z" />
    <glyph glyph-name="Ebreve" unicode="&#x114;" horiz-adv-x="623" 
d="M394 247c0 28.667 -4.16797 49.1699 -12.501 61.5029s-20.333 20 -36 23s-34.5 4.16699 -56.5 3.5l-41 -2v-185c0 -18 -0.333008 -34.5 -1 -49.5s-1.66699 -26.833 -3 -35.5l153 1c22.667 0 43.834 4.5 63.501 13.5s35.5 24.333 47.5 46s18 51.167 18 88.5h55l-5 -212
h-524v55c27.333 1.33301 45.833 8.5 55.5 21.5s14.5 38.833 14.5 77.5v399c0 16.667 0.333008 32.667 1 48s1.66699 27.333 3 36c-11.333 0 -24.333 -0.333008 -39 -1s-26.334 -1.33398 -35.001 -2.00098v66h493l6 -188h-55c0 37.333 -6.16699 65.666 -18.5 84.999
s-28.166 32.333 -47.499 39s-39.333 9.66699 -60 9l-52 -1c-26.667 -0.666992 -45 -7.33398 -55 -20.001s-15 -38.667 -15 -78v-153l140 -1l-5 87h66v-232h-55zM326.999 791.003c-32 0 -63.1699 8.83301 -93.5029 26.5s-53.5 47.167 -69.5 88.5l37 18
c12.667 -14 29.334 -26.667 50.001 -38s46 -17 76 -17c29.333 0 54.333 5.66699 75 17s37.334 24 50.001 38l37 -18c-16 -41.333 -39.167 -70.833 -69.5 -88.5s-61.166 -26.5 -92.499 -26.5z" />
    <glyph glyph-name="ebreve" unicode="&#x115;" horiz-adv-x="539" 
d="M281 -16c-48 0 -90.4971 10.8301 -127.497 32.4971s-66 52.334 -87 92.001s-31.5 86.5 -31.5 140.5c0 46.667 10.333 90.334 31 131.001s49.834 73.5 87.501 98.5s81.5 37.5 131.5 37.5c37.333 0 72.666 -7.5 105.999 -22.5s60.5 -39.833 81.5 -74.5
s31.167 -81.667 30.5 -141l-336 -6c0 -41.333 4.83301 -78 14.5 -110s25.5 -57 47.5 -75s51 -27 87 -27c23.333 0 49.666 6.33301 78.999 19s54.333 32.334 75 59.001l38 -35c-22 -32 -46.333 -56.5 -73 -73.5s-53.334 -28.833 -80.001 -35.5s-51.334 -10 -74.001 -10z
M172.003 331.997h208.003c-0.666992 40 -8.83398 70.667 -24.501 92s-37.834 32 -66.501 32c-32.667 0 -58.834 -10.667 -78.501 -32s-32.5 -52 -38.5 -92zM280.006 600.997c-27.333 0 -55.3311 9.66699 -83.998 29s-50.334 51.666 -65.001 96.999l53 27
c10.667 -18.667 24.167 -35.167 40.5 -49.5s36.166 -21.5 59.499 -21.5s42.833 7.33301 58.5 22s28.5 31.334 38.5 50.001l52 -23c-16.667 -46 -38 -79.333 -64 -100s-55.667 -31 -89 -31z" />
    <glyph glyph-name="Edotaccent" unicode="&#x116;" horiz-adv-x="623" 
d="M394 247c0 28.667 -4.16797 49.1699 -12.501 61.5029s-20.333 20 -36 23s-34.5 4.16699 -56.5 3.5l-41 -2v-185c0 -18 -0.333008 -34.5 -1 -49.5s-1.66699 -26.833 -3 -35.5l153 1c22.667 0 43.834 4.5 63.501 13.5s35.5 24.333 47.5 46s18 51.167 18 88.5h55l-5 -212
h-524v55c27.333 1.33301 45.833 8.5 55.5 21.5s14.5 38.833 14.5 77.5v399c0 16.667 0.333008 32.667 1 48s1.66699 27.333 3 36c-11.333 0 -24.333 -0.333008 -39 -1s-26.334 -1.33398 -35.001 -2.00098v66h493l6 -188h-55c0 37.333 -6.16699 65.666 -18.5 84.999
s-28.166 32.333 -47.499 39s-39.333 9.66699 -60 9l-52 -1c-26.667 -0.666992 -45 -7.33398 -55 -20.001s-15 -38.667 -15 -78v-153l140 -1l-5 87h66v-232h-55zM325.999 796.003c-20 0 -36.501 7.16699 -49.501 21.5s-19.5 31.833 -19.5 52.5s6.83301 38.334 20.5 53.001
s29.834 22 48.501 22c19.333 0 35.5 -7.33301 48.5 -22s19.5 -32.334 19.5 -53.001s-6.33301 -38.167 -19 -52.5s-29 -21.5 -49 -21.5z" />
    <glyph glyph-name="edotaccent" unicode="&#x117;" horiz-adv-x="539" 
d="M281 -16c-48 0 -90.4971 10.8301 -127.497 32.4971s-66 52.334 -87 92.001s-31.5 86.5 -31.5 140.5c0 46.667 10.333 90.334 31 131.001s49.834 73.5 87.501 98.5s81.5 37.5 131.5 37.5c37.333 0 72.666 -7.5 105.999 -22.5s60.5 -39.833 81.5 -74.5
s31.167 -81.667 30.5 -141l-336 -6c0 -41.333 4.83301 -78 14.5 -110s25.5 -57 47.5 -75s51 -27 87 -27c23.333 0 49.666 6.33301 78.999 19s54.333 32.334 75 59.001l38 -35c-22 -32 -46.333 -56.5 -73 -73.5s-53.334 -28.833 -80.001 -35.5s-51.334 -10 -74.001 -10z
M172.003 331.997h208.003c-0.666992 40 -8.83398 70.667 -24.501 92s-37.834 32 -66.501 32c-32.667 0 -58.834 -10.667 -78.501 -32s-32.5 -52 -38.5 -92zM284.006 595.997c-20 0 -36.501 7.16699 -49.501 21.5s-19.5 31.833 -19.5 52.5s6.83301 38.334 20.5 53.001
s29.834 22 48.501 22c19.333 0 35.5 -7.33301 48.5 -22s19.5 -32.334 19.5 -53.001s-6.33301 -38.167 -19 -52.5s-29 -21.5 -49 -21.5z" />
    <glyph glyph-name="Eogonek" unicode="&#x118;" horiz-adv-x="623" 
d="M394 247c0 28.667 -4.16797 49.1699 -12.501 61.5029s-20.333 20 -36 23s-34.5 4.16699 -56.5 3.5l-41 -2v-185c0 -18 -0.333008 -34.5 -1 -49.5s-1.66699 -26.833 -3 -35.5l153 1c22.667 0 43.834 4.5 63.501 13.5s35.5 24.333 47.5 46s18 51.167 18 88.5h55l-5 -212
h-524v55c27.333 1.33301 45.833 8.5 55.5 21.5s14.5 38.833 14.5 77.5v399c0 16.667 0.333008 32.667 1 48s1.66699 27.333 3 36c-11.333 0 -24.333 -0.333008 -39 -1s-26.334 -1.33398 -35.001 -2.00098v66h493l6 -188h-55c0 37.333 -6.16699 65.666 -18.5 84.999
s-28.166 32.333 -47.499 39s-39.333 9.66699 -60 9l-52 -1c-26.667 -0.666992 -45 -7.33398 -55 -20.001s-15 -38.667 -15 -78v-153l140 -1l-5 87h66v-232h-55zM446.999 -258.997c-32 0 -58 8.99902 -78 26.999s-30 43.333 -30 76c0 30 10.833 58.167 32.5 84.5
s49.5 49.333 83.5 69s69.333 34.834 106 45.501v-39c-22 -8.66699 -42.833 -19.667 -62.5 -33s-35.667 -28.666 -48 -45.999s-18.5 -36 -18.5 -56c0.666992 -14.667 5.66699 -26.667 15 -36s21 -14 35 -14c20.667 0 41.667 9.66699 63 29l29 -35
c-16 -20.667 -35.167 -37.834 -57.5 -51.501s-45.5 -20.5 -69.5 -20.5z" />
    <glyph glyph-name="eogonek" unicode="&#x119;" horiz-adv-x="539" 
d="M281 -16c-48 0 -90.4971 10.8301 -127.497 32.4971s-66 52.334 -87 92.001s-31.5 86.5 -31.5 140.5c0 46.667 10.333 90.334 31 131.001s49.834 73.5 87.501 98.5s81.5 37.5 131.5 37.5c37.333 0 72.666 -7.5 105.999 -22.5s60.5 -39.833 81.5 -74.5
s31.167 -81.667 30.5 -141l-336 -6c0 -41.333 4.83301 -78 14.5 -110s25.5 -57 47.5 -75s51 -27 87 -27c23.333 0 49.666 6.33301 78.999 19s54.333 32.334 75 59.001l38 -35c-22 -32 -46.333 -56.5 -73 -73.5s-53.334 -28.833 -80.001 -35.5s-51.334 -10 -74.001 -10z
M172.003 331.997h208.003c-0.666992 40 -8.83398 70.667 -24.501 92s-37.834 32 -66.501 32c-32.667 0 -58.834 -10.667 -78.501 -32s-32.5 -52 -38.5 -92zM278.006 -259.003c-32 0 -58 8.99902 -78 26.999s-30 43.333 -30 76c0 30 10.833 58.167 32.5 84.5
s49.5 49.333 83.5 69s69.333 34.834 106 45.501v-39c-22 -8.66699 -42.833 -19.667 -62.5 -33s-35.667 -28.666 -48 -45.999s-18.5 -36 -18.5 -56c0.666992 -14.667 5.66699 -26.667 15 -36s21 -14 35 -14c20.667 0 41.667 9.66699 63 29l29 -35
c-16 -20.667 -35.167 -37.834 -57.5 -51.501s-45.5 -20.5 -69.5 -20.5z" />
    <glyph glyph-name="Ecaron" unicode="&#x11a;" horiz-adv-x="623" 
d="M394 247c0 28.667 -4.16797 49.1699 -12.501 61.5029s-20.333 20 -36 23s-34.5 4.16699 -56.5 3.5l-41 -2v-185c0 -18 -0.333008 -34.5 -1 -49.5s-1.66699 -26.833 -3 -35.5l153 1c22.667 0 43.834 4.5 63.501 13.5s35.5 24.333 47.5 46s18 51.167 18 88.5h55l-5 -212
h-524v55c27.333 1.33301 45.833 8.5 55.5 21.5s14.5 38.833 14.5 77.5v399c0 16.667 0.333008 32.667 1 48s1.66699 27.333 3 36c-11.333 0 -24.333 -0.333008 -39 -1s-26.334 -1.33398 -35.001 -2.00098v66h493l6 -188h-55c0 37.333 -6.16699 65.666 -18.5 84.999
s-28.166 32.333 -47.499 39s-39.333 9.66699 -60 9l-52 -1c-26.667 -0.666992 -45 -7.33398 -55 -20.001s-15 -38.667 -15 -78v-153l140 -1l-5 87h66v-232h-55zM312.999 770.003l-191 147l28 42l175 -87l178 89l24 -41l-200 -150h-14z" />
    <glyph glyph-name="ecaron" unicode="&#x11b;" horiz-adv-x="539" 
d="M281 -16c-48 0 -90.4971 10.8301 -127.497 32.4971s-66 52.334 -87 92.001s-31.5 86.5 -31.5 140.5c0 46.667 10.333 90.334 31 131.001s49.834 73.5 87.501 98.5s81.5 37.5 131.5 37.5c37.333 0 72.666 -7.5 105.999 -22.5s60.5 -39.833 81.5 -74.5
s31.167 -81.667 30.5 -141l-336 -6c0 -41.333 4.83301 -78 14.5 -110s25.5 -57 47.5 -75s51 -27 87 -27c23.333 0 49.666 6.33301 78.999 19s54.333 32.334 75 59.001l38 -35c-22 -32 -46.333 -56.5 -73 -73.5s-53.334 -28.833 -80.001 -35.5s-51.334 -10 -74.001 -10z
M172.003 331.997h208.003c-0.666992 40 -8.83398 70.667 -24.501 92s-37.834 32 -66.501 32c-32.667 0 -58.834 -10.667 -78.501 -32s-32.5 -52 -38.5 -92zM276.006 561.997l-158 167l38 45l128 -106h2l123 107l37 -42l-162 -171h-8z" />
    <glyph glyph-name="Gcircumflex" unicode="&#x11c;" horiz-adv-x="756" 
d="M380 -16c-70.667 0 -131.502 15.165 -182.502 45.498s-90 72.333 -117 126s-40.5 114.5 -40.5 182.5c0 46 7.16699 91.5 21.5 136.5s35.833 85.667 64.5 122s64.834 65.333 108.501 87s94.5 32.5 152.5 32.5c29.333 0 62.5 -4.5 99.5 -13.5s69.167 -21.5 96.5 -37.5
l-4 44h70v-232h-55c-8 58 -30 102 -66 132s-79.333 45.333 -130 46c-46.667 0 -86.5 -13.667 -119.5 -41s-58.333 -63.5 -76 -108.5s-26.5 -93.833 -26.5 -146.5c0 -58.667 9.16699 -111.167 27.5 -157.5s44.5 -82.666 78.5 -108.999s75 -39.5 123 -39.5
c21.333 0 46.666 2.83301 75.999 8.5s54.333 14.167 75 25.5v103c0 17.333 0.333008 34.333 1 51s1.33398 30.334 2.00098 41.001c-11.333 -0.666992 -24.333 -1.16699 -39 -1.5s-26.334 -0.833008 -35.001 -1.5v66h253v-55c-27.333 -0.666992 -45.666 -9.66699 -54.999 -27
s-14 -41 -14 -71v-157h-25c-16.667 0 -34.5 -2.5 -53.5 -7.5s-39.833 -11.167 -62.5 -18.5c-20.667 -6.66699 -43.667 -12.5 -69 -17.5s-51.666 -7.5 -78.999 -7.5zM525.998 768.998l-135 86l-138 -84l-26 39l161 148h14l153 -147z" />
    <glyph glyph-name="gcircumflex" unicode="&#x11d;" horiz-adv-x="556" 
d="M266 -271c-58.667 0 -105.17 6.33301 -139.503 19s-59 29.167 -74 49.5s-22.5 41.5 -22.5 63.5c0 24 8 46.5 24 67.5s39.333 37.5 70 49.5c-25.333 7.33301 -43.666 18.5 -54.999 33.5s-17 32.167 -17 51.5s7.83301 39.5 23.5 60.5s40.5 36.167 74.5 45.5
c-28.667 12.667 -52.167 31.334 -70.5 56.001s-27.833 54 -28.5 88c-1.33301 40 8.66699 75.333 30 106s48.833 54.5 82.5 71.5s69.167 25.5 106.5 25.5c18.667 0 39.334 -2.66699 62.001 -8s42.667 -13.666 60 -24.999c10.667 30 26.667 56.333 48 79s47 34 77 34
c20.667 0 36.334 -5.33301 47.001 -16s16 -25 16 -43c0 -10.667 -3.83301 -22.5 -11.5 -35.5s-22.167 -19.5 -43.5 -19.5c-10.667 0 -20.5 3.66699 -29.5 11s-14.5 16.333 -16.5 27c-12 -2.66699 -22.333 -11.167 -31 -25.5s-14 -27.5 -16 -39.5c18 -16 32 -34.833 42 -56.5
s15 -44.834 15 -69.501c0 -38 -10.5 -71.833 -31.5 -101.5s-48.333 -52.834 -82 -69.501s-69.834 -25 -108.501 -25c-10 0 -20 0.5 -30 1.5s-20.667 1.5 -32 1.5c-18 0 -33 -3.66699 -45 -11s-17 -17 -15 -29c2 -13.333 13.833 -22.5 35.5 -27.5s55.834 -8.5 102.501 -10.5
c51.333 -2.66699 96 -9 134 -19s67.333 -25.833 88 -47.5s31 -51.5 31 -89.5c0 -28 -8 -52.833 -24 -74.5s-37.167 -39.667 -63.5 -54s-55.333 -25.333 -87 -33s-63.5 -11.5 -95.5 -11.5zM270.997 189c20 0 36.832 5.83203 50.499 17.499s24 26.667 31 45
s10.5 37.833 10.5 58.5c0 25.333 -3.33301 49.5 -10 72.5s-17 41.667 -31 56s-31.667 21.5 -53 21.5c-30 0 -53.167 -12.667 -69.5 -38s-24.5 -54.666 -24.5 -87.999c0 -39.333 8.33301 -73.333 25 -102s40.334 -43 71.001 -43zM284.996 -212.001
c50 0 88.498 9.33398 115.498 28.001s40.5 39 40.5 61c0 26 -13.833 44.5 -41.5 55.5s-67.167 17.5 -118.5 19.5c-16 0.666992 -33.167 1.5 -51.5 2.5s-35.166 2.83301 -50.499 5.5c-12.667 -9.33301 -22.5 -20.833 -29.5 -34.5s-10.5 -27.834 -10.5 -42.501
c-1.33301 -28.667 11.334 -51.667 38.001 -69s62.667 -26 108 -26zM389.994 569l-127 106h-1l-128 -99l-37 42l167 163h8l156 -167z" />
    <glyph glyph-name="Gbreve" unicode="&#x11e;" horiz-adv-x="756" 
d="M380 -16c-70.667 0 -131.502 15.165 -182.502 45.498s-90 72.333 -117 126s-40.5 114.5 -40.5 182.5c0 46 7.16699 91.5 21.5 136.5s35.833 85.667 64.5 122s64.834 65.333 108.501 87s94.5 32.5 152.5 32.5c29.333 0 62.5 -4.5 99.5 -13.5s69.167 -21.5 96.5 -37.5
l-4 44h70v-232h-55c-8 58 -30 102 -66 132s-79.333 45.333 -130 46c-46.667 0 -86.5 -13.667 -119.5 -41s-58.333 -63.5 -76 -108.5s-26.5 -93.833 -26.5 -146.5c0 -58.667 9.16699 -111.167 27.5 -157.5s44.5 -82.666 78.5 -108.999s75 -39.5 123 -39.5
c21.333 0 46.666 2.83301 75.999 8.5s54.333 14.167 75 25.5v103c0 17.333 0.333008 34.333 1 51s1.33398 30.334 2.00098 41.001c-11.333 -0.666992 -24.333 -1.16699 -39 -1.5s-26.334 -0.833008 -35.001 -1.5v66h253v-55c-27.333 -0.666992 -45.666 -9.66699 -54.999 -27
s-14 -41 -14 -71v-157h-25c-16.667 0 -34.5 -2.5 -53.5 -7.5s-39.833 -11.167 -62.5 -18.5c-20.667 -6.66699 -43.667 -12.5 -69 -17.5s-51.666 -7.5 -78.999 -7.5zM391.998 790.998c-32 0 -63.1699 8.83301 -93.5029 26.5s-53.5 47.167 -69.5 88.5l37 18
c12.667 -14 29.334 -26.667 50.001 -38s46 -17 76 -17c29.333 0 54.333 5.66699 75 17s37.334 24 50.001 38l37 -18c-16 -41.333 -39.167 -70.833 -69.5 -88.5s-61.166 -26.5 -92.499 -26.5z" />
    <glyph glyph-name="gbreve" unicode="&#x11f;" horiz-adv-x="556" 
d="M266 -271c-58.667 0 -105.17 6.33301 -139.503 19s-59 29.167 -74 49.5s-22.5 41.5 -22.5 63.5c0 24 8 46.5 24 67.5s39.333 37.5 70 49.5c-25.333 7.33301 -43.666 18.5 -54.999 33.5s-17 32.167 -17 51.5s7.83301 39.5 23.5 60.5s40.5 36.167 74.5 45.5
c-28.667 12.667 -52.167 31.334 -70.5 56.001s-27.833 54 -28.5 88c-1.33301 40 8.66699 75.333 30 106s48.833 54.5 82.5 71.5s69.167 25.5 106.5 25.5c18.667 0 39.334 -2.66699 62.001 -8s42.667 -13.666 60 -24.999c10.667 30 26.667 56.333 48 79s47 34 77 34
c20.667 0 36.334 -5.33301 47.001 -16s16 -25 16 -43c0 -10.667 -3.83301 -22.5 -11.5 -35.5s-22.167 -19.5 -43.5 -19.5c-10.667 0 -20.5 3.66699 -29.5 11s-14.5 16.333 -16.5 27c-12 -2.66699 -22.333 -11.167 -31 -25.5s-14 -27.5 -16 -39.5c18 -16 32 -34.833 42 -56.5
s15 -44.834 15 -69.501c0 -38 -10.5 -71.833 -31.5 -101.5s-48.333 -52.834 -82 -69.501s-69.834 -25 -108.501 -25c-10 0 -20 0.5 -30 1.5s-20.667 1.5 -32 1.5c-18 0 -33 -3.66699 -45 -11s-17 -17 -15 -29c2 -13.333 13.833 -22.5 35.5 -27.5s55.834 -8.5 102.501 -10.5
c51.333 -2.66699 96 -9 134 -19s67.333 -25.833 88 -47.5s31 -51.5 31 -89.5c0 -28 -8 -52.833 -24 -74.5s-37.167 -39.667 -63.5 -54s-55.333 -25.333 -87 -33s-63.5 -11.5 -95.5 -11.5zM270.997 189c20 0 36.832 5.83203 50.499 17.499s24 26.667 31 45
s10.5 37.833 10.5 58.5c0 25.333 -3.33301 49.5 -10 72.5s-17 41.667 -31 56s-31.667 21.5 -53 21.5c-30 0 -53.167 -12.667 -69.5 -38s-24.5 -54.666 -24.5 -87.999c0 -39.333 8.33301 -73.333 25 -102s40.334 -43 71.001 -43zM284.996 -212.001
c50 0 88.498 9.33398 115.498 28.001s40.5 39 40.5 61c0 26 -13.833 44.5 -41.5 55.5s-67.167 17.5 -118.5 19.5c-16 0.666992 -33.167 1.5 -51.5 2.5s-35.166 2.83301 -50.499 5.5c-12.667 -9.33301 -22.5 -20.833 -29.5 -34.5s-10.5 -27.834 -10.5 -42.501
c-1.33301 -28.667 11.334 -51.667 38.001 -69s62.667 -26 108 -26zM260.994 601c-27.333 0 -55.3311 9.66699 -83.998 29s-50.334 51.666 -65.001 96.999l53 27c10.667 -18.667 24.167 -35.167 40.5 -49.5s36.166 -21.5 59.499 -21.5s42.833 7.33301 58.5 22
s28.5 31.334 38.5 50.001l52 -23c-16.667 -46 -38 -79.333 -64 -100s-55.667 -31 -89 -31z" />
    <glyph glyph-name="uni0122" unicode="&#x122;" horiz-adv-x="756" 
d="M380 -16c-70.667 0 -131.502 15.165 -182.502 45.498s-90 72.333 -117 126s-40.5 114.5 -40.5 182.5c0 46 7.16699 91.5 21.5 136.5s35.833 85.667 64.5 122s64.834 65.333 108.501 87s94.5 32.5 152.5 32.5c29.333 0 62.5 -4.5 99.5 -13.5s69.167 -21.5 96.5 -37.5
l-4 44h70v-232h-55c-8 58 -30 102 -66 132s-79.333 45.333 -130 46c-46.667 0 -86.5 -13.667 -119.5 -41s-58.333 -63.5 -76 -108.5s-26.5 -93.833 -26.5 -146.5c0 -58.667 9.16699 -111.167 27.5 -157.5s44.5 -82.666 78.5 -108.999s75 -39.5 123 -39.5
c21.333 0 46.666 2.83301 75.999 8.5s54.333 14.167 75 25.5v103c0 17.333 0.333008 34.333 1 51s1.33398 30.334 2.00098 41.001c-11.333 -0.666992 -24.333 -1.16699 -39 -1.5s-26.334 -0.833008 -35.001 -1.5v66h253v-55c-27.333 -0.666992 -45.666 -9.66699 -54.999 -27
s-14 -41 -14 -71v-157h-25c-16.667 0 -34.5 -2.5 -53.5 -7.5s-39.833 -11.167 -62.5 -18.5c-20.667 -6.66699 -43.667 -12.5 -69 -17.5s-51.666 -7.5 -78.999 -7.5zM395.998 -276.002l-38 30.001c22 39.333 34.667 73.166 38 101.499s0.333008 57.833 -9 88.5l83 19
c12.667 -22.667 19 -46 19 -70c0 -28 -8.5 -56.5 -25.5 -85.5s-39.5 -56.833 -67.5 -83.5z" />
    <glyph glyph-name="uni0123" unicode="&#x123;" horiz-adv-x="556" 
d="M290 813l39.001 -30.001c-22 -38.667 -34.667 -72.167 -38 -100.5s-0.333008 -58.166 9 -89.499l-83 -19c-13.333 22.667 -20 46 -20 70c0 28 8.66699 56.5 26 85.5s39.666 56.833 66.999 83.5zM266.001 -271.001c-58.667 0 -105.17 6.33301 -139.503 19
s-59 29.167 -74 49.5s-22.5 41.5 -22.5 63.5c0 24 8 46.5 24 67.5s39.333 37.5 70 49.5c-25.333 7.33301 -43.666 18.5 -54.999 33.5s-17 32.167 -17 51.5s7.83301 39.5 23.5 60.5s40.5 36.167 74.5 45.5c-28.667 12.667 -52.167 31.334 -70.5 56.001s-27.833 54 -28.5 88
c-1.33301 40 8.66699 75.333 30 106s48.833 54.5 82.5 71.5s69.167 25.5 106.5 25.5c18.667 0 39.334 -2.66699 62.001 -8s42.667 -13.666 60 -24.999c10.667 30 26.667 56.333 48 79s47 34 77 34c20.667 0 36.334 -5.33301 47.001 -16s16 -25 16 -43
c0 -10.667 -3.83301 -22.5 -11.5 -35.5s-22.167 -19.5 -43.5 -19.5c-10.667 0 -20.5 3.66699 -29.5 11s-14.5 16.333 -16.5 27c-12 -2.66699 -22.333 -11.167 -31 -25.5s-14 -27.5 -16 -39.5c18 -16 32 -34.833 42 -56.5s15 -44.834 15 -69.501
c0 -38 -10.5 -71.833 -31.5 -101.5s-48.333 -52.834 -82 -69.501s-69.834 -25 -108.501 -25c-10 0 -20 0.5 -30 1.5s-20.667 1.5 -32 1.5c-18 0 -33 -3.66699 -45 -11s-17 -17 -15 -29c2 -13.333 13.833 -22.5 35.5 -27.5s55.834 -8.5 102.501 -10.5
c51.333 -2.66699 96 -9 134 -19s67.333 -25.833 88 -47.5s31 -51.5 31 -89.5c0 -28 -8 -52.833 -24 -74.5s-37.167 -39.667 -63.5 -54s-55.333 -25.333 -87 -33s-63.5 -11.5 -95.5 -11.5zM270.998 188.999c20 0 36.832 5.83203 50.499 17.499s24 26.667 31 45
s10.5 37.833 10.5 58.5c0 25.333 -3.33301 49.5 -10 72.5s-17 41.667 -31 56s-31.667 21.5 -53 21.5c-30 0 -53.167 -12.667 -69.5 -38s-24.5 -54.666 -24.5 -87.999c0 -39.333 8.33301 -73.333 25 -102s40.334 -43 71.001 -43zM284.997 -212.002
c50 0 88.498 9.33398 115.498 28.001s40.5 39 40.5 61c0 26 -13.833 44.5 -41.5 55.5s-67.167 17.5 -118.5 19.5c-16 0.666992 -33.167 1.5 -51.5 2.5s-35.166 2.83301 -50.499 5.5c-12.667 -9.33301 -22.5 -20.833 -29.5 -34.5s-10.5 -27.834 -10.5 -42.501
c-1.33301 -28.667 11.334 -51.667 38.001 -69s62.667 -26 108 -26z" />
    <glyph glyph-name="Hcircumflex" unicode="&#x124;" horiz-adv-x="798" 
d="M52 0v55c27.333 1.33301 45.833 8.5 55.5 21.5s14.5 38.833 14.5 77.5v399c0 16.667 0.333008 32.667 1 48s1.66699 27.333 3 36c-11.333 0 -24.333 -0.333008 -39 -1s-26.334 -1.33398 -35.001 -2.00098v66h266v-55c-27.333 -1.33301 -45.833 -8.5 -55.5 -21.5
s-14.5 -38.833 -14.5 -77.5v-159h302v166c0 16.667 0.333008 32.667 1 48s1.66699 27.333 3 36c-11.333 0 -24.333 -0.333008 -39 -1s-26.334 -1.33398 -35.001 -2.00098v66h266v-55c-27.333 -1.33301 -45.833 -8.5 -55.5 -21.5s-14.5 -38.833 -14.5 -77.5v-397
c0 -18 -0.333008 -34.833 -1 -50.5s-1.66699 -27.5 -3 -35.5c11.333 0.666992 24.333 1.33398 39 2.00098s26.334 1 35.001 1v-66h-266v55c27.333 1.33301 45.833 8.5 55.5 21.5s14.5 38.833 14.5 77.5v169l-302 -4v-170c0 -18 -0.333008 -34.833 -1 -50.5
s-1.66699 -27.5 -3 -35.5c11.333 0.666992 24.333 1.33398 39 2.00098s26.334 1 35.001 1v-66h-266zM535 769l-135 86l-138 -84l-26 39l161 148h14l153 -147z" />
    <glyph glyph-name="hcircumflex" unicode="&#x125;" horiz-adv-x="614" 
d="M348 53c19.333 0 33.1689 4.33789 41.502 13.0049s13.333 20.5 15 35.5s2.5 32.167 2.5 51.5v142c0 48 -7.5 83.667 -22.5 107s-38.167 35 -69.5 35c-19.333 0 -38.5 -4.33301 -57.5 -13s-34.5 -19.334 -46.5 -32.001v-249c0 -11.333 -0.333008 -24.333 -1 -39
s-2 -29 -4 -43c11.333 1.33301 22.833 2.16602 34.5 2.49902s21.834 0.5 30.501 0.5v-64h-243v53c19.333 0 33.166 4.33301 41.499 13s13.333 20.5 15 35.5s2.5 32.167 2.5 51.5v432c0 11.333 0.333008 23.833 1 37.5s1.66699 27.834 3 42.501
c-10.667 -0.666992 -22.834 -1.33398 -36.501 -2.00098s-24.834 -1.33398 -33.501 -2.00098v65c45.333 0 78.833 3.16699 100.5 9.5s36.167 12.833 43.5 19.5h46v-298c20 16 44.5 29.833 73.5 41.5s55.167 17.5 78.5 17.5c60 0 102.833 -17.833 128.5 -53.5
s38.5 -91.834 38.5 -168.501l1 -151c0 -11.333 -0.333008 -24.333 -1 -39s-1.66699 -29 -3 -43c10 1.33301 21 2.16602 33 2.49902s22.333 0.5 31 0.5v-64h-243v53zM290.003 773.005l-127 106h-1l-128 -99l-37 42l167 163h8l156 -167z" />
    </font>
</defs>
</svg>
