<svg width="88" height="88" viewBox="0 0 88 88" fill="none" xmlns="http://www.w3.org/2000/svg">
<g clip-path="url(#clip0_17_175)">
<path d="M64.1346 3.45848L13.3559 0.0620609C11.7006 -0.0475953 10.2649 1.20761 10.154 2.86242L9.75683 8.8019H3.00781C1.34939 8.8019 0 10.1513 0 11.8097V84.9367C0 86.5951 1.34939 87.9445 3.00781 87.9445H41.8758C42.2127 87.9445 42.5464 87.8068 42.7854 87.5689L48.6528 81.7274C48.7125 81.7402 48.7733 81.7503 48.8359 81.7544L58.8531 82.4244C60.4519 82.5299 61.9477 81.2295 62.0549 79.624L66.935 6.66051C67.0448 5.02289 65.7721 3.56797 64.1346 3.45848ZM43.1649 83.5354V74.5807C43.1649 74.3439 43.3577 74.151 43.5945 74.151H52.5149L43.1649 83.5354ZM59.4825 79.4521C59.4406 79.7117 59.2881 79.8451 59.0253 79.8521L51.0709 79.32L56.5283 73.8868C56.7713 73.645 56.908 73.3162 56.908 72.9733V11.8099C56.908 10.1515 55.5586 8.80208 53.9002 8.80208H40.4951C38.8284 8.80208 38.8284 11.3802 40.4951 11.3802H53.9002C54.1372 11.3802 54.3299 11.573 54.3299 11.8099V71.5729H43.5945C41.9361 71.5729 40.5867 72.9223 40.5867 74.5807V85.3664H3.00781C2.77097 85.3664 2.57812 85.1735 2.57812 84.9367V11.8099C2.57812 11.573 2.77097 11.3802 3.00781 11.3802H33.6304C35.2971 11.3802 35.2971 8.80208 33.6304 8.80208H12.3406L12.7263 3.03464C12.7682 2.77494 12.9207 2.64173 13.1837 2.63469L63.9624 6.03094C64.2221 6.07287 64.3555 6.22533 64.3625 6.48829L59.4825 79.4521Z" fill="#CFAC7D"/>
<path d="M46.0328 40.7425H10.8752C10.1633 40.7425 9.58618 41.3196 9.58618 42.0315C9.58618 42.7434 10.1633 43.3206 10.8752 43.3206H46.0328C46.7449 43.3206 47.3219 42.7434 47.3219 42.0315C47.3219 41.3196 46.7449 40.7425 46.0328 40.7425Z" fill="#CFAC7D"/>
<path d="M46.0328 49.7289H10.8752C10.1633 49.7289 9.58618 50.3061 9.58618 51.018C9.58618 51.7299 10.1633 52.3071 10.8752 52.3071H46.0328C46.7449 52.3071 47.3219 51.7299 47.3219 51.018C47.3219 50.3061 46.7449 49.7289 46.0328 49.7289Z" fill="#CFAC7D"/>
<path d="M9.58618 33.045C9.58618 33.757 10.1633 34.3341 10.8752 34.3341H46.0328C46.7449 34.3341 47.3219 33.757 47.3219 33.045C47.3219 32.3331 46.7449 31.756 46.0328 31.756H10.8752C10.1633 31.756 9.58618 32.3331 9.58618 33.045Z" fill="#CFAC7D"/>
<path d="M15.7793 24.0586C15.7793 24.7705 16.3565 25.3476 17.0684 25.3476H39.8396C40.5515 25.3476 41.1286 24.7705 41.1286 24.0586C41.1286 23.3467 40.5515 22.7695 39.8396 22.7695H17.0684C16.3565 22.7695 15.7793 23.3467 15.7793 24.0586Z" fill="#CFAC7D"/>
<path d="M33.4735 75.4165C31.1551 75.4227 28.8366 75.4277 26.5182 75.4313C25.7389 75.4325 24.9598 75.4335 24.1807 75.434C22.7688 75.4351 21.8174 75.1517 21.5012 73.5986C21.2337 72.2855 19.3761 72.462 19.0152 73.5986C18.1232 76.4065 16.6478 75.3063 15.8214 73.4176C14.9969 71.5333 14.7855 69.4244 14.4254 67.4192C14.1607 65.9457 11.9322 66.3587 11.8934 67.7619C11.8422 69.6097 11.6696 71.4282 11.2005 73.2203C10.7167 75.0693 9.99158 76.8463 9.27176 78.613C8.64425 80.1532 11.1395 80.8158 11.7578 79.2985C12.3956 77.733 13.0343 76.159 13.5097 74.5351C14.3931 76.6595 16.2208 79.0623 18.8253 77.6463C19.3098 77.3828 19.7623 77.0082 20.1595 76.5715C21.5139 78.1366 23.5298 78.0132 25.4162 78.011C28.102 78.0075 30.7879 78.0017 33.4738 77.9946C35.1323 77.9903 35.1353 75.4122 33.4735 75.4165Z" fill="#CFAC7D"/>
<path d="M86.957 42.3567C86.2872 41.6902 85.3663 41.3483 84.4313 41.323L83.4571 41.3279V39.4855C83.4571 38.3634 82.7906 37.1778 81.8358 36.5874V33.9924C81.8358 28.6524 73.5219 28.6756 73.5219 34.0175V36.6128C72.5492 37.214 71.8968 38.287 71.8968 39.5093V41.3968C67.6058 41.689 67.5936 48.228 71.9016 48.4835C71.9291 54.2542 71.9277 59.9304 71.8968 65.7977C71.8884 67.4157 74.4662 67.5106 74.4749 65.8113C74.5059 59.939 74.5072 54.2578 74.4799 48.4823L80.8756 48.4505C80.8756 48.4505 80.8673 67.5025 80.8673 76.0853C80.8673 80.2684 74.4703 80.2962 74.4703 76.0418L74.4725 73.6911C74.5731 72.0273 71.9998 71.8721 71.899 73.5357V75.7415C71.899 77.6322 72.4838 79.2333 73.6157 80.3596C73.7164 83.0569 74.8529 85.6668 76.7729 87.5708C77.3238 88.1174 78.0864 87.9503 78.6195 87.5396C80.5729 85.5828 81.6736 83.0031 81.7423 80.2496C82.5933 79.4021 83.4453 78.5488 83.4453 75.6269L83.4463 63.8791C85.6755 64.5131 88 62.788 88 60.4508V44.8666C88 43.9173 87.6296 43.026 86.957 42.3567ZM74.4749 41.3724V39.5091C74.4749 39.1277 74.7367 38.8078 75.089 38.7128L80.2496 38.6872C80.394 38.7229 80.5272 38.7912 80.6351 38.8988C80.7924 39.0553 80.879 39.2636 80.879 39.4855V41.3408L74.4749 41.3724ZM77.684 32.4349C78.4753 32.4349 79.2575 33.2107 79.2575 33.9924V36.0834L76.0998 36.0991V34.0175C76.1 33.149 76.8102 32.4392 77.684 32.4349ZM77.6821 84.6679C77.0828 83.8185 76.6493 82.8578 76.4073 81.8481C76.8064 81.9345 77.2107 81.9796 77.6151 81.9796C78.0666 81.9796 78.518 81.9235 78.9624 81.8151C78.7263 82.8401 78.2935 83.8066 77.6821 84.6679ZM85.4218 60.4508C85.4218 61.6713 83.4535 61.7674 83.4535 60.4734C83.4535 60.4734 83.4557 48.2747 83.4571 47.1565C83.458 46.4353 82.8585 45.8659 82.1581 45.8659L72.1225 45.9157C70.8778 45.9157 70.9068 43.9682 72.1352 43.9622L84.444 43.9012C85.0392 43.9519 85.3651 44.2738 85.4217 44.8666V60.4508H85.4218Z" fill="#CFAC7D"/>
</g>
<defs>
<clipPath id="clip0_17_175">
<rect width="88" height="88" fill="white"/>
</clipPath>
</defs>
</svg>
