<svg width="88" height="88" viewBox="0 0 88 88" fill="none" xmlns="http://www.w3.org/2000/svg">
<g clip-path="url(#clip0_17_134)">
<path d="M67.7323 23.1655L67.7307 23.018L67.5832 23.0171C64.4643 22.9986 61.3455 23.0032 58.2274 23.0079H58.227C55.1582 23.0124 52.09 23.017 49.022 22.9995C49.0052 20.1162 49.0085 17.2272 49.0118 14.3375C49.0155 11.1033 49.0193 7.86826 48.9948 4.6397L48.9936 4.49104L48.845 4.49084C35.1264 4.47231 21.3985 4.47231 7.67061 4.49084L7.52093 4.49104L7.52082 4.64072C7.50209 29.3364 7.50209 54.032 7.53018 78.7277L7.53035 78.8765L7.6791 78.8775C14.8245 78.929 21.9778 78.9076 29.1306 78.8861C39.9793 78.8535 50.8267 78.8209 61.6434 79.0429C61.7743 79.1872 61.9053 79.3314 62.0361 79.4754C62.8838 80.4086 63.728 81.3379 64.5556 82.283C44.3953 82.2922 24.2352 82.3012 4.07508 82.283C4.05649 55.2141 4.05649 28.1543 4.07508 1.09466C5.61415 1.09286 7.15313 1.09097 8.69203 1.08909C22.9533 1.07161 37.2073 1.05414 51.4613 1.10389C58.0525 7.578 64.6248 14.0611 71.1506 20.59C71.2038 25.205 71.1964 29.8227 71.189 34.4405C71.185 36.9304 71.181 39.4204 71.1865 41.9099C70.9588 41.6872 70.7312 41.4654 70.5038 41.2438C69.5839 40.3475 68.6687 39.4558 67.778 38.5287C67.7215 35.6635 67.7314 32.8042 67.7414 29.9429C67.7492 27.6863 67.7571 25.4285 67.7323 23.1655ZM52.714 7.15507L52.4583 6.90499L52.4591 7.26266C52.4629 8.88404 52.4606 10.5063 52.4584 12.1295C52.455 14.5657 52.4517 17.0039 52.4685 19.4444L52.4695 19.5927L52.6178 19.5933C56.7199 19.6119 60.8312 19.6026 64.9326 19.5933L65.2946 19.5925L65.0382 19.3371C60.9459 15.2612 56.8441 11.1943 52.714 7.15507Z" fill="#CFAC7D" stroke="#F4F3F2" stroke-width="0.3"/>
<path d="M45.6645 31.8387L45.6651 31.839L45.6699 31.8265C46.2656 30.2819 47.7048 29.2863 49.2903 28.9893C50.8757 28.6924 52.5823 29.0987 53.7065 30.3269L53.7064 30.327L53.7118 30.3324C54.7124 31.3187 55.7135 32.3046 56.7147 33.2905C61.0551 37.5649 65.3969 41.8405 69.6954 46.153L69.6953 46.1531L69.7011 46.1583C70.8528 47.1993 71.3004 48.7547 71.109 50.238C70.9176 51.7213 70.0894 53.1146 68.7116 53.8341L68.7113 53.8337L68.701 53.8402C66.7363 55.0794 64.3162 54.3774 62.5193 53.0947L62.4183 53.0226L62.3286 53.1082C61.2591 54.129 60.2086 55.1868 59.1864 56.2629L59.0797 56.3752L59.1954 56.4782C64.1193 60.8627 69.0591 65.2315 73.9986 69.6002C75.6439 71.0553 77.2892 72.5105 78.9339 73.9662C79.3876 74.3875 79.8675 74.7934 80.3462 75.1983C80.3965 75.2409 80.4469 75.2834 80.4972 75.326C81.0272 75.7748 81.5528 76.2246 82.0439 76.7001C83.0202 77.6453 83.8518 78.6841 84.2971 79.9934V82.6272C83.6624 85.1374 81.6782 87.0184 79.2347 87.8499H76.4703C76.4454 87.8397 76.4205 87.8296 76.3956 87.8194C75.2872 87.3669 74.182 86.9157 73.4283 86.014L73.4284 86.0139L73.4239 86.0089C70.1423 82.4233 66.8843 78.8115 63.6255 75.1989C59.9529 71.1275 56.2793 67.055 52.5698 63.0176L52.4659 62.9045L52.3553 63.011C51.2872 64.0398 50.2285 65.0778 49.1701 66.1248L49.0843 66.2096L49.1487 66.3116C50.0888 67.7995 50.9814 69.4646 50.4159 71.1963L50.4133 71.204L50.4116 71.212C50.0689 72.8448 48.7714 74.0621 47.2245 74.5884C45.6789 75.1142 43.9109 74.9412 42.6346 73.8276C38.9829 70.3489 35.4089 66.7876 31.8333 63.225C29.9551 61.3535 28.0764 59.4816 26.1859 57.621L26.186 57.6209L26.1809 57.6163C24.024 55.6799 24.2514 51.895 26.6346 50.2367L26.6347 50.237L26.6425 50.2308C28.6634 48.6154 31.5128 49.2262 33.4212 50.7765L33.5254 50.8612L33.621 50.767C35.272 49.1407 36.9174 47.5122 38.5623 45.8842C41.3034 43.1712 44.0431 40.4596 46.8052 37.7619L46.8959 37.6734L46.8238 37.5693C45.6457 35.8675 44.6935 33.8133 45.6645 31.8387ZM49.1931 32.5697L49.1015 32.5859L49.0754 32.6752C49.0242 32.8503 48.9449 33.111 48.8652 33.373L48.8652 33.3731L48.865 33.3737C48.7856 33.6349 48.7058 33.8972 48.654 34.074L48.6295 34.1578L48.6903 34.2205C52.3603 38.0091 56.1317 41.7123 59.9007 45.4131C61.6492 47.1301 63.3972 48.8464 65.1342 50.5706C65.4193 50.9953 65.8092 51.1649 66.2065 51.1459C66.5983 51.1271 66.981 50.9261 67.2691 50.6461C67.557 50.3662 67.7673 49.9909 67.7931 49.6029C67.8192 49.2086 67.6528 48.8204 67.2285 48.5335C66.4309 47.7391 65.6338 46.9441 64.8365 46.149C60.1897 41.5149 55.5391 36.877 50.7932 32.3403L50.7382 32.2878L50.6633 32.301C50.4803 32.3336 50.2037 32.3845 49.928 32.4354L49.9272 32.4355C49.6508 32.4865 49.3751 32.5374 49.1931 32.5697ZM35.966 53.296L35.8601 53.4021L35.9661 53.5081C37.9985 55.5403 40.048 57.5575 42.0979 59.5751C43.533 60.9875 44.9683 62.4002 46.3982 63.8184L46.5028 63.9222L46.6084 63.8194C51.1132 59.4372 55.5712 55.0088 60.0008 50.5528L60.1067 50.4463L60.0001 50.3406C56.5354 46.9039 53.0705 43.4672 49.5963 40.0396L49.4913 39.9361L49.386 40.0392C44.8911 44.4393 40.4052 48.8491 35.966 53.296ZM28.556 52.9503L28.4678 52.9709L28.4451 53.0587C28.3513 53.4205 28.1646 54.1314 28.0624 54.4807L28.0378 54.5648L28.0989 54.6276C31.8282 58.4513 35.6389 62.1958 39.4453 65.936C41.1318 67.5932 42.8175 69.2495 44.4948 70.9115C44.781 71.356 45.1766 71.5376 45.582 71.5229C45.982 71.5083 46.3729 71.304 46.6659 71.0178C46.9588 70.7318 47.1712 70.3471 47.1916 69.9504C47.2123 69.5474 47.0333 69.153 46.5888 68.865C45.4214 67.7062 44.2556 66.5452 43.0896 65.3839C38.7982 61.1102 34.5038 56.8335 30.1171 52.6542L30.0583 52.5983L29.9794 52.6168L29.2677 52.7835L28.556 52.9503ZM55.0304 60.4123L54.9489 60.5127L55.0362 60.6081C57.9801 63.825 60.901 67.0675 63.8224 70.3105C67.9134 74.852 72.0053 79.3945 76.1624 83.8687L76.1623 83.8688L76.1672 83.8737C76.7418 84.4371 77.4335 84.609 78.1064 84.5118C78.7743 84.4154 79.4194 84.0554 79.9227 83.5623C80.426 83.0693 80.798 82.4328 80.9067 81.7705C81.0163 81.1032 80.8569 80.4136 80.3041 79.8371L80.3043 79.8369L80.2971 79.8303C76.4332 76.2953 72.504 72.8254 68.5723 69.361C68.3079 69.128 68.0434 68.895 67.779 68.6621C64.1114 65.4309 60.4453 62.201 56.8301 58.9229L56.7417 58.8427L56.6437 58.9109C56.0325 59.336 55.4979 59.8366 55.0304 60.4123Z" fill="#CFAC7D" stroke="#F4F3F2" stroke-width="0.3"/>
</g>
<defs>
<clipPath id="clip0_17_134">
<rect width="88" height="88" fill="white"/>
</clipPath>
</defs>
</svg>
