<svg width="88" height="88" viewBox="0 0 88 88" fill="none" xmlns="http://www.w3.org/2000/svg">
<path d="M25.4382 88C22.4049 88 19.9382 85.5333 19.9382 82.5C19.9382 79.4667 22.4049 77 25.4382 77C26.1982 77 26.8132 77.6143 26.8132 78.375C26.8132 79.1357 26.1982 79.75 25.4382 79.75C23.9216 79.75 22.6882 80.9833 22.6882 82.5C22.6882 84.0167 23.9216 85.25 25.4382 85.25C26.1982 85.25 26.8132 85.8643 26.8132 86.625C26.8132 87.3857 26.1982 88 25.4382 88Z" fill="#CFAC7D"/>
<path d="M76.3132 79.75H25.4382C24.6776 79.75 24.0632 79.1357 24.0632 78.375C24.0632 77.6143 24.6776 77 25.4382 77H76.3132C77.0732 77 77.6882 77.6143 77.6882 78.375C77.6882 79.1357 77.0732 79.75 76.3132 79.75Z" fill="#CFAC7D"/>
<path d="M76.3132 88H25.4382C24.6776 88 24.0632 87.3857 24.0632 86.625C24.0632 85.8643 24.6776 85.25 25.4382 85.25H76.3132C77.0732 85.25 77.6882 85.8643 77.6882 86.625C77.6882 87.3857 77.0732 88 76.3132 88Z" fill="#CFAC7D"/>
<path d="M76.3132 79.75C75.5526 79.75 74.9382 79.1357 74.9382 78.375C74.9382 77.6143 75.5526 77 76.3132 77C77.8292 77 79.0632 75.7667 79.0632 74.25C79.0632 73.4893 79.6776 72.875 80.4382 72.875C81.1982 72.875 81.8132 73.4893 81.8132 74.25C81.8132 77.2833 79.3459 79.75 76.3132 79.75Z" fill="#CFAC7D"/>
<path d="M80.4382 6.875C79.6776 6.875 79.0632 6.25867 79.0632 5.5C79.0632 3.98334 77.8292 2.75 76.3132 2.75C75.5526 2.75 74.9382 2.13367 74.9382 1.375C74.9382 0.616333 75.5526 0 76.3132 0C79.3459 0 81.8132 2.46667 81.8132 5.5C81.8132 6.25867 81.1982 6.875 80.4382 6.875Z" fill="#CFAC7D"/>
<path d="M21.3132 6.875C20.5526 6.875 19.9382 6.25867 19.9382 5.5C19.9382 2.46667 22.4049 0 25.4382 0C26.1982 0 26.8132 0.616333 26.8132 1.375C26.8132 2.13367 26.1982 2.75 25.4382 2.75C23.9216 2.75 22.6882 3.98334 22.6882 5.5C22.6882 6.25867 22.0732 6.875 21.3132 6.875Z" fill="#CFAC7D"/>
<path d="M76.3132 88C75.5526 88 74.9382 87.3857 74.9382 86.625C74.9382 85.8643 75.5526 85.25 76.3132 85.25C77.8292 85.25 79.0632 84.0167 79.0632 82.5C79.0632 81.7393 79.6776 81.125 80.4382 81.125C81.1982 81.125 81.8132 81.7393 81.8132 82.5C81.8132 85.5333 79.3459 88 76.3132 88Z" fill="#CFAC7D"/>
<path d="M80.4381 33C80.0856 33 79.7338 32.8651 79.466 32.5972C78.9282 32.0594 78.9282 31.1906 79.466 30.6528L84.5631 25.5557V9.625H80.4381C79.6774 9.625 79.0631 9.00867 79.0631 8.25C79.0631 7.49133 79.6774 6.875 80.4381 6.875H85.9381C86.6981 6.875 87.3131 7.49133 87.3131 8.25V26.125C87.3131 26.4896 87.1681 26.84 86.9096 27.0972L81.4096 32.5972C81.1417 32.8651 80.7899 33 80.4381 33Z" fill="#CFAC7D"/>
<path d="M76.3132 2.75H25.4382C24.6776 2.75 24.0632 2.13367 24.0632 1.375C24.0632 0.616333 24.6776 0 25.4382 0H76.3132C77.0732 0 77.6882 0.616333 77.6882 1.375C77.6882 2.13367 77.0732 2.75 76.3132 2.75Z" fill="#CFAC7D"/>
<path d="M21.3132 83.875C20.5526 83.875 19.9382 83.2607 19.9382 82.5V5.5C19.9382 4.74133 20.5526 4.125 21.3132 4.125C22.0732 4.125 22.6882 4.74133 22.6882 5.5V82.5C22.6882 83.2607 22.0732 83.875 21.3132 83.875Z" fill="#CFAC7D"/>
<path d="M74.9382 83.875H26.8132C26.0526 83.875 25.4382 83.2607 25.4382 82.5C25.4382 81.7393 26.0526 81.125 26.8132 81.125H74.9382C75.6982 81.125 76.3132 81.7393 76.3132 82.5C76.3132 83.2607 75.6982 83.875 74.9382 83.875Z" fill="#CFAC7D"/>
<path d="M74.9382 83.875C74.1776 83.875 73.5632 83.2607 73.5632 82.5V78.375C73.5632 77.6143 74.1776 77 74.9382 77C75.6982 77 76.3132 77.6143 76.3132 78.375V82.5C76.3132 83.2607 75.6982 83.875 74.9382 83.875Z" fill="#CFAC7D"/>
<path d="M26.8132 83.875C26.0526 83.875 25.4382 83.2607 25.4382 82.5V78.375C25.4382 77.6143 26.0526 77 26.8132 77C27.5732 77 28.1882 77.6143 28.1882 78.375V82.5C28.1882 83.2607 27.5732 83.875 26.8132 83.875Z" fill="#CFAC7D"/>
<path d="M80.4382 83.875C79.6776 83.875 79.0632 83.2607 79.0632 82.5V5.5C79.0632 4.74133 79.6776 4.125 80.4382 4.125C81.1982 4.125 81.8132 4.74133 81.8132 5.5V82.5C81.8132 83.2607 81.1982 83.875 80.4382 83.875Z" fill="#CFAC7D"/>
<path d="M21.3112 9.625H2.06323C1.30255 9.625 0.688232 9.00867 0.688232 8.25C0.688232 7.49133 1.30255 6.875 2.06323 6.875H21.3112C22.0719 6.875 22.6862 7.49133 22.6862 8.25C22.6862 9.00867 22.0719 9.625 21.3112 9.625Z" fill="#CFAC7D"/>
<path d="M21.3112 78.375H8.93823C8.17755 78.375 7.56323 77.7607 7.56323 77C7.56323 76.2393 8.17755 75.625 8.93823 75.625H21.3112C22.0719 75.625 22.6862 76.2393 22.6862 77C22.6862 77.7607 22.0719 78.375 21.3112 78.375Z" fill="#CFAC7D"/>
<path d="M2.06323 71.5C1.30255 71.5 0.688232 70.8857 0.688232 70.125V8.25C0.688232 7.49133 1.30255 6.875 2.06323 6.875C2.82324 6.875 3.43823 7.49133 3.43823 8.25V70.125C3.43823 70.8857 2.82324 71.5 2.06323 71.5Z" fill="#CFAC7D"/>
<path d="M8.93813 78.375C8.58565 78.375 8.23384 78.2401 7.96596 77.9722L1.09096 71.0972C0.553177 70.5594 0.553177 69.6906 1.09096 69.1528C1.62807 68.6151 2.49751 68.6151 3.03462 69.1528L9.90962 76.0278C10.4474 76.5656 10.4474 77.4344 9.90962 77.9722C9.64174 78.2401 9.28993 78.375 8.93813 78.375Z" fill="#CFAC7D"/>
<path d="M8.93823 78.375C8.17755 78.375 7.56323 77.7607 7.56323 77V70.125C7.56323 69.3643 8.17755 68.75 8.93823 68.75C9.69824 68.75 10.3132 69.3643 10.3132 70.125V77C10.3132 77.7607 9.69824 78.375 8.93823 78.375Z" fill="#CFAC7D"/>
<path d="M8.93823 71.5H2.06323C1.30255 71.5 0.688232 70.8857 0.688232 70.125C0.688232 69.3643 1.30255 68.75 2.06323 68.75H8.93823C9.69824 68.75 10.3132 69.3643 10.3132 70.125C10.3132 70.8857 9.69824 71.5 8.93823 71.5Z" fill="#CFAC7D"/>
<path d="M21.3132 28.875H11.6882C10.9276 28.875 10.3132 28.2587 10.3132 27.5C10.3132 26.7413 10.9276 26.125 11.6882 26.125H21.3132C22.0732 26.125 22.6882 26.7413 22.6882 27.5C22.6882 28.2587 22.0732 28.875 21.3132 28.875Z" fill="#CFAC7D"/>
<path d="M21.3132 37.125H11.6882C10.9276 37.125 10.3132 36.5087 10.3132 35.75C10.3132 34.9913 10.9276 34.375 11.6882 34.375H21.3132C22.0732 34.375 22.6882 34.9913 22.6882 35.75C22.6882 36.5087 22.0732 37.125 21.3132 37.125Z" fill="#CFAC7D"/>
<path d="M21.3132 45.375H11.6882C10.9276 45.375 10.3132 44.7587 10.3132 44C10.3132 43.2413 10.9276 42.625 11.6882 42.625H21.3132C22.0732 42.625 22.6882 43.2413 22.6882 44C22.6882 44.7587 22.0732 45.375 21.3132 45.375Z" fill="#CFAC7D"/>
<path d="M21.3132 53.625H11.6882C10.9276 53.625 10.3132 53.0107 10.3132 52.25C10.3132 51.4893 10.9276 50.875 11.6882 50.875H21.3132C22.0732 50.875 22.6882 51.4893 22.6882 52.25C22.6882 53.0107 22.0732 53.625 21.3132 53.625Z" fill="#CFAC7D"/>
<path d="M63.9281 23.3998H39.1808C38.4208 23.3998 37.8058 22.7835 37.8058 22.0248C37.8058 21.2655 38.4208 20.6498 39.1808 20.6498H63.9281C64.6888 20.6498 65.3031 21.2655 65.3031 22.0248C65.3031 22.7835 64.6888 23.3998 63.9281 23.3998Z" fill="#CFAC7D"/>
<path d="M51.5558 50.9052C50.7958 50.9052 50.1808 50.2909 50.1808 49.5302V17.8998C50.1808 17.1405 50.7958 16.5248 51.5558 16.5248C52.3165 16.5248 52.9308 17.1405 52.9308 17.8998V49.5316C52.9308 50.2909 52.3165 50.9052 51.5558 50.9052Z" fill="#CFAC7D"/>
<path d="M62.5558 50.9052H40.5558C39.7958 50.9052 39.1808 50.2909 39.1808 49.5302C39.1808 48.7702 39.7958 48.1552 40.5558 48.1552H62.5558C63.3165 48.1552 63.9308 48.7702 63.9308 49.5302C63.9308 50.2909 63.3165 50.9052 62.5558 50.9052Z" fill="#CFAC7D"/>
<path d="M68.0612 60.5262H35.0504C34.2904 60.5262 33.6754 59.9112 33.6754 59.1512C33.6754 58.3905 34.2904 57.7762 35.0504 57.7762H68.0612C68.8218 57.7762 69.4362 58.3905 69.4362 59.1512C69.4362 59.9112 68.8218 60.5262 68.0612 60.5262Z" fill="#CFAC7D"/>
<path d="M59.8112 64.6498H43.3031C42.5431 64.6498 41.9281 64.0349 41.9281 63.2748C41.9281 62.5142 42.5431 61.8998 43.3031 61.8998H59.8112C60.5718 61.8998 61.1862 62.5142 61.1862 63.2748C61.1862 64.0349 60.5718 64.6498 59.8112 64.6498Z" fill="#CFAC7D"/>
<path d="M39.1808 39.9025C36.1475 39.9025 33.6808 37.4359 33.6808 34.4025C33.6808 33.6432 34.2958 33.0275 35.0558 33.0275C35.8165 33.0275 36.4308 33.6432 36.4308 34.4025C36.4308 35.9192 37.6641 37.1525 39.1808 37.1525C40.6974 37.1525 41.9308 35.9192 41.9308 34.4025C41.9308 33.6432 42.5458 33.0275 43.3058 33.0275C44.0665 33.0275 44.6808 33.6432 44.6808 34.4025C44.6808 37.4345 42.2141 39.9025 39.1808 39.9025Z" fill="#CFAC7D"/>
<path d="M43.3058 35.7775H35.0558C34.2958 35.7775 33.6808 35.1612 33.6808 34.4025C33.6808 33.6432 34.2958 33.0275 35.0558 33.0275H43.3058C44.0665 33.0275 44.6808 33.6432 44.6808 34.4025C44.6808 35.1612 44.0665 35.7775 43.3058 35.7775Z" fill="#CFAC7D"/>
<path d="M35.0558 35.7775C34.9128 35.7775 34.7658 35.754 34.6214 35.7057C33.9023 35.4653 33.5116 34.6872 33.7526 33.9668L37.8776 21.5891C38.118 20.87 38.8894 20.4766 39.6165 20.7196C40.3362 20.9607 40.7263 21.7388 40.486 22.4592L36.361 34.8369C36.1683 35.4129 35.6318 35.7775 35.0558 35.7775Z" fill="#CFAC7D"/>
<path d="M43.3058 35.7775C42.7297 35.7775 42.1933 35.413 42.0026 34.8369L37.8776 22.4592C37.6366 21.7388 38.026 20.9607 38.7464 20.7197C39.4708 20.478 40.2463 20.8701 40.486 21.5891L44.611 33.9668C44.8513 34.6872 44.4626 35.4653 43.7415 35.7057C43.5958 35.754 43.4501 35.7775 43.3058 35.7775Z" fill="#CFAC7D"/>
<path d="M63.9281 39.9025C60.8948 39.9025 58.4281 37.4359 58.4281 34.4025C58.4281 33.6432 59.0431 33.0275 59.8031 33.0275C60.5638 33.0275 61.1781 33.6432 61.1781 34.4025C61.1781 35.9192 62.4114 37.1525 63.9281 37.1525C65.4448 37.1525 66.6781 35.9192 66.6781 34.4025C66.6781 33.6432 67.2931 33.0275 68.0531 33.0275C68.8138 33.0275 69.4281 33.6432 69.4281 34.4025C69.4281 37.4345 66.9614 39.9025 63.9281 39.9025Z" fill="#CFAC7D"/>
<path d="M68.0531 35.7775H59.8031C59.0431 35.7775 58.4281 35.1612 58.4281 34.4025C58.4281 33.6432 59.0431 33.0275 59.8031 33.0275H68.0531C68.8138 33.0275 69.4281 33.6432 69.4281 34.4025C69.4281 35.1612 68.8138 35.7775 68.0531 35.7775Z" fill="#CFAC7D"/>
<path d="M59.8031 35.7775C59.6601 35.7775 59.5131 35.754 59.3687 35.7057C58.6497 35.4653 58.2589 34.6872 58.4999 33.9668L62.6249 21.5891C62.8653 20.87 63.6354 20.4766 64.3638 20.7196C65.0829 20.9607 65.4736 21.7388 65.2333 22.4592L61.1083 34.8369C60.9156 35.4129 60.3792 35.7775 59.8031 35.7775Z" fill="#CFAC7D"/>
<path d="M68.0531 35.7775C67.4771 35.7775 66.9406 35.413 66.75 34.8369L62.625 22.4592C62.3839 21.7388 62.7733 20.9607 63.4937 20.7197C64.2182 20.478 64.9923 20.8701 65.2333 21.5891L69.3583 33.9668C69.5986 34.6872 69.2099 35.4653 68.4888 35.7057C68.3432 35.754 68.1975 35.7775 68.0531 35.7775Z" fill="#CFAC7D"/>
</svg>
