<svg width="100" height="100" viewBox="0 0 100 100" fill="none" xmlns="http://www.w3.org/2000/svg">
<path d="M49.8619 100C22.5957 100.02 0.014937 77.5255 7.51713e-06 50.3556C-0.0149219 22.3949 22.2101 0.00746083 49.9863 0C77.5709 0 100.037 22.4447 100 49.9876C99.9651 77.625 77.5585 99.9801 49.8619 100ZM98.2681 49.8955C98.1512 22.6511 75.757 1.5046 49.5285 1.6961C23.2999 1.88759 1.68704 23.5812 1.72685 50.0721C1.76666 76.7297 23.4791 98.3188 50.1978 98.2716C76.6627 98.2243 98.3005 76.4462 98.2681 49.8955Z" fill="#261600"/>
<path d="M49.944 97.2818C23.1207 97.1947 2.36384 75.0758 2.68233 49.2838C2.99834 23.9045 24.3027 2.77792 49.5956 2.66352C75.4484 2.55409 97.4619 23.4917 97.2927 50.4899C97.131 76.2124 75.7047 97.3937 49.944 97.2818ZM49.9938 3.39716C24.6137 3.17085 3.70003 24.0015 3.4313 49.7588C3.16505 75.2648 23.9792 96.3417 49.6678 96.5755C75.0006 96.8092 96.3273 76.0358 96.5686 50.8928C96.8224 24.576 76.287 3.63342 49.9938 3.39716Z" fill="#261600"/>
<path d="M15.0439 49.7911C15.3151 30.3457 31.0483 14.8023 50.2326 15.0311C54.8464 15.0725 59.4065 16.0256 63.6503 17.8355C67.8942 19.6453 71.7379 22.2762 74.9604 25.5768C78.1829 28.8773 80.7204 32.7823 82.4269 37.0669C84.1334 41.3515 84.9752 45.9311 84.9038 50.5421C84.6375 69.6916 68.7302 85.1703 49.6105 84.8993C30.3491 84.6257 14.7951 68.8212 15.0439 49.7911ZM49.9241 84.2775C68.8596 84.2974 84.3365 68.8585 84.2867 49.9826C84.2788 40.8821 80.6548 32.1574 74.2118 25.7271C67.7688 19.2967 59.0343 15.6873 49.9291 15.6926C31.1528 15.6603 15.7232 31.0569 15.6933 49.8533C15.666 68.8361 30.9985 84.2552 49.9241 84.2775Z" fill="#261600"/>
<path d="M49.8171 83.4021C31.4738 83.3822 16.5667 68.3512 16.5692 49.8732C16.5692 31.4698 31.6529 16.5083 50.1605 16.5481C68.4291 16.5805 83.4382 31.6687 83.4034 49.9677C83.4067 54.3706 82.5393 58.7308 80.8509 62.7975C79.1626 66.8642 76.6866 70.5573 73.5654 73.6644C70.4442 76.7715 66.7393 79.2313 62.6637 80.9025C58.5881 82.5736 54.2223 83.4231 49.8171 83.4021ZM49.8718 82.8127C68.0036 82.8301 82.7639 68.1398 82.8037 50.0647C82.8435 31.8553 68.1007 17.1674 49.7872 17.1723C31.9416 17.1723 17.2112 31.9324 17.1738 49.8359C17.134 67.9781 31.8246 82.7928 49.8793 82.8127H49.8718Z" fill="#261600"/>
<path d="M57.7521 54.188C57.1176 55.2052 57.5033 55.7448 58.185 56.3243C62.4151 59.9378 66.5928 63.5862 70.7905 67.2221C71.127 67.4634 71.4321 67.7458 71.6987 68.0627C71.838 68.2691 71.7509 68.6272 71.7634 68.9182C71.5145 68.9182 71.1811 69.0301 70.9945 68.9182C70.5877 68.6332 70.2041 68.3163 69.8474 67.9706L57.9039 57.6374C57.6302 57.4011 57.3365 57.1848 57.028 56.9361C56.2965 57.9557 56.2815 58.7938 56.9957 59.8483C59.7327 63.9493 62.3628 68.1223 65.0302 72.2681C65.2371 72.5273 65.4048 72.8156 65.5278 73.1236C65.5918 73.4913 65.6168 73.8648 65.6025 74.2377C65.2467 74.0637 64.744 73.9891 64.5574 73.703C62.639 70.7983 60.7753 67.8612 58.8942 64.9316C57.8665 63.335 56.8339 61.7384 55.6321 59.8707C54.7687 62.569 52.4173 64.2079 52.0117 66.9585C53.0244 66.1353 54.0023 65.2947 55.2713 66.2845C56.2517 67.0455 56.2044 68.09 55.9232 69.137L55.5848 69.2241C55.547 68.8432 55.4635 68.4683 55.336 68.1074C55.0872 67.5951 54.7961 66.8341 54.3905 66.7346C53.9849 66.6352 53.1936 67.0753 52.9199 67.5006C52.4471 68.2467 52.2381 69.1594 51.9246 70.0124C53.9451 70.6167 54.3432 71.2559 53.5146 72.4173C53.4474 72.38 53.3529 72.3601 53.3155 72.3029C53.0443 71.8702 52.7856 71.4275 52.5218 70.9898C52.3576 71.4872 52.059 71.9846 52.049 72.482C51.9993 74.9092 52.0266 77.339 52.0266 80.0746C50.7676 78.5501 49.5558 77.4185 49.8395 75.4638C49.9643 74.3066 49.9643 73.1393 49.8395 71.9821C49.8096 71.5842 49.4289 70.8829 49.2199 70.8853C48.4162 70.9003 48.5531 71.5096 48.7223 72.0666C48.7471 72.1462 48.6202 72.2731 48.563 72.38C47.4607 71.7035 47.5976 70.8878 48.9537 69.9129C48.1724 69.2987 47.3637 69.2614 46.8138 69.8185C46.0524 70.5894 46.2863 71.435 47.6697 72.9221L47.4732 73.233C47.0278 72.947 46.4505 72.7555 46.1619 72.3576C45.8361 71.9454 45.6589 71.4355 45.6589 70.9102C45.6589 70.3849 45.8361 69.875 46.1619 69.4628C46.8635 68.4805 47.9235 68.4481 49.7524 69.2713C50.1356 66.6302 48.772 64.5635 46.3609 64.1283C45.1989 63.9194 43.9697 64.4989 43.5517 65.4663C43.1337 66.4337 43.3551 67.2072 44.2409 67.7045C45.0869 68.187 45.7488 67.901 46.1569 67.0206C46.2265 66.8714 46.2987 66.7197 46.3709 66.5705L46.8387 66.8043C46.7093 67.1773 46.6894 67.7394 46.4281 67.8911C45.8284 68.2367 45.0969 68.6073 44.4375 68.5601C43.3701 68.483 42.7928 67.6225 42.6584 66.6003C42.5595 66.0402 42.651 65.463 42.9184 64.9609C43.1858 64.4588 43.6137 64.0606 44.1339 63.8299C44.8804 63.4743 45.7861 63.4419 46.6744 63.2504L44.2807 59.9701C43.0565 61.8577 41.8572 63.7229 40.6728 65.5882C38.9941 68.2011 37.3162 70.8165 35.6391 73.4345C35.6167 73.4693 35.6043 73.5215 35.5744 73.5389C35.1713 73.7876 34.7682 74.0114 34.3626 74.2477C34.4248 73.8125 34.3626 73.2977 34.5667 72.952C35.9078 70.7635 37.3037 68.6098 38.6996 66.4486C40.0955 64.2875 41.4118 62.0816 42.8998 59.9826C43.6662 58.9057 43.7433 57.993 42.8998 56.9162C39.952 59.4661 37.0076 62.0119 34.0665 64.5536C32.5014 65.9115 30.9612 67.2892 29.3588 68.6098C29.0776 68.8411 28.5476 68.769 28.1321 68.8386C28.2888 68.468 28.346 67.9831 28.6173 67.7468C33.0414 63.8655 37.487 60.0083 41.9542 56.1751C42.6584 55.5732 42.7654 55.0286 42.32 54.1333L35.0892 57.4359C31.813 58.9281 28.5343 60.4203 25.2532 61.9124C24.9645 62.0714 24.6519 62.1823 24.3275 62.2407C24.214 62.2391 24.1026 62.2102 24.0026 62.1565C23.9025 62.1029 23.8169 62.026 23.7528 61.9323C23.7293 61.8214 23.7336 61.7064 23.7653 61.5975C23.797 61.4886 23.855 61.3892 23.9344 61.3081C24.2386 61.0925 24.5688 60.9162 24.9173 60.7834C30.4113 58.2716 35.912 55.7622 41.4193 53.2554C42.0239 52.9793 42.5838 52.7356 42.0986 51.7384C39.9139 52.0418 37.672 52.3477 35.4326 52.6685C31.2075 53.2753 26.9825 53.8871 22.7575 54.5038C22.7185 54.5182 22.6768 54.5234 22.6355 54.5188C22.2324 54.3646 21.8293 54.2054 21.4287 54.0463C21.7995 53.7976 22.1478 53.4071 22.5484 53.3424C24.9595 52.9495 27.3856 52.6362 29.8067 52.288C33.8641 51.706 37.9283 51.12 41.999 50.5297C42.4195 49.5772 41.9294 49.4081 41.1356 49.2862C34.9432 48.4142 28.7525 47.5131 22.5634 46.5829C22.1578 46.5208 21.8169 46.0681 21.4412 45.7995C21.8667 45.6901 22.3121 45.4365 22.7152 45.4912C28.9532 46.3467 35.1887 47.232 41.4243 48.1273C41.6208 48.1547 41.8224 48.1646 42.004 48.182C42.5016 47.2967 42.004 46.9659 41.3247 46.6526C35.9302 44.2079 30.5382 41.7583 25.1661 39.2614C24.6087 39.0127 23.7328 38.1447 23.7801 38.0701C24.4246 37.0754 25.079 37.9856 25.6513 38.2417C30.7572 40.5223 35.8382 42.8575 40.9291 45.1728C41.2949 45.3395 41.6756 45.4762 42.0737 45.6404C42.4892 44.566 42.1185 43.8995 41.3421 43.228C37.3062 39.7836 33.3076 36.2969 29.2941 32.8276C29.0751 32.6362 28.7964 32.482 28.6571 32.2432C28.4742 31.8525 28.3236 31.4474 28.2067 31.0321C28.5974 31.1365 29.0875 31.1266 29.3637 31.3628C33.2753 34.7003 37.1544 38.0776 41.0435 41.43C41.3745 41.7135 41.7154 41.9846 42.1732 42.3626C42.4046 40.4974 42.3673 39.0077 41.3148 37.4907C38.9534 34.091 36.7911 30.5496 34.5965 27.0455C34.3775 26.6973 34.4248 26.1801 34.3477 25.7424C34.7558 25.9687 35.3181 26.093 35.547 26.4362C37.5625 29.4753 39.5158 32.5541 41.4914 35.6205C41.6788 35.9359 41.9245 36.2127 42.2155 36.4362C42.1558 31.6439 43.1884 26.573 38.3065 22.9197C42.4146 22.8625 45.8981 24.1582 49.3816 26.2945C49.3816 24.8172 49.3319 23.5588 49.409 22.2905C49.4339 21.8926 49.7947 21.5146 50.0037 21.1291C50.1928 21.522 50.5287 21.91 50.5461 22.3129C50.6083 23.805 50.2003 25.424 50.6681 26.752C51.1209 28.0328 52.4447 29.0027 53.3703 30.1219C53.7883 30.6193 54.1665 31.1639 54.6916 31.8627C55.5052 29.0997 56.2417 26.4959 57.0529 23.9045C57.247 23.2877 57.0529 22.3004 58.1626 22.278C58.1626 22.9172 58.3244 23.5936 58.1626 24.1855C57.4162 26.9013 56.5527 29.5822 55.8287 32.3004C55.6994 32.9637 55.744 33.649 55.9581 34.29C56.2666 35.3594 56.7269 36.384 57.1698 37.5504C57.3714 37.3017 57.5704 37.0778 57.7272 36.8316C59.9052 33.4544 62.08 30.0746 64.2514 26.6924C64.3372 26.5061 64.457 26.3374 64.6047 26.195C64.9203 26.0036 65.2478 25.8325 65.5851 25.6827C65.5851 26.0458 65.7194 26.4785 65.5701 26.762C65.1521 27.5678 64.6196 28.3139 64.127 29.0798C62.3852 31.7981 60.6982 34.566 58.8494 37.2121C57.7819 38.7391 57.1748 40.2238 58.0059 42.1512C58.2547 41.9771 58.5284 41.7931 58.7822 41.5742C62.6705 38.2119 66.5563 34.8479 70.4396 31.4822C70.5964 31.3454 70.7407 31.1465 70.9223 31.1017C71.2176 31.0542 71.5171 31.0392 71.8156 31.0569C71.746 31.3753 71.7883 31.803 71.5942 31.992C70.1609 33.3101 68.6854 34.5859 67.2124 35.8592C64.4753 38.2193 61.783 40.6093 59.0012 42.9047C58.1104 43.6384 57.7795 44.3969 58.1676 45.5757C60.738 44.4118 63.2984 43.2579 65.8513 42.094C68.8671 40.7187 71.8704 39.3186 74.9011 37.9781C75.2718 37.814 75.7744 37.9508 76.2148 37.9483C75.9287 38.3163 75.7172 38.856 75.3464 39.0301C69.8972 41.5601 64.4338 44.0562 58.9564 46.5183C58.2398 46.8416 57.8367 47.1897 58.2895 48.1721C60.5638 47.8538 62.8853 47.5379 65.2044 47.2047C69.305 46.6153 73.4156 46.001 77.5087 45.4414C77.8297 45.3967 78.198 45.6901 78.5438 45.8244C78.2477 46.0731 77.9765 46.5083 77.6481 46.5705C71.4656 47.5056 65.2757 48.4092 59.0783 49.2813C58.3318 49.3882 57.8914 49.5847 58.2149 50.5645C61.5566 51.0619 64.9481 51.5593 68.342 52.0567C71.3777 52.4944 74.4183 52.8973 77.4465 53.3723C77.8471 53.4345 78.193 53.8349 78.5687 54.0786C78.1208 54.2278 77.6481 54.5586 77.2276 54.4989C71.2757 53.6832 65.3288 52.8152 59.3819 51.9622C58.9788 51.9025 58.5757 51.8478 58.1875 51.7931C57.6202 52.7282 58.1203 53.0739 58.8494 53.4046C64.2439 55.8518 69.6351 58.313 75.023 60.7884C75.2225 60.8429 75.4105 60.933 75.5779 61.0545C75.8213 61.3375 76.0465 61.6357 76.2522 61.9473C75.864 62.002 75.4012 62.2208 75.0951 62.0865C72.062 60.751 69.0537 59.3509 66.0379 57.9831L57.7521 54.188ZM55.4803 47.7219L55.1345 47.3091C55.5674 46.9236 56.0178 46.563 56.4308 46.1477C56.7394 45.8418 57.2644 45.4713 57.242 45.1529C57.0579 42.574 56.7692 40.005 56.5105 37.431L55.7914 37.0828L53.9053 39.5698L53.5743 39.3211C53.6722 39.0287 53.8077 38.7503 53.9774 38.4929C54.4751 37.9309 55.0523 37.4509 55.5052 36.864C55.6162 36.7155 55.6945 36.5452 55.7348 36.3643C55.7751 36.1834 55.7766 35.996 55.7391 35.8145C54.971 33.5989 53.7364 31.5738 52.1187 29.8756L50.8746 31.6364L50.4491 31.3877C50.7974 30.6715 51.1433 29.9527 51.529 29.1495C49.4961 27.2221 47.2368 25.6677 44.2285 24.673C47.1099 27.1276 48.5033 30.0821 49.3393 33.3574C50.7775 39.0027 50.6432 44.7774 50.7402 50.5322C50.7751 52.6138 50.7402 54.6929 50.7402 56.7744C52.4349 54.5713 54.4701 52.6522 56.7692 51.0893C57.0318 50.9169 57.2173 50.6494 57.2868 50.3432C57.3415 49.1246 57.3117 47.901 57.3117 46.4835L55.4803 47.7219ZM50.0535 65.4912C50.0535 63.2231 50.0535 60.9923 50.0535 58.7615C50.0535 56.5307 50.0186 54.285 50.0136 52.0467C50.0136 48.0975 46.9183 43.7951 42.8824 42.4074C42.8824 45.0062 42.9396 47.5205 42.86 50.0298C42.8102 51.6041 43.1561 52.7879 44.7087 53.5439C45.4975 53.9269 46.1146 54.6854 46.7789 55.3046C46.9251 55.501 47.0355 55.7216 47.1049 55.9562L46.8859 56.1552L43.1287 53.2479C43.5716 58.6993 46.5326 62.3029 50.0535 65.4912ZM43.176 39.152C42.8027 40.7585 42.9595 41.8876 44.5893 42.3303C44.944 42.4518 45.2636 42.6585 45.5199 42.9321C47.0302 44.4093 48.5058 45.9164 49.7798 47.1748C49.7798 45.5658 49.8768 43.5588 49.7599 41.5618C49.526 37.5031 49.0557 33.4718 47.3089 29.7239C45.9827 26.8764 44.0046 24.7327 40.7201 23.9468C41.4516 25.3618 42.1011 26.6526 43.7259 27.0977C44.2235 27.237 44.6366 27.7866 45.0297 28.2019C45.1417 28.3213 45.0471 28.6322 45.0471 28.948L42.7803 27.3862C42.8799 30.7784 43.0043 34.0338 43.0491 37.2867C43.0491 38.0055 43.2581 38.381 43.8951 38.7093C44.5321 39.0376 45.1043 39.5747 45.704 40.0174L45.4154 40.4178L43.176 39.152ZM51.0861 65.5882C54.4676 61.3977 56.5129 57.0206 57.1599 51.7732C54.9727 53.2032 53.2185 54.7575 51.9346 56.7471C51.4369 57.528 50.8845 58.4457 50.8447 59.3211C50.7576 61.2982 50.9766 63.2778 51.0861 65.5882ZM51.1781 67.3564L50.8597 67.2842C50.7676 67.5603 50.5934 67.8364 50.5934 68.1124C50.571 70.8804 50.5636 73.6483 50.5934 76.4138C50.5934 76.8217 50.8422 77.227 50.9741 77.6324L51.1732 77.5379L51.1781 67.3564Z" fill="#261600"/>
<path d="M8.60033 65.8151C8.67127 65.9503 8.74292 66.0558 8.8153 66.1318C8.89049 66.2137 8.99343 66.2532 9.1241 66.2505C9.25759 66.2537 9.44443 66.1989 9.68462 66.086L13.1343 64.4649C13.2964 64.3887 13.454 64.3183 13.6069 64.2538C13.7627 64.1952 13.881 64.1506 13.9619 64.1199C13.9107 64.0267 13.8482 63.9095 13.7745 63.7683C13.7067 63.6243 13.6543 63.5206 13.6173 63.4574L14.3108 63.1315C14.5173 63.5548 14.7207 63.9795 14.9212 64.4056C15.1216 64.8317 15.3251 65.2564 15.5315 65.6797C15.786 66.205 15.9329 66.6966 15.9723 67.1544C16.0145 67.6183 15.9349 68.0257 15.7335 68.3769C15.5349 68.734 15.1926 69.0195 14.7066 69.2332C14.4636 69.3401 14.1996 69.3945 13.9146 69.3966C13.6356 69.3958 13.3506 69.3355 13.0596 69.2157C12.7747 69.0932 12.4973 68.901 12.2276 68.6394C11.9579 68.3777 11.7168 68.0367 11.5043 67.6162C11.4362 67.487 11.3781 67.3714 11.3301 67.2694C11.285 67.1733 11.2414 67.0729 11.1994 66.9681L10.4068 67.3405C10.2386 67.4195 10.0781 67.4913 9.92516 67.5559C9.77222 67.6204 9.6539 67.665 9.57019 67.6897C9.60725 67.7529 9.64978 67.8355 9.69777 67.9375C9.75177 68.0367 9.80136 68.1344 9.84653 68.2304C9.90053 68.3296 9.93741 68.4002 9.95718 68.4422L9.26363 68.7681L8.00586 66.0944L8.60033 65.8151ZM11.8749 66.6506C11.9 66.7194 11.925 66.7883 11.9501 66.8571C11.9751 66.926 12.0046 66.9964 12.0385 67.0684C12.1937 67.3985 12.3734 67.6402 12.5775 67.7934C12.7904 67.9499 13.0245 68.0267 13.2799 68.024C13.5412 68.0184 13.825 67.9437 14.1312 67.7998C14.4315 67.6587 14.6519 67.5038 14.7925 67.3351C14.936 67.1724 15.0201 67.0083 15.0448 66.8428C15.0756 66.6744 15.0705 66.5156 15.0296 66.3663C14.9947 66.2141 14.9504 66.081 14.8968 65.967C14.8375 65.841 14.7717 65.74 14.6993 65.6641C14.6269 65.5882 14.5284 65.5502 14.4037 65.5502C14.2791 65.5501 14.1117 65.5995 13.9015 65.6982L11.8749 66.6506Z" fill="#261600"/>
<path d="M12.9201 75.3499C12.558 74.8342 12.3362 74.3335 12.2547 73.8479C12.177 73.3677 12.2039 72.9153 12.3355 72.4909C12.4725 72.0626 12.6814 71.6731 12.962 71.3223C13.2426 70.9716 13.5595 70.6724 13.9125 70.4248C14.2547 70.1848 14.6396 69.9999 15.0673 69.8701C15.5042 69.742 15.9512 69.6917 16.4084 69.7195C16.8694 69.7526 17.3153 69.8855 17.7461 70.1181C18.1769 70.3507 18.5619 70.7085 18.9011 71.1917C19.2479 71.6857 19.4575 72.1747 19.5298 72.6587C19.6021 73.1427 19.5689 73.6035 19.4302 74.041C19.297 74.4747 19.0947 74.8677 18.8233 75.2201C18.5557 75.5779 18.2509 75.8768 17.9087 76.1168C17.5719 76.353 17.1878 76.5332 16.7563 76.6576C16.3287 76.7874 15.8816 76.8376 15.4152 76.8083C14.958 76.7805 14.5113 76.6523 14.0751 76.4235C13.6443 76.1909 13.2593 75.833 12.9201 75.3499ZM13.5778 75.0223C13.7759 75.3046 14.0096 75.4932 14.2788 75.5879C14.5534 75.6789 14.8421 75.7033 15.1448 75.6611C15.4476 75.6189 15.7464 75.5308 16.0414 75.3969C16.3419 75.259 16.617 75.1025 16.8669 74.9273C17.2417 74.6645 17.561 74.3919 17.8248 74.1096C18.0887 73.8274 18.2843 73.5403 18.4117 73.2484C18.5446 72.9527 18.5964 72.6571 18.5673 72.3615C18.5474 72.0676 18.4356 71.7814 18.232 71.5029C18.0322 71.2299 17.7923 71.0498 17.5122 70.9626C17.2376 70.8717 16.9462 70.8492 16.6381 70.8952C16.3353 70.9374 16.0337 71.0273 15.7333 71.1651C15.4329 71.3029 15.1577 71.4595 14.9079 71.6347C14.6526 71.8137 14.4001 72.0313 14.1503 72.2875C13.9043 72.5491 13.6976 72.8319 13.5299 73.1358C13.3623 73.4397 13.2741 73.7527 13.2652 74.0749C13.2563 74.3971 13.3605 74.7129 13.5778 75.0223Z" fill="#261600"/>
<path d="M18.7311 82.0254C18.9386 81.4679 19.1438 80.9128 19.3468 80.3602C19.5547 79.812 19.7601 79.2616 19.9631 78.709C20.0095 78.5804 20.0775 78.404 20.167 78.1798C20.2659 77.9552 20.3824 77.7017 20.5165 77.4194C20.6555 77.1416 20.8061 76.8609 20.9684 76.5774C20.7262 76.8594 20.4952 77.1246 20.2752 77.3729C20.0596 77.6162 19.8482 77.8454 19.6409 78.0603C19.542 78.1676 19.4408 78.2773 19.3373 78.3894C19.2339 78.5015 19.128 78.6114 19.0196 78.7191C18.9207 78.8263 18.8195 78.936 18.716 79.0482C18.6171 79.1554 18.5159 79.2651 18.4124 79.3773C18.291 79.5089 18.1691 79.6312 18.0469 79.744C17.9296 79.8614 17.8368 79.9473 17.7686 80.0017C17.8605 80.0684 17.965 80.1557 18.0821 80.2636C18.2085 80.3711 18.2961 80.4473 18.3449 80.4923L17.8254 81.0554L16.1571 79.5179L16.6024 79.0352C16.7191 79.1337 16.8253 79.2045 16.9209 79.2476C17.0215 79.2951 17.1317 79.293 17.2517 79.2412C17.3766 79.1939 17.529 79.0728 17.7089 78.8778L20.3369 76.1172C20.4633 75.9901 20.5851 75.8678 20.7024 75.7505C20.8197 75.6331 20.9101 75.5449 20.9734 75.486C20.8909 75.419 20.7888 75.3339 20.6673 75.2309C20.5502 75.123 20.4626 75.0468 20.4044 75.0022L20.9239 74.4391L22.541 75.9294L21.0348 79.7779C20.9752 79.9305 20.9026 80.1071 20.8168 80.3077C20.7355 80.5034 20.654 80.6944 20.5724 80.8808C20.4952 81.0622 20.4306 81.2057 20.3785 81.311L20.3858 81.3178C20.6067 81.2056 20.8181 81.0938 21.0202 80.9823C21.2223 80.8709 21.4223 80.7666 21.6203 80.6694C22.2784 80.3376 22.9317 80.0061 23.5804 79.6748C24.2339 79.3479 24.8874 79.0211 25.541 78.6943L27.2312 80.252L26.7859 80.7347C26.6741 80.6406 26.5655 80.5676 26.4601 80.5155C26.3547 80.4635 26.2395 80.4611 26.1146 80.5084C25.9992 80.5553 25.8516 80.681 25.6721 80.8854L23.1977 83.7875C23.0861 83.9281 22.9691 84.0549 22.8469 84.1678C22.7247 84.2807 22.6295 84.3643 22.5612 84.4187C22.6532 84.4854 22.7577 84.5727 22.8747 84.6806C23.0012 84.7881 23.0888 84.8643 23.1376 84.9093L22.6181 85.4724L20.5839 83.5977L21.0292 83.115C21.1459 83.2136 21.2545 83.2866 21.3551 83.3342C21.4605 83.3862 21.5732 83.3863 21.6932 83.3345C21.818 83.2872 21.9656 83.1616 22.1357 82.9576L23.5076 81.3532C23.5615 81.2947 23.6489 81.1903 23.7696 81.0399C23.8947 80.8846 24.0312 80.7172 24.1788 80.5376C24.3359 80.3575 24.4817 80.1897 24.6163 80.0341C24.5701 80.0547 24.524 80.0754 24.4779 80.096C24.4363 80.1118 24.3948 80.1322 24.3536 80.1574L19.4116 82.6526L18.7311 82.0254Z" fill="#261600"/>
<path d="M23.6896 86.1419L24.0465 85.5555C24.2053 85.652 24.3604 85.6842 24.512 85.6522C24.6635 85.6201 24.8153 85.5494 24.9673 85.44C25.125 85.334 25.2867 85.215 25.4525 85.0829L29.878 81.5442L30.4732 81.906L29.4654 87.6391C29.4477 87.7448 29.4137 87.9027 29.3635 88.1128C29.3167 88.3172 29.2594 88.488 29.1914 88.6253C29.2947 88.6725 29.3888 88.722 29.4739 88.7737C29.568 88.8232 29.6434 88.8651 29.7001 88.8996L29.3018 89.554L27.0144 88.1633L27.3558 87.6024C27.5146 87.6989 27.6412 87.7332 27.7358 87.7054C27.8396 87.6753 27.9231 87.6019 27.9864 87.4851C28.0497 87.3683 28.0961 87.2219 28.1256 87.0458L28.2401 86.475L26.3741 85.3871L25.995 85.7038C25.9218 85.7603 25.812 85.8449 25.6657 85.9577C25.5285 86.0684 25.4079 86.1581 25.3039 86.2268C25.4015 86.2706 25.5127 86.3304 25.6374 86.4063C25.7712 86.4799 25.8665 86.5339 25.9232 86.5684L25.5094 87.2483L23.6896 86.1419ZM26.9747 84.8789L28.3947 85.7423L28.6501 84.4421C28.7006 84.1933 28.7595 83.9497 28.827 83.7113C28.8979 83.4672 28.9674 83.2572 29.0356 83.0813L29.0271 83.0761C28.9458 83.1587 28.8239 83.2825 28.6613 83.4476C28.4987 83.6126 28.2882 83.799 28.0297 84.0067L26.9747 84.8789Z" fill="#261600"/>
<path d="M30.4371 90.1439L30.6736 89.5313C30.8184 89.5801 30.9432 89.6069 31.048 89.6118C31.159 89.619 31.2607 89.5765 31.3532 89.4843C31.452 89.3944 31.5491 89.2257 31.6447 88.9782L33.0171 85.4237C33.0816 85.2567 33.1468 85.097 33.2127 84.9447C33.2848 84.7948 33.3395 84.6808 33.3768 84.6028C33.2753 84.5708 33.1491 84.5292 32.9982 84.4781C32.8496 84.4208 32.7401 84.3821 32.6696 84.362L32.9455 83.6474L35.6105 84.6753L35.374 85.2878C35.2354 85.2415 35.1106 85.2147 34.9996 85.2074C34.8886 85.2002 34.7838 85.2415 34.6851 85.3313C34.5949 85.4174 34.5009 85.5873 34.4029 85.841L33.8439 87.2887L36.3974 88.2737L36.917 86.928C36.9815 86.7609 37.0467 86.6013 37.1127 86.449C37.1786 86.2967 37.2332 86.1827 37.2767 86.1071C37.1752 86.075 37.049 86.0335 36.8981 85.9824C36.7495 85.925 36.64 85.8864 36.5695 85.8663L36.8454 85.1517L39.5104 86.1796L39.2739 86.7921C39.1353 86.7458 39.0105 86.719 38.8995 86.7117C38.7885 86.7044 38.6837 86.7457 38.585 86.8356C38.4948 86.9217 38.4008 87.0916 38.3028 87.3452L36.9304 90.8997C36.8659 91.0668 36.8007 91.2264 36.7347 91.3787C36.6688 91.531 36.6142 91.645 36.5707 91.7207C36.6745 91.7465 36.8007 91.7881 36.9493 91.8454C37.1065 91.8989 37.216 91.9376 37.2779 91.9614L37.002 92.676L34.337 91.6481L34.5735 91.0356C34.7183 91.0843 34.8431 91.1111 34.9479 91.116C35.0589 91.1233 35.1606 91.0808 35.2532 90.9885C35.3519 90.8986 35.449 90.73 35.5446 90.4825L36.1251 88.979L33.5608 88.0219L33.0305 89.3955C32.966 89.5625 32.9008 89.7222 32.8348 89.8745C32.7689 90.0268 32.7143 90.1407 32.6708 90.2164C32.7746 90.2422 32.9008 90.2838 33.0494 90.3411C33.2066 90.3946 33.3161 90.4333 33.378 90.4572L33.1021 91.1718L30.4371 90.1439Z" fill="#261600"/>
<path d="M41.3167 93.7403L41.395 93.0884C41.5473 93.1 41.7014 93.0684 41.8574 92.9936C42.0208 92.913 42.1845 92.8024 42.3484 92.6617C42.5131 92.5145 42.6695 92.3529 42.8176 92.177L43.2618 91.6491C43.4337 91.4426 43.5918 91.2946 43.7362 91.205C43.8806 91.1155 44.0449 91.055 44.2291 91.0237C43.6765 90.7838 43.2767 90.4954 43.0298 90.1585C42.7836 89.8151 42.6813 89.4154 42.7226 88.9595C42.7616 88.5233 42.9146 88.1676 43.1815 87.8923C43.4558 87.6113 43.817 87.4142 44.265 87.3009C44.7195 87.1884 45.233 87.1698 45.8054 87.2451L48.6095 87.6014L48.5313 88.2533C48.3856 88.2425 48.258 88.2473 48.1486 88.2675C48.0393 88.2878 47.9478 88.3537 47.8743 88.4651C47.8082 88.5707 47.7589 88.7585 47.7265 89.0285L47.2724 92.8113C47.2511 92.9891 47.2272 93.1599 47.2009 93.3238C47.1745 93.4876 47.1496 93.6115 47.1262 93.6955L47.8709 93.7548L47.7796 94.5153L44.9434 94.1752L45.0217 93.5233C45.174 93.5349 45.3016 93.5302 45.4043 93.5091C45.5137 93.4888 45.6018 93.4226 45.6688 93.3104C45.7423 93.1989 45.7948 93.0116 45.8265 92.7482L45.9774 91.574L45.4833 91.5147C45.3384 91.4974 45.1925 91.5433 45.0458 91.6526C44.9056 91.7627 44.7569 91.9152 44.5999 92.1101L43.8489 93.022C43.754 93.1442 43.6312 93.2764 43.4805 93.4187C43.3305 93.5543 43.1863 93.6706 43.0476 93.7675C42.9156 93.8652 42.8229 93.9142 42.7694 93.9145L41.3167 93.7403ZM45.6181 90.8095C45.6972 90.819 45.7733 90.8248 45.8466 90.8269C45.9264 90.8298 45.9997 90.8319 46.0664 90.8332L46.3118 88.7887C46.3276 88.657 46.343 88.5286 46.358 88.4035C46.3738 88.2718 46.3892 88.1434 46.4043 88.0183C46.2923 88.0049 46.1803 87.9914 46.0683 87.978C45.9563 87.9646 45.8443 87.9511 45.7323 87.9377C45.4753 87.9069 45.24 87.9188 45.0263 87.9733C44.8192 88.0286 44.6482 88.145 44.5132 88.3225C44.3783 88.5001 44.2899 88.7633 44.248 89.1123C44.2101 89.4284 44.2333 89.7084 44.3176 89.9522C44.4027 90.1896 44.5535 90.3813 44.7698 90.5275C44.9862 90.6736 45.2689 90.7677 45.6181 90.8095Z" fill="#261600"/>
<path d="M49.5798 94.5586L49.5429 93.903C49.6949 93.8879 49.8197 93.8609 49.9172 93.8222C50.0213 93.7832 50.0965 93.7026 50.1428 93.5804C50.1957 93.4579 50.2147 93.2642 50.1998 92.9993L49.9858 89.1953C49.9758 89.0165 49.9694 88.8442 49.9667 88.6783C49.9706 88.512 49.9735 88.3856 49.9753 88.2992C49.8697 88.3118 49.7375 88.3258 49.5789 88.3414C49.4199 88.3503 49.3042 88.3602 49.2317 88.3709L49.1886 87.6061L52.0406 87.4458L52.0775 88.1013C51.9321 88.1161 51.8074 88.1431 51.7033 88.1822C51.5991 88.2212 51.5206 88.302 51.4677 88.4246C51.421 88.5401 51.4053 88.7336 51.4206 89.0051L51.5055 90.5148L52.221 90.4745L52.913 89.1304C53.0144 88.9255 53.1225 88.7201 53.2372 88.5144C53.3519 88.3087 53.4502 88.167 53.5323 88.0893C53.4266 88.1019 53.3144 88.1149 53.1955 88.1282C53.0766 88.1415 52.981 88.1535 52.9085 88.1642L52.8654 87.3995L55.3001 87.2626L55.3369 87.9182C55.1916 87.933 55.0341 87.9684 54.8644 88.0244C54.7014 88.0801 54.5344 88.1825 54.3633 88.3316C54.1923 88.4807 54.0224 88.7094 53.8537 89.0178L52.9857 90.6009C53.1231 90.6796 53.2442 90.7658 53.3492 90.8595C53.4604 90.9462 53.5589 91.0437 53.6447 91.1518L54.7493 92.5344C54.8922 92.7123 55.0379 92.8802 55.1864 93.0379C55.341 93.1886 55.4974 93.3093 55.6553 93.4001C55.8133 93.4909 55.9653 93.5355 56.1114 93.5339L56.1483 94.1894L54.618 94.2754C54.5646 94.2718 54.4751 94.217 54.3496 94.1112C54.224 94.0053 54.0905 93.8766 53.949 93.7252C53.8076 93.5737 53.687 93.4377 53.5871 93.3171L52.5229 91.9421C52.4297 91.8212 52.3264 91.6975 52.2129 91.571C52.1061 91.4441 52.0044 91.3502 51.908 91.2892L51.5502 91.3093L51.6346 92.8091C51.6447 92.9878 51.651 93.1602 51.6537 93.3261C51.6564 93.492 51.6535 93.6184 51.6451 93.7052C51.7504 93.686 51.8825 93.6719 52.0415 93.663C52.2068 93.6471 52.3225 93.6372 52.3888 93.6335L52.4318 94.3983L49.5798 94.5586Z" fill="#261600"/>
<path d="M60.7303 93.3319C60.1179 93.4811 59.5706 93.5052 59.0884 93.4042C58.6126 93.3017 58.2009 93.1118 57.8534 92.8347C57.5042 92.5512 57.2173 92.2149 56.9927 91.8259C56.7681 91.437 56.6047 91.0331 56.5026 90.6143C56.4036 90.2083 56.3716 89.7827 56.4064 89.3373C56.4461 88.884 56.5621 88.4496 56.7545 88.0341C56.9533 87.6171 57.2395 87.2504 57.6131 86.9342C57.9868 86.6179 58.4605 86.3899 59.0342 86.2501C59.6208 86.1072 60.1528 86.0903 60.6302 86.1993C61.1075 86.3082 61.5247 86.5069 61.8819 86.7954C62.2375 87.0774 62.53 87.4088 62.7595 87.7898C62.9955 88.1692 63.1629 88.5618 63.2619 88.9678C63.3593 89.3672 63.3874 89.7904 63.3461 90.2374C63.3113 90.6827 63.1952 91.1171 62.998 91.5406C62.8056 91.956 62.5234 92.3251 62.1514 92.6479C61.7778 92.9641 61.3041 93.1921 60.7303 93.3319ZM60.6646 92.6004C60.9999 92.5188 61.2607 92.3699 61.447 92.1539C61.6318 91.9314 61.7597 91.6716 61.8306 91.3744C61.9016 91.0773 61.9284 90.767 61.911 90.4436C61.892 90.1137 61.8464 89.8006 61.7741 89.5042C61.6657 89.0596 61.528 88.6631 61.3611 88.3147C61.1942 87.9663 60.998 87.6796 60.7724 87.4547C60.5452 87.2234 60.2887 87.0674 60.0027 86.9869C59.7216 86.8984 59.4142 86.8982 59.0805 86.9863C58.7533 87.0728 58.4981 87.2305 58.3149 87.4595C58.1301 87.682 58.003 87.945 57.9337 88.2486C57.8627 88.5457 57.8367 88.8592 57.8557 89.1891C57.8746 89.519 57.9202 89.8321 57.9925 90.1285C58.0664 90.4313 58.1772 90.7456 58.3249 91.0714C58.4791 91.3956 58.6672 91.6911 58.8893 91.9578C59.1115 92.2245 59.371 92.4207 59.668 92.5463C59.965 92.6719 60.2972 92.6899 60.6646 92.6004Z" fill="#261600"/>
<path d="M65.7196 91.7295L65.4539 91.1291C65.5908 91.0613 65.698 90.9922 65.7757 90.9216C65.8593 90.8484 65.9013 90.7464 65.9015 90.6158C65.9078 90.4825 65.8573 90.2945 65.75 90.0519L64.2082 86.5674C64.1357 86.4037 64.069 86.2446 64.008 86.0903C63.953 85.9333 63.9111 85.8141 63.8823 85.7325C63.7879 85.7815 63.6692 85.8412 63.5263 85.9117C63.3806 85.9761 63.2758 86.026 63.2117 86.0616L62.9017 85.3611C63.3178 85.1699 63.7352 84.9818 64.1539 84.7967C64.5787 84.609 64.9991 84.4195 65.4151 84.2284C66.1406 83.9004 66.7775 83.7821 67.3257 83.8733C67.8774 83.9558 68.2615 84.2828 68.478 84.8542C68.5437 85.0355 68.5656 85.2325 68.5436 85.4452C68.519 85.6519 68.4391 85.8649 68.3039 86.0841C68.1749 86.3007 67.9852 86.5115 67.7348 86.7164L67.7389 86.7255C68.3886 86.5543 68.9246 86.5603 69.3466 86.7436C69.766 86.9208 70.0589 87.1974 70.2253 87.5734C70.3997 87.9677 70.4503 88.3442 70.3768 88.7029C70.3068 89.053 70.1358 89.3715 69.8637 89.6585C69.589 89.9395 69.2393 90.1738 68.8145 90.3616L65.7196 91.7295ZM67.3635 90.2306C67.4728 90.1824 67.5759 90.1368 67.673 90.0938C67.7701 90.0509 67.8672 90.008 67.9643 89.9651C68.0587 89.9161 68.1514 89.8715 68.2424 89.8313C68.6046 89.6495 68.8223 89.4118 68.8956 89.1184C68.9689 88.8249 68.9317 88.5114 68.7841 88.1778C68.6607 87.8988 68.5064 87.7059 68.3214 87.5992C68.1336 87.4864 67.9339 87.4369 67.7224 87.4506C67.5169 87.4617 67.317 87.5102 67.1228 87.596C66.9711 87.663 66.8406 87.7207 66.7314 87.769C66.6222 87.8173 66.5082 87.8713 66.3895 87.931L67.0457 89.4139C67.1181 89.5777 67.1835 89.7337 67.2419 89.8819C67.3002 90.0302 67.3408 90.1464 67.3635 90.2306ZM66.1037 87.285L66.573 87.0667C66.8252 86.948 67 86.8019 67.0973 86.6283C67.2007 86.4521 67.2425 86.2596 67.2227 86.0508C67.2062 85.8333 67.1497 85.6153 67.0531 85.397C66.9458 85.1544 66.814 84.9878 66.6579 84.8973C66.4991 84.8007 66.3334 84.7543 66.1609 84.758C65.9885 84.7617 65.8247 84.8015 65.6696 84.8773C65.5725 84.9202 65.4912 84.9743 65.4257 85.0395C65.3603 85.1047 65.3274 85.2026 65.3272 85.3332C65.3242 85.4578 65.3751 85.6383 65.4798 85.8749L66.1037 87.285Z" fill="#261600"/>
<path d="M73.8821 84.8021C73.7318 84.5676 73.588 84.4233 73.451 84.3693C73.3103 84.3098 73.1668 84.3072 73.0204 84.3616C72.8796 84.4124 72.7356 84.4889 72.5883 84.5911L72.3758 84.739L73.2566 86.1126C73.3533 86.2633 73.4418 86.4075 73.5221 86.5451C73.6025 86.6826 73.6603 86.7913 73.6957 86.8711L74.8186 86.1518C74.9862 86.0444 75.1249 85.9043 75.2348 85.7316C75.3411 85.5532 75.389 85.3452 75.3785 85.1077C75.3645 84.8647 75.2608 84.5924 75.0675 84.2908L75.6122 83.9419L76.7518 85.8113L72.3274 88.6456L71.9729 88.0928C72.0978 88.0049 72.1932 87.9202 72.2591 87.8386C72.3306 87.7534 72.3565 87.6462 72.3367 87.5171C72.3225 87.3844 72.2439 87.2064 72.1006 86.983L70.0437 83.7753C69.947 83.6246 69.8567 83.4776 69.7728 83.3344C69.6944 83.1877 69.6348 83.0762 69.5938 83.0001C69.508 83.0629 69.3999 83.1401 69.2694 83.2315C69.1353 83.3174 69.0393 83.3828 68.9815 83.4278L68.5679 82.7829L72.7577 80.099L73.8499 81.6916L73.2969 82.0458C73.0999 81.7387 72.8983 81.541 72.6919 81.4527C72.4855 81.3643 72.288 81.3451 72.0993 81.3951C71.9071 81.4395 71.7374 81.5127 71.5901 81.6149L71.2938 81.8166C71.1765 81.8917 71.0867 81.9729 71.0244 82.0601C70.9585 82.1416 70.9372 82.2498 70.9605 82.3845C70.9803 82.5137 71.06 82.6871 71.1996 82.9049L72.0052 84.1611L72.9856 83.5331L72.4849 82.8259L73.1301 82.4126L74.4352 84.4478L73.8821 84.8021Z" fill="#261600"/>
<path d="M78.0963 84.8635L77.6497 84.382C77.757 84.2735 77.836 84.1732 77.8864 84.0813C77.9417 83.9848 77.9482 83.8748 77.9059 83.7512C77.8685 83.623 77.7595 83.4617 77.5791 83.2672L74.9872 80.4734C74.8654 80.3421 74.7505 80.2134 74.6426 80.0873C74.5395 79.9567 74.4611 79.8576 74.4073 79.7899C74.334 79.8669 74.2412 79.9619 74.1289 80.075C74.0122 80.1832 73.9293 80.2646 73.8803 80.319L73.3592 79.7573L75.4538 77.8161L75.9004 78.2976C75.7979 78.4016 75.719 78.5019 75.6637 78.5984C75.6084 78.6948 75.5995 78.8071 75.6369 78.9352C75.6747 79.054 75.786 79.213 75.971 79.4124L77.0267 80.5504L79.0337 78.6903L78.0525 77.6326C77.9307 77.5013 77.8158 77.3726 77.7079 77.2466C77.5999 77.1205 77.5215 77.0213 77.4726 76.9491C77.3993 77.0261 77.3065 77.1211 77.1942 77.2342C77.0774 77.3424 76.9945 77.4238 76.9455 77.4782L76.4245 76.9166L78.5191 74.9754L78.9657 75.4568C78.8632 75.5609 78.7843 75.6611 78.729 75.7576C78.6737 75.854 78.6647 75.9663 78.7022 76.0945C78.7399 76.2132 78.8513 76.3723 79.0363 76.5716L81.6282 79.3654C81.75 79.4967 81.8648 79.6254 81.9728 79.7515C82.0807 79.8776 82.1591 79.9767 82.208 80.049C82.2768 79.9671 82.3697 79.8721 82.4864 79.7638C82.6036 79.6463 82.6864 79.5649 82.7351 79.5198L83.2562 80.0815L81.1616 82.0227L80.7149 81.5413C80.8223 81.4327 80.9012 81.3324 80.9517 81.2405C81.007 81.144 81.0135 81.034 80.9712 80.9104C80.9338 80.7822 80.8248 80.6209 80.6443 80.4264L79.548 79.2447L77.5613 81.1266L78.5629 82.2062C78.6847 82.3375 78.7996 82.4662 78.9075 82.5923C79.0154 82.7184 79.0938 82.8175 79.1427 82.8898C79.2116 82.8079 79.3044 82.7128 79.4211 82.6046C79.5383 82.487 79.6212 82.4057 79.6698 82.3606L80.1909 82.9223L78.0963 84.8635Z" fill="#261600"/>
<path d="M84.4734 78.6633L83.9457 78.2724C84.0313 78.1459 84.0904 78.0328 84.123 77.9331C84.1596 77.8281 84.1457 77.7188 84.0813 77.6051C84.021 77.486 83.8842 77.3475 83.6709 77.1896L80.6086 74.9206C80.4647 74.814 80.3281 74.7086 80.1988 74.6046C80.0734 74.4952 79.9781 74.4121 79.9127 74.3555C79.8549 74.4447 79.7812 74.5552 79.6917 74.687C79.5968 74.8148 79.5303 74.91 79.4922 74.9726L78.8765 74.5164L80.5777 72.2229L81.1054 72.6139C81.0238 72.735 80.9647 72.8481 80.9281 72.9531C80.8915 73.0581 80.9034 73.1701 80.9638 73.2892C81.0228 73.3989 81.1616 73.5348 81.3801 73.6967L82.5955 74.5972L83.0222 74.0218L82.4312 72.6304C82.3385 72.4213 82.2497 72.2069 82.1649 71.9872C82.08 71.7675 82.034 71.6013 82.0267 71.4886C81.9688 71.5778 81.907 71.6723 81.8412 71.7722C81.7754 71.872 81.7234 71.9532 81.6853 72.0158L81.0696 71.5596L82.5218 69.6017L83.0495 69.9927C82.9679 70.1139 82.8944 70.2575 82.829 70.4237C82.7675 70.5845 82.7394 70.7783 82.7446 71.0051C82.7499 71.2319 82.8171 71.5087 82.9463 71.8356L83.6086 73.5151C83.757 73.4599 83.9007 73.422 84.04 73.4013C84.1778 73.3714 84.3158 73.358 84.4538 73.3612L86.2236 73.3971C86.4519 73.4011 86.6742 73.3966 86.8904 73.3834C87.1053 73.361 87.2981 73.3182 87.469 73.2549C87.6398 73.1916 87.7714 73.1033 87.8636 72.99L88.3913 73.381L87.4786 74.6117C87.4416 74.6504 87.3423 74.6841 87.1805 74.7128C87.0188 74.7416 86.8344 74.7619 86.6275 74.7736C86.4205 74.7854 86.2387 74.7911 86.0821 74.7906L84.344 74.7287C84.1913 74.7229 84.0301 74.7231 83.8603 74.7294C83.6944 74.7303 83.5571 74.7483 83.4485 74.7834L83.2351 75.0711L84.4424 75.9656C84.5864 76.0723 84.723 76.1776 84.8523 76.2817C84.9816 76.3858 85.0769 76.4688 85.1383 76.5308C85.1909 76.4376 85.2646 76.3271 85.3594 76.1993C85.4529 76.0621 85.5194 75.9669 85.5589 75.9137L86.1745 76.3698L84.4734 78.6633Z" fill="#261600"/>
<path d="M90.6606 69.3578C90.3812 69.9225 90.0479 70.3571 89.6605 70.6613C89.2761 70.9596 88.8659 71.1528 88.4301 71.2407C87.9884 71.3258 87.5462 71.3292 87.1037 71.2512C86.6612 71.1731 86.2467 71.0385 85.86 70.8474C85.4853 70.6623 85.1385 70.4132 84.8196 70.1003C84.4976 69.7784 84.2393 69.4103 84.0446 68.996C83.8527 68.5757 83.7557 68.1209 83.7535 67.6315C83.7514 67.1421 83.8811 66.6329 84.1428 66.1038C84.4104 65.5628 84.7394 65.1446 85.1298 64.8493C85.5202 64.5539 85.9407 64.3622 86.3913 64.2741C86.836 64.1832 87.2781 64.1723 87.7176 64.2415C88.1601 64.3047 88.5686 64.429 88.9434 64.6141C89.3122 64.7964 89.6545 65.0469 89.9705 65.3658C90.2894 65.6788 90.5478 66.0469 90.7455 66.4701C90.9403 66.8844 91.0417 67.3378 91.0499 67.8301C91.0521 68.3194 90.9223 68.8287 90.6606 69.3578ZM90.0578 68.9378C90.2107 68.6287 90.2643 68.3334 90.2185 68.0518C90.1668 67.7673 90.0499 67.5024 89.8677 67.257C89.6856 67.0117 89.465 66.7917 89.206 66.5971C88.941 66.3996 88.6717 66.2332 88.3981 66.098C87.9877 65.8952 87.5953 65.7458 87.221 65.6496C86.8467 65.5534 86.5008 65.5193 86.1834 65.5474C85.8601 65.5726 85.5756 65.6688 85.3301 65.836C85.0815 65.9943 84.8838 66.2295 84.7368 66.5416C84.5928 66.8477 84.5496 67.1445 84.6073 67.4319C84.659 67.7164 84.7789 67.9828 84.967 68.2311C85.1491 68.4764 85.3726 68.6979 85.6376 68.8954C85.9026 69.0929 86.1719 69.2593 86.4455 69.3945C86.7251 69.5326 87.0372 69.6499 87.3818 69.7462C87.7294 69.8366 88.0768 69.8825 88.424 69.8839C88.7712 69.8853 89.0884 69.8127 89.3756 69.6661C89.6628 69.5194 89.8902 69.2767 90.0578 68.9378Z" fill="#261600"/>
<path d="M12.478 44.3409L11.8125 44.1715C11.8583 43.9916 11.8437 43.8339 11.7686 43.6985C11.6936 43.563 11.5815 43.4387 11.4323 43.3255C11.2847 43.2058 11.1235 43.0861 10.9486 42.9663L6.26707 39.7736L6.43894 39.0988L12.2186 38.3828C12.3249 38.3688 12.4859 38.355 12.7016 38.3414C12.9109 38.3262 13.0911 38.331 13.2423 38.3558C13.2572 38.2433 13.277 38.1388 13.3015 38.0424C13.3213 37.9379 13.3394 37.8535 13.3557 37.7893L14.0984 37.9782L13.438 40.5715L12.8014 40.4095C12.8472 40.2296 12.8429 40.0985 12.7886 40.0162C12.7294 39.9259 12.6347 39.8676 12.5045 39.8413C12.3742 39.815 12.2206 39.8135 12.0434 39.8369L11.4638 39.8947L10.9696 41.9965L11.3837 42.2661C11.4591 42.3195 11.5722 42.3996 11.723 42.5064C11.8691 42.6051 11.9902 42.6941 12.0864 42.7733C12.0997 42.6672 12.1244 42.5435 12.1604 42.4021C12.1916 42.2526 12.2154 42.1458 12.2318 42.0815L13.0034 42.2778L12.478 44.3409ZM10.3076 41.5715L10.7176 39.9615L9.39902 40.0982C9.14625 40.1229 8.89594 40.1379 8.64808 40.1433C8.39379 40.147 8.17254 40.1421 7.9843 40.1284L7.98185 40.138C8.08462 40.1915 8.23877 40.2718 8.4443 40.3789C8.64984 40.4859 8.8898 40.6325 9.1642 40.8186L10.3076 41.5715Z" fill="#261600"/>
<path d="M15.8848 38.3746L13.599 37.3429L13.7506 37.0074C13.827 36.8382 13.8483 36.6622 13.8143 36.4795C13.7804 36.2968 13.6943 36.1088 13.556 35.9154C13.4116 35.7192 13.2151 35.5177 12.9664 35.3109C12.7204 35.098 12.4252 34.8811 12.0809 34.6602C11.7306 34.4365 11.3341 34.2103 10.8915 33.9814C10.4428 33.7498 9.94801 33.5155 9.40708 33.2786L9.31374 33.5094L9.00826 34.2338L8.3098 33.9185L10.6079 28.8324L11.2066 29.1027C11.1526 29.2384 11.1175 29.3644 11.1013 29.4808C11.0878 29.5912 11.1232 29.6981 11.2075 29.8016C11.2884 29.8964 11.4529 29.9997 11.7008 30.1116L15.175 31.6798C15.3382 31.7535 15.4941 31.8274 15.6425 31.9017C15.791 31.976 15.9018 32.0369 15.9749 32.0845L16.3729 31.1071L18.695 32.1553L18.4001 32.808C17.9251 32.5864 17.5173 32.4496 17.1767 32.3977C16.8421 32.3486 16.6216 32.4419 16.5151 32.6776L14.8355 36.3947C14.729 36.6304 14.8048 36.8575 15.0629 37.0758C15.327 37.2969 15.6993 37.5123 16.1798 37.7219L15.8848 38.3746ZM14.2749 35.847L15.0369 34.1607C15.0876 34.0162 15.1281 33.878 15.1586 33.7462C15.183 33.6117 15.1585 33.4806 15.0851 33.3529C15.0118 33.2252 14.8542 33.1067 14.6123 32.9976L10.4034 31.0978L10.0292 31.9985C9.94508 32.2007 9.91612 32.3696 9.94226 32.5051C9.96235 32.6379 10.0782 32.752 10.2899 32.8475C10.8616 33.1129 11.3667 33.3809 11.805 33.6515C12.2461 33.9161 12.6275 34.1756 12.9494 34.43C13.2713 34.6844 13.5423 34.9305 13.7626 35.1682C13.9767 35.4031 14.1475 35.6294 14.2749 35.847Z" fill="#261600"/>
<path d="M17.2264 31.2588L16.6827 30.8904C16.7628 30.7604 16.8171 30.6449 16.8455 30.544C16.8776 30.4376 16.8591 30.3289 16.79 30.218C16.7247 30.1016 16.5822 29.969 16.3625 29.8201L13.2073 27.6821C13.059 27.5817 12.918 27.4822 12.7845 27.3836C12.6546 27.2796 12.5558 27.2007 12.4882 27.1468C12.4341 27.2383 12.3651 27.3519 12.2812 27.4873C12.1919 27.6191 12.1295 27.717 12.094 27.7811L11.4597 27.3513C11.7111 26.9688 11.9652 26.5882 12.2222 26.2094C12.4828 25.8252 12.7388 25.4418 12.9903 25.0593C13.4316 24.3969 13.9089 23.9591 14.4221 23.7461C14.9336 23.5238 15.4327 23.5976 15.9194 23.9674C16.0712 24.0863 16.1942 24.2417 16.2884 24.4338C16.3772 24.6221 16.4223 24.845 16.424 25.1025C16.4294 25.3546 16.3803 25.6338 16.2767 25.9402L16.285 25.9457C16.7452 25.4564 17.2028 25.1776 17.6579 25.1094C18.1075 25.0374 18.5026 25.1168 18.8431 25.3476C19.2001 25.5895 19.4426 25.882 19.5706 26.2251C19.6968 26.559 19.7207 26.9197 19.6422 27.3072C19.5583 27.691 19.386 28.075 19.1253 28.4593L17.2264 31.2588ZM17.8255 29.1169C17.8926 29.0181 17.9558 28.9247 18.0154 28.8369C18.075 28.7491 18.1346 28.6613 18.1941 28.5734C18.2482 28.4819 18.3032 28.3949 18.359 28.3126C18.5697 27.9666 18.6283 27.6497 18.5348 27.3621C18.4414 27.0744 18.2436 26.8282 17.9415 26.6235C17.6889 26.4524 17.4558 26.3705 17.2423 26.3781C17.0232 26.3819 16.8277 26.4457 16.6555 26.5694C16.4872 26.6877 16.3434 26.8346 16.2242 27.0103C16.1312 27.1475 16.0511 27.2655 15.9841 27.3643C15.9171 27.4631 15.8491 27.5693 15.7801 27.6828L17.1229 28.5927C17.2712 28.6932 17.4094 28.7908 17.5375 28.8856C17.6656 28.9804 17.7616 29.0575 17.8255 29.1169ZM15.1952 27.2865L15.4774 26.8527C15.6282 26.6185 15.6989 26.402 15.6894 26.2032C15.6837 25.999 15.617 25.8136 15.4895 25.6471C15.3602 25.4713 15.1967 25.3165 14.999 25.1825C14.7793 25.0337 14.5792 24.9622 14.3988 24.9682C14.2129 24.9704 14.0479 25.0188 13.9036 25.1133C13.7593 25.2078 13.6415 25.3283 13.5502 25.4748C13.4906 25.5626 13.4503 25.6515 13.4294 25.7415C13.4084 25.8314 13.4325 25.9319 13.5016 26.0428C13.5652 26.1499 13.7041 26.2761 13.9182 26.4212L15.1952 27.2865Z" fill="#261600"/>
<path d="M23.0434 23.9679C22.6055 24.4211 22.1557 24.7337 21.6942 24.9059C21.2372 25.0732 20.7877 25.1326 20.3458 25.084C19.8991 25.0307 19.4768 24.8997 19.079 24.6908C18.6812 24.482 18.3272 24.2278 18.017 23.9283C17.7164 23.638 17.4617 23.2954 17.2531 22.9003C17.0443 22.4959 16.9102 22.0667 16.8507 21.6128C16.7958 21.1541 16.8418 20.6913 16.9885 20.2245C17.1353 19.7576 17.4138 19.3119 17.8241 18.8874C18.2436 18.4533 18.6842 18.1549 19.146 17.9922C19.6077 17.8294 20.0666 17.7746 20.5227 17.8276C20.9741 17.8761 21.3986 18.0001 21.7962 18.1996C22.1984 18.3943 22.5499 18.6368 22.8505 18.927C23.1464 19.2127 23.3964 19.5555 23.6004 19.9553C23.809 20.3503 23.9432 20.7795 24.0028 21.2428C24.0623 21.6967 24.021 22.1594 23.879 22.6309C23.7323 23.0977 23.4537 23.5434 23.0434 23.9679ZM22.5969 23.3847C22.8367 23.1367 22.9775 22.8716 23.0196 22.5895C23.0568 22.3027 23.026 22.0148 22.9272 21.7257C22.8283 21.4367 22.6851 21.1601 22.4975 20.896C22.3052 20.6273 22.0992 20.387 21.8797 20.175C21.5504 19.8571 21.2221 19.5954 20.8947 19.39C20.5674 19.1847 20.2482 19.0471 19.9373 18.9775C19.6216 18.9032 19.3214 18.9084 19.0366 18.993C18.7517 19.0683 18.4917 19.2323 18.2568 19.4849C18.0265 19.7328 17.895 20.0024 17.8625 20.2938C17.8253 20.5805 17.8585 20.8707 17.9621 21.1644C18.061 21.4535 18.2066 21.7324 18.3989 22.0011C18.5913 22.2698 18.7972 22.5101 19.0168 22.722C19.2411 22.9386 19.5027 23.1451 19.8018 23.3416C20.1054 23.5334 20.4224 23.6826 20.7527 23.7895C21.0831 23.8963 21.4073 23.9236 21.7255 23.8712C22.0437 23.8187 22.3342 23.6566 22.5969 23.3847Z" fill="#261600"/>
<path d="M25.5984 21.1916L25.2162 20.6576C25.3365 20.5634 25.4274 20.474 25.4891 20.3891C25.5561 20.3004 25.5765 20.1921 25.5502 20.0641C25.5293 19.9323 25.4416 19.7585 25.2872 19.5428L23.0695 16.4439C22.9652 16.2983 22.8676 16.1561 22.7765 16.0174C22.6908 15.8748 22.6255 15.7666 22.5807 15.6926C22.4982 15.7597 22.3941 15.8423 22.2685 15.9403C22.139 16.0329 22.0464 16.1031 21.9909 16.1509L21.5451 15.5279L23.8684 13.8669L24.2506 14.4009C24.1357 14.4912 24.0447 14.5807 23.9777 14.6694C23.9107 14.7581 23.8876 14.8683 23.9085 15.0002C23.931 15.1227 24.0213 15.2946 24.1796 15.5157L25.0597 16.7456L25.6426 16.3289L25.5074 14.8233C25.4833 14.5959 25.4646 14.3646 25.4514 14.1295C25.4381 13.8944 25.4453 13.7221 25.473 13.6126C25.3905 13.6797 25.3026 13.7507 25.2094 13.8255C25.1161 13.9004 25.0417 13.9617 24.9862 14.0096L24.5403 13.3866L26.5236 11.9686L26.9058 12.5026C26.7909 12.5929 26.6769 12.7071 26.5636 12.8452C26.4557 12.9794 26.3694 13.1552 26.3047 13.3727C26.2401 13.5901 26.2191 13.8742 26.2417 14.225L26.3563 16.0266C26.5144 16.0195 26.6629 16.0275 26.8017 16.0506C26.9421 16.0644 27.0775 16.0939 27.2079 16.1393L28.8813 16.7164C29.0973 16.7903 29.3103 16.8541 29.5201 16.908C29.7315 16.9525 29.9282 16.9709 30.1102 16.9631C30.2922 16.9553 30.4446 16.9116 30.5671 16.8321L30.9493 17.3661L29.7027 18.2574C29.6556 18.2828 29.5507 18.2845 29.388 18.2622C29.2252 18.24 29.0435 18.2027 28.8429 18.1504C28.6423 18.0981 28.4676 18.0477 28.3187 17.9993L26.6835 17.4071C26.5399 17.3548 26.3864 17.3055 26.2229 17.2594C26.0647 17.2094 25.9285 17.1844 25.8144 17.1845L25.523 17.3928L26.3973 18.6146C26.5015 18.7602 26.5992 18.9024 26.6903 19.0411C26.7814 19.1798 26.8467 19.2881 26.8861 19.3659C26.9647 19.2934 27.0688 19.2108 27.1983 19.1182C27.3294 19.0164 27.4219 18.9462 27.4758 18.9076L27.9217 19.5306L25.5984 21.1916Z" fill="#261600"/>
<path d="M30.5912 17.6004L30.2907 16.9833C30.4578 16.902 30.5688 16.789 30.6238 16.6443C30.6787 16.4995 30.7013 16.3337 30.6914 16.1467C30.6875 15.9568 30.6748 15.7565 30.6534 15.5457L30.0685 9.91135L30.6949 9.60664L34.9748 13.5544C35.0541 13.6264 35.1686 13.7404 35.3183 13.8962C35.4651 14.0461 35.5778 14.1867 35.6565 14.318C35.7522 14.2568 35.8447 14.2044 35.9342 14.1609C36.0268 14.1085 36.1029 14.0678 36.1625 14.0387L36.4979 14.7275L34.0905 15.8984L33.803 15.3081C33.9701 15.2268 34.0675 15.1389 34.0952 15.0443C34.126 14.9408 34.1094 14.8309 34.0453 14.7145C33.9813 14.5981 33.8831 14.4799 33.7509 14.3599L33.3324 13.955L31.4078 14.9353L31.4693 15.4254C31.4772 15.5174 31.489 15.6555 31.5049 15.8395C31.5238 16.0147 31.534 16.1646 31.5356 16.2892C31.6253 16.2309 31.7358 16.1698 31.867 16.1059C32.0013 16.0332 32.0983 15.9823 32.158 15.9533L32.5064 16.6689L30.5912 17.6004ZM31.3048 14.1557L32.7994 13.4287L31.8433 12.5108C31.6612 12.3339 31.4881 12.1526 31.3239 11.9669C31.1568 11.7753 31.0177 11.6033 30.9066 11.4508L30.8976 11.4552C30.9231 11.5681 30.9614 11.7376 31.0124 11.9636C31.0633 12.1896 31.1064 12.4673 31.1414 12.7969L31.3048 14.1557Z" fill="#261600"/>
<path d="M40.1087 8.76939C40.0062 8.42621 39.8742 8.15762 39.7124 7.96363C39.5488 7.76327 39.3618 7.63562 39.1515 7.58065C38.9457 7.51744 38.7229 7.52503 38.4832 7.60341L38.0254 7.73989L39.3596 12.2108C39.4108 12.3823 39.4569 12.5485 39.498 12.7093C39.5391 12.8701 39.5656 12.9937 39.5775 13.0801C39.6818 13.0351 39.8166 12.988 39.9819 12.9388C40.1517 12.8812 40.2684 12.843 40.332 12.824L40.551 13.558L37.766 14.3883L37.5782 13.7591C37.7226 13.7092 37.8377 13.6541 37.9236 13.5939C38.0159 13.5318 38.0704 13.436 38.0871 13.3064C38.1102 13.1749 38.0838 12.9821 38.0079 12.7279L36.6453 8.16171L36.2065 8.2925C35.846 8.40691 35.5968 8.61613 35.4591 8.92018C35.3213 9.22423 35.3292 9.63364 35.4829 10.1484L34.8534 10.3361L34.2581 8.16745L40.038 6.44439L40.7382 8.58173L40.1087 8.76939Z" fill="#261600"/>
<path d="M44.6416 12.6667L44.598 12.0116C44.7498 11.9949 44.8743 11.9666 44.9714 11.9269C45.0751 11.8868 45.1495 11.8054 45.1945 11.6828C45.2462 11.5597 45.2632 11.3658 45.2456 11.1012L44.9924 7.29956C44.9806 7.1209 44.9724 6.94863 44.968 6.78276C44.9702 6.61645 44.9718 6.49006 44.9727 6.4036C44.8672 6.41726 44.7352 6.43268 44.5768 6.44987C44.4179 6.46044 44.3022 6.47145 44.2299 6.48292L44.179 5.71863C44.6353 5.68162 45.092 5.64793 45.5488 5.61755C46.0122 5.58672 46.4721 5.55281 46.9285 5.5158C47.7226 5.45634 48.3614 5.5634 48.8452 5.83696C49.335 6.10347 49.5837 6.54222 49.5911 7.1532C49.5907 7.34598 49.5437 7.53854 49.4501 7.73087C49.356 7.91658 49.2079 8.08927 49.0058 8.24894C48.8102 8.40817 48.5597 8.54114 48.2543 8.64786L48.2549 8.65779C48.924 8.71963 49.4254 8.90894 49.7591 9.22572C50.0923 9.53588 50.2725 9.8961 50.2998 10.3064C50.3285 10.7365 50.2468 11.1075 50.0547 11.4193C49.8689 11.7242 49.599 11.9648 49.245 12.1412C48.8905 12.311 48.4816 12.4113 48.0181 12.4421L44.6416 12.6667ZM46.7 11.8219C46.8192 11.814 46.9318 11.8065 47.0377 11.7995C47.1436 11.7924 47.2495 11.7854 47.3555 11.7783C47.461 11.7647 47.5634 11.7545 47.6627 11.7479C48.0652 11.7012 48.3512 11.5526 48.5208 11.302C48.6903 11.0515 48.7629 10.7442 48.7387 10.3803C48.7184 10.0759 48.6397 9.84186 48.5024 9.67818C48.3647 9.50789 48.1941 9.39295 47.9907 9.33337C47.7938 9.27335 47.5895 9.25039 47.3776 9.26448C47.2121 9.27549 47.0698 9.28496 46.9506 9.29288C46.8314 9.30081 46.7058 9.31248 46.5739 9.32791L46.6816 10.9458C46.6935 11.1245 46.7014 11.2934 46.7054 11.4527C46.7093 11.6119 46.7075 11.735 46.7 11.8219ZM46.527 8.62318L47.0427 8.5789C47.3203 8.55379 47.5346 8.47639 47.6856 8.34672C47.8432 8.2166 47.9485 8.05008 48.0015 7.84716C48.0606 7.63718 48.0823 7.41308 48.0664 7.17486C48.0488 6.91017 47.9822 6.70856 47.8665 6.57003C47.7505 6.42488 47.6108 6.3245 47.4475 6.2689C47.2842 6.2133 47.1167 6.19453 46.945 6.21259C46.8391 6.21964 46.7442 6.24257 46.6603 6.28138C46.5764 6.32019 46.512 6.40091 46.4669 6.52354C46.4215 6.63956 46.4073 6.8266 46.4245 7.08467L46.527 8.62318Z" fill="#261600"/>
<path d="M58.9945 8.58107C58.9975 8.02392 58.8805 7.58505 58.6435 7.26445C58.4131 6.94491 58.0691 6.7447 57.6117 6.66383C57.2711 6.60862 56.9604 6.63886 56.6794 6.75456C56.3985 6.87026 56.1516 7.04524 55.9388 7.27948C55.7326 7.51479 55.5598 7.79247 55.4205 8.11253C55.2877 8.43365 55.1926 8.77096 55.1353 9.12446C55.0439 9.68744 55.0412 10.201 55.1273 10.6651C55.2209 11.1237 55.4014 11.5023 55.6689 11.801C55.9364 12.0996 56.2895 12.2845 56.7283 12.3557C57.141 12.4226 57.5673 12.3842 58.0074 12.2405C58.4485 12.0903 58.8375 11.8477 59.1742 11.5126L59.5756 12.0211C59.1835 12.4077 58.792 12.6869 58.4012 12.8586C58.0114 13.0239 57.6398 13.1182 57.2865 13.1415C56.9397 13.1659 56.632 13.1563 56.3635 13.1128C55.8591 13.0311 55.415 12.8684 55.0311 12.6247C54.6482 12.3745 54.3316 12.0679 54.0813 11.7048C53.8386 11.3363 53.6694 10.9292 53.5736 10.4837C53.4855 10.0327 53.4813 9.56177 53.5609 9.0708C53.6332 8.62565 53.7769 8.19545 53.9922 7.78021C54.2075 7.36497 54.4846 7.00342 54.8236 6.69558C55.1702 6.38225 55.5767 6.15589 56.043 6.01648C56.5103 5.87053 57.0289 5.84375 57.5987 5.93612C57.8541 5.97753 58.1256 6.06521 58.4131 6.19916C58.7082 6.32762 58.9772 6.49217 59.2203 6.69281L59.2479 6.27402L60.0044 6.39666L59.6331 8.68459L58.9945 8.58107Z" fill="#261600"/>
<path d="M58.9978 13.3653L59.2175 12.715C59.3935 12.7744 59.552 12.7719 59.6928 12.7074C59.8336 12.643 59.9662 12.5407 60.0906 12.4007C60.2212 12.2628 60.353 12.1113 60.4858 11.9461L64.0284 7.52453L64.6884 7.74733L64.9614 13.5618C64.9672 13.6688 64.9687 13.8303 64.9658 14.0463C64.9649 14.256 64.9464 14.4352 64.9101 14.584C65.0212 14.6075 65.1239 14.6352 65.2182 14.667C65.321 14.6947 65.4037 14.7191 65.4666 14.7403L65.2214 15.466L62.6848 14.6098L62.895 13.9878C63.071 14.0472 63.2021 14.053 63.2883 14.0051C63.383 13.953 63.4484 13.8631 63.4845 13.7353C63.5207 13.6075 63.5339 13.4545 63.5241 13.2762L63.5107 12.6942L61.4517 12.0412L61.1511 12.4332C61.0921 12.5043 61.0036 12.6109 60.8855 12.753C60.7758 12.891 60.6778 13.0049 60.5914 13.0948C60.6963 13.1161 60.8178 13.1502 60.9561 13.1969C61.1028 13.2394 61.2076 13.2712 61.2705 13.2925L61.0157 14.0465L58.9978 13.3653ZM61.9263 11.4139L63.501 11.9454L63.4654 10.6209C63.4601 10.3671 63.4642 10.1165 63.4778 9.86911C63.4935 9.61542 63.5153 9.3953 63.5433 9.20876L63.5339 9.20557C63.4726 9.3039 63.3808 9.45139 63.2583 9.64804C63.1358 9.8447 62.9713 10.0726 62.7646 10.3319L61.9263 11.4139Z" fill="#261600"/>
<path d="M65.5166 14.9457C65.6545 15.0113 65.7752 15.0528 65.8786 15.0702C65.988 15.0906 66.0941 15.0606 66.197 14.98C66.3057 14.9026 66.4223 14.7467 66.5467 14.5124L68.334 11.1471C68.418 10.989 68.5018 10.8382 68.5855 10.6949C68.675 10.5546 68.7429 10.448 68.7892 10.375C68.6923 10.3311 68.572 10.2748 68.4282 10.206C68.2875 10.1314 68.1834 10.0799 68.1158 10.0515L68.4752 9.37496C68.8944 9.58987 69.3121 9.80771 69.7282 10.0285C70.1443 10.2492 70.562 10.4671 70.9812 10.682C71.5001 10.9498 71.9126 11.255 72.2189 11.5977C72.5311 11.9435 72.7119 12.3173 72.7615 12.719C72.8169 13.1238 72.7144 13.5574 72.4538 14.0198C72.3234 14.251 72.1449 14.4529 71.9181 14.6253C71.6943 14.792 71.4301 14.9146 71.1255 14.9932C70.8239 15.066 70.4867 15.0785 70.1139 15.0309C69.741 14.9832 69.3434 14.8549 68.9211 14.6458C68.789 14.5833 68.6732 14.5256 68.5736 14.4727C68.4798 14.423 68.3846 14.3687 68.2881 14.31L67.8775 15.0832C67.7903 15.2473 67.705 15.4009 67.6213 15.5443C67.5377 15.6876 67.4698 15.7942 67.4176 15.8642C67.4852 15.8925 67.5688 15.9331 67.6685 15.986C67.7712 16.033 67.8695 16.0813 67.9632 16.1311C68.066 16.1781 68.1379 16.2125 68.1789 16.2342L67.8196 16.9108L65.2086 15.5256L65.5166 14.9457ZM68.6381 13.651C68.6995 13.6911 68.7608 13.7311 68.8222 13.7712C68.8835 13.8113 68.9494 13.85 69.0197 13.8873C69.342 14.0583 69.6309 14.1439 69.8861 14.1442C70.1504 14.1417 70.3838 14.0629 70.5865 13.9076C70.7922 13.7465 70.9744 13.5165 71.1331 13.2178C71.2887 12.9249 71.3721 12.6688 71.3834 12.4496C71.4005 12.2334 71.3693 12.0517 71.2898 11.9044C71.2134 11.7512 71.114 11.6272 70.9916 11.5322C70.8724 11.4314 70.7571 11.3515 70.6457 11.2924C70.5227 11.2271 70.4094 11.1858 70.3059 11.1684C70.2025 11.1511 70.1008 11.1797 70.0011 11.2544C69.9013 11.3292 69.797 11.469 69.6881 11.674L68.6381 13.651Z" fill="#261600"/>
<path d="M70.0133 18.0347L70.4275 17.4872C70.5757 17.5992 70.7268 17.6469 70.8808 17.6302C71.0348 17.6136 71.1929 17.5585 71.3552 17.4649C71.5227 17.3754 71.6956 17.2732 71.8739 17.1585L76.6334 14.0831L77.1891 14.5031L75.6089 20.1056C75.5806 20.2089 75.5309 20.3626 75.4598 20.5666C75.3926 20.7653 75.3184 20.9295 75.2369 21.0591C75.3349 21.1165 75.4236 21.1752 75.503 21.2352C75.5917 21.2939 75.6625 21.3433 75.7154 21.3833L75.2532 21.9943L73.1175 20.3805L73.5137 19.8567C73.6619 19.9687 73.7845 20.0156 73.8814 19.9974C73.9877 19.9779 74.0782 19.9133 74.1529 19.8035C74.2276 19.6937 74.2886 19.5527 74.3357 19.3804L74.507 18.824L72.7602 17.5539L72.3511 17.8309C72.2726 17.8796 72.1548 17.9528 71.9979 18.0503C71.8502 18.1466 71.7212 18.2237 71.6108 18.2816C71.7035 18.335 71.8081 18.4057 71.9245 18.4937C72.0502 18.5804 72.1396 18.6438 72.1925 18.6838L71.7123 19.3186L70.0133 18.0347ZM73.4089 17.1087L74.7347 18.1106L75.1198 16.8428C75.1951 16.6003 75.2783 16.3639 75.3694 16.1335C75.4645 15.8977 75.5549 15.6958 75.6405 15.5277L75.6325 15.5217C75.5433 15.5956 75.4095 15.7065 75.2311 15.8544C75.0527 16.0023 74.8245 16.1665 74.5465 16.3472L73.4089 17.1087Z" fill="#261600"/>
<path d="M82.2028 22.5245C82.4627 22.278 82.6427 22.0389 82.7427 21.8069C82.8475 21.5705 82.8769 21.3461 82.8308 21.1338C82.7942 20.9217 82.6867 20.7265 82.5084 20.5483L82.1796 20.2018L78.7929 23.4127C78.663 23.5359 78.5355 23.6522 78.4106 23.7615C78.2857 23.8708 78.1874 23.9503 78.1157 24C78.2029 24.0727 78.3059 24.1715 78.4246 24.2966C78.5527 24.422 78.6396 24.5087 78.6853 24.5568L78.1293 25.084L76.1292 22.9766L76.6057 22.5247C76.7156 22.6308 76.8168 22.7085 76.9094 22.7579C77.0065 22.8121 77.1167 22.8173 77.2398 22.7736C77.3676 22.7348 77.5277 22.6241 77.7203 22.4415L81.1791 19.1622L80.864 18.8302C80.5989 18.5605 80.2996 18.433 79.9659 18.4476C79.6323 18.4623 79.2705 18.6545 78.8806 19.0242L78.4285 18.5478L80.0947 17.0367L84.2457 21.4103L82.6548 23.0008L82.2028 22.5245Z" fill="#261600"/>
<path d="M81.1128 29.2668C80.763 28.7426 80.5532 28.2368 80.4832 27.7494C80.4168 27.2675 80.4545 26.816 80.5961 26.3947C80.7433 25.9698 80.9613 25.5854 81.2501 25.2414C81.539 24.8974 81.8629 24.6058 82.2217 24.3666C82.5695 24.1348 82.9587 23.9591 83.3893 23.8394C83.8291 23.7216 84.2772 23.682 84.7336 23.7206C85.1937 23.7646 85.6363 23.908 86.0614 24.1508C86.4866 24.3935 86.863 24.7604 87.1907 25.2514C87.5257 25.7535 87.7236 26.2473 87.7844 26.7329C87.8452 27.2185 87.8011 27.6783 87.6521 28.1124C87.5086 28.5429 87.2971 28.931 87.0174 29.2769C86.7414 29.6282 86.4295 29.9198 86.0817 30.1516C85.7395 30.3798 85.3512 30.5509 84.9169 30.665C84.4863 30.7846 84.0382 30.8242 83.5726 30.7838C83.1162 30.7453 82.6727 30.6065 82.242 30.3675C81.8168 30.1247 81.4404 29.7578 81.1128 29.2668ZM81.778 28.9549C81.9694 29.2418 82.1986 29.4358 82.4655 29.537C82.7378 29.6344 83.0258 29.6656 83.3295 29.6306C83.6331 29.5956 83.934 29.5146 84.2321 29.3877C84.5358 29.257 84.8145 29.1071 85.0685 28.9378C85.4494 28.6839 85.7751 28.419 86.0455 28.1431C86.316 27.8671 86.5184 27.5847 86.6527 27.2959C86.7925 27.0035 86.8514 26.7092 86.8292 26.413C86.8163 26.1187 86.7113 25.83 86.5144 25.5467C86.3211 25.269 86.0855 25.0833 85.8076 24.9895C85.5352 24.8921 85.2445 24.8627 84.9353 24.9014C84.6317 24.9364 84.328 25.0192 84.0244 25.1499C83.7208 25.2805 83.442 25.4305 83.188 25.5997C82.9286 25.7727 82.671 25.9842 82.4152 26.2344C82.1631 26.4901 81.9497 26.7679 81.7749 27.0677C81.6002 27.3676 81.5045 27.6784 81.488 28.0003C81.4715 28.3222 81.5682 28.6404 81.778 28.9549Z" fill="#261600"/>
<path d="M83.2605 32.3542L83.8623 32.0911C83.9296 32.2281 83.9984 32.3356 84.0686 32.4135C84.1416 32.4974 84.2434 32.5397 84.3741 32.5405C84.5075 32.5473 84.6957 32.4976 84.9389 32.3912L88.4313 30.8641C88.5954 30.7924 88.7548 30.7263 88.9094 30.6659C89.0667 30.6116 89.1862 30.5702 89.2679 30.5417C89.2193 30.4472 89.16 30.3283 89.0901 30.1852C89.0262 30.0393 88.9767 29.9343 88.9413 29.8702L89.6435 29.5631C89.833 29.9797 90.0196 30.3976 90.2031 30.8169C90.3893 31.2422 90.5771 31.6631 90.7667 32.0797C91.092 32.8061 91.2078 33.4431 91.1144 33.9907C91.0296 34.5417 90.701 34.9243 90.1284 35.1385C89.9468 35.2034 89.7496 35.2245 89.5369 35.2017C89.3302 35.1763 89.1174 35.0956 88.8986 34.9596C88.6824 34.8297 88.4723 34.6393 88.2683 34.3883L88.2592 34.3923C88.4278 35.0424 88.4197 35.578 88.2346 35.9991C88.0557 36.4176 87.7778 36.7093 87.4009 36.8741C87.0057 37.0468 86.6288 37.0958 86.2702 37.021C85.9203 36.9496 85.6023 36.7774 85.3162 36.5044C85.0361 36.2287 84.8031 35.8782 84.6169 35.4529L83.2605 32.3542ZM84.7537 34.0032C84.8015 34.1126 84.8467 34.2159 84.8893 34.3131C84.9319 34.4103 84.9744 34.5075 85.017 34.6047C85.0656 34.6993 85.1099 34.7921 85.1497 34.8833C85.3302 35.2459 85.5671 35.4645 85.8604 35.5389C86.1537 35.6133 86.4676 35.5774 86.8019 35.4312C87.0815 35.309 87.2751 35.1556 87.3826 34.971C87.4962 34.7838 87.5466 34.5844 87.5337 34.3729C87.5234 34.1675 87.4757 33.9675 87.3906 33.7731C87.3241 33.6212 87.2669 33.4906 87.2191 33.3812C87.1712 33.2719 87.1176 33.1578 87.0584 33.0389L85.5721 33.6888C85.4079 33.7606 85.2516 33.8253 85.103 33.8831C84.9545 33.9408 84.838 33.9808 84.7537 34.0032ZM87.7058 32.7558L87.9223 33.2257C88.0401 33.4783 88.1856 33.6535 88.3589 33.7515C88.5348 33.8555 88.7272 33.8981 88.9362 33.8791C89.1539 33.8635 89.3722 33.8079 89.591 33.7122C89.8342 33.6058 90.0014 33.4748 90.0925 33.3191C90.1898 33.1608 90.2369 32.9954 90.2339 32.823C90.2308 32.6506 90.1917 32.4868 90.1165 32.3314C90.0739 32.2342 90.0202 32.1528 89.9552 32.0871C89.8902 32.0214 89.7924 31.9882 89.6617 31.9874C89.5371 31.984 89.3562 32.0341 89.1191 32.1378L87.7058 32.7558Z" fill="#261600"/>
<path d="M88.8326 40.6268C89.1022 40.5562 89.2838 40.4641 89.3775 40.3505C89.4776 40.2352 89.5244 40.0995 89.5178 39.9436C89.5129 39.794 89.4846 39.6335 89.4328 39.4619L89.3576 39.2143L87.7785 39.6276C87.6052 39.673 87.4407 39.7126 87.285 39.7465C87.1292 39.7804 87.008 39.8019 86.9212 39.8109L87.2591 41.1004C87.3095 41.2929 87.4 41.468 87.5305 41.6258C87.6674 41.7819 87.8505 41.8916 88.0798 41.955C88.3154 42.0167 88.6066 42.0022 88.9532 41.9115L89.1171 42.537L86.9863 43.0434L85.6548 37.9623L86.2903 37.796C86.3354 37.9418 86.3866 38.0587 86.4439 38.1465C86.5029 38.2408 86.5969 38.2984 86.7259 38.3195C86.8565 38.347 87.0502 38.3272 87.307 38.2599L90.9946 37.2947C91.1679 37.2493 91.3357 37.2088 91.4978 37.1732C91.6616 37.1441 91.7861 37.1218 91.8712 37.1063C91.8379 37.0054 91.7979 36.8787 91.7511 36.7264C91.7108 36.5725 91.6781 36.461 91.6532 36.3921L92.3946 36.1981L93.6554 41.0097L91.8027 41.5564L91.6363 40.9212C91.9893 40.8288 92.2397 40.6981 92.3875 40.5292C92.5353 40.3603 92.6145 40.1784 92.6252 39.9837C92.6423 39.7872 92.625 39.6032 92.5732 39.4317L92.4728 39.0878C92.4375 38.9531 92.3879 38.8426 92.3242 38.7565C92.2669 38.6686 92.1705 38.615 92.0351 38.5956C91.9062 38.5746 91.7165 38.5968 91.4662 38.6623L90.0219 39.0404L90.317 40.1663L91.1445 39.9085L91.3387 40.6495L88.999 41.2619L88.8326 40.6268Z" fill="#261600"/>
<path d="M11.2444 53.6807C11.2444 54.5734 10.5203 55.2972 9.62701 55.2972C8.73377 55.2972 8.00965 54.5734 8.00965 53.6807C8.00965 52.7879 8.73377 52.0642 9.62701 52.0642C10.5203 52.0642 11.2444 52.7879 11.2444 53.6807Z" fill="#261600"/>
<path d="M92.1122 53.6807C92.1122 54.5734 91.3881 55.2972 90.4949 55.2972C89.6016 55.2972 88.8775 54.5734 88.8775 53.6807C88.8775 52.7879 89.6016 52.0642 90.4949 52.0642C91.3881 52.0642 92.1122 52.7879 92.1122 53.6807Z" fill="#261600"/>
</svg>
