<svg width="24" height="25" viewBox="0 0 24 25" fill="none" xmlns="http://www.w3.org/2000/svg">
<path d="M20 3.5H6.693C6.28611 3.50135 5.88922 3.62616 5.55478 3.85792C5.22035 4.08969 4.96413 4.41749 4.82 4.798L2.063 12.149C2.02114 12.2613 1.9998 12.3802 2 12.5V14.5C2 15.603 2.897 16.5 4 16.5H9.612L8.49 19.867C8.38997 20.1676 8.36264 20.4877 8.41027 20.801C8.4579 21.1142 8.57913 21.4117 8.764 21.669C9.14 22.189 9.746 22.5 10.388 22.5H12C12.297 22.5 12.578 22.368 12.769 22.14L17.469 16.5H20C21.103 16.5 22 15.603 22 14.5V5.5C22 4.397 21.103 3.5 20 3.5ZM11.531 20.5H10.386L11.948 15.816C11.998 15.6657 12.0117 15.5058 11.9878 15.3492C11.9639 15.1926 11.9032 15.044 11.8106 14.9155C11.7181 14.787 11.5963 14.6823 11.4554 14.6101C11.3144 14.5379 11.1584 14.5001 11 14.5H4V12.681L6.693 5.5H16V15.138L11.531 20.5ZM18 14.5V5.5H20L20.001 14.5H18Z" fill="#261600"/>
</svg>
