<svg width="88" height="88" viewBox="0 0 88 88" fill="none" xmlns="http://www.w3.org/2000/svg">
<path d="M47.6017 2.29738C49.8363 -0.11634 54.1357 0.204231 56.0403 2.87252C57.4169 4.5508 57.0775 6.81366 56.7852 8.79366C64.2149 16.3082 71.6729 23.8039 79.2063 31.2148C84.0526 28.9708 89.54 34.7317 86.5606 39.2951C82.2706 44.4148 77.132 48.7614 72.5686 53.6454C70.6452 55.748 67.9863 58.0768 64.9032 56.9077C61.5277 55.9837 60.4057 52.0708 61.3863 49.0065C58.85 46.3571 56.21 43.8019 53.6266 41.1902C47.6677 47.5545 41.7749 53.966 35.8066 60.3208C34.76 61.3391 34.6092 62.8571 33.9963 64.1205C30.5172 65.0257 28.6975 68.2502 26.3026 70.6074C21.7297 75.4442 17.2889 80.4225 12.6595 85.2028C10.1326 87.9842 5.36175 88.0219 2.75946 85.3442C-0.0408216 82.7608 -0.0408216 77.8862 2.79718 75.3311C7.59632 70.7299 12.5652 66.2985 17.3926 61.7162C19.7497 59.3214 22.9649 57.4922 23.8983 54.0319C27.4152 53.3154 29.4989 50.2888 32.0635 48.0825C37.0229 43.5662 41.888 38.9462 46.8097 34.3922C44.198 31.7994 41.6429 29.1594 38.9935 26.6137C36.9852 26.906 34.6563 27.2454 32.978 25.8122C30.338 23.8794 30.074 19.5894 32.5066 17.3831C37.4943 12.3105 42.5103 7.2568 47.6017 2.29738ZM50.7697 4.60738C45.4992 9.37823 40.6623 14.6299 35.5803 19.6082C34.3829 20.4474 34.1472 22.4839 35.684 23.0968C37.202 23.7568 38.2203 22.1257 39.2197 21.3054C43.6983 16.6854 48.3938 12.2728 52.8252 7.59623C54.3903 6.29509 52.58 3.55138 50.7697 4.60738ZM41.7843 24.0491C43.1609 25.4068 44.5375 26.7551 45.8952 28.1317C50.0343 23.9831 54.1735 19.8439 58.3126 15.7142C56.9455 14.3565 55.5877 12.9894 54.23 11.6222C50.0909 15.7708 45.914 19.8911 41.7843 24.0491ZM48.5635 30.8094C51.4392 33.6851 54.3149 36.5702 57.2 39.4459C61.3392 35.3068 65.4783 31.1677 69.6175 27.0285C66.7417 24.1434 63.8566 21.2582 60.9715 18.3825C56.8229 22.5217 52.6932 26.6608 48.5635 30.8094ZM59.8872 42.1142C61.2543 43.472 62.612 44.8391 63.9697 46.1968C68.1183 42.0765 72.248 37.9279 76.3777 33.7888C75.0106 32.4217 73.6529 31.064 72.2952 29.6968C68.1466 33.8171 64.0075 37.9562 59.8872 42.1142ZM80.9695 34.7411C75.7083 39.5308 70.862 44.7637 65.78 49.742C64.5355 50.6094 64.3469 52.5799 65.8366 53.3248C67.3923 53.8151 68.4012 52.3631 69.4006 51.4768C73.8886 46.8379 78.6029 42.4254 83.0249 37.7205C84.5429 36.3911 82.7797 33.8359 80.9695 34.7411ZM28.7823 56.2948C29.7723 57.2471 30.7529 58.2277 31.7052 59.2177C37.6452 52.8251 43.604 46.4419 49.5346 40.0399C50.9017 39.1159 50.5529 38.0882 49.412 37.1359C42.5386 43.5285 35.6557 49.9022 28.7823 56.2948ZM6.82318 76.6417C5.92746 77.6222 4.65461 78.4897 4.44718 79.8945C4.00403 82.214 6.74775 84.4014 8.90689 83.3265C10.7549 82.0914 12.122 80.3094 13.6306 78.7065C18.7975 73.1154 24.0115 67.562 29.1595 61.9614C28.094 60.9525 27.0475 59.9154 26.0386 58.8405C19.6177 64.7617 13.2817 70.7677 6.82318 76.6417Z" fill="#CFAC7D"/>
<path fill-rule="evenodd" clip-rule="evenodd" d="M47.8883 2.5767L47.8809 2.58391C42.7925 7.54036 37.7788 12.5917 32.7918 17.6635L32.7838 17.6717L32.7753 17.6794C30.5337 19.7125 30.7749 23.7035 33.2143 25.4895L33.2264 25.4983L33.2378 25.5081C33.9893 26.1498 34.8963 26.4059 35.8841 26.4606C36.8802 26.5157 37.9242 26.3651 38.9359 26.2178L39.1295 26.1897L39.2706 26.3252C40.9827 27.9703 42.6589 29.6581 44.3326 31.3433C45.2512 32.2683 46.169 33.1925 47.0916 34.1084L47.3877 34.4024L47.0814 34.6858C45.2017 36.4251 43.3282 38.1759 41.4537 39.9277C38.4262 42.757 35.3961 45.5887 32.3328 48.3783L32.3244 48.3859C31.6955 48.9269 31.0939 49.5199 30.4818 50.1263L30.4201 50.1874C29.8311 50.771 29.2311 51.3654 28.6015 51.9168C27.3528 53.0104 25.9602 53.9601 24.217 54.3714C23.696 56.0849 22.6434 57.4005 21.4591 58.5595C20.8821 59.1242 20.2665 59.6586 19.6626 60.1827C19.6199 60.2198 19.5772 60.2568 19.5346 60.2938C18.8863 60.8569 18.2545 61.4107 17.6777 61.9968L17.6681 62.0065C15.4181 64.1423 13.1529 66.2309 10.8909 68.3168C8.27195 70.732 5.65703 73.1434 3.074 75.6198L3.06495 75.6285C0.404068 78.0242 0.40146 82.6246 3.03069 85.0502L3.03871 85.0576L3.04632 85.0655C5.49033 87.5803 9.99407 87.5419 12.3634 84.9338L12.372 84.9244C15.0831 82.1249 17.7224 79.2655 20.365 76.4022C22.2366 74.3742 24.11 72.3444 26.0119 70.3326L26.0169 70.3273L26.022 70.3223C26.608 69.7456 27.1611 69.1134 27.7236 68.4646C27.7591 68.4237 27.7947 68.3826 27.8303 68.3415C28.3553 67.7356 28.8906 67.1178 29.4571 66.5395C30.6286 65.3437 31.9626 64.2854 33.7121 63.7836C33.8714 63.4277 33.9948 63.0618 34.1248 62.6763C34.1995 62.4547 34.2764 62.2266 34.3635 61.9903C34.6141 61.3109 34.9371 60.6116 35.521 60.0406C38.733 56.6206 41.9185 53.1891 45.1051 49.7564C47.8417 46.8086 50.579 43.86 53.3346 40.9168L53.6187 40.6134L53.911 40.9089C54.8456 41.8538 55.7905 42.794 56.7364 43.7353C58.3958 45.3866 60.0586 47.0411 61.6753 48.7299L61.8398 48.9018L61.7673 49.1284C61.3037 50.577 61.3389 52.2264 61.8836 53.6135C62.4253 54.9932 63.4625 56.0986 65.0088 56.5219L65.0272 56.5269L65.045 56.5337C66.4499 57.0664 67.7624 56.8112 68.9803 56.1517C70.2099 55.4858 71.3187 54.4191 72.2735 53.3754L72.2763 53.3723C74.1405 51.3771 76.1013 49.4704 78.0533 47.5722C78.4989 47.1389 78.9441 46.706 79.3876 46.2726C81.7718 43.9424 84.1112 41.5933 86.2384 39.0568C87.589 36.968 87.0308 34.5974 85.5249 32.9742C84.0108 31.3423 81.6074 30.5438 79.3744 31.5778L79.1232 31.6941L78.9258 31.5C71.3904 24.0872 63.9309 16.59 56.5007 9.07489L56.3603 8.93285L56.3895 8.73525C56.5368 7.73739 56.6874 6.7165 56.6391 5.73974C56.5911 4.77143 56.3482 3.87856 55.731 3.12619L55.7225 3.11582L55.7147 3.10491C53.9541 0.638313 49.9538 0.345576 47.8953 2.56912L47.8883 2.5767ZM86.5606 39.2951C84.0164 42.3314 81.1737 45.0958 78.3295 47.8616C76.3779 49.7594 74.4256 51.6579 72.5686 53.6454C70.6452 55.748 67.9863 58.0768 64.9032 56.9077C61.5277 55.9837 60.4057 52.0708 61.3863 49.0065C59.7724 47.3206 58.1164 45.6728 56.4598 44.0244C55.6076 43.1764 54.7553 42.3282 53.9083 41.4746C53.8144 41.3799 53.7205 41.2851 53.6266 41.1903C53.6266 41.1903 53.6266 41.1903 53.6266 41.1903C53.5354 41.2877 53.4442 41.3851 53.3531 41.4825C50.6936 44.3245 48.0468 47.1756 45.4002 50.0265C42.2095 53.4635 39.019 56.9004 35.8066 60.3208C35.1157 60.993 34.8152 61.8831 34.5144 62.7738C34.3595 63.2324 34.2046 63.6912 33.9963 64.1205C31.4411 64.7853 29.781 66.7011 28.1308 68.6056C27.534 69.2942 26.9386 69.9814 26.3026 70.6074C24.4086 72.6107 22.5372 74.6384 20.6657 76.6661C18.0187 79.5341 15.3714 82.4025 12.6595 85.2028C10.1326 87.9842 5.36175 88.022 2.75946 85.3442C-0.0408213 82.7608 -0.0408216 77.8862 2.79718 75.3311C5.37424 72.8604 8.00024 70.4385 10.627 68.016C12.8919 65.9272 15.1574 63.8379 17.3926 61.7162C18.0202 61.0786 18.7085 60.4811 19.3985 59.8823C21.3 58.2318 23.2134 56.571 23.8983 54.0319C26.5079 53.5002 28.3285 51.6966 30.1419 49.9C30.7723 49.2754 31.4019 48.6517 32.0635 48.0825C35.1255 45.2941 38.1516 42.4661 41.1772 39.6386C42.9546 37.9776 44.7317 36.3168 46.516 34.6642C46.6139 34.5735 46.7118 34.4829 46.8097 34.3923C46.715 34.2982 46.6204 34.2041 46.5258 34.11C45.6948 33.2827 44.8691 32.4512 44.0436 31.62C42.3724 29.9373 40.7026 28.2559 38.9935 26.6137L38.9917 26.6139C36.9838 26.9061 34.6558 27.245 32.978 25.8122C30.338 23.8794 30.074 19.5894 32.5066 17.3831C37.4943 12.3105 42.5103 7.2568 47.6017 2.29738C49.8363 -0.11634 54.1357 0.204231 56.0403 2.87252C57.4124 4.54528 57.0797 6.79878 56.7881 8.77411L56.7852 8.79366C64.2149 16.3082 71.6729 23.8039 79.2063 31.2148C84.0526 28.9708 89.54 34.7317 86.5606 39.2951ZM50.5322 4.28286L50.5682 4.26186C51.1197 3.94016 51.6903 3.90151 52.1976 4.06525C52.6953 4.22589 53.1112 4.57355 53.3949 4.99424C53.9514 5.81957 54.0671 7.06646 53.0999 7.88782C50.8843 10.2254 48.6039 12.4963 46.3216 14.7563C46.0722 15.0032 45.8228 15.25 45.5735 15.4967C43.5343 17.5147 41.4991 19.5287 39.507 21.5838L39.4911 21.6001L39.4735 21.6146C39.2684 21.7829 39.0611 21.9893 38.8306 22.2188C38.8011 22.2482 38.7713 22.2779 38.741 22.308C38.4817 22.5655 38.1958 22.8436 37.8867 23.076C37.2593 23.5475 36.4721 23.873 35.5302 23.4661C34.5869 23.0872 34.1871 22.257 34.2069 21.4278C34.2261 20.627 34.6321 19.7988 35.3228 19.3005C37.1424 17.5176 38.9368 15.693 40.7344 13.8654C43.9277 10.6186 47.1307 7.36188 50.5013 4.31082L50.5322 4.28286ZM35.5803 19.6082C34.3829 20.4474 34.1472 22.4839 35.684 23.0968C36.8663 23.6108 37.7454 22.7352 38.5486 21.9351C38.7767 21.7079 38.9987 21.4868 39.2197 21.3054C41.215 19.2471 43.2534 17.23 45.2922 15.2123C47.8297 12.7012 50.368 10.1893 52.8252 7.59623C54.3903 6.29509 52.58 3.55138 50.7697 4.60738C47.4063 7.65196 44.2194 10.8924 41.0328 14.1326C39.2259 15.9698 37.4192 17.8069 35.5803 19.6082ZM41.2177 24.052L41.5005 23.7672C43.8232 21.4286 46.1636 19.0992 48.5028 16.7709C50.3211 14.9611 52.1387 13.152 53.9469 11.3397L54.2307 11.0552L54.5139 11.3404C55.8717 12.7077 57.2285 14.0738 58.5945 15.4304L58.8796 15.7136L58.5951 15.9974C54.4562 20.1269 50.3173 24.2658 46.1783 28.4142L45.8935 28.6996L45.6104 28.4125C44.4823 27.2688 43.3413 26.1448 42.1958 25.0163C41.9652 24.789 41.7344 24.5617 41.5034 24.3339L41.2177 24.052ZM47.9984 30.81L48.28 30.5272C52.4099 26.3784 56.5399 22.2389 60.6889 18.0994L60.9713 17.8176L61.2538 18.0992C64.1393 20.9752 67.0247 23.8607 69.9008 26.7461L70.1827 27.029L57.2005 40.0112L56.9177 39.7293C54.9936 37.8115 53.0735 35.8893 51.1551 33.9688C50.1966 33.0093 49.2385 32.0501 48.2806 31.0922L47.9984 30.81ZM59.3218 42.1165L59.6031 41.8327C63.7242 37.6738 67.8641 33.5339 72.0133 29.413L72.2971 29.1311L72.579 29.4149C73.9361 30.7815 75.2934 32.1387 76.6606 33.506L76.9431 33.7885L76.6609 34.0713C75.9734 34.7604 75.2858 35.4498 74.5982 36.1393C71.1556 39.591 67.7102 43.0457 64.2516 46.4806L63.9688 46.7615L63.6869 46.4797C63.2341 46.0268 62.7816 45.5733 62.329 45.1197C61.4231 44.2117 60.5166 43.303 59.6053 42.3981L59.3218 42.1165ZM80.7411 34.4081L80.7906 34.3833C81.9178 33.8197 83.0142 34.3536 83.5745 35.1657C84.1322 35.974 84.238 37.1759 83.3037 38.008C80.8169 40.6532 78.2212 43.2227 75.6316 45.7863C73.6291 47.7687 71.6303 49.7475 69.6881 51.7549L69.6774 51.7659L69.666 51.7761C69.4918 51.9306 69.32 52.1004 69.136 52.2823C69.0661 52.3514 68.9944 52.4223 68.9202 52.4947C68.6581 52.7504 68.3723 53.017 68.0613 53.2414C67.4299 53.697 66.6573 54.0029 65.7164 53.7063L65.6861 53.6968L65.6577 53.6826C64.7607 53.2341 64.3633 52.4031 64.3831 51.5698C64.4023 50.7612 64.8117 49.9433 65.523 49.4338C67.352 47.6416 69.1567 45.8101 70.9643 43.9755C74.1503 40.7421 77.3456 37.4993 80.7002 34.4453L80.7411 34.4081ZM65.78 49.742C64.5355 50.6094 64.3469 52.5799 65.8366 53.3248C67.1075 53.7253 68.0135 52.8296 68.8475 52.005C69.0344 51.8203 69.2177 51.639 69.4006 51.4768C71.359 49.4526 73.3605 47.4714 75.362 45.4903C77.9472 42.9313 80.5325 40.3723 83.0249 37.7205C84.5429 36.3911 82.7797 33.8359 80.9695 34.7411C77.6214 37.7891 74.4414 41.0166 71.2617 44.2438C69.4448 46.0878 67.628 47.9317 65.78 49.742ZM28.2002 56.2899L28.5099 56.0019C31.9468 52.8055 35.386 49.6138 38.825 46.4222C42.2641 43.2306 45.7031 40.0392 49.1396 36.843L49.3977 36.603L49.6684 36.8289C50.2593 37.3222 50.7332 37.9024 50.811 38.5509C50.8933 39.2373 50.5221 39.8428 49.7976 40.3447C46.1074 44.3281 42.4059 48.3046 38.7052 52.2803C36.4684 54.6834 34.2318 57.0862 31.9982 59.4899L31.7102 59.7999L31.4169 59.495C30.4682 58.5087 29.4913 57.5318 28.505 56.5831L28.2002 56.2899ZM49.5346 40.0399C45.8345 44.0342 42.1234 48.0211 38.4127 52.0075C36.2669 54.3128 34.1212 56.6179 31.9779 58.9242C31.887 59.022 31.7961 59.1198 31.7052 59.2177C31.7052 59.2177 31.7052 59.2177 31.7052 59.2177C31.6127 59.1215 31.5199 59.0254 31.4269 58.9295C30.6553 58.1334 29.8666 57.3447 29.0705 56.5731C28.9745 56.4801 28.8785 56.3873 28.7823 56.2948C28.8801 56.2039 28.9779 56.1129 29.0757 56.022C32.4146 52.917 35.7557 49.8163 39.0968 46.7157C42.536 43.524 45.9752 40.3323 49.412 37.1359C50.5529 38.0882 50.9017 39.1159 49.5346 40.0399ZM6.54034 76.3582L6.55404 76.3457C10.4303 72.8204 14.2591 69.2505 18.0906 65.6779C20.6434 63.2978 23.1973 60.9165 25.7674 58.5465L26.0589 58.2777L26.3303 58.5668C27.3326 59.6347 28.3734 60.6662 29.4345 61.6709L29.7207 61.9419L29.454 62.2321C26.5097 65.4351 23.5416 68.6252 20.5741 71.8148C18.3538 74.2011 16.1338 76.5871 13.9244 78.978L13.9219 78.9807C13.5789 79.3451 13.2385 79.7249 12.8941 80.1093C11.7613 81.3733 10.5849 82.6861 9.12916 83.6591L9.10797 83.6732L9.08515 83.6846C7.83496 84.307 6.4452 83.9711 5.45514 83.1988C4.46861 82.4292 3.80078 81.1659 4.05271 79.8277C4.1744 79.019 4.60004 78.3831 5.07762 77.8438C5.31701 77.5735 5.57682 77.3195 5.82466 77.079L5.87124 77.0338C6.10553 76.8066 6.32709 76.5917 6.52784 76.3719L6.54034 76.3582ZM4.44718 79.8945C4.00403 82.214 6.74775 84.4014 8.90689 83.3265C10.3165 82.3844 11.4463 81.1241 12.5725 79.8678C12.9228 79.4771 13.2727 79.0868 13.6306 78.7065C15.8424 76.3131 18.0629 73.9265 20.2831 71.5403C23.2494 68.3521 26.2152 65.1645 29.1595 61.9614C28.0941 60.9525 27.0475 59.9154 26.0387 58.8406C26.0387 58.8406 26.0386 58.8406 26.0387 58.8406C23.4723 61.2072 20.9195 63.5873 18.367 65.9672C14.5333 69.5416 10.7003 73.1154 6.82318 76.6417C6.61389 76.8708 6.384 77.0937 6.15194 77.3188C5.3908 78.0569 4.60614 78.8179 4.44718 79.8945ZM45.8952 28.1317C45.9894 28.0373 46.0835 27.9429 46.1777 27.8485C50.1283 23.8893 54.0789 19.9388 58.0294 15.9968C58.1238 15.9026 58.2182 15.8084 58.3126 15.7142C58.218 15.6203 58.1234 15.5263 58.0289 15.4322C56.8521 14.2613 55.6817 13.0839 54.5119 11.9061C54.418 11.8115 54.324 11.7169 54.2301 11.6223C54.136 11.7166 54.0416 11.8111 53.9475 11.9053C52.2301 13.6254 50.5066 15.3409 48.783 17.0564C46.5398 19.2891 44.2964 21.5219 42.0663 23.7653C41.9723 23.8599 41.8783 23.9545 41.7843 24.0491C41.8793 24.1427 41.9742 24.2363 42.0692 24.3299C42.2047 24.4635 42.3403 24.5971 42.4758 24.7306C43.5265 25.7657 44.5754 26.799 45.614 27.8472C45.7078 27.9419 45.8015 28.0367 45.8952 28.1317ZM69.6175 27.0285L57.2 39.4459C55.2761 37.5283 53.3564 35.6065 51.4381 33.6861C50.4796 32.7266 49.5216 31.7675 48.5635 30.8094C52.6931 26.6609 56.8228 22.5218 60.9713 18.3827C63.8564 21.2583 66.7418 24.1434 69.6175 27.0285ZM76.3769 33.7896C75.6896 34.4785 75.0023 35.1677 74.3149 35.8569C70.8723 39.3086 67.4276 42.7625 63.9697 46.1968C63.9697 46.1967 63.9698 46.1969 63.9697 46.1968C63.5176 45.7447 63.0652 45.2912 62.6127 44.8377C61.7065 43.9294 60.799 43.0197 59.8872 42.1142C63.9135 38.051 67.9578 34.0058 72.0114 29.9787C72.0924 29.8982 72.1735 29.8177 72.2545 29.7372C72.2681 29.7237 72.2816 29.7103 72.2952 29.6968C72.3209 29.7227 72.3465 29.7485 72.3722 29.7744C73.7043 31.1153 75.0365 32.4475 76.3777 33.7888C76.3775 33.7891 76.3772 33.7894 76.3769 33.7896Z" fill="#F4F3F2"/>
</svg>
