<svg width="578" height="578" viewBox="0 0 578 578" fill="none" xmlns="http://www.w3.org/2000/svg">
<path d="M288.202 578C130.603 578.115 0.0863357 448.097 4.3449e-05 291.056C-0.0862488 129.443 128.374 0.0431236 288.921 0C448.36 0 578.215 129.73 578 288.928C577.798 448.672 448.288 577.885 288.202 578ZM567.99 288.396C567.314 130.923 437.876 8.6966 286.275 9.80344C134.673 10.9103 9.75107 136.299 9.98118 289.417C10.2113 443.497 135.709 568.283 290.143 568.01C443.111 567.737 568.177 441.859 567.99 288.396Z" fill="#F4F3F2"/>
<path d="M288.676 562.289C133.638 561.785 13.663 433.938 15.5039 284.86C17.3304 138.168 140.469 16.0564 286.663 15.3951C436.092 14.7626 563.33 135.782 562.352 291.832C561.417 440.507 437.573 562.935 288.676 562.289ZM288.964 19.6356C142.267 18.3275 21.3862 138.729 19.8329 287.606C18.294 435.031 138.6 556.855 287.08 558.206C433.503 559.557 556.772 439.487 558.167 294.16C559.634 142.049 440.939 21.0012 288.964 19.6356Z" fill="#F4F3F2"/>
<path d="M86.9538 287.792C88.5214 175.398 179.459 85.5572 290.345 86.8796C317.012 87.1191 343.37 92.6279 367.899 103.089C392.428 113.55 414.645 128.757 433.271 147.834C451.897 166.911 466.564 189.481 476.427 214.246C486.291 239.011 491.156 265.482 490.744 292.134C489.205 402.818 397.261 492.285 286.749 490.718C175.418 489.137 85.5156 397.786 86.9538 287.792ZM288.561 487.124C398.008 487.239 487.465 398.002 487.177 288.899C487.131 236.299 466.185 185.87 428.944 148.702C391.704 111.535 341.218 90.6728 288.59 90.7033C180.063 90.5164 90.8801 179.509 90.7075 288.152C90.5493 397.873 179.171 486.995 288.561 487.124Z" fill="#F4F3F2"/>
<path d="M287.943 482.064C181.918 481.949 95.7556 395.07 95.77 288.267C95.77 181.895 182.954 95.4182 289.927 95.6482C395.52 95.835 482.273 183.045 482.071 288.813C482.091 314.262 477.077 339.464 467.318 362.969C457.56 386.475 443.249 407.821 425.208 425.78C407.167 443.739 385.753 457.957 362.196 467.616C338.639 477.275 313.405 482.186 287.943 482.064ZM288.259 478.658C393.061 478.758 478.375 393.848 478.605 289.374C478.835 184.123 393.622 99.2274 287.77 99.2562C184.622 99.2562 99.4806 184.569 99.2648 288.051C99.0347 392.913 183.946 478.543 288.302 478.658H288.259Z" fill="#F4F3F2"/>
<path d="M333.807 313.207C330.14 319.086 332.369 322.205 336.31 325.554C360.759 346.441 384.906 367.528 409.169 388.544C411.114 389.938 412.878 391.571 414.418 393.402C415.224 394.595 414.72 396.665 414.792 398.347C413.354 398.347 411.427 398.994 410.348 398.347C407.997 396.7 405.78 394.868 403.718 392.87L334.684 333.144C333.102 331.779 331.405 330.528 329.622 329.091C325.394 334.984 325.307 339.828 329.435 345.923C345.255 369.627 360.457 393.747 375.875 417.71C377.071 419.208 378.04 420.874 378.751 422.654C379.121 424.78 379.265 426.938 379.182 429.094C377.126 428.088 374.221 427.657 373.142 426.004C362.053 409.214 351.281 392.238 340.408 375.305C334.469 366.076 328.5 356.848 321.554 346.052C316.563 361.649 302.972 371.122 300.628 387.02C306.481 382.262 312.133 377.403 319.468 383.124C325.135 387.523 324.861 393.56 323.236 399.612L321.28 400.115C321.062 397.914 320.579 395.747 319.842 393.661C318.404 390.7 316.721 386.301 314.377 385.726C312.033 385.151 307.459 387.695 305.877 390.154C303.145 394.466 301.936 399.741 300.124 404.672C311.802 408.165 314.104 411.859 309.314 418.572C308.926 418.356 308.38 418.241 308.164 417.911C306.596 415.41 305.1 412.851 303.576 410.321C302.627 413.196 300.901 416.071 300.843 418.946C300.556 432.975 300.714 447.019 300.714 462.831C293.437 454.02 286.433 447.479 288.072 436.181C288.793 429.492 288.793 422.745 288.072 416.056C287.9 413.757 285.699 409.703 284.491 409.717C279.846 409.804 280.637 413.325 281.615 416.545C281.758 417.005 281.025 417.738 280.694 418.356C274.323 414.447 275.114 409.732 282.952 404.097C278.436 400.546 273.762 400.331 270.584 403.551C266.183 408.007 267.535 412.894 275.531 421.49L274.395 423.287C271.82 421.634 268.484 420.527 266.816 418.227C264.933 415.844 263.909 412.897 263.909 409.861C263.909 406.825 264.933 403.878 266.816 401.495C270.871 395.817 276.998 395.63 287.569 400.388C289.784 385.122 281.902 373.177 267.966 370.662C261.25 369.454 254.145 372.803 251.729 378.395C249.313 383.987 250.593 388.457 255.713 391.332C260.603 394.121 264.428 392.468 266.787 387.379C267.189 386.517 267.607 385.64 268.024 384.777L270.727 386.129C269.98 388.285 269.865 391.534 268.354 392.41C264.888 394.408 260.66 396.55 256.849 396.277C250.679 395.832 247.342 390.858 246.566 384.95C245.994 381.712 246.523 378.376 248.068 375.474C249.614 372.572 252.087 370.27 255.094 368.937C259.409 366.881 264.644 366.694 269.778 365.587L255.943 346.627C248.867 357.538 241.935 368.319 235.089 379.1C225.386 394.202 215.687 409.32 205.994 424.451C205.865 424.652 205.793 424.954 205.62 425.055C203.29 426.492 200.96 427.786 198.616 429.152C198.975 426.636 198.616 423.661 199.795 421.663C207.547 409.013 215.616 396.565 223.684 384.073C231.752 371.582 239.36 358.831 247.961 346.699C252.39 340.475 252.836 335.2 247.961 328.976C230.923 343.714 213.904 358.429 196.904 373.12C187.858 380.968 178.956 388.932 169.694 396.565C168.069 397.901 165.005 397.485 162.603 397.887C163.509 395.745 163.84 392.942 165.408 391.577C190.979 369.143 216.675 346.848 242.496 324.692C246.566 321.213 247.184 318.065 244.61 312.89L202.815 331.98C183.879 340.604 164.928 349.229 145.963 357.854C144.295 358.773 142.488 359.414 140.613 359.751C139.957 359.742 139.313 359.575 138.735 359.265C138.157 358.955 137.662 358.51 137.291 357.969C137.155 357.328 137.18 356.663 137.363 356.033C137.546 355.404 137.882 354.829 138.341 354.361C140.099 353.115 142.008 352.096 144.022 351.328C175.777 336.81 207.571 322.306 239.403 307.816C242.898 306.221 246.134 304.812 243.33 299.048C230.702 300.801 217.744 302.57 204.8 304.424C180.38 307.931 155.959 311.467 131.538 315.032C131.313 315.116 131.072 315.145 130.833 315.118C128.504 314.227 126.174 313.307 123.858 312.387C126.001 310.95 128.014 308.693 130.33 308.319C144.266 306.048 158.289 304.237 172.282 302.225C195.735 298.861 219.225 295.473 242.754 292.062C245.185 286.556 242.352 285.579 237.764 284.875C201.972 279.834 166.189 274.625 130.416 269.249C128.072 268.89 126.102 266.274 123.93 264.721C126.389 264.089 128.964 262.623 131.294 262.939C167.349 267.884 203.391 273.001 239.432 278.176C240.568 278.334 241.733 278.392 242.783 278.492C245.66 273.375 242.783 271.463 238.857 269.652C207.677 255.522 176.511 241.363 145.46 226.931C142.238 225.493 137.176 220.477 137.449 220.045C141.174 214.296 144.957 219.557 148.264 221.037C177.776 234.219 207.145 247.716 236.57 261.099C238.684 262.062 240.885 262.853 243.186 263.801C245.588 257.592 243.445 253.739 238.958 249.858C215.63 229.949 192.518 209.796 169.32 189.744C168.054 188.637 166.443 187.746 165.638 186.366C164.581 184.107 163.71 181.766 163.035 179.365C165.293 179.969 168.126 179.912 169.722 181.277C192.331 200.568 214.753 220.088 237.232 239.465C239.144 241.104 241.115 242.671 243.761 244.856C245.099 234.075 244.883 225.465 238.799 216.696C225.151 197.046 212.653 176.577 199.968 156.323C198.702 154.311 198.976 151.321 198.53 148.791C200.888 150.099 204.139 150.818 205.462 152.801C217.111 170.367 228.401 188.163 239.82 205.886C240.903 207.709 242.324 209.31 244.006 210.601C243.66 182.902 249.629 153.592 221.411 132.476C245.156 132.145 265.291 139.634 285.426 151.982C285.426 143.443 285.138 136.17 285.584 128.839C285.728 126.539 287.813 124.354 289.021 122.126C290.114 124.397 292.056 126.64 292.157 128.968C292.516 137.593 290.158 146.951 292.861 154.627C295.479 162.03 303.13 167.636 308.48 174.104C310.897 176.979 313.083 180.127 316.117 184.167C320.82 168.196 325.077 153.146 329.766 138.168C330.888 134.603 329.766 128.896 336.18 128.767C336.18 132.461 337.115 136.371 336.18 139.792C331.865 155.489 326.875 170.985 322.69 186.696C321.942 190.53 322.2 194.491 323.438 198.196C325.221 204.377 327.882 210.299 330.442 217.041C331.607 215.604 332.757 214.31 333.663 212.887C346.252 193.366 358.822 173.831 371.373 154.282C371.869 153.205 372.562 152.23 373.415 151.407C375.239 150.301 377.132 149.312 379.082 148.446C379.082 150.544 379.858 153.046 378.995 154.684C376.579 159.342 373.501 163.654 370.654 168.081C360.586 183.793 350.835 199.792 340.15 215.086C333.98 223.912 330.47 232.494 335.274 243.634C336.712 242.628 338.294 241.564 339.761 240.299C362.236 220.865 384.695 201.421 407.141 181.967C408.047 181.177 408.881 180.027 409.931 179.768C411.638 179.493 413.369 179.407 415.094 179.509C414.692 181.349 414.936 183.822 413.814 184.914C405.53 192.533 397.002 199.907 388.488 207.266C372.667 220.908 357.106 234.722 341.027 247.989C335.878 252.23 333.965 256.614 336.209 263.428C351.065 256.7 365.865 250.031 380.621 243.303C398.052 235.354 415.411 227.261 432.928 219.514C435.071 218.565 437.976 219.355 440.522 219.341C438.868 221.468 437.645 224.588 435.502 225.594C404.006 240.218 372.428 254.645 340.768 268.876C336.626 270.744 334.296 272.757 336.914 278.435C350.059 276.595 363.477 274.769 376.881 272.843C400.583 269.436 424.342 265.886 448 262.651C449.856 262.393 451.984 264.089 453.983 264.865C452.272 266.303 450.704 268.818 448.806 269.178C413.071 274.582 377.293 279.805 341.473 284.846C337.158 285.464 334.612 286.599 336.482 292.263C355.797 295.138 375.4 298.013 395.017 300.888C412.563 303.418 430.138 305.746 447.641 308.492C449.956 308.851 451.956 311.165 454.127 312.574C451.538 313.437 448.806 315.348 446.375 315.003C411.973 310.289 377.6 305.272 343.227 300.342C340.897 299.997 338.568 299.68 336.324 299.364C333.045 304.769 335.936 306.767 340.15 308.679C371.33 322.823 402.491 337.049 433.633 351.357C434.786 351.672 435.872 352.193 436.84 352.895C438.247 354.531 439.549 356.254 440.737 358.055C438.494 358.371 435.819 359.636 434.05 358.86C416.518 351.141 399.13 343.048 381.699 335.142L333.807 313.207ZM320.676 275.833L318.677 273.447C321.18 271.219 323.783 269.134 326.17 266.734C327.954 264.966 330.988 262.824 330.859 260.984C329.794 246.078 328.126 231.229 326.63 216.351L322.474 214.339L311.572 228.713L309.66 227.276C310.225 225.586 311.008 223.977 311.989 222.489C314.866 219.24 318.203 216.466 320.82 213.074C321.462 212.216 321.914 211.231 322.147 210.186C322.38 209.14 322.389 208.057 322.172 207.008C317.732 194.202 310.597 182.497 301.246 172.681L294.055 182.858L291.596 181.421C293.609 177.281 295.608 173.127 297.838 168.484C286.087 157.344 273.029 148.36 255.641 142.61C272.295 156.797 280.349 173.874 285.181 192.806C293.494 225.436 292.718 258.813 293.279 292.076C293.48 304.108 293.279 316.125 293.279 328.156C303.074 315.422 314.837 304.33 328.126 295.296C329.644 294.3 330.716 292.754 331.118 290.984C331.434 283.94 331.261 276.868 331.261 268.674L320.676 275.833ZM289.309 378.539C289.309 365.429 289.309 352.535 289.309 339.641C289.309 326.747 289.108 313.767 289.079 300.83C289.079 278.003 271.188 253.136 247.86 245.115C247.86 260.136 248.191 274.669 247.731 289.172C247.443 298.272 249.442 305.114 258.416 309.484C262.975 311.697 266.542 316.082 270.382 319.661C271.227 320.796 271.865 322.071 272.266 323.427L271.001 324.577L249.284 307.773C251.844 339.282 268.958 360.111 289.309 378.539ZM249.557 226.298C247.4 235.584 248.306 242.11 257.726 244.669C259.777 245.372 261.623 246.566 263.105 248.148C271.835 256.686 280.363 265.397 287.727 272.671C287.727 263.37 288.288 251.77 287.612 240.227C286.26 216.768 283.542 193.467 273.446 171.804C265.78 155.346 254.346 142.955 235.362 138.412C239.59 146.591 243.344 154.052 252.736 156.625C255.612 157.43 257.999 160.607 260.272 163.007C260.919 163.697 260.372 165.494 260.372 167.32L247.27 158.292C247.846 177.899 248.565 196.715 248.824 215.517C248.824 219.672 250.032 221.842 253.714 223.74C257.395 225.637 260.703 228.742 264.169 231.301L262.501 233.615L249.557 226.298ZM295.278 379.1C314.823 354.878 326.645 329.579 330.384 299.249C317.742 307.514 307.603 316.498 300.182 327.998C297.305 332.512 294.113 337.816 293.883 342.876C293.379 354.303 294.645 365.746 295.278 379.1ZM295.81 389.32L293.969 388.903C293.437 390.499 292.43 392.094 292.43 393.69C292.301 409.689 292.257 425.687 292.43 441.672C292.43 444.029 293.868 446.372 294.63 448.715L295.781 448.169L295.81 389.32Z" fill="#F4F3F2"/>
<path d="M49.7099 380.411C50.1199 381.193 50.5341 381.803 50.9524 382.242C51.3871 382.715 51.982 382.944 52.7373 382.928C53.5089 382.946 54.5888 382.629 55.9771 381.977L75.9164 372.607C76.8535 372.167 77.764 371.76 78.648 371.387C79.5483 371.048 80.2322 370.791 80.6997 370.613C80.4039 370.074 80.0429 369.397 79.6165 368.581C79.2249 367.748 78.9219 367.149 78.7077 366.784L82.7164 364.9C83.9097 367.347 85.0857 369.802 86.2443 372.265C87.4029 374.727 88.5789 377.182 89.7722 379.629C91.243 382.665 92.0922 385.506 92.32 388.153C92.564 390.834 92.1039 393.189 90.9397 395.218C89.7918 397.283 87.8133 398.933 85.0041 400.168C83.5995 400.786 82.0735 401.1 80.4262 401.112C78.8136 401.108 77.1664 400.759 75.4846 400.067C73.8375 399.358 72.2345 398.248 70.6755 396.736C69.1164 395.223 67.7229 393.252 66.4949 390.822C66.1012 390.075 65.7656 389.407 65.4882 388.817C65.2271 388.262 64.9752 387.681 64.7325 387.075L60.1511 389.228C59.1793 389.685 58.2514 390.1 57.3674 390.473C56.4834 390.846 55.7995 391.104 55.3157 391.246C55.5299 391.612 55.7757 392.089 56.0531 392.679C56.3652 393.252 56.6519 393.817 56.913 394.372C57.2251 394.945 57.4383 395.353 57.5525 395.596L53.5438 397.48L46.2739 382.026L49.7099 380.411ZM68.637 385.24C68.7818 385.638 68.9266 386.036 69.0714 386.434C69.2162 386.832 69.3865 387.239 69.5823 387.655C70.4799 389.563 71.5184 390.96 72.698 391.846C73.9286 392.75 75.2818 393.194 76.7576 393.179C78.2682 393.146 79.9085 392.715 81.6786 391.883C83.4139 391.067 84.688 390.172 85.5007 389.197C86.3298 388.257 86.8159 387.308 86.9592 386.351C87.1371 385.378 87.1078 384.46 86.8713 383.597C86.6695 382.718 86.4136 381.948 86.1035 381.289C85.7608 380.561 85.3803 379.977 84.962 379.538C84.5437 379.1 83.9742 378.88 83.2537 378.88C82.5331 378.88 81.5654 379.165 80.3507 379.736L68.637 385.24Z" fill="#F4F3F2"/>
<path d="M74.6783 435.522C72.5855 432.541 71.3034 429.648 70.8321 426.841C70.3828 424.065 70.5385 421.451 71.2991 418.997C72.0912 416.522 73.2983 414.27 74.9204 412.243C76.5424 410.216 78.3738 408.487 80.4144 407.055C82.3922 405.668 84.6171 404.6 87.0889 403.849C89.6142 403.109 92.1981 402.818 94.8406 402.979C97.5052 403.17 100.082 403.938 102.572 405.283C105.062 406.627 107.288 408.695 109.248 411.488C111.253 414.343 112.464 417.17 112.882 419.967C113.3 422.765 113.108 425.428 112.307 427.957C111.537 430.464 110.367 432.735 108.799 434.772C107.252 436.84 105.49 438.568 103.512 439.955C101.566 441.32 99.3455 442.362 96.8516 443.081C94.3798 443.831 91.7959 444.121 89.0999 443.952C86.4574 443.791 83.8754 443.05 81.3541 441.728C78.8642 440.383 76.6389 438.315 74.6783 435.522ZM78.4794 433.629C79.625 435.261 80.9757 436.35 82.5315 436.898C84.1188 437.424 85.7873 437.565 87.5371 437.321C89.2869 437.077 91.0144 436.568 92.7196 435.794C94.4561 434.997 96.0465 434.093 97.4906 433.08C99.6568 431.561 101.502 429.985 103.028 428.354C104.553 426.722 105.683 425.063 106.42 423.376C107.188 421.666 107.487 419.958 107.319 418.25C107.204 416.551 106.558 414.897 105.381 413.287C104.226 411.709 102.839 410.668 101.221 410.164C99.6334 409.638 97.9492 409.508 96.168 409.774C94.4182 410.018 92.675 410.538 90.9385 411.335C89.2019 412.131 87.6115 413.036 86.1674 414.048C84.6919 415.083 83.2323 416.341 81.7887 417.822C80.3671 419.334 79.1719 420.968 78.2031 422.725C77.2342 424.481 76.7242 426.291 76.6729 428.153C76.6216 430.015 77.2238 431.841 78.4794 433.629Z" fill="#F4F3F2"/>
<path d="M108.266 474.107C109.465 470.885 110.651 467.676 111.824 464.482C113.026 461.314 114.213 458.132 115.387 454.938C115.655 454.195 116.048 453.175 116.565 451.879C117.137 450.581 117.81 449.116 118.585 447.484C119.389 445.878 120.259 444.256 121.197 442.618C119.798 444.248 118.462 445.78 117.19 447.215C115.945 448.622 114.723 449.946 113.525 451.189C112.953 451.809 112.368 452.443 111.77 453.091C111.172 453.739 110.56 454.374 109.933 454.996C109.362 455.616 108.777 456.25 108.179 456.898C107.607 457.518 107.022 458.152 106.424 458.801C105.722 459.561 105.018 460.268 104.311 460.921C103.633 461.599 103.097 462.096 102.702 462.41C103.234 462.795 103.838 463.3 104.514 463.924C105.245 464.545 105.752 464.986 106.034 465.245L103.031 468.5L93.3881 459.613L95.962 456.824C96.6364 457.393 97.2502 457.802 97.8031 458.051C98.3842 458.326 99.0215 458.314 99.715 458.014C100.437 457.741 101.318 457.041 102.358 455.913L117.547 439.958C118.278 439.223 118.982 438.516 119.66 437.838C120.338 437.159 120.86 436.65 121.226 436.309C120.749 435.922 120.159 435.43 119.457 434.835C118.78 434.211 118.274 433.77 117.938 433.513L120.94 430.258L130.287 438.872L121.581 461.116C121.237 461.998 120.817 463.019 120.321 464.178C119.851 465.31 119.38 466.414 118.908 467.491C118.462 468.54 118.089 469.369 117.788 469.978L117.83 470.017C119.106 469.368 120.329 468.722 121.497 468.078C122.665 467.434 123.821 466.831 124.965 466.269C128.769 464.352 132.545 462.435 136.295 460.52C140.072 458.631 143.849 456.742 147.627 454.853L157.396 463.857L154.823 466.646C154.176 466.103 153.549 465.681 152.939 465.38C152.33 465.079 151.664 465.065 150.943 465.339C150.275 465.61 149.423 466.336 148.385 467.518L134.083 484.292C133.437 485.105 132.761 485.837 132.055 486.49C131.349 487.142 130.798 487.626 130.404 487.94C130.935 488.326 131.539 488.83 132.216 489.454C132.947 490.075 133.453 490.516 133.735 490.776L130.732 494.031L118.975 483.195L121.549 480.405C122.223 480.974 122.851 481.397 123.432 481.671C124.042 481.972 124.693 481.973 125.387 481.674C126.108 481.4 126.961 480.674 127.945 479.495L135.874 470.222C136.186 469.883 136.69 469.28 137.388 468.411C138.112 467.513 138.9 466.545 139.754 465.507C140.661 464.467 141.504 463.497 142.282 462.597C142.015 462.716 141.749 462.836 141.482 462.955C141.242 463.046 141.002 463.164 140.764 463.31L112.199 477.732L108.266 474.107Z" fill="#F4F3F2"/>
<path d="M136.926 497.9L138.989 494.511C139.906 495.069 140.803 495.255 141.679 495.07C142.555 494.884 143.432 494.475 144.311 493.843C145.222 493.231 146.157 492.543 147.116 491.779L172.695 471.325L176.135 473.417L170.31 506.554C170.208 507.165 170.011 508.077 169.721 509.292C169.451 510.474 169.119 511.461 168.726 512.254C169.323 512.527 169.867 512.813 170.359 513.112C170.903 513.398 171.339 513.641 171.667 513.84L169.365 517.622L156.143 509.584L158.117 506.342C159.034 506.9 159.766 507.098 160.313 506.937C160.913 506.763 161.396 506.339 161.761 505.664C162.127 504.989 162.396 504.143 162.566 503.125L163.228 499.825L152.443 493.537L150.251 495.368C149.828 495.694 149.194 496.183 148.348 496.836C147.555 497.475 146.858 497.994 146.257 498.391C146.821 498.644 147.463 498.99 148.184 499.428C148.958 499.854 149.508 500.166 149.836 500.365L147.444 504.295L136.926 497.9ZM155.914 490.6L164.121 495.59L165.598 488.075C165.889 486.638 166.23 485.229 166.62 483.851C167.03 482.44 167.432 481.227 167.826 480.21L167.777 480.18C167.307 480.657 166.602 481.373 165.662 482.327C164.723 483.281 163.506 484.358 162.012 485.559L155.914 490.6Z" fill="#F4F3F2"/>
<path d="M175.927 521.031L177.294 517.491C178.13 517.773 178.852 517.928 179.457 517.956C180.099 517.998 180.687 517.752 181.222 517.219C181.792 516.7 182.354 515.724 182.906 514.294L190.839 493.749C191.212 492.784 191.589 491.861 191.97 490.98C192.386 490.114 192.702 489.455 192.918 489.004C192.331 488.819 191.602 488.579 190.73 488.283C189.871 487.952 189.238 487.729 188.83 487.612L190.425 483.482L205.829 489.423L204.462 492.964C203.661 492.696 202.939 492.541 202.298 492.499C201.656 492.457 201.05 492.696 200.48 493.215C199.959 493.713 199.415 494.695 198.849 496.161L195.618 504.529L210.377 510.222L213.38 502.444C213.753 501.478 214.13 500.555 214.511 499.675C214.892 498.795 215.208 498.136 215.459 497.699C214.873 497.514 214.143 497.273 213.271 496.978C212.412 496.647 211.779 496.423 211.372 496.307L212.967 492.177L228.37 498.118L227.003 501.658C226.202 501.391 225.481 501.236 224.839 501.194C224.198 501.152 223.592 501.39 223.021 501.91C222.5 502.407 221.957 503.389 221.39 504.855L213.458 525.4C213.085 526.366 212.708 527.289 212.327 528.169C211.946 529.049 211.63 529.708 211.379 530.145C211.979 530.295 212.708 530.535 213.567 530.866C214.475 531.175 215.108 531.399 215.466 531.537L213.871 535.668L198.468 529.726L199.835 526.186C200.672 526.467 201.393 526.622 201.999 526.651C202.64 526.693 203.228 526.447 203.763 525.914C204.334 525.394 204.895 524.419 205.448 522.989L208.803 514.299L193.982 508.767L190.916 516.706C190.543 517.671 190.166 518.594 189.785 519.474C189.404 520.355 189.088 521.013 188.837 521.451C189.437 521.6 190.167 521.84 191.026 522.172C191.934 522.481 192.567 522.704 192.925 522.842L191.33 526.973L175.927 521.031Z" fill="#F4F3F2"/>
<path d="M238.811 541.819L239.263 538.051C240.143 538.118 241.034 537.935 241.936 537.503C242.88 537.037 243.826 536.398 244.774 535.585C245.726 534.734 246.63 533.8 247.486 532.783L250.053 529.732C251.047 528.538 251.96 527.683 252.795 527.165C253.63 526.648 254.579 526.298 255.644 526.117C252.45 524.73 250.139 523.063 248.712 521.116C247.289 519.131 246.698 516.821 246.937 514.186C247.162 511.665 248.046 509.609 249.589 508.018C251.175 506.393 253.262 505.254 255.852 504.599C258.479 503.949 261.447 503.842 264.755 504.277L280.963 506.336L280.511 510.104C279.669 510.042 278.931 510.069 278.299 510.186C277.667 510.304 277.139 510.684 276.714 511.328C276.331 511.939 276.047 513.024 275.859 514.585L273.235 536.45C273.111 537.477 272.973 538.464 272.821 539.411C272.669 540.358 272.525 541.075 272.389 541.56L276.694 541.903L276.166 546.298L259.773 544.333L260.225 540.565C261.106 540.632 261.843 540.604 262.437 540.483C263.069 540.365 263.579 539.982 263.965 539.334C264.39 538.69 264.694 537.607 264.877 536.084L265.75 529.298L262.894 528.955C262.056 528.855 261.213 529.12 260.365 529.752C259.554 530.389 258.695 531.27 257.787 532.397L253.446 537.667C252.898 538.374 252.188 539.138 251.317 539.96C250.451 540.744 249.617 541.416 248.815 541.976C248.052 542.541 247.516 542.824 247.207 542.826L238.811 541.819ZM263.673 524.879C264.13 524.934 264.57 524.967 264.993 524.98C265.455 524.996 265.878 525.008 266.264 525.016L267.682 513.199C267.773 512.438 267.863 511.695 267.949 510.972C268.041 510.211 268.13 509.469 268.217 508.746C267.569 508.668 266.922 508.59 266.275 508.513C265.627 508.435 264.98 508.358 264.333 508.28C262.847 508.102 261.487 508.17 260.252 508.486C259.055 508.805 258.066 509.478 257.286 510.504C256.507 511.53 255.996 513.052 255.754 515.069C255.534 516.896 255.668 518.514 256.156 519.924C256.648 521.296 257.519 522.404 258.77 523.249C260.02 524.094 261.654 524.637 263.673 524.879Z" fill="#F4F3F2"/>
<path d="M286.571 546.548L286.358 542.76C287.237 542.672 287.958 542.516 288.521 542.292C289.123 542.067 289.558 541.601 289.825 540.895C290.131 540.186 290.241 539.067 290.155 537.536L288.918 515.549C288.86 514.516 288.823 513.519 288.808 512.56C288.83 511.599 288.847 510.869 288.857 510.369C288.247 510.442 287.483 510.523 286.566 510.613C285.647 510.665 284.978 510.722 284.559 510.784L284.31 506.363L300.795 505.437L301.008 509.226C300.168 509.311 299.447 509.467 298.845 509.693C298.243 509.919 297.789 510.386 297.483 511.094C297.213 511.762 297.123 512.88 297.211 514.449L297.702 523.175L301.837 522.943L305.837 515.174C306.423 513.989 307.048 512.802 307.711 511.613C308.374 510.424 308.942 509.605 309.417 509.156C308.806 509.229 308.157 509.304 307.47 509.381C306.783 509.458 306.23 509.527 305.811 509.589L305.562 505.169L319.634 504.378L319.848 508.167C319.007 508.253 318.097 508.457 317.116 508.781C316.174 509.103 315.209 509.695 314.22 510.556C313.231 511.418 312.249 512.74 311.274 514.523L306.258 523.673C307.051 524.128 307.752 524.626 308.358 525.168C309.001 525.669 309.571 526.232 310.067 526.857L316.451 534.849C317.277 535.877 318.119 536.847 318.977 537.759C319.871 538.63 320.775 539.328 321.688 539.853C322.601 540.377 323.48 540.635 324.324 540.626L324.537 544.415L315.692 544.912C315.383 544.891 314.866 544.574 314.14 543.962C313.415 543.351 312.643 542.607 311.825 541.731C311.008 540.856 310.311 540.07 309.734 539.373L303.582 531.426C303.044 530.726 302.446 530.011 301.791 529.28C301.173 528.547 300.586 528.004 300.028 527.652L297.96 527.768L298.448 536.436C298.506 537.47 298.543 538.466 298.559 539.425C298.574 540.384 298.557 541.114 298.509 541.616C299.117 541.505 299.881 541.424 300.8 541.372C301.755 541.28 302.424 541.223 302.807 541.202L303.056 545.622L286.571 546.548Z" fill="#F4F3F2"/>
<path d="M351.021 539.458C347.481 540.321 344.318 540.46 341.531 539.876C338.781 539.284 336.401 538.186 334.392 536.585C332.374 534.946 330.716 533.002 329.418 530.754C328.12 528.506 327.175 526.171 326.585 523.75C326.013 521.404 325.828 518.944 326.029 516.37C326.258 513.749 326.929 511.239 328.041 508.837C329.19 506.427 330.844 504.308 333.004 502.479C335.164 500.651 337.901 499.334 341.218 498.526C344.609 497.7 347.683 497.602 350.442 498.232C353.201 498.862 355.613 500.01 357.677 501.677C359.733 503.307 361.424 505.223 362.75 507.425C364.114 509.618 365.082 511.887 365.654 514.234C366.217 516.543 366.379 518.989 366.141 521.572C365.939 524.146 365.269 526.657 364.129 529.105C363.017 531.506 361.385 533.639 359.235 535.505C357.075 537.333 354.337 538.651 351.021 539.458ZM350.642 535.231C352.579 534.759 354.087 533.898 355.164 532.649C356.232 531.364 356.971 529.862 357.381 528.144C357.791 526.427 357.946 524.633 357.845 522.764C357.736 520.857 357.472 519.048 357.054 517.334C356.428 514.765 355.632 512.473 354.667 510.459C353.703 508.445 352.568 506.788 351.264 505.488C349.951 504.151 348.468 503.25 346.815 502.784C345.191 502.273 343.414 502.272 341.486 502.781C339.594 503.281 338.119 504.193 337.06 505.516C335.992 506.802 335.258 508.322 334.857 510.077C334.446 511.794 334.296 513.606 334.406 515.513C334.515 517.42 334.779 519.229 335.197 520.943C335.624 522.693 336.264 524.51 337.118 526.393C338.009 528.267 339.097 529.974 340.38 531.516C341.664 533.058 343.164 534.191 344.881 534.918C346.598 535.644 348.518 535.748 350.642 535.231Z" fill="#F4F3F2"/>
<path d="M379.859 530.197L378.324 526.726C379.115 526.334 379.735 525.935 380.183 525.527C380.667 525.104 380.909 524.514 380.911 523.759C380.947 522.989 380.655 521.902 380.035 520.5L371.123 500.36C370.705 499.413 370.319 498.494 369.966 497.602C369.649 496.695 369.406 496.005 369.24 495.534C368.694 495.817 368.008 496.162 367.182 496.569C366.34 496.942 365.734 497.23 365.364 497.436L363.572 493.387C365.977 492.282 368.389 491.195 370.809 490.125C373.265 489.04 375.695 487.945 378.099 486.84C382.293 484.945 385.974 484.261 389.143 484.788C392.331 485.265 394.551 487.155 395.803 490.457C396.183 491.505 396.309 492.644 396.182 493.873C396.04 495.068 395.578 496.299 394.797 497.566C394.051 498.818 392.954 500.036 391.507 501.221L391.531 501.273C395.286 500.284 398.384 500.319 400.824 501.378C403.248 502.402 404.941 504.001 405.902 506.174C406.911 508.453 407.203 510.629 406.778 512.703C406.373 514.726 405.385 516.567 403.812 518.226C402.224 519.85 400.203 521.205 397.748 522.29L379.859 530.197ZM389.361 521.533C389.993 521.254 390.589 520.99 391.15 520.742C391.711 520.494 392.272 520.246 392.834 519.998C393.379 519.715 393.915 519.457 394.441 519.225C396.534 518.174 397.793 516.8 398.216 515.104C398.64 513.408 398.425 511.596 397.572 509.668C396.859 508.055 395.967 506.94 394.897 506.323C393.812 505.671 392.658 505.385 391.435 505.465C390.247 505.529 389.092 505.809 387.97 506.305C387.093 506.692 386.339 507.026 385.708 507.305C385.076 507.584 384.418 507.896 383.732 508.241L387.524 516.812C387.943 517.759 388.321 518.661 388.658 519.518C388.995 520.375 389.23 521.046 389.361 521.533ZM382.08 504.508L384.792 503.246C386.25 502.559 387.26 501.715 387.823 500.712C388.42 499.693 388.662 498.58 388.547 497.374C388.452 496.116 388.125 494.857 387.567 493.595C386.947 492.192 386.185 491.23 385.283 490.706C384.365 490.148 383.407 489.88 382.41 489.901C381.413 489.923 380.467 490.153 379.57 490.591C379.009 490.839 378.539 491.151 378.161 491.528C377.782 491.905 377.592 492.471 377.591 493.226C377.574 493.946 377.868 494.99 378.473 496.357L382.08 504.508Z" fill="#F4F3F2"/>
<path d="M427.039 490.156C426.17 488.8 425.339 487.967 424.547 487.655C423.734 487.31 422.904 487.295 422.058 487.61C421.244 487.904 420.412 488.346 419.56 488.936L418.332 489.792L423.423 497.731C423.982 498.602 424.493 499.435 424.958 500.23C425.422 501.026 425.757 501.654 425.961 502.115L432.451 497.957C433.42 497.337 434.222 496.527 434.857 495.528C435.471 494.497 435.748 493.296 435.688 491.923C435.607 490.518 435.008 488.944 433.89 487.201L437.038 485.184L443.626 495.99L418.052 512.371L416.004 509.176C416.726 508.668 417.277 508.179 417.658 507.707C418.071 507.215 418.22 506.595 418.106 505.849C418.024 505.082 417.569 504.053 416.742 502.762L404.852 484.221C404.294 483.35 403.772 482.501 403.287 481.673C402.834 480.825 402.489 480.181 402.252 479.74C401.756 480.104 401.131 480.55 400.377 481.078C399.602 481.575 399.047 481.953 398.713 482.213L396.323 478.485L420.54 462.972L426.853 472.177L423.656 474.225C422.518 472.45 421.352 471.307 420.159 470.797C418.966 470.286 417.825 470.175 416.734 470.464C415.623 470.72 414.642 471.144 413.791 471.734L412.078 472.9C411.4 473.334 410.881 473.803 410.521 474.307C410.14 474.779 410.017 475.404 410.152 476.183C410.266 476.929 410.727 477.931 411.534 479.19L416.19 486.451L421.857 482.821L418.963 478.734L422.692 476.345L430.235 488.108L427.039 490.156Z" fill="#F4F3F2"/>
<path d="M451.397 490.511L448.815 487.728C449.436 487.101 449.892 486.521 450.183 485.99C450.503 485.432 450.54 484.796 450.296 484.082C450.08 483.341 449.45 482.409 448.407 481.284L433.426 465.136C432.722 464.377 432.058 463.634 431.434 462.905C430.839 462.15 430.385 461.577 430.074 461.185C429.65 461.63 429.114 462.18 428.465 462.833C427.79 463.459 427.311 463.929 427.028 464.244L424.016 460.997L436.123 449.777L438.704 452.56C438.112 453.162 437.656 453.741 437.336 454.299C437.017 454.856 436.965 455.505 437.181 456.246C437.4 456.932 438.043 457.851 439.112 459.004L445.214 465.581L456.815 454.83L451.143 448.717C450.439 447.958 449.775 447.214 449.151 446.485C448.528 445.756 448.074 445.183 447.792 444.766C447.368 445.211 446.831 445.76 446.183 446.414C445.508 447.039 445.028 447.509 444.745 447.824L441.733 444.578L453.84 433.358L456.422 436.14C455.829 436.742 455.373 437.321 455.053 437.879C454.734 438.436 454.682 439.085 454.898 439.826C455.117 440.512 455.761 441.432 456.83 442.584L471.811 458.732C472.515 459.491 473.179 460.235 473.803 460.964C474.426 461.692 474.88 462.266 475.162 462.683C475.56 462.21 476.097 461.661 476.772 461.035C477.449 460.355 477.928 459.885 478.209 459.625L481.221 462.871L469.114 474.091L466.532 471.308C467.153 470.681 467.609 470.101 467.901 469.57C468.22 469.012 468.258 468.376 468.013 467.662C467.797 466.921 467.167 465.989 466.124 464.865L459.788 458.034L448.304 468.912L454.093 475.152C454.798 475.911 455.461 476.655 456.085 477.383C456.709 478.112 457.162 478.685 457.445 479.103C457.843 478.63 458.379 478.08 459.054 477.455C459.731 476.775 460.21 476.305 460.492 476.044L463.503 479.291L451.397 490.511Z" fill="#F4F3F2"/>
<path d="M488.256 454.674L485.206 452.414C485.701 451.683 486.042 451.03 486.231 450.453C486.442 449.847 486.362 449.215 485.99 448.557C485.641 447.869 484.85 447.069 483.618 446.156L465.918 433.041C465.086 432.425 464.296 431.816 463.549 431.214C462.824 430.582 462.273 430.102 461.896 429.775C461.561 430.29 461.135 430.929 460.618 431.691C460.07 432.43 459.685 432.98 459.465 433.342L455.906 430.705L465.739 417.448L468.789 419.708C468.317 420.409 467.976 421.062 467.764 421.669C467.553 422.276 467.622 422.923 467.971 423.611C468.312 424.246 469.114 425.031 470.377 425.967L477.402 431.172L479.868 427.846L476.452 419.804C475.916 418.595 475.403 417.356 474.913 416.086C474.423 414.816 474.156 413.856 474.114 413.204C473.78 413.72 473.422 414.266 473.042 414.843C472.662 415.42 472.361 415.89 472.141 416.251L468.582 413.615L476.976 402.298L480.026 404.558C479.554 405.258 479.13 406.089 478.751 407.049C478.396 407.979 478.234 409.099 478.264 410.41C478.294 411.72 478.683 413.321 479.43 415.21L483.258 424.918C484.115 424.598 484.946 424.379 485.751 424.26C486.548 424.087 487.345 424.009 488.143 424.028L498.373 424.235C499.692 424.259 500.977 424.232 502.227 424.156C503.469 424.027 504.583 423.779 505.571 423.413C506.558 423.047 507.319 422.537 507.852 421.882L510.902 424.142L505.626 431.256C505.413 431.479 504.838 431.674 503.903 431.84C502.969 432.006 501.903 432.124 500.707 432.192C499.511 432.26 498.46 432.292 497.555 432.29L487.508 431.932C486.626 431.898 485.694 431.9 484.712 431.936C483.753 431.941 482.96 432.045 482.332 432.248L481.099 433.911L488.077 439.081C488.909 439.698 489.699 440.307 490.446 440.908C491.194 441.51 491.745 441.99 492.1 442.348C492.403 441.81 492.829 441.171 493.378 440.432C493.918 439.639 494.302 439.089 494.53 438.781L498.089 441.418L488.256 454.674Z" fill="#F4F3F2"/>
<path d="M524.018 400.888C522.404 404.152 520.477 406.664 518.238 408.422C516.016 410.147 513.645 411.263 511.126 411.772C508.573 412.263 506.017 412.283 503.46 411.832C500.902 411.38 498.506 410.602 496.271 409.498C494.105 408.428 492.1 406.988 490.257 405.18C488.396 403.319 486.903 401.192 485.778 398.797C484.669 396.367 484.108 393.739 484.096 390.91C484.083 388.082 484.833 385.138 486.346 382.08C487.892 378.953 489.794 376.536 492.05 374.829C494.307 373.121 496.737 372.013 499.342 371.505C501.912 370.979 504.468 370.916 507.008 371.316C509.565 371.681 511.927 372.399 514.093 373.47C516.224 374.523 518.203 375.971 520.03 377.814C521.873 379.623 523.366 381.751 524.509 384.197C525.635 386.592 526.221 389.212 526.268 392.058C526.281 394.886 525.531 397.83 524.018 400.888ZM520.534 398.461C521.418 396.674 521.728 394.967 521.463 393.339C521.164 391.695 520.488 390.164 519.436 388.746C518.383 387.328 517.108 386.056 515.611 384.931C514.079 383.79 512.523 382.828 510.941 382.047C508.569 380.874 506.301 380.01 504.137 379.454C501.974 378.898 499.975 378.702 498.14 378.864C496.271 379.01 494.627 379.566 493.208 380.532C491.771 381.447 490.628 382.807 489.779 384.61C488.946 386.38 488.697 388.095 489.03 389.757C489.329 391.401 490.022 392.941 491.109 394.376C492.162 395.794 493.454 397.074 494.985 398.215C496.517 399.357 498.074 400.319 499.655 401.1C501.271 401.899 503.075 402.576 505.067 403.133C507.076 403.655 509.084 403.921 511.091 403.929C513.098 403.937 514.931 403.517 516.591 402.67C518.251 401.822 519.565 400.419 520.534 398.461Z" fill="#F4F3F2"/>
<path d="M72.1229 256.29L68.2761 255.312C68.541 254.271 68.4565 253.36 68.0227 252.577C67.5889 251.794 66.9408 251.076 66.0785 250.421C65.2257 249.73 64.2938 249.038 63.2829 248.345L36.2237 229.892L37.2171 225.991L70.6237 221.852C71.238 221.771 72.1685 221.692 73.4153 221.613C74.6249 221.526 75.6665 221.553 76.5403 221.696C76.6268 221.046 76.741 220.442 76.8829 219.885C76.9971 219.281 77.1015 218.794 77.1961 218.422L81.4889 219.514L77.6715 234.503L73.992 233.567C74.2569 232.527 74.2323 231.769 73.918 231.294C73.5761 230.772 73.0287 230.435 72.2759 230.283C71.5231 230.131 70.6348 230.122 69.6111 230.257L66.261 230.592L63.4045 242.74L65.7977 244.298C66.2336 244.607 66.8874 245.07 67.7591 245.687C68.6032 246.258 69.3033 246.772 69.8594 247.23C69.9364 246.617 70.079 245.901 70.2872 245.084C70.4676 244.22 70.6051 243.603 70.6997 243.231L75.1597 244.366L72.1229 256.29ZM59.578 240.283L61.9479 230.978L54.3263 231.768C52.8653 231.91 51.4185 231.997 49.9859 232.028C48.5161 232.05 47.2373 232.021 46.1493 231.942L46.1351 231.998C46.7291 232.307 47.6201 232.771 48.8081 233.39C49.9961 234.008 51.3831 234.856 52.9691 235.932L59.578 240.283Z" fill="#F4F3F2"/>
<path d="M91.8144 221.805L78.6022 215.842L79.4782 213.903C79.9202 212.925 80.0431 211.908 79.8469 210.852C79.6507 209.796 79.1529 208.709 78.3535 207.591C77.5192 206.457 76.3832 205.293 74.9456 204.097C73.5238 202.866 71.8179 201.613 69.8278 200.336C67.8028 199.043 65.5111 197.735 62.9528 196.412C60.3595 195.074 57.4995 193.72 54.3729 192.35L53.8334 193.684L52.0677 197.871L48.0307 196.049L61.3138 166.651L64.7742 168.213C64.4619 168.998 64.2589 169.726 64.1653 170.399C64.0875 171.037 64.2922 171.655 64.7793 172.253C65.2472 172.801 66.1977 173.398 67.6308 174.045L87.7113 183.109C88.655 183.535 89.5559 183.963 90.4139 184.392C91.272 184.821 91.9124 185.174 92.3352 185.448L94.6353 179.799L108.057 185.857L106.352 189.63C103.607 188.349 101.25 187.559 99.2813 187.259C97.3476 186.975 96.0729 187.514 95.4573 188.877L85.7495 210.361C85.1338 211.724 85.5719 213.036 87.0636 214.298C88.5903 215.576 90.7421 216.821 93.5192 218.032L91.8144 221.805ZM82.509 207.195L86.913 197.449C87.2062 196.614 87.4407 195.815 87.6166 195.053C87.7575 194.276 87.616 193.518 87.1921 192.78C86.7681 192.042 85.8571 191.357 84.459 190.726L60.1317 179.745L57.9685 184.952C57.4826 186.12 57.3152 187.096 57.4662 187.879C57.5824 188.647 58.2521 189.307 59.4755 189.859C62.7802 191.393 65.6994 192.941 68.2329 194.506C70.7822 196.035 72.9871 197.535 74.8475 199.005C76.7079 200.476 78.2746 201.898 79.5475 203.272C80.7856 204.63 81.7727 205.938 82.509 207.195Z" fill="#F4F3F2"/>
<path d="M99.5686 180.676L96.4259 178.546C96.8891 177.795 97.2028 177.128 97.3669 176.544C97.5525 175.929 97.4457 175.301 97.0465 174.66C96.6688 173.987 95.845 173.221 94.5752 172.36L76.338 160.003C75.4809 159.422 74.6663 158.847 73.8942 158.277C73.1436 157.676 72.5727 157.22 72.1816 156.909C71.869 157.438 71.4703 158.094 70.9855 158.877C70.469 159.638 70.1083 160.204 69.9033 160.575L66.2368 158.09C67.69 155.88 69.1591 153.68 70.6441 151.49C72.1506 149.269 73.6304 147.054 75.0836 144.843C77.6345 141.014 80.3932 138.484 83.36 137.252C86.3165 135.967 89.2012 136.394 92.0141 138.531C92.8916 139.219 93.6027 140.117 94.1472 141.227C94.6599 142.316 94.9212 143.604 94.9309 145.093C94.9621 146.549 94.6783 148.163 94.0795 149.934L94.1271 149.966C96.7871 147.138 99.4324 145.526 102.063 145.132C104.662 144.716 106.945 145.175 108.913 146.509C110.977 147.907 112.378 149.598 113.118 151.581C113.848 153.511 113.986 155.596 113.532 157.836C113.047 160.054 112.051 162.274 110.544 164.495L99.5686 180.676ZM103.032 168.296C103.419 167.724 103.785 167.185 104.129 166.677C104.473 166.17 104.818 165.662 105.162 165.154C105.475 164.625 105.792 164.123 106.115 163.647C107.333 161.647 107.672 159.816 107.131 158.153C106.591 156.49 105.448 155.067 103.702 153.884C102.242 152.895 100.895 152.422 99.6603 152.465C98.3943 152.487 97.2639 152.856 96.2691 153.571C95.2958 154.255 94.4648 155.104 93.7761 156.119C93.2381 156.913 92.7753 157.595 92.388 158.166C92.0006 158.737 91.6075 159.351 91.2089 160.007L98.9704 165.266C99.8275 165.847 100.626 166.411 101.367 166.959C102.107 167.507 102.662 167.952 103.032 168.296ZM87.8281 157.716L89.4591 155.209C90.3313 153.855 90.7399 152.603 90.685 151.455C90.6516 150.274 90.2664 149.203 89.5293 148.24C88.7819 147.224 87.8368 146.329 86.694 145.555C85.4242 144.695 84.268 144.282 83.2253 144.316C82.1508 144.329 81.1966 144.609 80.3626 145.155C79.5287 145.701 78.8478 146.398 78.32 147.244C77.9756 147.752 77.743 148.266 77.6219 148.786C77.5008 149.306 77.6399 149.886 78.0392 150.527C78.4067 151.147 79.2094 151.876 80.4475 152.715L87.8281 157.716Z" fill="#F4F3F2"/>
<path d="M133.191 138.535C130.66 141.154 128.06 142.961 125.392 143.956C122.751 144.923 120.153 145.266 117.599 144.985C115.017 144.678 112.576 143.92 110.277 142.713C107.977 141.506 105.931 140.037 104.138 138.306C102.401 136.628 100.929 134.647 99.7228 132.364C98.5161 130.026 97.7408 127.546 97.3969 124.922C97.0798 122.271 97.3454 119.596 98.1937 116.897C99.042 114.199 100.652 111.623 103.023 109.169C105.448 106.66 107.995 104.935 110.664 103.995C113.333 103.054 115.985 102.737 118.621 103.044C121.23 103.324 123.684 104.04 125.982 105.193C128.307 106.319 130.338 107.721 132.076 109.398C133.786 111.049 135.231 113.031 136.41 115.342C137.616 117.625 138.391 120.106 138.736 122.783C139.08 125.407 138.842 128.081 138.021 130.806C137.172 133.505 135.563 136.081 133.191 138.535ZM130.61 135.164C131.996 133.73 132.81 132.198 133.053 130.567C133.269 128.91 133.09 127.246 132.519 125.575C131.948 123.904 131.12 122.305 130.036 120.779C128.924 119.226 127.733 117.837 126.465 116.612C124.561 114.774 122.664 113.262 120.771 112.074C118.879 110.887 117.035 110.092 115.238 109.69C113.413 109.26 111.678 109.29 110.032 109.78C108.385 110.215 106.882 111.163 105.524 112.623C104.193 114.056 103.433 115.614 103.246 117.298C103.03 118.955 103.222 120.633 103.821 122.33C104.392 124.001 105.234 125.613 106.346 127.166C107.458 128.719 108.648 130.108 109.917 131.333C111.213 132.585 112.726 133.779 114.454 134.915C116.209 136.023 118.041 136.886 119.951 137.503C121.86 138.121 123.734 138.278 125.573 137.975C127.413 137.672 129.092 136.735 130.61 135.164Z" fill="#F4F3F2"/>
<path d="M147.959 122.487L145.75 119.401C146.445 118.857 146.971 118.339 147.327 117.849C147.714 117.336 147.832 116.71 147.68 115.971C147.559 115.209 147.053 114.204 146.16 112.957L133.342 95.0458C132.739 94.204 132.175 93.3823 131.648 92.5805C131.153 91.7565 130.775 91.1307 130.517 90.7031C130.04 91.0911 129.438 91.5683 128.712 92.1347C127.963 92.6699 127.428 93.0757 127.108 93.3522L124.531 89.7512L137.959 80.1507L140.168 83.2373C139.504 83.7591 138.979 84.2763 138.591 84.789C138.204 85.3017 138.07 85.939 138.191 86.7009C138.321 87.4094 138.843 88.4027 139.758 89.681L144.845 96.7894L148.214 94.3809L147.433 85.6788C147.294 84.3644 147.186 83.0276 147.109 81.6686C147.032 80.3096 147.074 79.3136 147.234 78.6808C146.757 79.0688 146.249 79.4791 145.71 79.9117C145.171 80.3442 144.741 80.6988 144.42 80.9753L141.843 77.3743L153.307 69.1787L155.516 72.2653C154.852 72.7871 154.192 73.447 153.537 74.2451C152.914 75.0208 152.415 76.0371 152.041 77.294C151.668 78.5508 151.546 80.193 151.677 82.2204L152.339 92.6336C153.253 92.5929 154.111 92.6391 154.914 92.7723C155.725 92.852 156.508 93.023 157.262 93.2854L166.934 96.621C168.183 97.0479 169.413 97.417 170.626 97.7281C171.848 97.9857 172.985 98.0919 174.037 98.0466C175.089 98.0014 175.97 97.749 176.678 97.2896L178.887 100.376L171.681 105.528C171.409 105.675 170.803 105.684 169.862 105.556C168.922 105.427 167.871 105.212 166.712 104.909C165.553 104.607 164.543 104.316 163.682 104.036L154.23 100.613C153.401 100.311 152.514 100.026 151.568 99.7593C150.654 99.4703 149.867 99.326 149.207 99.3264L147.523 100.531L152.576 107.592C153.179 108.434 153.743 109.256 154.27 110.058C154.797 110.859 155.174 111.485 155.402 111.935C155.856 111.516 156.458 111.039 157.206 110.503C157.964 109.915 158.498 109.509 158.81 109.286L161.387 112.887L147.959 122.487Z" fill="#F4F3F2"/>
<path d="M176.817 101.731L175.08 98.1632C176.046 97.6935 176.688 97.0404 177.005 96.2038C177.323 95.3671 177.453 94.4085 177.396 93.3278C177.374 92.2304 177.301 91.0724 177.176 89.8539L173.796 57.2876L177.417 55.5264L202.154 78.3444C202.613 78.7607 203.275 79.4193 204.14 80.3201C204.988 81.1863 205.64 81.9991 206.095 82.7583C206.647 82.4042 207.182 82.1014 207.7 81.8498C208.235 81.5469 208.675 81.3116 209.019 81.1439L210.958 85.1249L197.043 91.893L195.382 88.4807C196.347 88.011 196.91 87.5028 197.07 86.9559C197.248 86.3578 197.152 85.7224 196.782 85.0499C196.412 84.3773 195.845 83.694 195.08 83.0001L192.661 80.6597L181.537 86.3263L181.892 89.1588C181.938 89.6907 182.007 90.4886 182.098 91.5525C182.207 92.5652 182.267 93.4316 182.276 94.1517C182.794 93.8144 183.433 93.4612 184.191 93.0922C184.968 92.6719 185.528 92.378 185.873 92.2102L187.887 96.3463L176.817 101.731ZM180.942 81.8197L189.581 77.6179L184.054 72.3127C183.002 71.2899 182.001 70.242 181.052 69.1689C180.086 68.0613 179.282 67.0669 178.64 66.1857L178.588 66.2109C178.736 66.8639 178.957 67.8435 179.251 69.1495C179.546 70.4556 179.795 72.0612 179.997 73.9663L180.942 81.8197Z" fill="#F4F3F2"/>
<path d="M231.828 50.6871C231.236 48.7035 230.473 47.1511 229.538 46.0298C228.592 44.8717 227.511 44.1339 226.296 43.8162C225.106 43.4508 223.818 43.4947 222.433 43.9477L219.787 44.7366L227.499 70.5782C227.794 71.57 228.061 72.5305 228.298 73.4598C228.536 74.3891 228.689 75.1034 228.758 75.6029C229.361 75.3432 230.14 75.0709 231.096 74.786C232.077 74.4534 232.751 74.2324 233.119 74.1228L234.385 78.3655L218.288 83.1644L217.202 79.5278C218.037 79.2391 218.702 78.9207 219.198 78.5727C219.732 78.2137 220.047 77.6598 220.143 76.911C220.277 76.1512 220.124 75.0366 219.686 73.5673L211.81 47.1747L209.274 47.9307C207.19 48.5919 205.75 49.8012 204.953 51.5587C204.157 53.3161 204.203 55.6825 205.091 58.6578L201.452 59.7425L198.012 47.2079L231.42 37.2486L235.467 49.6024L231.828 50.6871Z" fill="#F4F3F2"/>
<path d="M258.028 73.2135L257.776 69.427C258.654 69.3302 259.373 69.1671 259.935 68.9377C260.534 68.7058 260.964 68.2354 261.224 67.5266C261.523 66.8152 261.621 65.6946 261.519 64.1647L260.056 42.1915C259.988 41.1588 259.941 40.1631 259.915 39.2044C259.928 38.2431 259.937 37.5126 259.942 37.0128C259.332 37.0918 258.57 37.1809 257.654 37.2803C256.735 37.3413 256.067 37.405 255.649 37.4713L255.354 33.0537C257.992 32.8398 260.632 32.645 263.272 32.4694C265.951 32.2912 268.609 32.0952 271.247 31.8814C275.836 31.5377 279.529 32.1564 282.325 33.7376C285.157 35.2781 286.594 37.814 286.637 41.3455C286.634 42.4598 286.362 43.5728 285.821 44.6844C285.278 45.7578 284.422 46.756 283.253 47.6789C282.123 48.5992 280.675 49.3678 278.91 49.9846L278.913 50.042C282.781 50.3994 285.679 51.4937 287.607 53.3246C289.533 55.1174 290.575 57.1994 290.733 59.5708C290.899 62.0569 290.426 64.2012 289.316 66.0038C288.242 67.7656 286.682 69.1563 284.636 70.176C282.587 71.1574 280.223 71.7373 277.545 71.9154L258.028 73.2135ZM269.926 68.3308C270.615 68.285 271.266 68.2417 271.878 68.201C272.49 68.1602 273.102 68.1195 273.715 68.0788C274.324 67.9998 274.916 67.9412 275.49 67.9031C277.817 67.633 279.47 66.774 280.45 65.3258C281.43 63.8776 281.85 62.1017 281.71 59.9981C281.592 58.2387 281.137 56.886 280.344 55.9399C279.548 54.9556 278.562 54.2912 277.386 53.9469C276.248 53.6 275.067 53.4672 273.843 53.5487C272.886 53.6123 272.063 53.667 271.374 53.7129C270.686 53.7587 269.96 53.8262 269.197 53.9153L269.82 63.2668C269.888 64.2995 269.934 65.2761 269.957 66.1966C269.98 67.1171 269.97 67.8285 269.926 68.3308ZM268.926 49.842L271.907 49.5861C273.512 49.4409 274.75 48.9936 275.623 48.244C276.534 47.4919 277.142 46.5294 277.448 45.3566C277.79 44.1429 277.916 42.8476 277.824 41.4707C277.722 39.9408 277.337 38.7755 276.669 37.9748C275.998 37.1358 275.19 36.5556 274.247 36.2342C273.303 35.9128 272.335 35.8044 271.342 35.9088C270.73 35.9495 270.181 36.082 269.697 36.3064C269.212 36.5307 268.839 36.9973 268.579 37.7061C268.316 38.3767 268.234 39.4578 268.334 40.9494L268.926 49.842Z" fill="#F4F3F2"/>
<path d="M340.988 49.5986C341.006 46.3783 340.33 43.8416 338.96 41.9885C337.627 40.1416 335.639 38.9844 332.996 38.5169C331.027 38.1978 329.231 38.3726 327.607 39.0414C325.983 39.7101 324.556 40.7215 323.326 42.0754C322.134 43.4355 321.136 45.0405 320.33 46.8904C319.563 48.7465 319.013 50.6961 318.682 52.7394C318.154 55.9934 318.138 58.9616 318.636 61.644C319.177 64.2947 320.22 66.4832 321.766 68.2095C323.312 69.9358 325.353 71.0045 327.89 71.4157C330.275 71.8024 332.739 71.5805 335.283 70.7502C337.833 69.8821 340.081 68.4796 342.027 66.5428L344.347 69.4819C342.081 71.7163 339.818 73.33 337.559 74.3229C335.306 75.278 333.158 75.823 331.116 75.9579C329.111 76.099 327.333 76.0437 325.781 75.792C322.866 75.3195 320.299 74.3791 318.08 72.9708C315.866 71.5247 314.037 69.7524 312.59 67.6539C311.187 65.5237 310.209 63.1711 309.656 60.596C309.146 57.9893 309.122 55.267 309.582 52.4292C310 49.8562 310.831 47.3697 312.075 44.9696C313.319 42.5695 314.921 40.4798 316.881 38.7005C318.884 36.8894 321.233 35.581 323.928 34.7753C326.63 33.9317 329.627 33.7769 332.921 34.3108C334.397 34.5501 335.966 35.0569 337.628 35.8311C339.333 36.5736 340.888 37.5247 342.293 38.6845L342.453 36.2639L346.825 36.9727L344.679 50.1969L340.988 49.5986Z" fill="#F4F3F2"/>
<path d="M341.007 77.2514L342.277 73.4926C343.295 73.8361 344.21 73.8215 345.024 73.4489C345.838 73.0764 346.605 72.4854 347.324 71.6761C348.079 70.879 348.84 70.0032 349.608 69.0486L370.084 43.4918L373.899 44.7796L375.477 78.3873C375.511 79.0057 375.519 79.9391 375.502 81.1876C375.497 82.3997 375.39 83.4357 375.181 84.2955C375.823 84.4314 376.416 84.5913 376.961 84.7753C377.555 84.9352 378.034 85.0765 378.397 85.1992L376.98 89.3938L362.318 84.4448L363.533 80.8495C364.55 81.1929 365.308 81.2262 365.807 80.9493C366.354 80.6485 366.732 80.1287 366.941 79.3901C367.15 78.6515 367.226 77.7669 367.169 76.7363L367.092 73.3722L355.191 69.5979L353.454 71.8639C353.112 72.2747 352.601 72.8909 351.918 73.7125C351.284 74.51 350.718 75.1684 350.219 75.6877C350.824 75.8113 351.527 76.008 352.326 76.2778C353.174 76.5236 353.78 76.7078 354.143 76.8305L352.671 81.1885L341.007 77.2514ZM357.934 65.9722L367.036 69.0446L366.83 61.3888C366.799 59.922 366.823 58.4735 366.901 57.0435C366.992 55.5771 367.118 54.3048 367.28 53.2266L367.226 53.2082C366.872 53.7765 366.341 54.629 365.633 55.7657C364.925 56.9024 363.974 58.2199 362.779 59.7183L357.934 65.9722Z" fill="#F4F3F2"/>
<path d="M378.686 86.3859C379.483 86.7654 380.181 87.0053 380.779 87.1056C381.41 87.2239 382.024 87.0502 382.618 86.5845C383.247 86.1368 383.921 85.2358 384.64 83.8815L394.971 64.4303C395.456 63.5162 395.941 62.6448 396.424 61.8164C396.941 61.0059 397.334 60.3895 397.601 59.9674C397.041 59.7136 396.346 59.3881 395.515 58.9906C394.702 58.5592 394.1 58.2617 393.71 58.0978L395.786 54.1873C398.21 55.4294 400.624 56.6885 403.029 57.9646C405.434 59.2406 407.848 60.4997 410.271 61.7419C413.27 63.2896 415.655 65.0539 417.425 67.0347C419.23 69.0334 420.275 71.1938 420.561 73.5157C420.882 75.8556 420.289 78.3619 418.783 81.0345C418.03 82.3709 416.997 83.5375 415.686 84.5344C414.393 85.4975 412.866 86.2063 411.105 86.6607C409.362 87.0813 407.413 87.1538 405.258 86.8785C403.103 86.6031 400.805 85.8612 398.364 84.6529C397.601 84.2914 396.931 83.9578 396.355 83.6523C395.813 83.3647 395.263 83.0513 394.705 82.7119L392.332 87.1811C391.828 88.1291 391.335 89.0173 390.851 89.8458C390.368 90.6743 389.975 91.2906 389.674 91.6948C390.065 91.8587 390.548 92.0934 391.124 92.3989C391.718 92.6706 392.285 92.9502 392.827 93.2377C393.421 93.5094 393.837 93.7082 394.074 93.834L391.997 97.7445L376.906 89.7378L378.686 86.3859ZM396.728 78.9029C397.083 79.1344 397.438 79.366 397.792 79.5976C398.147 79.8291 398.527 80.0527 398.934 80.2684C400.797 81.2569 402.466 81.7519 403.942 81.7535C405.469 81.7393 406.818 81.2834 407.99 80.386C409.179 79.4546 410.232 78.1256 411.149 76.3989C412.048 74.706 412.531 73.2259 412.596 71.9585C412.695 70.7092 412.515 69.6588 412.055 68.8073C411.613 67.9221 411.039 67.205 410.332 66.6562C409.642 66.0736 408.976 65.6115 408.332 65.27C407.621 64.8926 406.966 64.6537 406.368 64.5534C405.77 64.4531 405.183 64.6189 404.606 65.0507C404.03 65.4825 403.426 66.2909 402.797 67.4759L396.728 78.9029Z" fill="#F4F3F2"/>
<path d="M404.677 104.241L407.071 101.076C407.927 101.723 408.801 101.999 409.691 101.903C410.581 101.806 411.495 101.488 412.433 100.947C413.401 100.43 414.401 99.8393 415.431 99.1763L442.941 81.4004L446.153 83.8278L437.019 116.21C436.856 116.808 436.569 117.696 436.158 118.875C435.77 120.023 435.34 120.972 434.869 121.722C435.436 122.054 435.948 122.393 436.407 122.74C436.92 123.079 437.329 123.364 437.635 123.595L434.964 127.127L422.619 117.799L424.909 114.772C425.766 115.419 426.474 115.69 427.035 115.585C427.649 115.473 428.172 115.099 428.604 114.464C429.036 113.83 429.388 113.014 429.66 112.019L430.651 108.803L420.554 101.462L418.189 103.062C417.735 103.344 417.055 103.767 416.148 104.331C415.294 104.887 414.548 105.333 413.91 105.668C414.446 105.976 415.051 106.385 415.724 106.894C416.45 107.395 416.967 107.761 417.273 107.992L414.497 111.661L404.677 104.241ZM424.303 98.8886L431.967 104.679L434.193 97.3513C434.628 95.95 435.108 94.5834 435.635 93.2514C436.185 91.8889 436.707 90.7218 437.202 89.7501L437.156 89.7154C436.641 90.1427 435.867 90.7837 434.836 91.6384C433.805 92.493 432.486 93.4424 430.879 94.4865L424.303 98.8886Z" fill="#F4F3F2"/>
<path d="M475.132 130.192C476.634 128.767 477.675 127.385 478.253 126.044C478.858 124.677 479.028 123.38 478.762 122.153C478.55 120.927 477.929 119.799 476.898 118.769L474.998 116.767L455.423 135.325C454.672 136.038 453.935 136.71 453.213 137.341C452.491 137.973 451.923 138.433 451.508 138.72C452.013 139.14 452.608 139.711 453.294 140.435C454.035 141.159 454.537 141.66 454.801 141.938L451.587 144.985L440.027 132.805L442.781 130.193C443.416 130.806 444.001 131.255 444.536 131.541C445.098 131.854 445.734 131.884 446.446 131.632C447.185 131.407 448.11 130.767 449.223 129.712L469.215 110.757L467.394 108.839C465.862 107.28 464.132 106.543 462.203 106.627C460.275 106.712 458.184 107.823 455.93 109.96L453.317 107.207L462.947 98.4721L486.94 123.752L477.745 132.945L475.132 130.192Z" fill="#F4F3F2"/>
<path d="M468.832 169.162C466.81 166.132 465.597 163.209 465.193 160.392C464.809 157.606 465.027 154.996 465.845 152.562C466.696 150.106 467.956 147.883 469.626 145.895C471.296 143.907 473.167 142.221 475.241 140.839C477.251 139.499 479.501 138.483 481.99 137.792C484.532 137.111 487.122 136.882 489.76 137.105C492.419 137.36 494.978 138.188 497.435 139.591C499.893 140.994 502.068 143.115 503.962 145.953C505.898 148.855 507.042 151.71 507.394 154.516C507.745 157.323 507.49 159.981 506.629 162.49C505.8 164.978 504.577 167.221 502.961 169.22C501.365 171.251 499.563 172.936 497.553 174.276C495.574 175.595 493.33 176.584 490.82 177.244C488.331 177.935 485.741 178.164 483.05 177.931C480.412 177.708 477.848 176.906 475.359 175.524C472.901 174.121 470.726 172 468.832 169.162ZM472.677 167.359C473.783 169.018 475.108 170.139 476.65 170.724C478.225 171.287 479.889 171.467 481.644 171.265C483.4 171.063 485.139 170.595 486.862 169.861C488.617 169.106 490.228 168.239 491.696 167.261C493.897 165.793 495.78 164.262 497.343 162.667C498.907 161.072 500.076 159.44 500.853 157.771C501.661 156.08 502.001 154.379 501.873 152.667C501.798 150.966 501.192 149.297 500.053 147.66C498.936 146.055 497.574 144.982 495.968 144.44C494.394 143.876 492.713 143.707 490.926 143.93C489.171 144.132 487.416 144.611 485.661 145.366C483.906 146.121 482.295 146.988 480.827 147.966C479.327 148.966 477.838 150.189 476.36 151.635C474.903 153.113 473.669 154.718 472.659 156.452C471.649 158.185 471.096 159.981 471.001 161.842C470.905 163.702 471.464 165.542 472.677 167.359Z" fill="#F4F3F2"/>
<path d="M481.246 187.007L484.724 185.486C485.113 186.279 485.51 186.9 485.917 187.35C486.338 187.835 486.927 188.08 487.682 188.084C488.453 188.124 489.541 187.836 490.947 187.221L511.133 178.395C512.081 177.98 513.003 177.598 513.896 177.249C514.806 176.935 515.496 176.696 515.968 176.531C515.687 175.985 515.345 175.298 514.941 174.47C514.572 173.627 514.285 173.02 514.081 172.65L518.139 170.875C519.235 173.283 520.313 175.698 521.374 178.121C522.45 180.58 523.536 183.013 524.632 185.421C526.512 189.619 527.181 193.301 526.641 196.466C526.151 199.651 524.252 201.862 520.942 203.1C519.893 203.476 518.753 203.597 517.523 203.466C516.329 203.319 515.099 202.852 513.834 202.067C512.584 201.316 511.37 200.215 510.191 198.764L510.138 198.787C511.113 202.545 511.066 205.641 509.996 208.075C508.962 210.494 507.356 212.18 505.177 213.132C502.893 214.131 500.715 214.414 498.642 213.981C496.619 213.569 494.781 212.573 493.127 210.995C491.509 209.402 490.162 207.376 489.086 204.918L481.246 187.007ZM489.876 196.539C490.153 197.171 490.414 197.768 490.66 198.33C490.906 198.892 491.152 199.454 491.398 200.015C491.679 200.562 491.935 201.099 492.166 201.625C493.209 203.721 494.578 204.985 496.273 205.415C497.969 205.845 499.783 205.638 501.715 204.793C503.331 204.086 504.45 203.199 505.072 202.132C505.728 201.05 506.019 199.898 505.945 198.675C505.885 197.488 505.61 196.332 505.118 195.209C504.733 194.331 504.403 193.576 504.126 192.943C503.85 192.311 503.54 191.652 503.197 190.965L494.606 194.721C493.658 195.136 492.754 195.51 491.895 195.844C491.037 196.178 490.364 196.409 489.876 196.539ZM506.939 189.329L508.191 192.045C508.872 193.504 509.713 194.517 510.714 195.084C511.731 195.685 512.843 195.931 514.051 195.821C515.31 195.731 516.571 195.409 517.836 194.856C519.242 194.242 520.208 193.485 520.735 192.585C521.297 191.669 521.569 190.713 521.552 189.717C521.534 188.721 521.308 187.773 520.873 186.876C520.627 186.314 520.317 185.843 519.941 185.463C519.565 185.084 519 184.892 518.245 184.887C517.524 184.867 516.479 185.157 515.109 185.756L506.939 189.329Z" fill="#F4F3F2"/>
<path d="M513.453 234.823C515.011 234.415 516.061 233.883 516.602 233.226C517.181 232.559 517.451 231.775 517.413 230.874C517.385 230.009 517.221 229.081 516.921 228.09L516.487 226.658L507.36 229.047C506.358 229.31 505.407 229.539 504.507 229.735C503.607 229.931 502.906 230.055 502.404 230.107L504.357 237.56C504.649 238.673 505.172 239.685 505.926 240.597C506.718 241.499 507.776 242.134 509.101 242.5C510.463 242.857 512.146 242.773 514.149 242.248L515.097 245.864L502.781 248.791L495.085 219.422L498.758 218.461C499.019 219.304 499.314 219.979 499.646 220.487C499.987 221.032 500.53 221.365 501.276 221.487C502.031 221.646 503.15 221.531 504.634 221.143L525.949 215.563C526.951 215.301 527.92 215.067 528.857 214.861C529.804 214.693 530.524 214.564 531.016 214.475C530.823 213.891 530.592 213.159 530.322 212.279C530.088 211.389 529.9 210.745 529.756 210.347L534.041 209.225L541.328 237.036L530.62 240.196L529.658 236.525C531.698 235.991 533.145 235.235 534 234.259C534.854 233.282 535.312 232.231 535.374 231.106C535.473 229.97 535.372 228.907 535.073 227.915L534.493 225.927C534.289 225.149 534.002 224.51 533.634 224.012C533.303 223.505 532.746 223.195 531.963 223.083C531.218 222.961 530.121 223.089 528.674 223.468L520.327 225.653L522.032 232.161L526.815 230.671L527.938 234.954L514.414 238.494L513.453 234.823Z" fill="#F4F3F2"/>
<path d="M64.9924 310.274C64.9924 315.435 60.8071 319.618 55.6441 319.618C50.4812 319.618 46.2958 315.435 46.2958 310.274C46.2958 305.114 50.4812 300.931 55.6441 300.931C60.8071 300.931 64.9924 305.114 64.9924 310.274Z" fill="#F4F3F2"/>
<path d="M532.409 310.274C532.409 315.435 528.223 319.618 523.06 319.618C517.897 319.618 513.712 315.435 513.712 310.274C513.712 305.114 517.897 300.931 523.06 300.931C528.223 300.931 532.409 305.114 532.409 310.274Z" fill="#F4F3F2"/>
</svg>
